M48
; DRILL file KiCad 10.0.3 date 2026-05-28T20:07:32
; FORMAT={-:-/ absolute / metric / decimal}
; #@! TF.CreationDate,2026-05-28T20:07:32+10:00
; #@! TF.GenerationSoftware,Kicad,Pcbnew,10.0.3
; #@! TF.FileFunction,Plated,1,2,PTH
FMAT,2
METRIC
; #@! TA.AperFunction,Plated,PTH,ComponentDrill
T1C0.200
; #@! TA.AperFunction,Plated,PTH,ViaDrill
T2C0.300
; #@! TA.AperFunction,Plated,PTH,ComponentDrill
T3C1.000
; #@! TA.AperFunction,Plated,PTH,ComponentDrill
T4C1.100
%
G90
G05
T1
X125.6Y-98.3
X125.6Y-99.5
X125.6Y-100.7
X127.0Y-98.3
X127.0Y-99.5
X127.0Y-100.7
T2
X95.1Y-51.9
X96.8Y-51.4
X96.94Y-70.94
X98.9Y-73.48
X100.0Y-41.1
X105.0Y-92.0
X106.12Y-92.0
X120.2Y-101.0
X121.882Y-97.802
X131.707Y-63.32
X132.1Y-56.2
X132.5Y-93.3
X135.4Y-48.0
T3
X87.62Y-35.5
X90.16Y-35.5
X92.7Y-35.5
X95.24Y-35.5
X110.22Y-32.84
X110.22Y-35.38
X110.22Y-37.92
X110.22Y-40.46
X110.22Y-43.0
X110.22Y-45.54
X110.22Y-48.08
X110.22Y-50.62
X110.22Y-53.16
X110.22Y-55.7
X110.22Y-58.24
X110.22Y-60.78
X110.22Y-63.32
X110.22Y-65.86
X110.22Y-68.4
X110.22Y-70.94
X110.22Y-73.48
X110.22Y-76.02
X110.22Y-78.56
X110.22Y-81.1
X128.0Y-32.84
X128.0Y-35.38
X128.0Y-37.92
X128.0Y-40.46
X128.0Y-43.0
X128.0Y-45.54
X128.0Y-48.08
X128.0Y-50.62
X128.0Y-53.16
X128.0Y-55.7
X128.0Y-58.24
X128.0Y-60.78
X128.0Y-63.32
X128.0Y-65.86
X128.0Y-68.4
X128.0Y-70.94
X128.0Y-73.48
X128.0Y-76.02
X128.0Y-78.56
X128.0Y-81.1
T4
X61.05Y-122.2
X61.05Y-126.7
X61.05Y-137.45
X61.05Y-141.95
X61.05Y-151.95
X61.05Y-156.45
X61.05Y-167.45
X61.05Y-171.95
X63.85Y-98.3
X63.85Y-102.8
X67.55Y-122.2
X67.55Y-126.7
X67.55Y-137.45
X67.55Y-141.95
X67.55Y-151.95
X67.55Y-156.45
X67.55Y-167.45
X67.55Y-171.95
X70.35Y-98.3
X70.35Y-102.8
X75.95Y-89.65
X75.95Y-94.15
X76.05Y-98.35
X76.05Y-102.85
X76.05Y-106.95
X76.05Y-111.45
X76.05Y-122.2
X76.05Y-126.7
X76.05Y-137.45
X76.05Y-141.95
X76.05Y-151.95
X76.05Y-156.45
X76.05Y-167.45
X76.05Y-171.95
X82.45Y-89.65
X82.45Y-94.15
X82.55Y-98.35
X82.55Y-102.85
X82.55Y-106.95
X82.55Y-111.45
X82.55Y-122.2
X82.55Y-126.7
X82.55Y-137.45
X82.55Y-141.95
X82.55Y-151.95
X82.55Y-156.45
X82.55Y-167.45
X82.55Y-171.95
X88.45Y-98.35
X88.45Y-102.85
X91.05Y-122.2
X91.05Y-126.7
X91.05Y-137.45
X91.05Y-141.95
X91.05Y-152.45
X91.05Y-156.95
X91.05Y-167.45
X91.05Y-171.95
X94.95Y-98.35
X94.95Y-102.85
X97.55Y-122.2
X97.55Y-126.7
X97.55Y-137.45
X97.55Y-141.95
X97.55Y-152.45
X97.55Y-156.95
X97.55Y-167.45
X97.55Y-171.95
X106.05Y-122.2
X106.05Y-126.7
X106.05Y-137.45
X106.05Y-141.95
X106.05Y-152.45
X106.05Y-156.95
X106.05Y-167.45
X106.05Y-171.95
X112.55Y-122.2
X112.55Y-126.7
X112.55Y-137.45
X112.55Y-141.95
X112.55Y-152.45
X112.55Y-156.95
X112.55Y-167.45
X112.55Y-171.95
X121.05Y-122.2
X121.05Y-126.7
X121.05Y-137.45
X121.05Y-141.95
X121.05Y-152.45
X121.05Y-156.95
X121.05Y-167.45
X121.05Y-171.95
X127.55Y-122.2
X127.55Y-126.7
X127.55Y-137.45
X127.55Y-141.95
X127.55Y-152.45
X127.55Y-156.95
X127.55Y-167.45
X127.55Y-171.95
M30
