%TF.GenerationSoftware,KiCad,Pcbnew,10.0.3*%
%TF.CreationDate,2026-05-28T20:07:26+10:00*%
%TF.ProjectId,yes_sir_this_is_a_calculator,7965735f-7369-4725-9f74-6869735f6973,rev?*%
%TF.SameCoordinates,Original*%
%TF.FileFunction,Soldermask,Top*%
%TF.FilePolarity,Negative*%
%FSLAX46Y46*%
G04 Gerber Fmt 4.6, Leading zero omitted, Abs format (unit mm)*
G04 Created by KiCad (PCBNEW 10.0.3) date 2026-05-28 20:07:26*
%MOMM*%
%LPD*%
G01*
G04 APERTURE LIST*
G04 Aperture macros list*
%AMRoundRect*
0 Rectangle with rounded corners*
0 $1 Rounding radius*
0 $2 $3 $4 $5 $6 $7 $8 $9 X,Y pos of 4 corners*
0 Add a 4 corners polygon primitive as box body*
4,1,4,$2,$3,$4,$5,$6,$7,$8,$9,$2,$3,0*
0 Add four circle primitives for the rounded corners*
1,1,$1+$1,$2,$3*
1,1,$1+$1,$4,$5*
1,1,$1+$1,$6,$7*
1,1,$1+$1,$8,$9*
0 Add four rect primitives between the rounded corners*
20,1,$1+$1,$2,$3,$4,$5,0*
20,1,$1+$1,$4,$5,$6,$7,0*
20,1,$1+$1,$6,$7,$8,$9,0*
20,1,$1+$1,$8,$9,$2,$3,0*%
%AMFreePoly0*
4,1,37,0.800000,0.796148,0.878414,0.796148,1.032228,0.765552,1.177117,0.705537,1.307515,0.618408,1.418408,0.507515,1.505537,0.377117,1.565552,0.232228,1.596148,0.078414,1.596148,-0.078414,1.565552,-0.232228,1.505537,-0.377117,1.418408,-0.507515,1.307515,-0.618408,1.177117,-0.705537,1.032228,-0.765552,0.878414,-0.796148,0.800000,-0.796148,0.800000,-0.800000,-1.400000,-0.800000,
-1.403843,-0.796157,-1.439018,-0.796157,-1.511114,-0.766294,-1.566294,-0.711114,-1.596157,-0.639018,-1.596157,-0.603843,-1.600000,-0.600000,-1.600000,0.600000,-1.596157,0.603843,-1.596157,0.639018,-1.566294,0.711114,-1.511114,0.766294,-1.439018,0.796157,-1.403843,0.796157,-1.400000,0.800000,0.800000,0.800000,0.800000,0.796148,0.800000,0.796148,$1*%
%AMFreePoly1*
4,1,37,1.403843,0.796157,1.439018,0.796157,1.511114,0.766294,1.566294,0.711114,1.596157,0.639018,1.596157,0.603843,1.600000,0.600000,1.600000,-0.600000,1.596157,-0.603843,1.596157,-0.639018,1.566294,-0.711114,1.511114,-0.766294,1.439018,-0.796157,1.403843,-0.796157,1.400000,-0.800000,-0.800000,-0.800000,-0.800000,-0.796148,-0.878414,-0.796148,-1.032228,-0.765552,-1.177117,-0.705537,
-1.307515,-0.618408,-1.418408,-0.507515,-1.505537,-0.377117,-1.565552,-0.232228,-1.596148,-0.078414,-1.596148,0.078414,-1.565552,0.232228,-1.505537,0.377117,-1.418408,0.507515,-1.307515,0.618408,-1.177117,0.705537,-1.032228,0.765552,-0.878414,0.796148,-0.800000,0.796148,-0.800000,0.800000,1.400000,0.800000,1.403843,0.796157,1.403843,0.796157,$1*%
%AMFreePoly2*
4,1,37,0.603843,0.796157,0.639018,0.796157,0.711114,0.766294,0.766294,0.711114,0.796157,0.639018,0.796157,0.603843,0.800000,0.600000,0.800000,-0.600000,0.796157,-0.603843,0.796157,-0.639018,0.766294,-0.711114,0.711114,-0.766294,0.639018,-0.796157,0.603843,-0.796157,0.600000,-0.800000,0.000000,-0.800000,0.000000,-0.796148,-0.078414,-0.796148,-0.232228,-0.765552,-0.377117,-0.705537,
-0.507515,-0.618408,-0.618408,-0.507515,-0.705537,-0.377117,-0.765552,-0.232228,-0.796148,-0.078414,-0.796148,0.078414,-0.765552,0.232228,-0.705537,0.377117,-0.618408,0.507515,-0.507515,0.618408,-0.377117,0.705537,-0.232228,0.765552,-0.078414,0.796148,0.000000,0.796148,0.000000,0.800000,0.600000,0.800000,0.603843,0.796157,0.603843,0.796157,$1*%
%AMFreePoly3*
4,1,37,0.000000,0.796148,0.078414,0.796148,0.232228,0.765552,0.377117,0.705537,0.507515,0.618408,0.618408,0.507515,0.705537,0.377117,0.765552,0.232228,0.796148,0.078414,0.796148,-0.078414,0.765552,-0.232228,0.705537,-0.377117,0.618408,-0.507515,0.507515,-0.618408,0.377117,-0.705537,0.232228,-0.765552,0.078414,-0.796148,0.000000,-0.796148,0.000000,-0.800000,-0.600000,-0.800000,
-0.603843,-0.796157,-0.639018,-0.796157,-0.711114,-0.766294,-0.766294,-0.711114,-0.796157,-0.639018,-0.796157,-0.603843,-0.800000,-0.600000,-0.800000,0.600000,-0.796157,0.603843,-0.796157,0.639018,-0.766294,0.711114,-0.711114,0.766294,-0.639018,0.796157,-0.603843,0.796157,-0.600000,0.800000,0.000000,0.800000,0.000000,0.796148,0.000000,0.796148,$1*%
G04 Aperture macros list end*
%ADD10RoundRect,0.135000X-0.185000X0.135000X-0.185000X-0.135000X0.185000X-0.135000X0.185000X0.135000X0*%
%ADD11C,2.000000*%
%ADD12RoundRect,0.225000X-0.375000X0.225000X-0.375000X-0.225000X0.375000X-0.225000X0.375000X0.225000X0*%
%ADD13RoundRect,0.150000X-0.825000X-0.150000X0.825000X-0.150000X0.825000X0.150000X-0.825000X0.150000X0*%
%ADD14R,2.410000X3.300000*%
%ADD15C,2.200000*%
%ADD16C,3.000000*%
%ADD17RoundRect,0.135000X0.135000X0.185000X-0.135000X0.185000X-0.135000X-0.185000X0.135000X-0.185000X0*%
%ADD18R,1.000000X0.800000*%
%ADD19C,0.900000*%
%ADD20R,0.700000X1.500000*%
%ADD21C,1.850000*%
%ADD22FreePoly0,0.000000*%
%ADD23RoundRect,0.200000X-0.600000X-0.600000X0.600000X-0.600000X0.600000X0.600000X-0.600000X0.600000X0*%
%ADD24RoundRect,0.800000X-0.800000X-0.000010X0.800000X-0.000010X0.800000X0.000010X-0.800000X0.000010X0*%
%ADD25C,1.600000*%
%ADD26FreePoly1,0.000000*%
%ADD27FreePoly2,0.000000*%
%ADD28FreePoly3,0.000000*%
%ADD29R,1.700000X1.700000*%
%ADD30C,1.700000*%
%ADD31RoundRect,0.147500X-0.147500X-0.172500X0.147500X-0.172500X0.147500X0.172500X-0.147500X0.172500X0*%
%ADD32RoundRect,0.140000X-0.140000X-0.170000X0.140000X-0.170000X0.140000X0.170000X-0.140000X0.170000X0*%
%ADD33RoundRect,0.150000X0.150000X-0.587500X0.150000X0.587500X-0.150000X0.587500X-0.150000X-0.587500X0*%
G04 APERTURE END LIST*
D10*
%TO.C,R2*%
X135500000Y-43480000D03*
X135500000Y-44500000D03*
%TD*%
D11*
%TO.C,SW25*%
X106050000Y-167450000D03*
X112550000Y-167450000D03*
X106050000Y-171950000D03*
X112550000Y-171950000D03*
%TD*%
%TO.C,SW18*%
X76050000Y-151950000D03*
X82550000Y-151950000D03*
X76050000Y-156450000D03*
X82550000Y-156450000D03*
%TD*%
D12*
%TO.C,D10*%
X100500000Y-123850000D03*
X100500000Y-127150000D03*
%TD*%
%TO.C,D23*%
X70500000Y-169350000D03*
X70500000Y-172650000D03*
%TD*%
D13*
%TO.C,U1*%
X123825000Y-97595000D03*
X123825000Y-98865000D03*
X123825000Y-100135000D03*
X123825000Y-101405000D03*
X128775000Y-101405000D03*
X128775000Y-100135000D03*
X128775000Y-98865000D03*
X128775000Y-97595000D03*
D14*
X126300000Y-99500000D03*
%TD*%
D11*
%TO.C,SW10*%
X106050000Y-122200000D03*
X112550000Y-122200000D03*
X106050000Y-126700000D03*
X112550000Y-126700000D03*
%TD*%
D12*
%TO.C,D1*%
X85400000Y-91400000D03*
X85400000Y-94700000D03*
%TD*%
D11*
%TO.C,SW6*%
X76050000Y-106950000D03*
X82550000Y-106950000D03*
X76050000Y-111450000D03*
X82550000Y-111450000D03*
%TD*%
D10*
%TO.C,R5*%
X133400000Y-58890000D03*
X133400000Y-59910000D03*
%TD*%
D15*
%TO.C,H3*%
X60000000Y-176000000D03*
%TD*%
D12*
%TO.C,D8*%
X70500000Y-123850000D03*
X70500000Y-127150000D03*
%TD*%
%TO.C,D15*%
X100500000Y-139350000D03*
X100500000Y-142650000D03*
%TD*%
%TO.C,D19*%
X85500000Y-153850000D03*
X85500000Y-157150000D03*
%TD*%
D16*
%TO.C,TP2*%
X132500000Y-91000000D03*
%TD*%
D17*
%TO.C,R3*%
X122010000Y-99000000D03*
X120990000Y-99000000D03*
%TD*%
D12*
%TO.C,D5*%
X85500000Y-100250000D03*
X85500000Y-103550000D03*
%TD*%
D11*
%TO.C,SW7*%
X61050000Y-122200000D03*
X67550000Y-122200000D03*
X61050000Y-126700000D03*
X67550000Y-126700000D03*
%TD*%
D12*
%TO.C,D13*%
X70500000Y-139350000D03*
X70500000Y-142650000D03*
%TD*%
D15*
%TO.C,H2*%
X133500000Y-35000000D03*
%TD*%
D12*
%TO.C,D9*%
X85500000Y-123850000D03*
X85500000Y-127150000D03*
%TD*%
%TO.C,D12*%
X130500000Y-123850000D03*
X130500000Y-127150000D03*
%TD*%
D11*
%TO.C,SW15*%
X106050000Y-137450000D03*
X112550000Y-137450000D03*
X106050000Y-141950000D03*
X112550000Y-141950000D03*
%TD*%
%TO.C,SW4*%
X76050000Y-98350000D03*
X82550000Y-98350000D03*
X76050000Y-102850000D03*
X82550000Y-102850000D03*
%TD*%
D12*
%TO.C,D18*%
X70500000Y-153850000D03*
X70500000Y-157150000D03*
%TD*%
%TO.C,D4*%
X73300000Y-100050000D03*
X73300000Y-103350000D03*
%TD*%
%TO.C,D27*%
X130500000Y-169350000D03*
X130500000Y-172650000D03*
%TD*%
D11*
%TO.C,SW2*%
X75950000Y-89650000D03*
X82450000Y-89650000D03*
X75950000Y-94150000D03*
X82450000Y-94150000D03*
%TD*%
%TO.C,SW9*%
X91050000Y-122200000D03*
X97550000Y-122200000D03*
X91050000Y-126700000D03*
X97550000Y-126700000D03*
%TD*%
D18*
%TO.C,SW1*%
X117250000Y-89710000D03*
X117250000Y-87500000D03*
D19*
X115100000Y-88600000D03*
X112100000Y-88600000D03*
D18*
X109950000Y-89710000D03*
X109950000Y-87500000D03*
D20*
X115850000Y-90360000D03*
X112850000Y-90360000D03*
X111350000Y-90360000D03*
%TD*%
D12*
%TO.C,D22*%
X130500000Y-154350000D03*
X130500000Y-157650000D03*
%TD*%
%TO.C,D24*%
X85500000Y-169350000D03*
X85500000Y-172650000D03*
%TD*%
D11*
%TO.C,SW20*%
X106050000Y-152450000D03*
X112550000Y-152450000D03*
X106050000Y-156950000D03*
X112550000Y-156950000D03*
%TD*%
D15*
%TO.C,A1*%
X116385000Y-32970000D03*
D21*
X116685000Y-36000000D03*
X121535000Y-36000000D03*
D15*
X121835000Y-32970000D03*
D22*
X109420000Y-32840000D03*
D23*
X110220000Y-32840000D03*
D24*
X109420000Y-35380000D03*
D25*
X110220000Y-35380000D03*
D26*
X109420000Y-37920000D03*
D27*
X110220000Y-37920000D03*
D24*
X109420000Y-40460000D03*
D25*
X110220000Y-40460000D03*
D24*
X109420000Y-43000000D03*
D25*
X110220000Y-43000000D03*
D24*
X109420000Y-45540000D03*
D25*
X110220000Y-45540000D03*
D24*
X109420000Y-48080000D03*
D25*
X110220000Y-48080000D03*
D26*
X109420000Y-50620000D03*
D27*
X110220000Y-50620000D03*
D24*
X109420000Y-53160000D03*
D25*
X110220000Y-53160000D03*
D24*
X109420000Y-55700000D03*
D25*
X110220000Y-55700000D03*
D24*
X109420000Y-58240000D03*
D25*
X110220000Y-58240000D03*
D24*
X109420000Y-60780000D03*
D25*
X110220000Y-60780000D03*
D26*
X109420000Y-63320000D03*
D27*
X110220000Y-63320000D03*
D24*
X109420000Y-65860000D03*
D25*
X110220000Y-65860000D03*
D24*
X109420000Y-68400000D03*
D25*
X110220000Y-68400000D03*
D24*
X109420000Y-70940000D03*
D25*
X110220000Y-70940000D03*
D24*
X109420000Y-73480000D03*
D25*
X110220000Y-73480000D03*
D26*
X109420000Y-76020000D03*
D27*
X110220000Y-76020000D03*
D24*
X109420000Y-78560000D03*
D25*
X110220000Y-78560000D03*
D24*
X109420000Y-81100000D03*
D25*
X110220000Y-81100000D03*
X128000000Y-81100000D03*
D24*
X128800000Y-81100000D03*
D25*
X128000000Y-78560000D03*
D24*
X128800000Y-78560000D03*
D28*
X128000000Y-76020000D03*
D22*
X128800000Y-76020000D03*
D25*
X128000000Y-73480000D03*
D24*
X128800000Y-73480000D03*
D25*
X128000000Y-70940000D03*
D24*
X128800000Y-70940000D03*
D25*
X128000000Y-68400000D03*
D24*
X128800000Y-68400000D03*
D25*
X128000000Y-65860000D03*
D24*
X128800000Y-65860000D03*
D28*
X128000000Y-63320000D03*
D22*
X128800000Y-63320000D03*
D25*
X128000000Y-60780000D03*
D24*
X128800000Y-60780000D03*
D25*
X128000000Y-58240000D03*
D24*
X128800000Y-58240000D03*
D25*
X128000000Y-55700000D03*
D24*
X128800000Y-55700000D03*
D25*
X128000000Y-53160000D03*
D24*
X128800000Y-53160000D03*
D28*
X128000000Y-50620000D03*
D22*
X128800000Y-50620000D03*
D25*
X128000000Y-48080000D03*
D24*
X128800000Y-48080000D03*
D25*
X128000000Y-45540000D03*
D24*
X128800000Y-45540000D03*
D25*
X128000000Y-43000000D03*
D24*
X128800000Y-43000000D03*
D25*
X128000000Y-40460000D03*
D24*
X128800000Y-40460000D03*
D28*
X128000000Y-37920000D03*
D22*
X128800000Y-37920000D03*
D25*
X128000000Y-35380000D03*
D24*
X128800000Y-35380000D03*
D25*
X128000000Y-32840000D03*
D24*
X128800000Y-32840000D03*
%TD*%
D11*
%TO.C,SW16*%
X121050000Y-137450000D03*
X127550000Y-137450000D03*
X121050000Y-141950000D03*
X127550000Y-141950000D03*
%TD*%
%TO.C,SW22*%
X61050000Y-167450000D03*
X67550000Y-167450000D03*
X61050000Y-171950000D03*
X67550000Y-171950000D03*
%TD*%
D12*
%TO.C,D6*%
X97900000Y-100250000D03*
X97900000Y-103550000D03*
%TD*%
D11*
%TO.C,SW3*%
X63850000Y-98300000D03*
X70350000Y-98300000D03*
X63850000Y-102800000D03*
X70350000Y-102800000D03*
%TD*%
D10*
%TO.C,R1*%
X133000000Y-43490000D03*
X133000000Y-44510000D03*
%TD*%
D12*
%TO.C,D11*%
X115500000Y-123850000D03*
X115500000Y-127150000D03*
%TD*%
D11*
%TO.C,SW11*%
X121050000Y-122200000D03*
X127550000Y-122200000D03*
X121050000Y-126700000D03*
X127550000Y-126700000D03*
%TD*%
D29*
%TO.C,J1*%
X87620000Y-35500000D03*
D30*
X90160000Y-35500000D03*
X92700000Y-35500000D03*
X95240000Y-35500000D03*
%TD*%
D11*
%TO.C,SW8*%
X76050000Y-122200000D03*
X82550000Y-122200000D03*
X76050000Y-126700000D03*
X82550000Y-126700000D03*
%TD*%
%TO.C,SW5*%
X88450000Y-98350000D03*
X94950000Y-98350000D03*
X88450000Y-102850000D03*
X94950000Y-102850000D03*
%TD*%
D12*
%TO.C,D26*%
X115500000Y-169350000D03*
X115500000Y-172650000D03*
%TD*%
D11*
%TO.C,SW12*%
X61050000Y-137450000D03*
X67550000Y-137450000D03*
X61050000Y-141950000D03*
X67550000Y-141950000D03*
%TD*%
D16*
%TO.C,TP1*%
X127500000Y-91000000D03*
%TD*%
D15*
%TO.C,H4*%
X133500000Y-176000000D03*
%TD*%
D12*
%TO.C,D16*%
X115500000Y-139350000D03*
X115500000Y-142650000D03*
%TD*%
D11*
%TO.C,SW19*%
X91050000Y-152450000D03*
X97550000Y-152450000D03*
X91050000Y-156950000D03*
X97550000Y-156950000D03*
%TD*%
D12*
%TO.C,D20*%
X100500000Y-154350000D03*
X100500000Y-157650000D03*
%TD*%
D10*
%TO.C,R4*%
X133400000Y-55800000D03*
X133400000Y-56820000D03*
%TD*%
D31*
%TO.C,D2*%
X135015000Y-41500000D03*
X135985000Y-41500000D03*
%TD*%
D11*
%TO.C,SW26*%
X121050000Y-167450000D03*
X127550000Y-167450000D03*
X121050000Y-171950000D03*
X127550000Y-171950000D03*
%TD*%
%TO.C,SW23*%
X76050000Y-167450000D03*
X82550000Y-167450000D03*
X76050000Y-171950000D03*
X82550000Y-171950000D03*
%TD*%
D12*
%TO.C,D14*%
X85500000Y-139350000D03*
X85500000Y-142650000D03*
%TD*%
%TO.C,D7*%
X85500000Y-108850000D03*
X85500000Y-112150000D03*
%TD*%
D32*
%TO.C,C1*%
X121020000Y-101500000D03*
X121980000Y-101500000D03*
%TD*%
D11*
%TO.C,SW17*%
X61050000Y-151950000D03*
X67550000Y-151950000D03*
X61050000Y-156450000D03*
X67550000Y-156450000D03*
%TD*%
D31*
%TO.C,D3*%
X135015000Y-39500000D03*
X135985000Y-39500000D03*
%TD*%
D11*
%TO.C,SW21*%
X121050000Y-152450000D03*
X127550000Y-152450000D03*
X121050000Y-156950000D03*
X127550000Y-156950000D03*
%TD*%
D15*
%TO.C,H1*%
X60000000Y-35000000D03*
%TD*%
D33*
%TO.C,Q1*%
X120550000Y-91000000D03*
X122450000Y-91000000D03*
X121500000Y-89125000D03*
%TD*%
D11*
%TO.C,SW24*%
X91050000Y-167450000D03*
X97550000Y-167450000D03*
X91050000Y-171950000D03*
X97550000Y-171950000D03*
%TD*%
D12*
%TO.C,D25*%
X100500000Y-169350000D03*
X100500000Y-172650000D03*
%TD*%
D11*
%TO.C,SW13*%
X76050000Y-137450000D03*
X82550000Y-137450000D03*
X76050000Y-141950000D03*
X82550000Y-141950000D03*
%TD*%
D12*
%TO.C,D17*%
X130500000Y-139350000D03*
X130500000Y-142650000D03*
%TD*%
%TO.C,D21*%
X115500000Y-154200000D03*
X115500000Y-157500000D03*
%TD*%
D11*
%TO.C,SW14*%
X91050000Y-137450000D03*
X97550000Y-137450000D03*
X91050000Y-141950000D03*
X97550000Y-141950000D03*
%TD*%
M02*
