%TF.GenerationSoftware,KiCad,Pcbnew,10.0.3*%
%TF.CreationDate,2026-05-28T20:07:26+10:00*%
%TF.ProjectId,yes_sir_this_is_a_calculator,7965735f-7369-4725-9f74-6869735f6973,rev?*%
%TF.SameCoordinates,Original*%
%TF.FileFunction,Copper,L1,Top*%
%TF.FilePolarity,Positive*%
%FSLAX46Y46*%
G04 Gerber Fmt 4.6, Leading zero omitted, Abs format (unit mm)*
G04 Created by KiCad (PCBNEW 10.0.3) date 2026-05-28 20:07:26*
%MOMM*%
%LPD*%
G01*
G04 APERTURE LIST*
G04 Aperture macros list*
%AMRoundRect*
0 Rectangle with rounded corners*
0 $1 Rounding radius*
0 $2 $3 $4 $5 $6 $7 $8 $9 X,Y pos of 4 corners*
0 Add a 4 corners polygon primitive as box body*
4,1,4,$2,$3,$4,$5,$6,$7,$8,$9,$2,$3,0*
0 Add four circle primitives for the rounded corners*
1,1,$1+$1,$2,$3*
1,1,$1+$1,$4,$5*
1,1,$1+$1,$6,$7*
1,1,$1+$1,$8,$9*
0 Add four rect primitives between the rounded corners*
20,1,$1+$1,$2,$3,$4,$5,0*
20,1,$1+$1,$4,$5,$6,$7,0*
20,1,$1+$1,$6,$7,$8,$9,0*
20,1,$1+$1,$8,$9,$2,$3,0*%
%AMFreePoly0*
4,1,37,0.800000,0.796148,0.878414,0.796148,1.032228,0.765552,1.177117,0.705537,1.307515,0.618408,1.418408,0.507515,1.505537,0.377117,1.565552,0.232228,1.596148,0.078414,1.596148,-0.078414,1.565552,-0.232228,1.505537,-0.377117,1.418408,-0.507515,1.307515,-0.618408,1.177117,-0.705537,1.032228,-0.765552,0.878414,-0.796148,0.800000,-0.796148,0.800000,-0.800000,-1.400000,-0.800000,
-1.403843,-0.796157,-1.439018,-0.796157,-1.511114,-0.766294,-1.566294,-0.711114,-1.596157,-0.639018,-1.596157,-0.603843,-1.600000,-0.600000,-1.600000,0.600000,-1.596157,0.603843,-1.596157,0.639018,-1.566294,0.711114,-1.511114,0.766294,-1.439018,0.796157,-1.403843,0.796157,-1.400000,0.800000,0.800000,0.800000,0.800000,0.796148,0.800000,0.796148,$1*%
%AMFreePoly1*
4,1,37,1.403843,0.796157,1.439018,0.796157,1.511114,0.766294,1.566294,0.711114,1.596157,0.639018,1.596157,0.603843,1.600000,0.600000,1.600000,-0.600000,1.596157,-0.603843,1.596157,-0.639018,1.566294,-0.711114,1.511114,-0.766294,1.439018,-0.796157,1.403843,-0.796157,1.400000,-0.800000,-0.800000,-0.800000,-0.800000,-0.796148,-0.878414,-0.796148,-1.032228,-0.765552,-1.177117,-0.705537,
-1.307515,-0.618408,-1.418408,-0.507515,-1.505537,-0.377117,-1.565552,-0.232228,-1.596148,-0.078414,-1.596148,0.078414,-1.565552,0.232228,-1.505537,0.377117,-1.418408,0.507515,-1.307515,0.618408,-1.177117,0.705537,-1.032228,0.765552,-0.878414,0.796148,-0.800000,0.796148,-0.800000,0.800000,1.400000,0.800000,1.403843,0.796157,1.403843,0.796157,$1*%
%AMFreePoly2*
4,1,37,0.603843,0.796157,0.639018,0.796157,0.711114,0.766294,0.766294,0.711114,0.796157,0.639018,0.796157,0.603843,0.800000,0.600000,0.800000,-0.600000,0.796157,-0.603843,0.796157,-0.639018,0.766294,-0.711114,0.711114,-0.766294,0.639018,-0.796157,0.603843,-0.796157,0.600000,-0.800000,0.000000,-0.800000,0.000000,-0.796148,-0.078414,-0.796148,-0.232228,-0.765552,-0.377117,-0.705537,
-0.507515,-0.618408,-0.618408,-0.507515,-0.705537,-0.377117,-0.765552,-0.232228,-0.796148,-0.078414,-0.796148,0.078414,-0.765552,0.232228,-0.705537,0.377117,-0.618408,0.507515,-0.507515,0.618408,-0.377117,0.705537,-0.232228,0.765552,-0.078414,0.796148,0.000000,0.796148,0.000000,0.800000,0.600000,0.800000,0.603843,0.796157,0.603843,0.796157,$1*%
%AMFreePoly3*
4,1,37,0.000000,0.796148,0.078414,0.796148,0.232228,0.765552,0.377117,0.705537,0.507515,0.618408,0.618408,0.507515,0.705537,0.377117,0.765552,0.232228,0.796148,0.078414,0.796148,-0.078414,0.765552,-0.232228,0.705537,-0.377117,0.618408,-0.507515,0.507515,-0.618408,0.377117,-0.705537,0.232228,-0.765552,0.078414,-0.796148,0.000000,-0.796148,0.000000,-0.800000,-0.600000,-0.800000,
-0.603843,-0.796157,-0.639018,-0.796157,-0.711114,-0.766294,-0.766294,-0.711114,-0.796157,-0.639018,-0.796157,-0.603843,-0.800000,-0.600000,-0.800000,0.600000,-0.796157,0.603843,-0.796157,0.639018,-0.766294,0.711114,-0.711114,0.766294,-0.639018,0.796157,-0.603843,0.796157,-0.600000,0.800000,0.000000,0.800000,0.000000,0.796148,0.000000,0.796148,$1*%
G04 Aperture macros list end*
%TA.AperFunction,SMDPad,CuDef*%
%ADD10RoundRect,0.135000X-0.185000X0.135000X-0.185000X-0.135000X0.185000X-0.135000X0.185000X0.135000X0*%
%TD*%
%TA.AperFunction,ComponentPad*%
%ADD11C,2.000000*%
%TD*%
%TA.AperFunction,SMDPad,CuDef*%
%ADD12RoundRect,0.225000X-0.375000X0.225000X-0.375000X-0.225000X0.375000X-0.225000X0.375000X0.225000X0*%
%TD*%
%TA.AperFunction,SMDPad,CuDef*%
%ADD13RoundRect,0.150000X-0.825000X-0.150000X0.825000X-0.150000X0.825000X0.150000X-0.825000X0.150000X0*%
%TD*%
%TA.AperFunction,HeatsinkPad*%
%ADD14C,0.500000*%
%TD*%
%TA.AperFunction,HeatsinkPad*%
%ADD15R,2.410000X3.300000*%
%TD*%
%TA.AperFunction,SMDPad,CuDef*%
%ADD16C,3.000000*%
%TD*%
%TA.AperFunction,SMDPad,CuDef*%
%ADD17RoundRect,0.135000X0.135000X0.185000X-0.135000X0.185000X-0.135000X-0.185000X0.135000X-0.185000X0*%
%TD*%
%TA.AperFunction,SMDPad,CuDef*%
%ADD18R,1.000000X0.800000*%
%TD*%
%TA.AperFunction,SMDPad,CuDef*%
%ADD19R,0.700000X1.500000*%
%TD*%
%TA.AperFunction,SMDPad,CuDef*%
%ADD20FreePoly0,0.000000*%
%TD*%
%TA.AperFunction,ComponentPad*%
%ADD21RoundRect,0.200000X-0.600000X-0.600000X0.600000X-0.600000X0.600000X0.600000X-0.600000X0.600000X0*%
%TD*%
%TA.AperFunction,SMDPad,CuDef*%
%ADD22RoundRect,0.800000X-0.800000X-0.000010X0.800000X-0.000010X0.800000X0.000010X-0.800000X0.000010X0*%
%TD*%
%TA.AperFunction,ComponentPad*%
%ADD23C,1.600000*%
%TD*%
%TA.AperFunction,SMDPad,CuDef*%
%ADD24FreePoly1,0.000000*%
%TD*%
%TA.AperFunction,ComponentPad*%
%ADD25FreePoly2,0.000000*%
%TD*%
%TA.AperFunction,ComponentPad*%
%ADD26FreePoly3,0.000000*%
%TD*%
%TA.AperFunction,ComponentPad*%
%ADD27R,1.700000X1.700000*%
%TD*%
%TA.AperFunction,ComponentPad*%
%ADD28C,1.700000*%
%TD*%
%TA.AperFunction,SMDPad,CuDef*%
%ADD29RoundRect,0.147500X-0.147500X-0.172500X0.147500X-0.172500X0.147500X0.172500X-0.147500X0.172500X0*%
%TD*%
%TA.AperFunction,SMDPad,CuDef*%
%ADD30RoundRect,0.140000X-0.140000X-0.170000X0.140000X-0.170000X0.140000X0.170000X-0.140000X0.170000X0*%
%TD*%
%TA.AperFunction,SMDPad,CuDef*%
%ADD31RoundRect,0.150000X0.150000X-0.587500X0.150000X0.587500X-0.150000X0.587500X-0.150000X-0.587500X0*%
%TD*%
%TA.AperFunction,ViaPad*%
%ADD32C,0.600000*%
%TD*%
%TA.AperFunction,Conductor*%
%ADD33C,0.200000*%
%TD*%
G04 APERTURE END LIST*
D10*
%TO.P,R2,1*%
%TO.N,Net-(D3-A)*%
X135500000Y-43480000D03*
%TO.P,R2,2*%
%TO.N,/CHRG*%
X135500000Y-44500000D03*
%TD*%
D11*
%TO.P,SW25,1,1*%
%TO.N,/COL4*%
X106050000Y-167450000D03*
X112550000Y-167450000D03*
%TO.P,SW25,2,2*%
%TO.N,Net-(D26-A)*%
X106050000Y-171950000D03*
X112550000Y-171950000D03*
%TD*%
%TO.P,SW18,1,1*%
%TO.N,/COL2*%
X76050000Y-151950000D03*
X82550000Y-151950000D03*
%TO.P,SW18,2,2*%
%TO.N,Net-(D19-A)*%
X76050000Y-156450000D03*
X82550000Y-156450000D03*
%TD*%
D12*
%TO.P,D10,1,K*%
%TO.N,/ROW4*%
X100500000Y-123850000D03*
%TO.P,D10,2,A*%
%TO.N,Net-(D10-A)*%
X100500000Y-127150000D03*
%TD*%
%TO.P,D23,1,K*%
%TO.N,/ROW7*%
X70500000Y-169350000D03*
%TO.P,D23,2,A*%
%TO.N,Net-(D23-A)*%
X70500000Y-172650000D03*
%TD*%
D13*
%TO.P,U1,1,TEMP*%
%TO.N,GND*%
X123825000Y-97595000D03*
%TO.P,U1,2,PROG*%
%TO.N,Net-(U1-PROG)*%
X123825000Y-98865000D03*
%TO.P,U1,3,GND*%
%TO.N,GND*%
X123825000Y-100135000D03*
%TO.P,U1,4,V_{CC}*%
%TO.N,/VBUS*%
X123825000Y-101405000D03*
%TO.P,U1,5,BAT*%
%TO.N,/BT+*%
X128775000Y-101405000D03*
%TO.P,U1,6,~{STDBY}*%
%TO.N,/STDBY*%
X128775000Y-100135000D03*
%TO.P,U1,7,~{CHRG}*%
%TO.N,/CHRG*%
X128775000Y-98865000D03*
%TO.P,U1,8,CE*%
%TO.N,/VBUS*%
X128775000Y-97595000D03*
D14*
%TO.P,U1,9,EPAD*%
%TO.N,GND*%
X125600000Y-98300000D03*
X125600000Y-99500000D03*
X125600000Y-100700000D03*
D15*
X126300000Y-99500000D03*
D14*
X127000000Y-98300000D03*
X127000000Y-99500000D03*
X127000000Y-100700000D03*
%TD*%
D11*
%TO.P,SW10,1,1*%
%TO.N,/COL4*%
X106050000Y-122200000D03*
X112550000Y-122200000D03*
%TO.P,SW10,2,2*%
%TO.N,Net-(D11-A)*%
X106050000Y-126700000D03*
X112550000Y-126700000D03*
%TD*%
D12*
%TO.P,D1,1,K*%
%TO.N,/ROW1*%
X85400000Y-91400000D03*
%TO.P,D1,2,A*%
%TO.N,Net-(D1-A)*%
X85400000Y-94700000D03*
%TD*%
D11*
%TO.P,SW6,1,1*%
%TO.N,/COL2*%
X76050000Y-106950000D03*
X82550000Y-106950000D03*
%TO.P,SW6,2,2*%
%TO.N,Net-(D7-A)*%
X76050000Y-111450000D03*
X82550000Y-111450000D03*
%TD*%
D10*
%TO.P,R5,1*%
%TO.N,Net-(A1-GPIO26_ADC0)*%
X133400000Y-58890000D03*
%TO.P,R5,2*%
%TO.N,GND*%
X133400000Y-59910000D03*
%TD*%
D12*
%TO.P,D8,1,K*%
%TO.N,/ROW4*%
X70500000Y-123850000D03*
%TO.P,D8,2,A*%
%TO.N,Net-(D8-A)*%
X70500000Y-127150000D03*
%TD*%
%TO.P,D15,1,K*%
%TO.N,/ROW5*%
X100500000Y-139350000D03*
%TO.P,D15,2,A*%
%TO.N,Net-(D15-A)*%
X100500000Y-142650000D03*
%TD*%
%TO.P,D19,1,K*%
%TO.N,/ROW6*%
X85500000Y-153850000D03*
%TO.P,D19,2,A*%
%TO.N,Net-(D19-A)*%
X85500000Y-157150000D03*
%TD*%
D16*
%TO.P,TP2,1,1*%
%TO.N,GND*%
X132500000Y-91000000D03*
%TD*%
D17*
%TO.P,R3,1*%
%TO.N,Net-(U1-PROG)*%
X122010000Y-99000000D03*
%TO.P,R3,2*%
%TO.N,GND*%
X120990000Y-99000000D03*
%TD*%
D12*
%TO.P,D5,1,K*%
%TO.N,/ROW2*%
X85500000Y-100250000D03*
%TO.P,D5,2,A*%
%TO.N,Net-(D5-A)*%
X85500000Y-103550000D03*
%TD*%
D11*
%TO.P,SW7,1,1*%
%TO.N,/COL1*%
X61050000Y-122200000D03*
X67550000Y-122200000D03*
%TO.P,SW7,2,2*%
%TO.N,Net-(D8-A)*%
X61050000Y-126700000D03*
X67550000Y-126700000D03*
%TD*%
D12*
%TO.P,D13,1,K*%
%TO.N,/ROW5*%
X70500000Y-139350000D03*
%TO.P,D13,2,A*%
%TO.N,Net-(D13-A)*%
X70500000Y-142650000D03*
%TD*%
%TO.P,D9,1,K*%
%TO.N,/ROW4*%
X85500000Y-123850000D03*
%TO.P,D9,2,A*%
%TO.N,Net-(D9-A)*%
X85500000Y-127150000D03*
%TD*%
%TO.P,D12,1,K*%
%TO.N,/ROW4*%
X130500000Y-123850000D03*
%TO.P,D12,2,A*%
%TO.N,Net-(D12-A)*%
X130500000Y-127150000D03*
%TD*%
D11*
%TO.P,SW15,1,1*%
%TO.N,/COL4*%
X106050000Y-137450000D03*
X112550000Y-137450000D03*
%TO.P,SW15,2,2*%
%TO.N,Net-(D16-A)*%
X106050000Y-141950000D03*
X112550000Y-141950000D03*
%TD*%
%TO.P,SW4,1,1*%
%TO.N,/COL2*%
X76050000Y-98350000D03*
X82550000Y-98350000D03*
%TO.P,SW4,2,2*%
%TO.N,Net-(D5-A)*%
X76050000Y-102850000D03*
X82550000Y-102850000D03*
%TD*%
D12*
%TO.P,D18,1,K*%
%TO.N,/ROW6*%
X70500000Y-153850000D03*
%TO.P,D18,2,A*%
%TO.N,Net-(D18-A)*%
X70500000Y-157150000D03*
%TD*%
%TO.P,D4,1,K*%
%TO.N,/ROW2*%
X73300000Y-100050000D03*
%TO.P,D4,2,A*%
%TO.N,Net-(D4-A)*%
X73300000Y-103350000D03*
%TD*%
%TO.P,D27,1,K*%
%TO.N,/ROW7*%
X130500000Y-169350000D03*
%TO.P,D27,2,A*%
%TO.N,Net-(D27-A)*%
X130500000Y-172650000D03*
%TD*%
D11*
%TO.P,SW2,1,1*%
%TO.N,/COL2*%
X75950000Y-89650000D03*
X82450000Y-89650000D03*
%TO.P,SW2,2,2*%
%TO.N,Net-(D1-A)*%
X75950000Y-94150000D03*
X82450000Y-94150000D03*
%TD*%
%TO.P,SW9,1,1*%
%TO.N,/COL3*%
X91050000Y-122200000D03*
X97550000Y-122200000D03*
%TO.P,SW9,2,2*%
%TO.N,Net-(D10-A)*%
X91050000Y-126700000D03*
X97550000Y-126700000D03*
%TD*%
D18*
%TO.P,SW1,*%
%TO.N,*%
X117250000Y-89710000D03*
X117250000Y-87500000D03*
X109950000Y-89710000D03*
X109950000Y-87500000D03*
D19*
%TO.P,SW1,1,A*%
%TO.N,Net-(Q1-D)*%
X115850000Y-90360000D03*
%TO.P,SW1,2,B*%
%TO.N,/BT+*%
X112850000Y-90360000D03*
%TO.P,SW1,3,C*%
%TO.N,unconnected-(SW1-C-Pad3)*%
X111350000Y-90360000D03*
%TD*%
D12*
%TO.P,D22,1,K*%
%TO.N,/ROW6*%
X130500000Y-154350000D03*
%TO.P,D22,2,A*%
%TO.N,Net-(D22-A)*%
X130500000Y-157650000D03*
%TD*%
%TO.P,D24,1,K*%
%TO.N,/ROW7*%
X85500000Y-169350000D03*
%TO.P,D24,2,A*%
%TO.N,Net-(D24-A)*%
X85500000Y-172650000D03*
%TD*%
D11*
%TO.P,SW20,1,1*%
%TO.N,/COL4*%
X106050000Y-152450000D03*
X112550000Y-152450000D03*
%TO.P,SW20,2,2*%
%TO.N,Net-(D21-A)*%
X106050000Y-156950000D03*
X112550000Y-156950000D03*
%TD*%
D20*
%TO.P,A1,1,GPIO0*%
%TO.N,/ROW1*%
X109420000Y-32840000D03*
D21*
X110220000Y-32840000D03*
D22*
%TO.P,A1,2,GPIO1*%
%TO.N,/ROW2*%
X109420000Y-35380000D03*
D23*
X110220000Y-35380000D03*
D24*
%TO.P,A1,3,GND*%
%TO.N,GND*%
X109420000Y-37920000D03*
D25*
X110220000Y-37920000D03*
D22*
%TO.P,A1,4,GPIO2*%
%TO.N,/ROW3*%
X109420000Y-40460000D03*
D23*
X110220000Y-40460000D03*
D22*
%TO.P,A1,5,GPIO3*%
%TO.N,/ROW4*%
X109420000Y-43000000D03*
D23*
X110220000Y-43000000D03*
D22*
%TO.P,A1,6,GPIO4*%
%TO.N,/ROW5*%
X109420000Y-45540000D03*
D23*
X110220000Y-45540000D03*
D22*
%TO.P,A1,7,GPIO5*%
%TO.N,/ROW6*%
X109420000Y-48080000D03*
D23*
X110220000Y-48080000D03*
D24*
%TO.P,A1,8,GND*%
%TO.N,GND*%
X109420000Y-50620000D03*
D25*
X110220000Y-50620000D03*
D22*
%TO.P,A1,9,GPIO6*%
%TO.N,/ROW7*%
X109420000Y-53160000D03*
D23*
X110220000Y-53160000D03*
D22*
%TO.P,A1,10,GPIO7*%
%TO.N,/COL1*%
X109420000Y-55700000D03*
D23*
X110220000Y-55700000D03*
D22*
%TO.P,A1,11,GPIO8*%
%TO.N,/COL2*%
X109420000Y-58240000D03*
D23*
X110220000Y-58240000D03*
D22*
%TO.P,A1,12,GPIO9*%
%TO.N,/COL3*%
X109420000Y-60780000D03*
D23*
X110220000Y-60780000D03*
D24*
%TO.P,A1,13,GND*%
%TO.N,GND*%
X109420000Y-63320000D03*
D25*
X110220000Y-63320000D03*
D22*
%TO.P,A1,14,GPIO10*%
%TO.N,/COL4*%
X109420000Y-65860000D03*
D23*
X110220000Y-65860000D03*
D22*
%TO.P,A1,15,GPIO11*%
%TO.N,/COL5*%
X109420000Y-68400000D03*
D23*
X110220000Y-68400000D03*
D22*
%TO.P,A1,16,GPIO12*%
%TO.N,/SDA*%
X109420000Y-70940000D03*
D23*
X110220000Y-70940000D03*
D22*
%TO.P,A1,17,GPIO13*%
%TO.N,/SCL*%
X109420000Y-73480000D03*
D23*
X110220000Y-73480000D03*
D24*
%TO.P,A1,18,GND*%
%TO.N,GND*%
X109420000Y-76020000D03*
D25*
X110220000Y-76020000D03*
D22*
%TO.P,A1,19,GPIO14*%
%TO.N,unconnected-(A1-GPIO14-Pad19)*%
X109420000Y-78560000D03*
D23*
%TO.N,unconnected-(A1-GPIO14-Pad19)_1*%
X110220000Y-78560000D03*
D22*
%TO.P,A1,20,GPIO15*%
%TO.N,unconnected-(A1-GPIO15-Pad20)_1*%
X109420000Y-81100000D03*
D23*
%TO.N,unconnected-(A1-GPIO15-Pad20)*%
X110220000Y-81100000D03*
%TO.P,A1,21,GPIO16*%
%TO.N,unconnected-(A1-GPIO16-Pad21)*%
X128000000Y-81100000D03*
D22*
%TO.N,unconnected-(A1-GPIO16-Pad21)_1*%
X128800000Y-81100000D03*
D23*
%TO.P,A1,22,GPIO17*%
%TO.N,unconnected-(A1-GPIO17-Pad22)*%
X128000000Y-78560000D03*
D22*
%TO.N,unconnected-(A1-GPIO17-Pad22)_1*%
X128800000Y-78560000D03*
D26*
%TO.P,A1,23,GND*%
%TO.N,GND*%
X128000000Y-76020000D03*
D20*
X128800000Y-76020000D03*
D23*
%TO.P,A1,24,GPIO18*%
%TO.N,unconnected-(A1-GPIO18-Pad24)*%
X128000000Y-73480000D03*
D22*
%TO.N,unconnected-(A1-GPIO18-Pad24)_1*%
X128800000Y-73480000D03*
D23*
%TO.P,A1,25,GPIO19*%
%TO.N,unconnected-(A1-GPIO19-Pad25)_1*%
X128000000Y-70940000D03*
D22*
%TO.N,unconnected-(A1-GPIO19-Pad25)*%
X128800000Y-70940000D03*
D23*
%TO.P,A1,26,GPIO20*%
%TO.N,unconnected-(A1-GPIO20-Pad26)*%
X128000000Y-68400000D03*
D22*
%TO.N,unconnected-(A1-GPIO20-Pad26)_1*%
X128800000Y-68400000D03*
D23*
%TO.P,A1,27,GPIO21*%
%TO.N,unconnected-(A1-GPIO21-Pad27)*%
X128000000Y-65860000D03*
D22*
%TO.N,unconnected-(A1-GPIO21-Pad27)_1*%
X128800000Y-65860000D03*
D26*
%TO.P,A1,28,GND*%
%TO.N,GND*%
X128000000Y-63320000D03*
D20*
X128800000Y-63320000D03*
D23*
%TO.P,A1,29,GPIO22*%
%TO.N,unconnected-(A1-GPIO22-Pad29)_1*%
X128000000Y-60780000D03*
D22*
%TO.N,unconnected-(A1-GPIO22-Pad29)*%
X128800000Y-60780000D03*
D23*
%TO.P,A1,30,RUN*%
%TO.N,unconnected-(A1-RUN-Pad30)*%
X128000000Y-58240000D03*
D22*
%TO.N,unconnected-(A1-RUN-Pad30)_1*%
X128800000Y-58240000D03*
D23*
%TO.P,A1,31,GPIO26_ADC0*%
%TO.N,Net-(A1-GPIO26_ADC0)*%
X128000000Y-55700000D03*
D22*
X128800000Y-55700000D03*
D23*
%TO.P,A1,32,GPIO27_ADC1*%
%TO.N,/CHRG*%
X128000000Y-53160000D03*
D22*
X128800000Y-53160000D03*
D26*
%TO.P,A1,33,AGND*%
%TO.N,GND*%
X128000000Y-50620000D03*
D20*
X128800000Y-50620000D03*
D23*
%TO.P,A1,34,GPIO28_ADC2*%
%TO.N,/STDBY*%
X128000000Y-48080000D03*
D22*
X128800000Y-48080000D03*
D23*
%TO.P,A1,35,ADC_VREF*%
%TO.N,unconnected-(A1-ADC_VREF-Pad35)_1*%
X128000000Y-45540000D03*
D22*
%TO.N,unconnected-(A1-ADC_VREF-Pad35)*%
X128800000Y-45540000D03*
D23*
%TO.P,A1,36,3V3*%
%TO.N,+3V3*%
X128000000Y-43000000D03*
D22*
X128800000Y-43000000D03*
D23*
%TO.P,A1,37,3V3_EN*%
%TO.N,unconnected-(A1-3V3_EN-Pad37)_1*%
X128000000Y-40460000D03*
D22*
%TO.N,unconnected-(A1-3V3_EN-Pad37)*%
X128800000Y-40460000D03*
D26*
%TO.P,A1,38,GND*%
%TO.N,GND*%
X128000000Y-37920000D03*
D20*
X128800000Y-37920000D03*
D23*
%TO.P,A1,39,VSYS*%
%TO.N,Net-(A1-VSYS)*%
X128000000Y-35380000D03*
D22*
X128800000Y-35380000D03*
D23*
%TO.P,A1,40,VBUS*%
%TO.N,/VBUS*%
X128000000Y-32840000D03*
D22*
X128800000Y-32840000D03*
%TD*%
D11*
%TO.P,SW16,1,1*%
%TO.N,/COL5*%
X121050000Y-137450000D03*
X127550000Y-137450000D03*
%TO.P,SW16,2,2*%
%TO.N,Net-(D17-A)*%
X121050000Y-141950000D03*
X127550000Y-141950000D03*
%TD*%
%TO.P,SW22,1,1*%
%TO.N,/COL1*%
X61050000Y-167450000D03*
X67550000Y-167450000D03*
%TO.P,SW22,2,2*%
%TO.N,Net-(D23-A)*%
X61050000Y-171950000D03*
X67550000Y-171950000D03*
%TD*%
D12*
%TO.P,D6,1,K*%
%TO.N,/ROW2*%
X97900000Y-100250000D03*
%TO.P,D6,2,A*%
%TO.N,Net-(D6-A)*%
X97900000Y-103550000D03*
%TD*%
D11*
%TO.P,SW3,1,1*%
%TO.N,/COL1*%
X63850000Y-98300000D03*
X70350000Y-98300000D03*
%TO.P,SW3,2,2*%
%TO.N,Net-(D4-A)*%
X63850000Y-102800000D03*
X70350000Y-102800000D03*
%TD*%
D10*
%TO.P,R1,1*%
%TO.N,Net-(D2-A)*%
X133000000Y-43490000D03*
%TO.P,R1,2*%
%TO.N,/STDBY*%
X133000000Y-44510000D03*
%TD*%
D12*
%TO.P,D11,1,K*%
%TO.N,/ROW4*%
X115500000Y-123850000D03*
%TO.P,D11,2,A*%
%TO.N,Net-(D11-A)*%
X115500000Y-127150000D03*
%TD*%
D11*
%TO.P,SW11,1,1*%
%TO.N,/COL5*%
X121050000Y-122200000D03*
X127550000Y-122200000D03*
%TO.P,SW11,2,2*%
%TO.N,Net-(D12-A)*%
X121050000Y-126700000D03*
X127550000Y-126700000D03*
%TD*%
D27*
%TO.P,J1,1,Pin_1*%
%TO.N,/SDA*%
X87620000Y-35500000D03*
D28*
%TO.P,J1,2,Pin_2*%
%TO.N,/SCL*%
X90160000Y-35500000D03*
%TO.P,J1,3,Pin_3*%
%TO.N,+3V3*%
X92700000Y-35500000D03*
%TO.P,J1,4,Pin_4*%
%TO.N,GND*%
X95240000Y-35500000D03*
%TD*%
D11*
%TO.P,SW8,1,1*%
%TO.N,/COL2*%
X76050000Y-122200000D03*
X82550000Y-122200000D03*
%TO.P,SW8,2,2*%
%TO.N,Net-(D9-A)*%
X76050000Y-126700000D03*
X82550000Y-126700000D03*
%TD*%
%TO.P,SW5,1,1*%
%TO.N,/COL3*%
X88450000Y-98350000D03*
X94950000Y-98350000D03*
%TO.P,SW5,2,2*%
%TO.N,Net-(D6-A)*%
X88450000Y-102850000D03*
X94950000Y-102850000D03*
%TD*%
D12*
%TO.P,D26,1,K*%
%TO.N,/ROW7*%
X115500000Y-169350000D03*
%TO.P,D26,2,A*%
%TO.N,Net-(D26-A)*%
X115500000Y-172650000D03*
%TD*%
D11*
%TO.P,SW12,1,1*%
%TO.N,/COL1*%
X61050000Y-137450000D03*
X67550000Y-137450000D03*
%TO.P,SW12,2,2*%
%TO.N,Net-(D13-A)*%
X61050000Y-141950000D03*
X67550000Y-141950000D03*
%TD*%
D16*
%TO.P,TP1,1,1*%
%TO.N,/BT+*%
X127500000Y-91000000D03*
%TD*%
D12*
%TO.P,D16,1,K*%
%TO.N,/ROW5*%
X115500000Y-139350000D03*
%TO.P,D16,2,A*%
%TO.N,Net-(D16-A)*%
X115500000Y-142650000D03*
%TD*%
D11*
%TO.P,SW19,1,1*%
%TO.N,/COL3*%
X91050000Y-152450000D03*
X97550000Y-152450000D03*
%TO.P,SW19,2,2*%
%TO.N,Net-(D20-A)*%
X91050000Y-156950000D03*
X97550000Y-156950000D03*
%TD*%
D12*
%TO.P,D20,1,K*%
%TO.N,/ROW6*%
X100500000Y-154350000D03*
%TO.P,D20,2,A*%
%TO.N,Net-(D20-A)*%
X100500000Y-157650000D03*
%TD*%
D10*
%TO.P,R4,1*%
%TO.N,/BT+*%
X133400000Y-55800000D03*
%TO.P,R4,2*%
%TO.N,Net-(A1-GPIO26_ADC0)*%
X133400000Y-56820000D03*
%TD*%
D29*
%TO.P,D2,1,K*%
%TO.N,/VBUS*%
X135015000Y-41500000D03*
%TO.P,D2,2,A*%
%TO.N,Net-(D2-A)*%
X135985000Y-41500000D03*
%TD*%
D11*
%TO.P,SW26,1,1*%
%TO.N,/COL5*%
X121050000Y-167450000D03*
X127550000Y-167450000D03*
%TO.P,SW26,2,2*%
%TO.N,Net-(D27-A)*%
X121050000Y-171950000D03*
X127550000Y-171950000D03*
%TD*%
%TO.P,SW23,1,1*%
%TO.N,/COL2*%
X76050000Y-167450000D03*
X82550000Y-167450000D03*
%TO.P,SW23,2,2*%
%TO.N,Net-(D24-A)*%
X76050000Y-171950000D03*
X82550000Y-171950000D03*
%TD*%
D12*
%TO.P,D14,1,K*%
%TO.N,/ROW5*%
X85500000Y-139350000D03*
%TO.P,D14,2,A*%
%TO.N,Net-(D14-A)*%
X85500000Y-142650000D03*
%TD*%
%TO.P,D7,1,K*%
%TO.N,/ROW3*%
X85500000Y-108850000D03*
%TO.P,D7,2,A*%
%TO.N,Net-(D7-A)*%
X85500000Y-112150000D03*
%TD*%
D30*
%TO.P,C1,1*%
%TO.N,GND*%
X121020000Y-101500000D03*
%TO.P,C1,2*%
%TO.N,/VBUS*%
X121980000Y-101500000D03*
%TD*%
D11*
%TO.P,SW17,1,1*%
%TO.N,/COL1*%
X61050000Y-151950000D03*
X67550000Y-151950000D03*
%TO.P,SW17,2,2*%
%TO.N,Net-(D18-A)*%
X61050000Y-156450000D03*
X67550000Y-156450000D03*
%TD*%
D29*
%TO.P,D3,1,K*%
%TO.N,/VBUS*%
X135015000Y-39500000D03*
%TO.P,D3,2,A*%
%TO.N,Net-(D3-A)*%
X135985000Y-39500000D03*
%TD*%
D11*
%TO.P,SW21,1,1*%
%TO.N,/COL5*%
X121050000Y-152450000D03*
X127550000Y-152450000D03*
%TO.P,SW21,2,2*%
%TO.N,Net-(D22-A)*%
X121050000Y-156950000D03*
X127550000Y-156950000D03*
%TD*%
D31*
%TO.P,Q1,1,D*%
%TO.N,Net-(Q1-D)*%
X120550000Y-91000000D03*
%TO.P,Q1,2,G*%
%TO.N,/VBUS*%
X122450000Y-91000000D03*
%TO.P,Q1,3,S*%
%TO.N,Net-(A1-VSYS)*%
X121500000Y-89125000D03*
%TD*%
D11*
%TO.P,SW24,1,1*%
%TO.N,/COL3*%
X91050000Y-167450000D03*
X97550000Y-167450000D03*
%TO.P,SW24,2,2*%
%TO.N,Net-(D25-A)*%
X91050000Y-171950000D03*
X97550000Y-171950000D03*
%TD*%
D12*
%TO.P,D25,1,K*%
%TO.N,/ROW7*%
X100500000Y-169350000D03*
%TO.P,D25,2,A*%
%TO.N,Net-(D25-A)*%
X100500000Y-172650000D03*
%TD*%
D11*
%TO.P,SW13,1,1*%
%TO.N,/COL2*%
X76050000Y-137450000D03*
X82550000Y-137450000D03*
%TO.P,SW13,2,2*%
%TO.N,Net-(D14-A)*%
X76050000Y-141950000D03*
X82550000Y-141950000D03*
%TD*%
D12*
%TO.P,D17,1,K*%
%TO.N,/ROW5*%
X130500000Y-139350000D03*
%TO.P,D17,2,A*%
%TO.N,Net-(D17-A)*%
X130500000Y-142650000D03*
%TD*%
%TO.P,D21,1,K*%
%TO.N,/ROW6*%
X115500000Y-154200000D03*
%TO.P,D21,2,A*%
%TO.N,Net-(D21-A)*%
X115500000Y-157500000D03*
%TD*%
D11*
%TO.P,SW14,1,1*%
%TO.N,/COL3*%
X91050000Y-137450000D03*
X97550000Y-137450000D03*
%TO.P,SW14,2,2*%
%TO.N,Net-(D15-A)*%
X91050000Y-141950000D03*
X97550000Y-141950000D03*
%TD*%
D32*
%TO.N,/COL4*%
X105000000Y-92000000D03*
%TO.N,GND*%
X131707000Y-63320000D03*
X132500000Y-93300000D03*
X121881837Y-97801512D03*
X120200000Y-101000000D03*
%TO.N,Net-(A1-GPIO26_ADC0)*%
X132100000Y-56200000D03*
%TO.N,/CHRG*%
X135400000Y-48000000D03*
%TO.N,/ROW3*%
X100000000Y-41100000D03*
%TO.N,/COL5*%
X106120000Y-92000000D03*
%TO.N,/SDA*%
X95100000Y-51900000D03*
X96940000Y-70940000D03*
%TO.N,/SCL*%
X96800000Y-51400000D03*
X98900000Y-73480000D03*
%TD*%
%TO.N,/COL4*%
D33*
X106050000Y-167450000D02*
X112550000Y-167450000D01*
X112550000Y-122200000D02*
X106050000Y-122200000D01*
X105000000Y-69948630D02*
X105000000Y-92000000D01*
X106050000Y-152450000D02*
X112550000Y-152450000D01*
X109088630Y-65860000D02*
X105000000Y-69948630D01*
X112550000Y-137450000D02*
X106050000Y-137450000D01*
X110220000Y-65860000D02*
X109088630Y-65860000D01*
%TO.N,/COL2*%
X76050000Y-122200000D02*
X82550000Y-122200000D01*
X82550000Y-151950000D02*
X76050000Y-151950000D01*
X76050000Y-167450000D02*
X82550000Y-167450000D01*
X76050000Y-106950000D02*
X82550000Y-106950000D01*
X75950000Y-89650000D02*
X82450000Y-89650000D01*
X82550000Y-137450000D02*
X76050000Y-137450000D01*
X76050000Y-98350000D02*
X82550000Y-98350000D01*
%TO.N,GND*%
X122088349Y-97595000D02*
X123825000Y-97595000D01*
X121881837Y-97801512D02*
X122088349Y-97595000D01*
X124965000Y-100135000D02*
X125600000Y-99500000D01*
X125205000Y-97595000D02*
X125800000Y-97000000D01*
X120990000Y-99000000D02*
X120990000Y-98710000D01*
X123825000Y-100135000D02*
X124965000Y-100135000D01*
X120990000Y-98710000D02*
X121900000Y-97800000D01*
X123825000Y-97595000D02*
X125205000Y-97595000D01*
X121020000Y-101500000D02*
X120700000Y-101500000D01*
X120700000Y-101500000D02*
X120200000Y-101000000D01*
X120990000Y-98710000D02*
X121900000Y-97800000D01*
X132500000Y-93300000D02*
X132500000Y-91000000D01*
%TO.N,/COL1*%
X61050000Y-151950000D02*
X67550000Y-151950000D01*
X61050000Y-167450000D02*
X67550000Y-167450000D01*
X61050000Y-137450000D02*
X67550000Y-137450000D01*
X70350000Y-98300000D02*
X63850000Y-98300000D01*
X67550000Y-122200000D02*
X61050000Y-122200000D01*
%TO.N,Net-(A1-GPIO26_ADC0)*%
X133400000Y-56820000D02*
X132720000Y-56820000D01*
X132720000Y-56820000D02*
X132100000Y-56200000D01*
X133400000Y-58890000D02*
X133400000Y-56820000D01*
%TO.N,/ROW5*%
X102000000Y-52628630D02*
X109088630Y-45540000D01*
X130500000Y-139350000D02*
X70500000Y-139350000D01*
X109088630Y-45540000D02*
X110220000Y-45540000D01*
X131401000Y-138449000D02*
X131401000Y-122401000D01*
X131401000Y-122401000D02*
X102000000Y-93000000D01*
X102000000Y-93000000D02*
X102000000Y-52628630D01*
X130500000Y-139350000D02*
X131401000Y-138449000D01*
%TO.N,/ROW1*%
X85400000Y-91400000D02*
X85400000Y-56860000D01*
X109420000Y-32840000D02*
X110220000Y-32840000D01*
X85400000Y-56860000D02*
X109420000Y-32840000D01*
%TO.N,/ROW7*%
X130500000Y-169350000D02*
X70500000Y-169350000D01*
X103000000Y-92000000D02*
X103000000Y-59248630D01*
X132203000Y-121203000D02*
X103000000Y-92000000D01*
X130500000Y-169350000D02*
X132203000Y-167647000D01*
X109088630Y-53160000D02*
X110220000Y-53160000D01*
X132203000Y-167647000D02*
X132203000Y-121203000D01*
X103000000Y-59248630D02*
X109088630Y-53160000D01*
%TO.N,/CHRG*%
X129121968Y-98865000D02*
X130100000Y-97886968D01*
X130100000Y-84898000D02*
X130706000Y-84292000D01*
X130100000Y-97886968D02*
X130100000Y-84898000D01*
X135500000Y-44500000D02*
X135500000Y-47900000D01*
X130706000Y-84292000D02*
X130706000Y-54734630D01*
X128775000Y-98865000D02*
X129121968Y-98865000D01*
X129131370Y-53160000D02*
X128000000Y-53160000D01*
X135500000Y-47900000D02*
X135400000Y-48000000D01*
X130706000Y-54734630D02*
X129131370Y-53160000D01*
%TO.N,/ROW3*%
X85500000Y-108850000D02*
X76110108Y-108850000D01*
X72399000Y-100499110D02*
X72399000Y-68701000D01*
X76110108Y-108850000D02*
X74749000Y-107488892D01*
X100000000Y-41100000D02*
X81800000Y-59300000D01*
X74749000Y-102849110D02*
X72399000Y-100499110D01*
X74749000Y-107488892D02*
X74749000Y-102849110D01*
X72399000Y-68701000D02*
X81800000Y-59300000D01*
%TO.N,/ROW2*%
X73300000Y-100050000D02*
X97700000Y-100050000D01*
X100500000Y-97650000D02*
X100500000Y-42327100D01*
X97700000Y-100050000D02*
X97900000Y-100250000D01*
X107447100Y-35380000D02*
X110220000Y-35380000D01*
X97900000Y-100250000D02*
X100500000Y-97650000D01*
X100500000Y-42327100D02*
X107447100Y-35380000D01*
X73450000Y-100200000D02*
X73300000Y-100050000D01*
%TO.N,/STDBY*%
X131107000Y-84594000D02*
X131107000Y-50055630D01*
X131107000Y-50055630D02*
X129131370Y-48080000D01*
X128800000Y-48080000D02*
X132370000Y-44510000D01*
X130501000Y-99383999D02*
X130501000Y-85200000D01*
X130501000Y-85200000D02*
X131107000Y-84594000D01*
X129749999Y-100135000D02*
X130501000Y-99383999D01*
X132370000Y-44510000D02*
X133000000Y-44510000D01*
X129131370Y-48080000D02*
X128000000Y-48080000D01*
X128775000Y-100135000D02*
X129749999Y-100135000D01*
%TO.N,/COL3*%
X97550000Y-122200000D02*
X91050000Y-122200000D01*
X91050000Y-137450000D02*
X97550000Y-137450000D01*
X97550000Y-167450000D02*
X91050000Y-167450000D01*
X91050000Y-152450000D02*
X97550000Y-152450000D01*
X94950000Y-98350000D02*
X88450000Y-98350000D01*
%TO.N,/ROW6*%
X131802000Y-121802000D02*
X102500000Y-92500000D01*
X71000000Y-154350000D02*
X130500000Y-154350000D01*
X130500000Y-154350000D02*
X131802000Y-153048000D01*
X102500000Y-54668630D02*
X109088630Y-48080000D01*
X70500000Y-153850000D02*
X71000000Y-154350000D01*
X102500000Y-92500000D02*
X102500000Y-54668630D01*
X131802000Y-153048000D02*
X131802000Y-121802000D01*
X109088630Y-48080000D02*
X110220000Y-48080000D01*
%TO.N,Net-(A1-VSYS)*%
X126311000Y-84314000D02*
X126311000Y-37069000D01*
X126311000Y-37069000D02*
X128000000Y-35380000D01*
X121500000Y-89125000D02*
X126311000Y-84314000D01*
%TO.N,/ROW4*%
X101500000Y-122850000D02*
X101500000Y-50588630D01*
X101500000Y-50588630D02*
X109088630Y-43000000D01*
X85500000Y-123850000D02*
X130500000Y-123850000D01*
X100500000Y-123850000D02*
X101500000Y-122850000D01*
X70500000Y-123850000D02*
X85500000Y-123850000D01*
X109088630Y-43000000D02*
X110220000Y-43000000D01*
%TO.N,/VBUS*%
X122556250Y-96043750D02*
X127223750Y-96043750D01*
X127223750Y-96043750D02*
X128775000Y-97595000D01*
X130701000Y-34409630D02*
X129131370Y-32840000D01*
X126500000Y-86700000D02*
X129301000Y-89501000D01*
X121980000Y-101500000D02*
X123730000Y-101500000D01*
X126500000Y-86950000D02*
X126500000Y-86700000D01*
X135015000Y-39500000D02*
X133075050Y-39500000D01*
X135015000Y-39500000D02*
X135015000Y-41500000D01*
X123730000Y-101500000D02*
X123825000Y-101405000D01*
X126500000Y-86700000D02*
X126500000Y-84692100D01*
X126712000Y-37235100D02*
X127466100Y-36481000D01*
X126712000Y-84480100D02*
X126712000Y-37235100D01*
X130056050Y-36481000D02*
X130701000Y-35836050D01*
X129301000Y-89501000D02*
X129301000Y-97069000D01*
X120419000Y-98181000D02*
X122556250Y-96043750D01*
X130701000Y-35836050D02*
X130701000Y-34409630D01*
X120419000Y-99939000D02*
X120419000Y-98181000D01*
X127466100Y-36481000D02*
X130056050Y-36481000D01*
X122450000Y-91000000D02*
X126500000Y-86950000D01*
X129131370Y-32840000D02*
X128000000Y-32840000D01*
X129301000Y-97069000D02*
X128775000Y-97595000D01*
X126500000Y-84692100D02*
X126712000Y-84480100D01*
X121980000Y-101500000D02*
X120419000Y-99939000D01*
X133075050Y-39500000D02*
X130056050Y-36481000D01*
%TO.N,Net-(D2-A)*%
X133000000Y-43490000D02*
X133995000Y-43490000D01*
X133995000Y-43490000D02*
X135985000Y-41500000D01*
%TO.N,Net-(D3-A)*%
X136581000Y-42399000D02*
X136581000Y-40096000D01*
X136581000Y-40096000D02*
X135985000Y-39500000D01*
X135500000Y-43480000D02*
X136581000Y-42399000D01*
%TO.N,Net-(D4-A)*%
X70350000Y-102800000D02*
X72750000Y-102800000D01*
X63850000Y-102800000D02*
X70350000Y-102800000D01*
X72750000Y-102800000D02*
X73300000Y-103350000D01*
%TO.N,Net-(D5-A)*%
X82550000Y-102850000D02*
X76050000Y-102850000D01*
X84800000Y-102850000D02*
X85500000Y-103550000D01*
X82550000Y-102850000D02*
X84800000Y-102850000D01*
%TO.N,Net-(D6-A)*%
X88450000Y-102850000D02*
X94950000Y-102850000D01*
X97200000Y-102850000D02*
X97900000Y-103550000D01*
X94950000Y-102850000D02*
X97200000Y-102850000D01*
%TO.N,Net-(D7-A)*%
X84800000Y-111450000D02*
X85500000Y-112150000D01*
X82550000Y-111450000D02*
X84800000Y-111450000D01*
X82550000Y-111450000D02*
X76050000Y-111450000D01*
%TO.N,Net-(D8-A)*%
X67550000Y-126700000D02*
X70050000Y-126700000D01*
X70050000Y-126700000D02*
X70500000Y-127150000D01*
X61050000Y-126700000D02*
X67550000Y-126700000D01*
%TO.N,Net-(D9-A)*%
X82550000Y-126700000D02*
X85050000Y-126700000D01*
X85050000Y-126700000D02*
X85500000Y-127150000D01*
X82550000Y-126700000D02*
X76050000Y-126700000D01*
%TO.N,Net-(D10-A)*%
X97550000Y-126700000D02*
X100050000Y-126700000D01*
X100050000Y-126700000D02*
X100500000Y-127150000D01*
X91050000Y-126700000D02*
X97550000Y-126700000D01*
%TO.N,Net-(D11-A)*%
X115050000Y-126700000D02*
X115500000Y-127150000D01*
X106050000Y-126700000D02*
X112550000Y-126700000D01*
X112550000Y-126700000D02*
X115050000Y-126700000D01*
%TO.N,Net-(D12-A)*%
X130050000Y-126700000D02*
X130500000Y-127150000D01*
X121050000Y-126700000D02*
X127550000Y-126700000D01*
X127550000Y-126700000D02*
X130050000Y-126700000D01*
%TO.N,Net-(D13-A)*%
X67550000Y-141950000D02*
X69800000Y-141950000D01*
X67550000Y-141950000D02*
X61050000Y-141950000D01*
X69800000Y-141950000D02*
X70500000Y-142650000D01*
%TO.N,Net-(D14-A)*%
X76050000Y-141950000D02*
X82550000Y-141950000D01*
X84800000Y-141950000D02*
X85500000Y-142650000D01*
X82550000Y-141950000D02*
X84800000Y-141950000D01*
%TO.N,Net-(D15-A)*%
X99800000Y-141950000D02*
X100500000Y-142650000D01*
X97550000Y-141950000D02*
X99800000Y-141950000D01*
X97550000Y-141950000D02*
X91050000Y-141950000D01*
%TO.N,Net-(D16-A)*%
X112550000Y-141950000D02*
X106050000Y-141950000D01*
X114800000Y-141950000D02*
X115500000Y-142650000D01*
X112550000Y-141950000D02*
X114800000Y-141950000D01*
%TO.N,Net-(D17-A)*%
X127550000Y-141950000D02*
X121050000Y-141950000D01*
X127550000Y-141950000D02*
X129800000Y-141950000D01*
X129800000Y-141950000D02*
X130500000Y-142650000D01*
%TO.N,Net-(D18-A)*%
X69800000Y-156450000D02*
X70500000Y-157150000D01*
X67550000Y-156450000D02*
X69800000Y-156450000D01*
X67550000Y-156450000D02*
X61050000Y-156450000D01*
%TO.N,Net-(D19-A)*%
X82550000Y-156450000D02*
X84800000Y-156450000D01*
X76050000Y-156450000D02*
X82550000Y-156450000D01*
X84800000Y-156450000D02*
X85500000Y-157150000D01*
%TO.N,Net-(D20-A)*%
X99800000Y-156950000D02*
X100500000Y-157650000D01*
X97550000Y-156950000D02*
X99800000Y-156950000D01*
X97550000Y-156950000D02*
X91050000Y-156950000D01*
%TO.N,Net-(D21-A)*%
X112550000Y-156950000D02*
X106050000Y-156950000D01*
X114950000Y-156950000D02*
X115500000Y-157500000D01*
X112550000Y-156950000D02*
X114950000Y-156950000D01*
%TO.N,Net-(D22-A)*%
X127550000Y-156950000D02*
X121050000Y-156950000D01*
X129800000Y-156950000D02*
X130500000Y-157650000D01*
X127550000Y-156950000D02*
X129800000Y-156950000D01*
%TO.N,Net-(D23-A)*%
X67550000Y-171950000D02*
X61050000Y-171950000D01*
X69800000Y-171950000D02*
X70500000Y-172650000D01*
X67550000Y-171950000D02*
X69800000Y-171950000D01*
%TO.N,Net-(D24-A)*%
X82550000Y-171950000D02*
X84800000Y-171950000D01*
X82550000Y-171950000D02*
X76050000Y-171950000D01*
X84800000Y-171950000D02*
X85500000Y-172650000D01*
%TO.N,Net-(D25-A)*%
X91050000Y-171950000D02*
X97550000Y-171950000D01*
X99800000Y-171950000D02*
X100500000Y-172650000D01*
X97550000Y-171950000D02*
X99800000Y-171950000D01*
%TO.N,Net-(D26-A)*%
X112550000Y-171950000D02*
X114800000Y-171950000D01*
X112550000Y-171950000D02*
X106050000Y-171950000D01*
X114800000Y-171950000D02*
X115500000Y-172650000D01*
%TO.N,Net-(D27-A)*%
X129800000Y-171950000D02*
X130500000Y-172650000D01*
X127550000Y-171950000D02*
X129800000Y-171950000D01*
X127550000Y-171950000D02*
X121050000Y-171950000D01*
%TO.N,Net-(Q1-D)*%
X120550000Y-91000000D02*
X120050000Y-90500000D01*
X120050000Y-90500000D02*
X116000000Y-90500000D01*
%TO.N,Net-(U1-PROG)*%
X123690000Y-99000000D02*
X123825000Y-98865000D01*
X122010000Y-99000000D02*
X123690000Y-99000000D01*
%TO.N,/BT+*%
X134301000Y-56701000D02*
X133400000Y-55800000D01*
X119300000Y-96810000D02*
X119300000Y-96900000D01*
X128775000Y-101405000D02*
X129749999Y-101405000D01*
X128775000Y-101405000D02*
X127880000Y-102300000D01*
X134301000Y-96853999D02*
X134301000Y-56701000D01*
X127880000Y-102300000D02*
X120600000Y-102300000D01*
X119300000Y-96900000D02*
X125200000Y-91000000D01*
X129749999Y-101405000D02*
X134301000Y-96853999D01*
X120600000Y-102300000D02*
X119300000Y-101000000D01*
X112850000Y-90360000D02*
X119300000Y-96810000D01*
X125200000Y-91000000D02*
X127500000Y-91000000D01*
X119300000Y-101000000D02*
X119300000Y-96900000D01*
%TO.N,Net-(D1-A)*%
X84850000Y-94150000D02*
X85400000Y-94700000D01*
X82450000Y-94150000D02*
X75950000Y-94150000D01*
X82450000Y-94150000D02*
X84850000Y-94150000D01*
%TO.N,/COL5*%
X121050000Y-152450000D02*
X127550000Y-152450000D01*
X127550000Y-122200000D02*
X121050000Y-122200000D01*
X106120000Y-71882950D02*
X109602950Y-68400000D01*
X106120000Y-92000000D02*
X106120000Y-71882950D01*
X121050000Y-167450000D02*
X127550000Y-167450000D01*
X109602950Y-68400000D02*
X110220000Y-68400000D01*
X127550000Y-137450000D02*
X121050000Y-137450000D01*
%TO.N,/SDA*%
X96940000Y-70940000D02*
X95100000Y-69100000D01*
X95100000Y-69100000D02*
X95100000Y-51900000D01*
%TO.N,/SCL*%
X97800000Y-72380000D02*
X97800000Y-52400000D01*
X98900000Y-73480000D02*
X97800000Y-72380000D01*
X97800000Y-52400000D02*
X96800000Y-51400000D01*
%TD*%
%TA.AperFunction,Conductor*%
%TO.N,GND*%
G36*
X107380993Y-31701508D02*
G01*
X107427077Y-31754024D01*
X107437454Y-31823119D01*
X107421251Y-31869513D01*
X107383424Y-31933268D01*
X107352978Y-32006774D01*
X107352970Y-32006795D01*
X107334976Y-32057800D01*
X107314500Y-32200219D01*
X107314500Y-33479784D01*
X107317395Y-33533814D01*
X107317396Y-33533818D01*
X107352976Y-33673221D01*
X107352980Y-33673233D01*
X107383419Y-33746719D01*
X107383431Y-33746747D01*
X107406779Y-33795548D01*
X107406783Y-33795554D01*
X107431621Y-33828733D01*
X107456039Y-33894198D01*
X107441188Y-33962471D01*
X107420036Y-33990726D01*
X100808349Y-40602414D01*
X100747026Y-40635899D01*
X100677334Y-40630915D01*
X100624812Y-40593395D01*
X100621783Y-40589704D01*
X100510292Y-40478213D01*
X100510288Y-40478210D01*
X100379185Y-40390609D01*
X100379172Y-40390602D01*
X100233501Y-40330264D01*
X100233489Y-40330261D01*
X100078845Y-40299500D01*
X100078842Y-40299500D01*
X99921158Y-40299500D01*
X99921155Y-40299500D01*
X99766510Y-40330261D01*
X99766498Y-40330264D01*
X99620827Y-40390602D01*
X99620814Y-40390609D01*
X99489711Y-40478210D01*
X99489707Y-40478213D01*
X99378213Y-40589707D01*
X99378210Y-40589711D01*
X99290609Y-40720814D01*
X99290602Y-40720827D01*
X99230264Y-40866498D01*
X99230261Y-40866508D01*
X99199361Y-41021850D01*
X99166976Y-41083761D01*
X99165425Y-41085339D01*
X71918481Y-68332282D01*
X71918479Y-68332285D01*
X71868361Y-68419094D01*
X71868359Y-68419096D01*
X71839425Y-68469209D01*
X71839424Y-68469210D01*
X71830544Y-68502350D01*
X71798499Y-68621943D01*
X71798499Y-68621945D01*
X71798499Y-68790046D01*
X71798500Y-68790059D01*
X71798500Y-97359253D01*
X71778815Y-97426292D01*
X71726011Y-97472047D01*
X71656853Y-97481991D01*
X71593297Y-97452966D01*
X71574182Y-97432139D01*
X71562961Y-97416695D01*
X71494517Y-97322490D01*
X71327510Y-97155483D01*
X71136433Y-97016657D01*
X71126469Y-97011580D01*
X70925996Y-96909433D01*
X70701368Y-96836446D01*
X70468097Y-96799500D01*
X70468092Y-96799500D01*
X70231908Y-96799500D01*
X70231903Y-96799500D01*
X69998631Y-96836446D01*
X69774003Y-96909433D01*
X69563566Y-97016657D01*
X69468415Y-97085789D01*
X69372490Y-97155483D01*
X69372488Y-97155485D01*
X69372487Y-97155485D01*
X69205485Y-97322487D01*
X69205485Y-97322488D01*
X69205483Y-97322490D01*
X69164204Y-97379306D01*
X69066657Y-97513566D01*
X69041181Y-97563566D01*
X69011194Y-97622420D01*
X69006417Y-97631795D01*
X68958442Y-97682591D01*
X68895932Y-97699500D01*
X65304068Y-97699500D01*
X65237029Y-97679815D01*
X65193583Y-97631795D01*
X65188807Y-97622421D01*
X65133343Y-97513567D01*
X64994517Y-97322490D01*
X64827510Y-97155483D01*
X64636433Y-97016657D01*
X64626469Y-97011580D01*
X64425996Y-96909433D01*
X64201368Y-96836446D01*
X63968097Y-96799500D01*
X63968092Y-96799500D01*
X63731908Y-96799500D01*
X63731903Y-96799500D01*
X63498631Y-96836446D01*
X63274003Y-96909433D01*
X63063566Y-97016657D01*
X62968415Y-97085789D01*
X62872490Y-97155483D01*
X62872488Y-97155485D01*
X62872487Y-97155485D01*
X62705485Y-97322487D01*
X62705485Y-97322488D01*
X62705483Y-97322490D01*
X62664204Y-97379306D01*
X62566657Y-97513566D01*
X62459433Y-97724003D01*
X62386446Y-97948631D01*
X62349500Y-98181902D01*
X62349500Y-98418097D01*
X62386446Y-98651368D01*
X62459433Y-98875996D01*
X62556673Y-99066839D01*
X62566657Y-99086433D01*
X62705483Y-99277510D01*
X62872490Y-99444517D01*
X63063567Y-99583343D01*
X63137573Y-99621051D01*
X63274003Y-99690566D01*
X63274005Y-99690566D01*
X63274008Y-99690568D01*
X63368893Y-99721398D01*
X63498631Y-99763553D01*
X63731903Y-99800500D01*
X63731908Y-99800500D01*
X63968097Y-99800500D01*
X64201368Y-99763553D01*
X64425992Y-99690568D01*
X64636433Y-99583343D01*
X64827510Y-99444517D01*
X64994517Y-99277510D01*
X65133343Y-99086433D01*
X65193583Y-98968204D01*
X65241558Y-98917409D01*
X65304068Y-98900500D01*
X68895932Y-98900500D01*
X68962971Y-98920185D01*
X69006416Y-98968203D01*
X69066657Y-99086433D01*
X69205483Y-99277510D01*
X69372490Y-99444517D01*
X69563567Y-99583343D01*
X69637573Y-99621051D01*
X69774003Y-99690566D01*
X69774005Y-99690566D01*
X69774008Y-99690568D01*
X69868893Y-99721398D01*
X69998631Y-99763553D01*
X70231903Y-99800500D01*
X70231908Y-99800500D01*
X70468097Y-99800500D01*
X70701368Y-99763553D01*
X70925992Y-99690568D01*
X71136433Y-99583343D01*
X71327510Y-99444517D01*
X71494517Y-99277510D01*
X71574183Y-99167858D01*
X71629512Y-99125195D01*
X71699125Y-99119216D01*
X71760920Y-99151822D01*
X71795278Y-99212661D01*
X71798500Y-99240746D01*
X71798500Y-100412440D01*
X71798499Y-100412458D01*
X71798499Y-100578164D01*
X71798498Y-100578164D01*
X71808526Y-100615587D01*
X71839423Y-100730895D01*
X71843240Y-100737506D01*
X71843241Y-100737507D01*
X71843241Y-100737508D01*
X71918477Y-100867822D01*
X71918481Y-100867827D01*
X72037349Y-100986695D01*
X72037355Y-100986700D01*
X73077056Y-102026401D01*
X73110541Y-102087724D01*
X73105557Y-102157416D01*
X73063685Y-102213349D01*
X72998221Y-102237766D01*
X72957282Y-102233857D01*
X72862025Y-102208333D01*
X72829057Y-102199499D01*
X72670943Y-102199499D01*
X72663347Y-102199499D01*
X72663331Y-102199500D01*
X71804068Y-102199500D01*
X71737029Y-102179815D01*
X71693583Y-102131795D01*
X71671128Y-102087724D01*
X71633343Y-102013567D01*
X71494517Y-101822490D01*
X71327510Y-101655483D01*
X71136433Y-101516657D01*
X71079386Y-101487590D01*
X70925996Y-101409433D01*
X70701368Y-101336446D01*
X70468097Y-101299500D01*
X70468092Y-101299500D01*
X70231908Y-101299500D01*
X70231903Y-101299500D01*
X69998631Y-101336446D01*
X69774003Y-101409433D01*
X69563566Y-101516657D01*
X69518259Y-101549575D01*
X69372490Y-101655483D01*
X69372488Y-101655485D01*
X69372487Y-101655485D01*
X69205485Y-101822487D01*
X69205485Y-101822488D01*
X69205483Y-101822490D01*
X69169158Y-101872487D01*
X69066657Y-102013566D01*
X69006417Y-102131795D01*
X68958442Y-102182591D01*
X68895932Y-102199500D01*
X65304068Y-102199500D01*
X65237029Y-102179815D01*
X65193583Y-102131795D01*
X65171128Y-102087724D01*
X65133343Y-102013567D01*
X64994517Y-101822490D01*
X64827510Y-101655483D01*
X64636433Y-101516657D01*
X64579386Y-101487590D01*
X64425996Y-101409433D01*
X64201368Y-101336446D01*
X63968097Y-101299500D01*
X63968092Y-101299500D01*
X63731908Y-101299500D01*
X63731903Y-101299500D01*
X63498631Y-101336446D01*
X63274003Y-101409433D01*
X63063566Y-101516657D01*
X63018259Y-101549575D01*
X62872490Y-101655483D01*
X62872488Y-101655485D01*
X62872487Y-101655485D01*
X62705485Y-101822487D01*
X62705485Y-101822488D01*
X62705483Y-101822490D01*
X62669158Y-101872487D01*
X62566657Y-102013566D01*
X62459433Y-102224003D01*
X62386446Y-102448631D01*
X62349500Y-102681902D01*
X62349500Y-102918097D01*
X62377708Y-103096196D01*
X62368753Y-103165490D01*
X62323757Y-103218942D01*
X62257006Y-103239581D01*
X62256633Y-103239586D01*
X57024871Y-103298591D01*
X56957614Y-103279664D01*
X56911267Y-103227379D01*
X56899474Y-103175123D01*
X56612175Y-34893713D01*
X58649500Y-34893713D01*
X58649500Y-35106287D01*
X58651928Y-35121614D01*
X58669761Y-35234213D01*
X58682754Y-35316243D01*
X58742460Y-35499999D01*
X58748444Y-35518414D01*
X58844951Y-35707820D01*
X58969890Y-35879786D01*
X59120213Y-36030109D01*
X59292179Y-36155048D01*
X59292181Y-36155049D01*
X59292184Y-36155051D01*
X59481588Y-36251557D01*
X59683757Y-36317246D01*
X59893713Y-36350500D01*
X59893714Y-36350500D01*
X60106286Y-36350500D01*
X60106287Y-36350500D01*
X60316243Y-36317246D01*
X60518412Y-36251557D01*
X60707816Y-36155051D01*
X60741042Y-36130911D01*
X60879786Y-36030109D01*
X60879788Y-36030106D01*
X60879792Y-36030104D01*
X61030104Y-35879792D01*
X61030106Y-35879788D01*
X61030109Y-35879786D01*
X61155048Y-35707820D01*
X61155047Y-35707820D01*
X61155051Y-35707816D01*
X61251557Y-35518412D01*
X61317246Y-35316243D01*
X61350500Y-35106287D01*
X61350500Y-34893713D01*
X61317246Y-34683757D01*
X61290725Y-34602135D01*
X86269500Y-34602135D01*
X86269500Y-36397870D01*
X86269501Y-36397876D01*
X86275908Y-36457483D01*
X86326202Y-36592328D01*
X86326206Y-36592335D01*
X86412452Y-36707544D01*
X86412455Y-36707547D01*
X86527664Y-36793793D01*
X86527671Y-36793797D01*
X86662517Y-36844091D01*
X86662516Y-36844091D01*
X86669444Y-36844835D01*
X86722127Y-36850500D01*
X88517872Y-36850499D01*
X88577483Y-36844091D01*
X88712331Y-36793796D01*
X88827546Y-36707546D01*
X88913796Y-36592331D01*
X88962810Y-36460916D01*
X89004681Y-36404984D01*
X89070145Y-36380566D01*
X89138418Y-36395417D01*
X89166673Y-36416569D01*
X89280213Y-36530109D01*
X89452179Y-36655048D01*
X89452181Y-36655049D01*
X89452184Y-36655051D01*
X89641588Y-36751557D01*
X89843757Y-36817246D01*
X90053713Y-36850500D01*
X90053714Y-36850500D01*
X90266286Y-36850500D01*
X90266287Y-36850500D01*
X90476243Y-36817246D01*
X90678412Y-36751557D01*
X90867816Y-36655051D01*
X90905906Y-36627377D01*
X91039786Y-36530109D01*
X91039788Y-36530106D01*
X91039792Y-36530104D01*
X91190104Y-36379792D01*
X91190106Y-36379788D01*
X91190109Y-36379786D01*
X91315048Y-36207820D01*
X91315047Y-36207820D01*
X91315051Y-36207816D01*
X91319514Y-36199054D01*
X91367488Y-36148259D01*
X91435308Y-36131463D01*
X91501444Y-36153999D01*
X91540484Y-36199054D01*
X91544591Y-36207115D01*
X91544951Y-36207820D01*
X91669890Y-36379786D01*
X91820213Y-36530109D01*
X91992179Y-36655048D01*
X91992181Y-36655049D01*
X91992184Y-36655051D01*
X92181588Y-36751557D01*
X92383757Y-36817246D01*
X92593713Y-36850500D01*
X92593714Y-36850500D01*
X92806286Y-36850500D01*
X92806287Y-36850500D01*
X93016243Y-36817246D01*
X93218412Y-36751557D01*
X93407816Y-36655051D01*
X93445906Y-36627377D01*
X93579786Y-36530109D01*
X93579788Y-36530106D01*
X93579792Y-36530104D01*
X93730104Y-36379792D01*
X93730106Y-36379788D01*
X93730109Y-36379786D01*
X93806047Y-36275265D01*
X93855051Y-36207816D01*
X93859793Y-36198508D01*
X93907763Y-36147711D01*
X93975583Y-36130911D01*
X94041719Y-36153445D01*
X94080763Y-36198500D01*
X94085373Y-36207547D01*
X94124728Y-36261716D01*
X94757037Y-35629408D01*
X94774075Y-35692993D01*
X94839901Y-35807007D01*
X94932993Y-35900099D01*
X95047007Y-35965925D01*
X95110590Y-35982962D01*
X94478282Y-36615269D01*
X94478282Y-36615270D01*
X94532449Y-36654624D01*
X94721782Y-36751095D01*
X94923870Y-36816757D01*
X95133754Y-36850000D01*
X95346246Y-36850000D01*
X95556127Y-36816757D01*
X95556130Y-36816757D01*
X95758217Y-36751095D01*
X95947554Y-36654622D01*
X96001716Y-36615270D01*
X96001717Y-36615270D01*
X95369408Y-35982962D01*
X95432993Y-35965925D01*
X95547007Y-35900099D01*
X95640099Y-35807007D01*
X95705925Y-35692993D01*
X95722962Y-35629409D01*
X96355270Y-36261717D01*
X96355270Y-36261716D01*
X96394622Y-36207554D01*
X96491095Y-36018217D01*
X96556757Y-35816130D01*
X96556757Y-35816127D01*
X96590000Y-35606246D01*
X96590000Y-35393753D01*
X96556757Y-35183872D01*
X96556757Y-35183869D01*
X96491095Y-34981782D01*
X96394624Y-34792449D01*
X96355270Y-34738282D01*
X96355269Y-34738282D01*
X95722962Y-35370590D01*
X95705925Y-35307007D01*
X95640099Y-35192993D01*
X95547007Y-35099901D01*
X95432993Y-35034075D01*
X95369409Y-35017037D01*
X96001716Y-34384728D01*
X95947550Y-34345375D01*
X95758217Y-34248904D01*
X95556129Y-34183242D01*
X95346246Y-34150000D01*
X95133754Y-34150000D01*
X94923872Y-34183242D01*
X94923869Y-34183242D01*
X94721782Y-34248904D01*
X94532439Y-34345380D01*
X94478282Y-34384727D01*
X94478282Y-34384728D01*
X95110591Y-35017037D01*
X95047007Y-35034075D01*
X94932993Y-35099901D01*
X94839901Y-35192993D01*
X94774075Y-35307007D01*
X94757037Y-35370591D01*
X94124728Y-34738282D01*
X94124727Y-34738282D01*
X94085380Y-34792440D01*
X94085376Y-34792446D01*
X94080760Y-34801505D01*
X94032781Y-34852297D01*
X93964959Y-34869087D01*
X93898826Y-34846543D01*
X93859794Y-34801493D01*
X93855051Y-34792184D01*
X93855049Y-34792181D01*
X93855048Y-34792179D01*
X93730109Y-34620213D01*
X93579786Y-34469890D01*
X93407820Y-34344951D01*
X93218414Y-34248444D01*
X93218413Y-34248443D01*
X93218412Y-34248443D01*
X93016243Y-34182754D01*
X93016241Y-34182753D01*
X93016240Y-34182753D01*
X92854957Y-34157208D01*
X92806287Y-34149500D01*
X92593713Y-34149500D01*
X92545042Y-34157208D01*
X92383760Y-34182753D01*
X92181585Y-34248444D01*
X91992179Y-34344951D01*
X91820213Y-34469890D01*
X91669890Y-34620213D01*
X91544949Y-34792182D01*
X91540484Y-34800946D01*
X91492509Y-34851742D01*
X91424688Y-34868536D01*
X91358553Y-34845998D01*
X91319516Y-34800946D01*
X91315050Y-34792182D01*
X91190109Y-34620213D01*
X91039786Y-34469890D01*
X90867820Y-34344951D01*
X90678414Y-34248444D01*
X90678413Y-34248443D01*
X90678412Y-34248443D01*
X90476243Y-34182754D01*
X90476241Y-34182753D01*
X90476240Y-34182753D01*
X90314957Y-34157208D01*
X90266287Y-34149500D01*
X90053713Y-34149500D01*
X90005042Y-34157208D01*
X89843760Y-34182753D01*
X89641585Y-34248444D01*
X89452179Y-34344951D01*
X89280215Y-34469889D01*
X89166673Y-34583431D01*
X89105350Y-34616915D01*
X89035658Y-34611931D01*
X88979725Y-34570059D01*
X88962810Y-34539082D01*
X88913797Y-34407671D01*
X88913793Y-34407664D01*
X88827547Y-34292455D01*
X88827544Y-34292452D01*
X88712335Y-34206206D01*
X88712328Y-34206202D01*
X88577482Y-34155908D01*
X88577483Y-34155908D01*
X88517883Y-34149501D01*
X88517881Y-34149500D01*
X88517873Y-34149500D01*
X88517864Y-34149500D01*
X86722129Y-34149500D01*
X86722123Y-34149501D01*
X86662516Y-34155908D01*
X86527671Y-34206202D01*
X86527664Y-34206206D01*
X86412455Y-34292452D01*
X86412452Y-34292455D01*
X86326206Y-34407664D01*
X86326202Y-34407671D01*
X86275908Y-34542517D01*
X86269501Y-34602116D01*
X86269500Y-34602135D01*
X61290725Y-34602135D01*
X61251557Y-34481588D01*
X61251555Y-34481585D01*
X61251555Y-34481583D01*
X61198705Y-34377861D01*
X61155051Y-34292184D01*
X61155049Y-34292181D01*
X61155048Y-34292179D01*
X61030109Y-34120213D01*
X60879786Y-33969890D01*
X60707820Y-33844951D01*
X60518414Y-33748444D01*
X60518413Y-33748443D01*
X60518412Y-33748443D01*
X60316243Y-33682754D01*
X60316241Y-33682753D01*
X60316240Y-33682753D01*
X60154957Y-33657208D01*
X60106287Y-33649500D01*
X59893713Y-33649500D01*
X59845042Y-33657208D01*
X59683760Y-33682753D01*
X59481585Y-33748444D01*
X59292179Y-33844951D01*
X59120213Y-33969890D01*
X58969890Y-34120213D01*
X58844951Y-34292179D01*
X58748444Y-34481585D01*
X58682753Y-34683760D01*
X58656060Y-34852297D01*
X58649500Y-34893713D01*
X56612175Y-34893713D01*
X56600520Y-32123741D01*
X56619922Y-32056622D01*
X56672533Y-32010645D01*
X56723738Y-31999224D01*
X107313834Y-31682244D01*
X107380993Y-31701508D01*
G37*
%TD.AperFunction*%
%TA.AperFunction,Conductor*%
G36*
X127176597Y-31620185D02*
G01*
X127222352Y-31672989D01*
X127232296Y-31742147D01*
X127203271Y-31805703D01*
X127180685Y-31826071D01*
X127165631Y-31836613D01*
X127160858Y-31839955D01*
X126999954Y-32000859D01*
X126941781Y-32083934D01*
X126941782Y-32083935D01*
X126941132Y-32084863D01*
X126887713Y-32158390D01*
X126882535Y-32168550D01*
X126877560Y-32175656D01*
X126877558Y-32175656D01*
X126869433Y-32187262D01*
X126831838Y-32267882D01*
X126830920Y-32269849D01*
X126794780Y-32340781D01*
X126787735Y-32362458D01*
X126784532Y-32369329D01*
X126784529Y-32369338D01*
X126773261Y-32393503D01*
X126773261Y-32393504D01*
X126753459Y-32467404D01*
X126753458Y-32467403D01*
X126752614Y-32470551D01*
X126731523Y-32535466D01*
X126726175Y-32569224D01*
X126724492Y-32575507D01*
X126724492Y-32575511D01*
X126714366Y-32613304D01*
X126714364Y-32613313D01*
X126708783Y-32677106D01*
X126707728Y-32685697D01*
X126699500Y-32737643D01*
X126699500Y-32737648D01*
X126699500Y-32942352D01*
X126708406Y-32998582D01*
X126714365Y-33066692D01*
X126726171Y-33110756D01*
X126727188Y-33117175D01*
X126727190Y-33117181D01*
X126731521Y-33144525D01*
X126731522Y-33144530D01*
X126751617Y-33206378D01*
X126753460Y-33212600D01*
X126773260Y-33286494D01*
X126784529Y-33310662D01*
X126785231Y-33312167D01*
X126787733Y-33317532D01*
X126794780Y-33339219D01*
X126830930Y-33410169D01*
X126831844Y-33412128D01*
X126869432Y-33492734D01*
X126877562Y-33504346D01*
X126882535Y-33511448D01*
X126887713Y-33521610D01*
X126941164Y-33595180D01*
X126941793Y-33596078D01*
X126999953Y-33679140D01*
X127160858Y-33840045D01*
X127238197Y-33894198D01*
X127244800Y-33898821D01*
X127318390Y-33952287D01*
X127328547Y-33957462D01*
X127335648Y-33962434D01*
X127335652Y-33962436D01*
X127347266Y-33970568D01*
X127347270Y-33970570D01*
X127405272Y-33997617D01*
X127415927Y-34006999D01*
X127429131Y-34012224D01*
X127441629Y-34029629D01*
X127457712Y-34043789D01*
X127461604Y-34057444D01*
X127469886Y-34068977D01*
X127470990Y-34090375D01*
X127476864Y-34110982D01*
X127472755Y-34124573D01*
X127473488Y-34138754D01*
X127462848Y-34157352D01*
X127456649Y-34177864D01*
X127445167Y-34188259D01*
X127438794Y-34199401D01*
X127414369Y-34216145D01*
X127410126Y-34219988D01*
X127407711Y-34221244D01*
X127347266Y-34249432D01*
X127329002Y-34262219D01*
X127321792Y-34265973D01*
X127321591Y-34266012D01*
X127320847Y-34266460D01*
X127318397Y-34267708D01*
X127318394Y-34267710D01*
X127245696Y-34320526D01*
X127243939Y-34321779D01*
X127160859Y-34379954D01*
X126999954Y-34540859D01*
X126941781Y-34623934D01*
X126941782Y-34623935D01*
X126941132Y-34624863D01*
X126887713Y-34698390D01*
X126882535Y-34708550D01*
X126877560Y-34715656D01*
X126877558Y-34715656D01*
X126869433Y-34727262D01*
X126831838Y-34807882D01*
X126830920Y-34809849D01*
X126794780Y-34880781D01*
X126787735Y-34902458D01*
X126784532Y-34909329D01*
X126784529Y-34909338D01*
X126773261Y-34933503D01*
X126773261Y-34933504D01*
X126753459Y-35007404D01*
X126753458Y-35007403D01*
X126752614Y-35010551D01*
X126731523Y-35075466D01*
X126726175Y-35109224D01*
X126724492Y-35115507D01*
X126724492Y-35115511D01*
X126714366Y-35153304D01*
X126714364Y-35153313D01*
X126708783Y-35217106D01*
X126707728Y-35225697D01*
X126699500Y-35277643D01*
X126699500Y-35277648D01*
X126699500Y-35482352D01*
X126708406Y-35538582D01*
X126714365Y-35606692D01*
X126726171Y-35650756D01*
X126727188Y-35657175D01*
X126727190Y-35657181D01*
X126731521Y-35684525D01*
X126731522Y-35684530D01*
X126731523Y-35684534D01*
X126734271Y-35692993D01*
X126736173Y-35698844D01*
X126738167Y-35768685D01*
X126705922Y-35824841D01*
X125942286Y-36588478D01*
X125830481Y-36700282D01*
X125830479Y-36700285D01*
X125821960Y-36715041D01*
X125792662Y-36765787D01*
X125751423Y-36837215D01*
X125710499Y-36989943D01*
X125710499Y-36989945D01*
X125710499Y-37158046D01*
X125710500Y-37158059D01*
X125710500Y-61907571D01*
X125690815Y-61974610D01*
X125638011Y-62020365D01*
X125568853Y-62030309D01*
X125505297Y-62001284D01*
X125490410Y-61985946D01*
X125478120Y-61970877D01*
X125328919Y-61847447D01*
X125158584Y-61755348D01*
X125158583Y-61755347D01*
X125158580Y-61755346D01*
X124973609Y-61698087D01*
X124781029Y-61677846D01*
X124781027Y-61677846D01*
X124707670Y-61684522D01*
X124588182Y-61695396D01*
X124402426Y-61750067D01*
X124402422Y-61750069D01*
X124230831Y-61839773D01*
X124230819Y-61839781D01*
X124079910Y-61961115D01*
X124079909Y-61961116D01*
X123955444Y-62109446D01*
X123955442Y-62109449D01*
X123862154Y-62279139D01*
X123803602Y-62463718D01*
X123803602Y-62463719D01*
X123782019Y-62656146D01*
X123782019Y-62656153D01*
X123798221Y-62849101D01*
X123798222Y-62849107D01*
X123838089Y-62988139D01*
X123851596Y-63035245D01*
X123940106Y-63207468D01*
X123940107Y-63207470D01*
X124051810Y-63348403D01*
X124060387Y-63359225D01*
X124207851Y-63484726D01*
X124207854Y-63484728D01*
X124207857Y-63484730D01*
X124258428Y-63512993D01*
X124376882Y-63579195D01*
X124561044Y-63639033D01*
X124753321Y-63661960D01*
X124946390Y-63647105D01*
X125132896Y-63595031D01*
X125305736Y-63507724D01*
X125458325Y-63388507D01*
X125492632Y-63348762D01*
X125551338Y-63310875D01*
X125621207Y-63310741D01*
X125680057Y-63348403D01*
X125709204Y-63411903D01*
X125710500Y-63429785D01*
X125710500Y-73846000D01*
X125690815Y-73913039D01*
X125638011Y-73958794D01*
X125586500Y-73970000D01*
X112010000Y-73970000D01*
X112010000Y-78309895D01*
X115522057Y-81037343D01*
X115562931Y-81094007D01*
X115570000Y-81135277D01*
X115570000Y-82469966D01*
X115570476Y-82513635D01*
X115570476Y-82513641D01*
X115578083Y-82600590D01*
X115593238Y-82686537D01*
X115593241Y-82686550D01*
X115615824Y-82770834D01*
X115615825Y-82770837D01*
X115645674Y-82852851D01*
X115645675Y-82852854D01*
X115645680Y-82852866D01*
X115682567Y-82931969D01*
X115726207Y-83007556D01*
X115726211Y-83007562D01*
X115726218Y-83007573D01*
X115776269Y-83079053D01*
X115816820Y-83127379D01*
X115832371Y-83145912D01*
X115894088Y-83207629D01*
X115921886Y-83230954D01*
X115960946Y-83263730D01*
X116032426Y-83313781D01*
X116032433Y-83313785D01*
X116032444Y-83313793D01*
X116108031Y-83357433D01*
X116187134Y-83394320D01*
X116269151Y-83424171D01*
X116269161Y-83424173D01*
X116269162Y-83424174D01*
X116269165Y-83424175D01*
X116288131Y-83429256D01*
X116353457Y-83446761D01*
X116439412Y-83461917D01*
X116526360Y-83469524D01*
X116570000Y-83470000D01*
X116613640Y-83469524D01*
X116700588Y-83461917D01*
X116786543Y-83446761D01*
X116870849Y-83424171D01*
X116952866Y-83394320D01*
X117031969Y-83357433D01*
X117107556Y-83313793D01*
X117179052Y-83263731D01*
X117245912Y-83207629D01*
X117307629Y-83145912D01*
X117363731Y-83079052D01*
X117403065Y-83022876D01*
X117457641Y-82979252D01*
X117504640Y-82970000D01*
X118175360Y-82970000D01*
X118242399Y-82989685D01*
X118276935Y-83022877D01*
X118316269Y-83079053D01*
X118356820Y-83127379D01*
X118372371Y-83145912D01*
X118434088Y-83207629D01*
X118461886Y-83230954D01*
X118500946Y-83263730D01*
X118572426Y-83313781D01*
X118572433Y-83313785D01*
X118572444Y-83313793D01*
X118648031Y-83357433D01*
X118727134Y-83394320D01*
X118809151Y-83424171D01*
X118809161Y-83424173D01*
X118809162Y-83424174D01*
X118809165Y-83424175D01*
X118828131Y-83429256D01*
X118893457Y-83446761D01*
X118979412Y-83461917D01*
X119066360Y-83469524D01*
X119110000Y-83470000D01*
X119153640Y-83469524D01*
X119240588Y-83461917D01*
X119326543Y-83446761D01*
X119410849Y-83424171D01*
X119492866Y-83394320D01*
X119571969Y-83357433D01*
X119647556Y-83313793D01*
X119719052Y-83263731D01*
X119785912Y-83207629D01*
X119847629Y-83145912D01*
X119903731Y-83079052D01*
X119943065Y-83022876D01*
X119997641Y-82979252D01*
X120044640Y-82970000D01*
X120715562Y-82970000D01*
X120782601Y-82989685D01*
X120817132Y-83022870D01*
X120856409Y-83078958D01*
X120856416Y-83078968D01*
X120912509Y-83145813D01*
X120912513Y-83145817D01*
X120912514Y-83145818D01*
X120974231Y-83207531D01*
X121041092Y-83263630D01*
X121112589Y-83313689D01*
X121188176Y-83357326D01*
X121267279Y-83394209D01*
X121267289Y-83394212D01*
X121267292Y-83394214D01*
X121349278Y-83424051D01*
X121349281Y-83424052D01*
X121349295Y-83424057D01*
X121433601Y-83446643D01*
X121519555Y-83461795D01*
X121519558Y-83461795D01*
X121519561Y-83461796D01*
X121606477Y-83469397D01*
X121606487Y-83469397D01*
X121606502Y-83469399D01*
X121650141Y-83469925D01*
X121693780Y-83469448D01*
X121780727Y-83461837D01*
X121866679Y-83446679D01*
X121950983Y-83424087D01*
X122032998Y-83394233D01*
X122112099Y-83357346D01*
X122187684Y-83313705D01*
X122228648Y-83285020D01*
X122259155Y-83263659D01*
X122259162Y-83263653D01*
X122259177Y-83263643D01*
X122326036Y-83207540D01*
X122387751Y-83145824D01*
X122443853Y-83078965D01*
X122493914Y-83007470D01*
X122537553Y-82931884D01*
X122574440Y-82852783D01*
X122604292Y-82770768D01*
X122626882Y-82686464D01*
X122642040Y-82600511D01*
X122649648Y-82513564D01*
X122650141Y-82469925D01*
X122650141Y-81135168D01*
X122669826Y-81068129D01*
X122698082Y-81037235D01*
X125510445Y-78853165D01*
X125575465Y-78827594D01*
X125643990Y-78841235D01*
X125694263Y-78889757D01*
X125710500Y-78951102D01*
X125710500Y-84013902D01*
X125690815Y-84080941D01*
X125674181Y-84101583D01*
X121907709Y-87868054D01*
X121846386Y-87901539D01*
X121785435Y-87899450D01*
X121752572Y-87889903D01*
X121752573Y-87889903D01*
X121752569Y-87889902D01*
X121752566Y-87889901D01*
X121752563Y-87889901D01*
X121715701Y-87887000D01*
X121715694Y-87887000D01*
X121284306Y-87887000D01*
X121284298Y-87887000D01*
X121247432Y-87889901D01*
X121247426Y-87889902D01*
X121089606Y-87935754D01*
X121089603Y-87935755D01*
X120948137Y-88019417D01*
X120948129Y-88019423D01*
X120831923Y-88135629D01*
X120831917Y-88135637D01*
X120748255Y-88277103D01*
X120748254Y-88277106D01*
X120702402Y-88434926D01*
X120702401Y-88434932D01*
X120699500Y-88471798D01*
X120699500Y-89638000D01*
X120679815Y-89705039D01*
X120627011Y-89750794D01*
X120575500Y-89762000D01*
X120334298Y-89762000D01*
X120297432Y-89764901D01*
X120297426Y-89764902D01*
X120139606Y-89810754D01*
X120139603Y-89810755D01*
X120018742Y-89882232D01*
X119955621Y-89899500D01*
X118374500Y-89899500D01*
X118307461Y-89879815D01*
X118261706Y-89827011D01*
X118250500Y-89775500D01*
X118250499Y-89262129D01*
X118250498Y-89262123D01*
X118250497Y-89262116D01*
X118244091Y-89202517D01*
X118243882Y-89201957D01*
X118193797Y-89067671D01*
X118193793Y-89067664D01*
X118107547Y-88952455D01*
X118107544Y-88952452D01*
X117992335Y-88866206D01*
X117992328Y-88866202D01*
X117857482Y-88815908D01*
X117857483Y-88815908D01*
X117797883Y-88809501D01*
X117797881Y-88809500D01*
X117797873Y-88809500D01*
X117797864Y-88809500D01*
X116702129Y-88809500D01*
X116702123Y-88809501D01*
X116642516Y-88815908D01*
X116507671Y-88866202D01*
X116507664Y-88866206D01*
X116392456Y-88952452D01*
X116392455Y-88952453D01*
X116392454Y-88952454D01*
X116312087Y-89059811D01*
X116256153Y-89101682D01*
X116212820Y-89109500D01*
X115832680Y-89109500D01*
X115765641Y-89089815D01*
X115719886Y-89037011D01*
X115709942Y-88967853D01*
X115719738Y-88937976D01*
X115718444Y-88937440D01*
X115771437Y-88809501D01*
X115773580Y-88804328D01*
X115782389Y-88760041D01*
X115800500Y-88668995D01*
X115800500Y-88531004D01*
X115773581Y-88395677D01*
X115773580Y-88395676D01*
X115773580Y-88395672D01*
X115752093Y-88343797D01*
X115720778Y-88268195D01*
X115720771Y-88268182D01*
X115644114Y-88153458D01*
X115644111Y-88153454D01*
X115546545Y-88055888D01*
X115546541Y-88055885D01*
X115431817Y-87979228D01*
X115431804Y-87979221D01*
X115304332Y-87926421D01*
X115304322Y-87926418D01*
X115168995Y-87899500D01*
X115168993Y-87899500D01*
X115031007Y-87899500D01*
X115031005Y-87899500D01*
X114895677Y-87926418D01*
X114895667Y-87926421D01*
X114768195Y-87979221D01*
X114768182Y-87979228D01*
X114653458Y-88055885D01*
X114653454Y-88055888D01*
X114555888Y-88153454D01*
X114555885Y-88153458D01*
X114479228Y-88268182D01*
X114479221Y-88268195D01*
X114426421Y-88395667D01*
X114426418Y-88395677D01*
X114399500Y-88531004D01*
X114399500Y-88531007D01*
X114399500Y-88668993D01*
X114399500Y-88668995D01*
X114399499Y-88668995D01*
X114426418Y-88804322D01*
X114426421Y-88804332D01*
X114479221Y-88931804D01*
X114479228Y-88931817D01*
X114555885Y-89046541D01*
X114555888Y-89046545D01*
X114653454Y-89144111D01*
X114653458Y-89144114D01*
X114768182Y-89220771D01*
X114768195Y-89220778D01*
X114844664Y-89252452D01*
X114895672Y-89273580D01*
X114934876Y-89281378D01*
X114996785Y-89313762D01*
X115031359Y-89374478D01*
X115027620Y-89444247D01*
X115026866Y-89446327D01*
X115005908Y-89502519D01*
X115002749Y-89531908D01*
X114999501Y-89562123D01*
X114999500Y-89562135D01*
X114999500Y-91157870D01*
X114999501Y-91157876D01*
X115005908Y-91217483D01*
X115056202Y-91352328D01*
X115056206Y-91352335D01*
X115097633Y-91407674D01*
X115097636Y-91407677D01*
X115142454Y-91467546D01*
X115257665Y-91553793D01*
X115257668Y-91553795D01*
X115257671Y-91553797D01*
X115392517Y-91604091D01*
X115392516Y-91604091D01*
X115399444Y-91604835D01*
X115452127Y-91610500D01*
X116247872Y-91610499D01*
X116307483Y-91604091D01*
X116442331Y-91553796D01*
X116557546Y-91467546D01*
X116643796Y-91352331D01*
X116694091Y-91217483D01*
X116694762Y-91211244D01*
X116721500Y-91146693D01*
X116778893Y-91106845D01*
X116818051Y-91100500D01*
X119625500Y-91100500D01*
X119692539Y-91120185D01*
X119738294Y-91172989D01*
X119749500Y-91224500D01*
X119749500Y-91653201D01*
X119752401Y-91690067D01*
X119752402Y-91690073D01*
X119798254Y-91847893D01*
X119798255Y-91847896D01*
X119881917Y-91989362D01*
X119881923Y-91989370D01*
X119998129Y-92105576D01*
X119998133Y-92105579D01*
X119998135Y-92105581D01*
X120139602Y-92189244D01*
X120169630Y-92197968D01*
X120297426Y-92235097D01*
X120297429Y-92235097D01*
X120297431Y-92235098D01*
X120334306Y-92238000D01*
X120334314Y-92238000D01*
X120765686Y-92238000D01*
X120765694Y-92238000D01*
X120802569Y-92235098D01*
X120802571Y-92235097D01*
X120802573Y-92235097D01*
X120844191Y-92223005D01*
X120960398Y-92189244D01*
X121101865Y-92105581D01*
X121218081Y-91989365D01*
X121301744Y-91847898D01*
X121347598Y-91690069D01*
X121350500Y-91653194D01*
X121350500Y-90487000D01*
X121353050Y-90478314D01*
X121351762Y-90469353D01*
X121362740Y-90445312D01*
X121370185Y-90419961D01*
X121377025Y-90414033D01*
X121380787Y-90405797D01*
X121403021Y-90391507D01*
X121422989Y-90374206D01*
X121433503Y-90371918D01*
X121439565Y-90368023D01*
X121474500Y-90363000D01*
X121525500Y-90363000D01*
X121592539Y-90382685D01*
X121638294Y-90435489D01*
X121649500Y-90487000D01*
X121649500Y-91653201D01*
X121652401Y-91690067D01*
X121652402Y-91690073D01*
X121698254Y-91847893D01*
X121698255Y-91847896D01*
X121781917Y-91989362D01*
X121781923Y-91989370D01*
X121898129Y-92105576D01*
X121898133Y-92105579D01*
X121898135Y-92105581D01*
X122039602Y-92189244D01*
X122069630Y-92197968D01*
X122197426Y-92235097D01*
X122197429Y-92235097D01*
X122197431Y-92235098D01*
X122234306Y-92238000D01*
X122234314Y-92238000D01*
X122665686Y-92238000D01*
X122665694Y-92238000D01*
X122702569Y-92235098D01*
X122702571Y-92235097D01*
X122702573Y-92235097D01*
X122821057Y-92200674D01*
X122890926Y-92200873D01*
X122949596Y-92238815D01*
X122978440Y-92302453D01*
X122968299Y-92371583D01*
X122943333Y-92407431D01*
X119432680Y-95918083D01*
X119371357Y-95951568D01*
X119301665Y-95946584D01*
X119257318Y-95918083D01*
X113736818Y-90397583D01*
X113703333Y-90336260D01*
X113700499Y-90309902D01*
X113700499Y-89562129D01*
X113700498Y-89562123D01*
X113700497Y-89562116D01*
X113694091Y-89502517D01*
X113690436Y-89492718D01*
X113643797Y-89367671D01*
X113643793Y-89367664D01*
X113557547Y-89252455D01*
X113557544Y-89252452D01*
X113442335Y-89166206D01*
X113442328Y-89166202D01*
X113307482Y-89115908D01*
X113307483Y-89115908D01*
X113247883Y-89109501D01*
X113247881Y-89109500D01*
X113247873Y-89109500D01*
X113247865Y-89109500D01*
X112832680Y-89109500D01*
X112765641Y-89089815D01*
X112719886Y-89037011D01*
X112709942Y-88967853D01*
X112719738Y-88937976D01*
X112718444Y-88937440D01*
X112771437Y-88809501D01*
X112773580Y-88804328D01*
X112782389Y-88760041D01*
X112800500Y-88668995D01*
X112800500Y-88531004D01*
X112773581Y-88395677D01*
X112773580Y-88395676D01*
X112773580Y-88395672D01*
X112752093Y-88343797D01*
X112720778Y-88268195D01*
X112720771Y-88268182D01*
X112644114Y-88153458D01*
X112644111Y-88153454D01*
X112546545Y-88055888D01*
X112546541Y-88055885D01*
X112431817Y-87979228D01*
X112431804Y-87979221D01*
X112304332Y-87926421D01*
X112304322Y-87926418D01*
X112168995Y-87899500D01*
X112168993Y-87899500D01*
X112031007Y-87899500D01*
X112031005Y-87899500D01*
X111895677Y-87926418D01*
X111895667Y-87926421D01*
X111768195Y-87979221D01*
X111768182Y-87979228D01*
X111653458Y-88055885D01*
X111653454Y-88055888D01*
X111555888Y-88153454D01*
X111555885Y-88153458D01*
X111479228Y-88268182D01*
X111479221Y-88268195D01*
X111426421Y-88395667D01*
X111426418Y-88395677D01*
X111399500Y-88531004D01*
X111399500Y-88531007D01*
X111399500Y-88668993D01*
X111399500Y-88668995D01*
X111399499Y-88668995D01*
X111426418Y-88804322D01*
X111426421Y-88804332D01*
X111481556Y-88937440D01*
X111479057Y-88938475D01*
X111490920Y-88995447D01*
X111465922Y-89060691D01*
X111409617Y-89102063D01*
X111367320Y-89109500D01*
X110987181Y-89109500D01*
X110920142Y-89089815D01*
X110887915Y-89059812D01*
X110825572Y-88976534D01*
X110807546Y-88952454D01*
X110807544Y-88952453D01*
X110807544Y-88952452D01*
X110692335Y-88866206D01*
X110692328Y-88866202D01*
X110557482Y-88815908D01*
X110557483Y-88815908D01*
X110497883Y-88809501D01*
X110497881Y-88809500D01*
X110497873Y-88809500D01*
X110497864Y-88809500D01*
X109402129Y-88809500D01*
X109402123Y-88809501D01*
X109342516Y-88815908D01*
X109207671Y-88866202D01*
X109207664Y-88866206D01*
X109092455Y-88952452D01*
X109092452Y-88952455D01*
X109006206Y-89067664D01*
X109006202Y-89067671D01*
X108955908Y-89202517D01*
X108953481Y-89225097D01*
X108949501Y-89262123D01*
X108949500Y-89262135D01*
X108949500Y-90157870D01*
X108949501Y-90157876D01*
X108955908Y-90217483D01*
X109006202Y-90352328D01*
X109006206Y-90352335D01*
X109092452Y-90467544D01*
X109092455Y-90467547D01*
X109207664Y-90553793D01*
X109207671Y-90553797D01*
X109342517Y-90604091D01*
X109342516Y-90604091D01*
X109349444Y-90604835D01*
X109402127Y-90610500D01*
X110375500Y-90610499D01*
X110442539Y-90630183D01*
X110488294Y-90682987D01*
X110499500Y-90734499D01*
X110499500Y-91157870D01*
X110499501Y-91157876D01*
X110505908Y-91217483D01*
X110556202Y-91352328D01*
X110556206Y-91352335D01*
X110642452Y-91467544D01*
X110642455Y-91467547D01*
X110757664Y-91553793D01*
X110757671Y-91553797D01*
X110892517Y-91604091D01*
X110892516Y-91604091D01*
X110899444Y-91604835D01*
X110952127Y-91610500D01*
X111747872Y-91610499D01*
X111807483Y-91604091D01*
X111942331Y-91553796D01*
X112025689Y-91491393D01*
X112091153Y-91466977D01*
X112159426Y-91481828D01*
X112174309Y-91491393D01*
X112257665Y-91553793D01*
X112257669Y-91553796D01*
X112257671Y-91553797D01*
X112392517Y-91604091D01*
X112392516Y-91604091D01*
X112399444Y-91604835D01*
X112452127Y-91610500D01*
X113199902Y-91610499D01*
X113266941Y-91630183D01*
X113287583Y-91646818D01*
X118663181Y-97022416D01*
X118696666Y-97083739D01*
X118699500Y-97110097D01*
X118699500Y-100913330D01*
X118699499Y-100913348D01*
X118699499Y-101079054D01*
X118699498Y-101079054D01*
X118732039Y-101200499D01*
X118740423Y-101231785D01*
X118759779Y-101265310D01*
X118800849Y-101336446D01*
X118819479Y-101368714D01*
X118819481Y-101368717D01*
X118938349Y-101487585D01*
X118938354Y-101487589D01*
X119830323Y-102379559D01*
X119863808Y-102440881D01*
X119858824Y-102510573D01*
X119816952Y-102566506D01*
X119751488Y-102590923D01*
X119744040Y-102591231D01*
X114551795Y-102649791D01*
X114484538Y-102630864D01*
X114462716Y-102613480D01*
X104861417Y-93012181D01*
X104827932Y-92950858D01*
X104832916Y-92881166D01*
X104874788Y-92825233D01*
X104940252Y-92800816D01*
X104949098Y-92800500D01*
X105078844Y-92800500D01*
X105078845Y-92800499D01*
X105233497Y-92769737D01*
X105379179Y-92709394D01*
X105442740Y-92666924D01*
X105491109Y-92634605D01*
X105557786Y-92613727D01*
X105625167Y-92632211D01*
X105628891Y-92634605D01*
X105740814Y-92709390D01*
X105740827Y-92709397D01*
X105886498Y-92769735D01*
X105886503Y-92769737D01*
X106026529Y-92797590D01*
X106041153Y-92800499D01*
X106041156Y-92800500D01*
X106041158Y-92800500D01*
X106198844Y-92800500D01*
X106198845Y-92800499D01*
X106353497Y-92769737D01*
X106499179Y-92709394D01*
X106630289Y-92621789D01*
X106741789Y-92510289D01*
X106829394Y-92379179D01*
X106889737Y-92233497D01*
X106920500Y-92078842D01*
X106920500Y-91921158D01*
X106920500Y-91921155D01*
X106920499Y-91921153D01*
X106906743Y-91851997D01*
X106889737Y-91766503D01*
X106858078Y-91690070D01*
X106829397Y-91620827D01*
X106829390Y-91620814D01*
X106741398Y-91489125D01*
X106720520Y-91422447D01*
X106720500Y-91420234D01*
X106720500Y-87052135D01*
X108949500Y-87052135D01*
X108949500Y-87947870D01*
X108949501Y-87947876D01*
X108955908Y-88007483D01*
X109006202Y-88142328D01*
X109006206Y-88142335D01*
X109092452Y-88257544D01*
X109092455Y-88257547D01*
X109207664Y-88343793D01*
X109207671Y-88343797D01*
X109342517Y-88394091D01*
X109342516Y-88394091D01*
X109349444Y-88394835D01*
X109402127Y-88400500D01*
X110497872Y-88400499D01*
X110557483Y-88394091D01*
X110692331Y-88343796D01*
X110807546Y-88257546D01*
X110893796Y-88142331D01*
X110944091Y-88007483D01*
X110950500Y-87947873D01*
X110950499Y-87052135D01*
X116249500Y-87052135D01*
X116249500Y-87947870D01*
X116249501Y-87947876D01*
X116255908Y-88007483D01*
X116306202Y-88142328D01*
X116306206Y-88142335D01*
X116392452Y-88257544D01*
X116392455Y-88257547D01*
X116507664Y-88343793D01*
X116507671Y-88343797D01*
X116642517Y-88394091D01*
X116642516Y-88394091D01*
X116649444Y-88394835D01*
X116702127Y-88400500D01*
X117797872Y-88400499D01*
X117857483Y-88394091D01*
X117992331Y-88343796D01*
X118107546Y-88257546D01*
X118193796Y-88142331D01*
X118244091Y-88007483D01*
X118250500Y-87947873D01*
X118250499Y-87052128D01*
X118244091Y-86992517D01*
X118193796Y-86857669D01*
X118193795Y-86857668D01*
X118193793Y-86857664D01*
X118107547Y-86742455D01*
X118107544Y-86742452D01*
X117992335Y-86656206D01*
X117992328Y-86656202D01*
X117857482Y-86605908D01*
X117857483Y-86605908D01*
X117797883Y-86599501D01*
X117797881Y-86599500D01*
X117797873Y-86599500D01*
X117797864Y-86599500D01*
X116702129Y-86599500D01*
X116702123Y-86599501D01*
X116642516Y-86605908D01*
X116507671Y-86656202D01*
X116507664Y-86656206D01*
X116392455Y-86742452D01*
X116392452Y-86742455D01*
X116306206Y-86857664D01*
X116306202Y-86857671D01*
X116255908Y-86992517D01*
X116249501Y-87052116D01*
X116249501Y-87052123D01*
X116249500Y-87052135D01*
X110950499Y-87052135D01*
X110950499Y-87052128D01*
X110944091Y-86992517D01*
X110893796Y-86857669D01*
X110893795Y-86857668D01*
X110893793Y-86857664D01*
X110807547Y-86742455D01*
X110807544Y-86742452D01*
X110692335Y-86656206D01*
X110692328Y-86656202D01*
X110557482Y-86605908D01*
X110557483Y-86605908D01*
X110497883Y-86599501D01*
X110497881Y-86599500D01*
X110497873Y-86599500D01*
X110497864Y-86599500D01*
X109402129Y-86599500D01*
X109402123Y-86599501D01*
X109342516Y-86605908D01*
X109207671Y-86656202D01*
X109207664Y-86656206D01*
X109092455Y-86742452D01*
X109092452Y-86742455D01*
X109006206Y-86857664D01*
X109006202Y-86857671D01*
X108955908Y-86992517D01*
X108949501Y-87052116D01*
X108949501Y-87052123D01*
X108949500Y-87052135D01*
X106720500Y-87052135D01*
X106720500Y-72183046D01*
X106740185Y-72116007D01*
X106756815Y-72095369D01*
X107291074Y-71561109D01*
X107352395Y-71527626D01*
X107422086Y-71532610D01*
X107478020Y-71574481D01*
X107486292Y-71588291D01*
X107486724Y-71588043D01*
X107489432Y-71592734D01*
X107619954Y-71779141D01*
X107780858Y-71940045D01*
X107780861Y-71940047D01*
X107967266Y-72070568D01*
X108025275Y-72097618D01*
X108077714Y-72143791D01*
X108096866Y-72210984D01*
X108076650Y-72277865D01*
X108025275Y-72322382D01*
X107967267Y-72349431D01*
X107967265Y-72349432D01*
X107780858Y-72479954D01*
X107619954Y-72640858D01*
X107489432Y-72827265D01*
X107489431Y-72827267D01*
X107393261Y-73033502D01*
X107393258Y-73033511D01*
X107334366Y-73253302D01*
X107334364Y-73253312D01*
X107319500Y-73423214D01*
X107319500Y-73536785D01*
X107334364Y-73706687D01*
X107334366Y-73706697D01*
X107393258Y-73926488D01*
X107393261Y-73926497D01*
X107489431Y-74132732D01*
X107489432Y-74132734D01*
X107619954Y-74319141D01*
X107780858Y-74480045D01*
X107780861Y-74480047D01*
X107967266Y-74610568D01*
X108019219Y-74634794D01*
X108071659Y-74680966D01*
X108090811Y-74748159D01*
X108070596Y-74815041D01*
X108025269Y-74856534D01*
X107960499Y-74891155D01*
X107960478Y-74891167D01*
X107829469Y-74978704D01*
X107829463Y-74978708D01*
X107752935Y-75041514D01*
X107641514Y-75152935D01*
X107578708Y-75229463D01*
X107578704Y-75229469D01*
X107491167Y-75360478D01*
X107491155Y-75360498D01*
X107444490Y-75447801D01*
X107384185Y-75593387D01*
X107355443Y-75688139D01*
X107355440Y-75688150D01*
X107339160Y-75769999D01*
X107339161Y-75770000D01*
X109786988Y-75770000D01*
X109754075Y-75827007D01*
X109720000Y-75954174D01*
X109720000Y-76085826D01*
X109754075Y-76212993D01*
X109786988Y-76270000D01*
X107339160Y-76270000D01*
X107355440Y-76351849D01*
X107355443Y-76351860D01*
X107384185Y-76446612D01*
X107444490Y-76592198D01*
X107491155Y-76679501D01*
X107491167Y-76679521D01*
X107578704Y-76810530D01*
X107578708Y-76810536D01*
X107641514Y-76887064D01*
X107752935Y-76998485D01*
X107829463Y-77061291D01*
X107829469Y-77061295D01*
X107960478Y-77148832D01*
X107960506Y-77148849D01*
X108025268Y-77183465D01*
X108075112Y-77232427D01*
X108090573Y-77300565D01*
X108066741Y-77366244D01*
X108019221Y-77405205D01*
X107967264Y-77429433D01*
X107780858Y-77559954D01*
X107619954Y-77720858D01*
X107489432Y-77907265D01*
X107489431Y-77907267D01*
X107393261Y-78113502D01*
X107393258Y-78113511D01*
X107334366Y-78333302D01*
X107334364Y-78333312D01*
X107319500Y-78503214D01*
X107319500Y-78616785D01*
X107334364Y-78786687D01*
X107334366Y-78786697D01*
X107393258Y-79006488D01*
X107393261Y-79006497D01*
X107489431Y-79212732D01*
X107489432Y-79212734D01*
X107619954Y-79399141D01*
X107780858Y-79560045D01*
X107780861Y-79560047D01*
X107967266Y-79690568D01*
X108025275Y-79717618D01*
X108077714Y-79763791D01*
X108096866Y-79830984D01*
X108076650Y-79897865D01*
X108025275Y-79942382D01*
X107967267Y-79969431D01*
X107967265Y-79969432D01*
X107780858Y-80099954D01*
X107619954Y-80260858D01*
X107489432Y-80447265D01*
X107489431Y-80447267D01*
X107393261Y-80653502D01*
X107393258Y-80653511D01*
X107334366Y-80873302D01*
X107334364Y-80873312D01*
X107319500Y-81043214D01*
X107319500Y-81156785D01*
X107334364Y-81326687D01*
X107334366Y-81326697D01*
X107393258Y-81546488D01*
X107393261Y-81546497D01*
X107489431Y-81752732D01*
X107489432Y-81752734D01*
X107619954Y-81939141D01*
X107780858Y-82100045D01*
X107780861Y-82100047D01*
X107967266Y-82230568D01*
X108173504Y-82326739D01*
X108393308Y-82385635D01*
X108563214Y-82400499D01*
X108563215Y-82400500D01*
X108563216Y-82400500D01*
X110322350Y-82400500D01*
X110322352Y-82400500D01*
X110374308Y-82392270D01*
X110378582Y-82391592D01*
X110446692Y-82385635D01*
X110490766Y-82373825D01*
X110524534Y-82368477D01*
X110586404Y-82348373D01*
X110592617Y-82346534D01*
X110666490Y-82326741D01*
X110666492Y-82326739D01*
X110666496Y-82326739D01*
X110697532Y-82312266D01*
X110719219Y-82305220D01*
X110790172Y-82269067D01*
X110872734Y-82230568D01*
X110891446Y-82217465D01*
X110901610Y-82212287D01*
X110975199Y-82158821D01*
X111059139Y-82100047D01*
X111220047Y-81939139D01*
X111278821Y-81855199D01*
X111332287Y-81781610D01*
X111337465Y-81771446D01*
X111350568Y-81752734D01*
X111389067Y-81670172D01*
X111425220Y-81599219D01*
X111432266Y-81577532D01*
X111446739Y-81546496D01*
X111446742Y-81546488D01*
X111466534Y-81472617D01*
X111467377Y-81469471D01*
X111488477Y-81404534D01*
X111493825Y-81370766D01*
X111505635Y-81326692D01*
X111511215Y-81262892D01*
X111512270Y-81254306D01*
X111520500Y-81202350D01*
X111520500Y-80997649D01*
X111512270Y-80945691D01*
X111512270Y-80945690D01*
X111511592Y-80941414D01*
X111505635Y-80873308D01*
X111493825Y-80829233D01*
X111488477Y-80795466D01*
X111468378Y-80733609D01*
X111466535Y-80727386D01*
X111446742Y-80653513D01*
X111446740Y-80653510D01*
X111446739Y-80653504D01*
X111432266Y-80622467D01*
X111425220Y-80600781D01*
X111389067Y-80529827D01*
X111350568Y-80447266D01*
X111342436Y-80435652D01*
X111342436Y-80435651D01*
X111337462Y-80428548D01*
X111332287Y-80418390D01*
X111278821Y-80344800D01*
X111220047Y-80260861D01*
X111220045Y-80260858D01*
X111059140Y-80099953D01*
X110976078Y-80041793D01*
X110975180Y-80041164D01*
X110901610Y-79987713D01*
X110891448Y-79982535D01*
X110884346Y-79977562D01*
X110872736Y-79969433D01*
X110814724Y-79942381D01*
X110804066Y-79932996D01*
X110790866Y-79927773D01*
X110778368Y-79910369D01*
X110762285Y-79896208D01*
X110758393Y-79882552D01*
X110750112Y-79871021D01*
X110749007Y-79849621D01*
X110743134Y-79829014D01*
X110747241Y-79815423D01*
X110746510Y-79801244D01*
X110757149Y-79782644D01*
X110763350Y-79762133D01*
X110774830Y-79751737D01*
X110781204Y-79740597D01*
X110805623Y-79723856D01*
X110809872Y-79720010D01*
X110812252Y-79718770D01*
X110872734Y-79690568D01*
X110891002Y-79677775D01*
X110898207Y-79674025D01*
X110898416Y-79673983D01*
X110899180Y-79673524D01*
X110901610Y-79672287D01*
X110974358Y-79619432D01*
X110976047Y-79618227D01*
X111059139Y-79560047D01*
X111220047Y-79399139D01*
X111278821Y-79315199D01*
X111332287Y-79241610D01*
X111337465Y-79231446D01*
X111350568Y-79212734D01*
X111389067Y-79130172D01*
X111425220Y-79059219D01*
X111432266Y-79037532D01*
X111446739Y-79006496D01*
X111446742Y-79006488D01*
X111466534Y-78932617D01*
X111467377Y-78929471D01*
X111488477Y-78864534D01*
X111493825Y-78830766D01*
X111505635Y-78786692D01*
X111511215Y-78722892D01*
X111512270Y-78714306D01*
X111520500Y-78662350D01*
X111520500Y-78457649D01*
X111512270Y-78405691D01*
X111512270Y-78405690D01*
X111511592Y-78401414D01*
X111505635Y-78333308D01*
X111493825Y-78289233D01*
X111488477Y-78255466D01*
X111468378Y-78193609D01*
X111466535Y-78187386D01*
X111446742Y-78113513D01*
X111446740Y-78113510D01*
X111446739Y-78113504D01*
X111432266Y-78082467D01*
X111425220Y-78060781D01*
X111389067Y-77989827D01*
X111350568Y-77907266D01*
X111342436Y-77895652D01*
X111342436Y-77895651D01*
X111337462Y-77888548D01*
X111332287Y-77878390D01*
X111278821Y-77804800D01*
X111220047Y-77720861D01*
X111220045Y-77720858D01*
X111059143Y-77559956D01*
X110992620Y-77513376D01*
X110948996Y-77458799D01*
X110941803Y-77389300D01*
X110973325Y-77326946D01*
X111033082Y-77291652D01*
X111053025Y-77286562D01*
X111053035Y-77286559D01*
X111109582Y-77263135D01*
X110349409Y-76502962D01*
X110412993Y-76485925D01*
X110527007Y-76420099D01*
X110620099Y-76327007D01*
X110653012Y-76270000D01*
X110823552Y-76270000D01*
X111463135Y-76909582D01*
X111463137Y-76909582D01*
X111486552Y-76853053D01*
X111504544Y-76802053D01*
X111524999Y-76659780D01*
X111525000Y-76659779D01*
X111525000Y-76270000D01*
X110823552Y-76270000D01*
X110653012Y-76270000D01*
X110685925Y-76212993D01*
X110720000Y-76085826D01*
X110720000Y-75954174D01*
X110685925Y-75827007D01*
X110653011Y-75769999D01*
X110823552Y-75769999D01*
X110823553Y-75770000D01*
X111525000Y-75770000D01*
X111525000Y-75380214D01*
X111522106Y-75326237D01*
X111522106Y-75326235D01*
X111486558Y-75186960D01*
X111463136Y-75130415D01*
X111463135Y-75130415D01*
X110823552Y-75769999D01*
X110653011Y-75769999D01*
X110620099Y-75712993D01*
X110527007Y-75619901D01*
X110412993Y-75554075D01*
X110349409Y-75537037D01*
X111109583Y-74776863D01*
X111109583Y-74776862D01*
X111053052Y-74753447D01*
X111053024Y-74753436D01*
X111024834Y-74743491D01*
X110968163Y-74702624D01*
X110942582Y-74637605D01*
X110956214Y-74569078D01*
X110994965Y-74524980D01*
X111059139Y-74480047D01*
X111220047Y-74319139D01*
X111278821Y-74235199D01*
X111332287Y-74161610D01*
X111337465Y-74151446D01*
X111350568Y-74132734D01*
X111389067Y-74050172D01*
X111425220Y-73979219D01*
X111432266Y-73957532D01*
X111446739Y-73926496D01*
X111446742Y-73926488D01*
X111466534Y-73852617D01*
X111467377Y-73849471D01*
X111488477Y-73784534D01*
X111493825Y-73750766D01*
X111505635Y-73706692D01*
X111511215Y-73642892D01*
X111512270Y-73634306D01*
X111520500Y-73582350D01*
X111520500Y-73377649D01*
X111512270Y-73325691D01*
X111512270Y-73325690D01*
X111511592Y-73321414D01*
X111505635Y-73253308D01*
X111493825Y-73209233D01*
X111488477Y-73175466D01*
X111468378Y-73113609D01*
X111466535Y-73107386D01*
X111446742Y-73033513D01*
X111446740Y-73033510D01*
X111446739Y-73033504D01*
X111432266Y-73002467D01*
X111425220Y-72980781D01*
X111389067Y-72909827D01*
X111350568Y-72827266D01*
X111342436Y-72815652D01*
X111342436Y-72815651D01*
X111337462Y-72808548D01*
X111332287Y-72798390D01*
X111278821Y-72724800D01*
X111220047Y-72640861D01*
X111220046Y-72640860D01*
X111220045Y-72640858D01*
X111059140Y-72479953D01*
X110976078Y-72421793D01*
X110975180Y-72421164D01*
X110901610Y-72367713D01*
X110891448Y-72362535D01*
X110884346Y-72357562D01*
X110872736Y-72349433D01*
X110814724Y-72322381D01*
X110804066Y-72312996D01*
X110790866Y-72307773D01*
X110778368Y-72290369D01*
X110762285Y-72276208D01*
X110758393Y-72262552D01*
X110750112Y-72251021D01*
X110749007Y-72229621D01*
X110743134Y-72209014D01*
X110747241Y-72195423D01*
X110746510Y-72181244D01*
X110757149Y-72162644D01*
X110763350Y-72142133D01*
X110774830Y-72131737D01*
X110781204Y-72120597D01*
X110805623Y-72103856D01*
X110809872Y-72100010D01*
X110812252Y-72098770D01*
X110872734Y-72070568D01*
X110891002Y-72057775D01*
X110898207Y-72054025D01*
X110898416Y-72053983D01*
X110899180Y-72053524D01*
X110901610Y-72052287D01*
X110974358Y-71999432D01*
X110976047Y-71998227D01*
X111059139Y-71940047D01*
X111220047Y-71779139D01*
X111278821Y-71695199D01*
X111332287Y-71621610D01*
X111337465Y-71611446D01*
X111350568Y-71592734D01*
X111389067Y-71510172D01*
X111425220Y-71439219D01*
X111432266Y-71417532D01*
X111446739Y-71386496D01*
X111449815Y-71375018D01*
X111466534Y-71312617D01*
X111467377Y-71309471D01*
X111488477Y-71244534D01*
X111493825Y-71210766D01*
X111505635Y-71166692D01*
X111511215Y-71102892D01*
X111512270Y-71094306D01*
X111520500Y-71042350D01*
X111520500Y-70837649D01*
X111512270Y-70785691D01*
X111512270Y-70785690D01*
X111511592Y-70781414D01*
X111505635Y-70713308D01*
X111493825Y-70669233D01*
X111488477Y-70635466D01*
X111468378Y-70573609D01*
X111466535Y-70567386D01*
X111446742Y-70493513D01*
X111446740Y-70493510D01*
X111446739Y-70493504D01*
X111432266Y-70462467D01*
X111425220Y-70440781D01*
X111389067Y-70369827D01*
X111350568Y-70287266D01*
X111342436Y-70275652D01*
X111342436Y-70275651D01*
X111337462Y-70268548D01*
X111332287Y-70258390D01*
X111278821Y-70184800D01*
X111276183Y-70181033D01*
X111220045Y-70100858D01*
X111059140Y-69939953D01*
X110976078Y-69881793D01*
X110975180Y-69881164D01*
X110901610Y-69827713D01*
X110891448Y-69822535D01*
X110884346Y-69817562D01*
X110872736Y-69809433D01*
X110814724Y-69782381D01*
X110804066Y-69772996D01*
X110790866Y-69767773D01*
X110778368Y-69750369D01*
X110762285Y-69736208D01*
X110758393Y-69722552D01*
X110750112Y-69711021D01*
X110749007Y-69689621D01*
X110743134Y-69669014D01*
X110747241Y-69655423D01*
X110746510Y-69641244D01*
X110757149Y-69622644D01*
X110763350Y-69602133D01*
X110774830Y-69591737D01*
X110781204Y-69580597D01*
X110805623Y-69563856D01*
X110809872Y-69560010D01*
X110812252Y-69558770D01*
X110872734Y-69530568D01*
X110891002Y-69517775D01*
X110898207Y-69514025D01*
X110898416Y-69513983D01*
X110899180Y-69513524D01*
X110901610Y-69512287D01*
X110974358Y-69459432D01*
X110976047Y-69458227D01*
X111059139Y-69400047D01*
X111220047Y-69239139D01*
X111278821Y-69155199D01*
X111332287Y-69081610D01*
X111337465Y-69071446D01*
X111350568Y-69052734D01*
X111389067Y-68970172D01*
X111425220Y-68899219D01*
X111432266Y-68877532D01*
X111446739Y-68846496D01*
X111467377Y-68769471D01*
X111488477Y-68704534D01*
X111493825Y-68670766D01*
X111505635Y-68626692D01*
X111511215Y-68562892D01*
X111512270Y-68554306D01*
X111520500Y-68502350D01*
X111520500Y-68297649D01*
X111512270Y-68245691D01*
X111512270Y-68245690D01*
X111511592Y-68241414D01*
X111505635Y-68173308D01*
X111493825Y-68129233D01*
X111488477Y-68095466D01*
X111468378Y-68033609D01*
X111466535Y-68027386D01*
X111446742Y-67953513D01*
X111446740Y-67953510D01*
X111446739Y-67953504D01*
X111432266Y-67922467D01*
X111425220Y-67900781D01*
X111389067Y-67829827D01*
X111350568Y-67747266D01*
X111342436Y-67735652D01*
X111342436Y-67735651D01*
X111337462Y-67728548D01*
X111332287Y-67718390D01*
X111278821Y-67644800D01*
X111220047Y-67560861D01*
X111220045Y-67560858D01*
X111059140Y-67399953D01*
X110976078Y-67341793D01*
X110975180Y-67341164D01*
X110901610Y-67287713D01*
X110891448Y-67282535D01*
X110884346Y-67277562D01*
X110872736Y-67269433D01*
X110814724Y-67242381D01*
X110804066Y-67232996D01*
X110790866Y-67227773D01*
X110778368Y-67210369D01*
X110762285Y-67196208D01*
X110758393Y-67182552D01*
X110750112Y-67171021D01*
X110749007Y-67149621D01*
X110743134Y-67129014D01*
X110747241Y-67115423D01*
X110746510Y-67101244D01*
X110757149Y-67082644D01*
X110763350Y-67062133D01*
X110774830Y-67051737D01*
X110781204Y-67040597D01*
X110805623Y-67023856D01*
X110809872Y-67020010D01*
X110812252Y-67018770D01*
X110872734Y-66990568D01*
X110891002Y-66977775D01*
X110898207Y-66974025D01*
X110898416Y-66973983D01*
X110899180Y-66973524D01*
X110901610Y-66972287D01*
X110974358Y-66919432D01*
X110976047Y-66918227D01*
X111059139Y-66860047D01*
X111220047Y-66699139D01*
X111278821Y-66615199D01*
X111332287Y-66541610D01*
X111337465Y-66531446D01*
X111350568Y-66512734D01*
X111389067Y-66430172D01*
X111425220Y-66359219D01*
X111432266Y-66337532D01*
X111446739Y-66306496D01*
X111446742Y-66306488D01*
X111466534Y-66232617D01*
X111467377Y-66229471D01*
X111488477Y-66164534D01*
X111493825Y-66130766D01*
X111505635Y-66086692D01*
X111511215Y-66022892D01*
X111512270Y-66014306D01*
X111520500Y-65962350D01*
X111520500Y-65757649D01*
X111512270Y-65705691D01*
X111512270Y-65705690D01*
X111511592Y-65701414D01*
X111505635Y-65633308D01*
X111493825Y-65589233D01*
X111488477Y-65555466D01*
X111468378Y-65493609D01*
X111466535Y-65487386D01*
X111446742Y-65413513D01*
X111446740Y-65413510D01*
X111446739Y-65413504D01*
X111432266Y-65382467D01*
X111425220Y-65360781D01*
X111389067Y-65289827D01*
X111350568Y-65207266D01*
X111342436Y-65195652D01*
X111342436Y-65195651D01*
X111337462Y-65188548D01*
X111332287Y-65178390D01*
X111278821Y-65104800D01*
X111220047Y-65020861D01*
X111220045Y-65020858D01*
X111059143Y-64859956D01*
X110992620Y-64813376D01*
X110948996Y-64758799D01*
X110941803Y-64689300D01*
X110973325Y-64626946D01*
X111033082Y-64591652D01*
X111053025Y-64586562D01*
X111053035Y-64586559D01*
X111109582Y-64563135D01*
X110349409Y-63802962D01*
X110412993Y-63785925D01*
X110527007Y-63720099D01*
X110620099Y-63627007D01*
X110653012Y-63570000D01*
X110823552Y-63570000D01*
X111463135Y-64209582D01*
X111463137Y-64209582D01*
X111486552Y-64153053D01*
X111504544Y-64102053D01*
X111524999Y-63959780D01*
X111525000Y-63959779D01*
X111525000Y-63570000D01*
X110823552Y-63570000D01*
X110653012Y-63570000D01*
X110685925Y-63512993D01*
X110720000Y-63385826D01*
X110720000Y-63254174D01*
X110685925Y-63127007D01*
X110653011Y-63069999D01*
X110823552Y-63069999D01*
X110823553Y-63070000D01*
X111525000Y-63070000D01*
X111525000Y-62680214D01*
X111522106Y-62626237D01*
X111522106Y-62626235D01*
X111486558Y-62486960D01*
X111463136Y-62430415D01*
X111463135Y-62430415D01*
X110823552Y-63069999D01*
X110653011Y-63069999D01*
X110620099Y-63012993D01*
X110527007Y-62919901D01*
X110412993Y-62854075D01*
X110349409Y-62837037D01*
X111109583Y-62076863D01*
X111109583Y-62076862D01*
X111053052Y-62053447D01*
X111053024Y-62053436D01*
X111024834Y-62043491D01*
X111014998Y-62036398D01*
X111003237Y-62033446D01*
X110987186Y-62016342D01*
X110968163Y-62002624D01*
X110963723Y-61991339D01*
X110955425Y-61982497D01*
X110951169Y-61959431D01*
X110942582Y-61937605D01*
X110944948Y-61925711D01*
X110942748Y-61913787D01*
X110951637Y-61892083D01*
X110953524Y-61882600D01*
X118706700Y-61882600D01*
X118706700Y-63457400D01*
X118708622Y-63496800D01*
X118723700Y-63533201D01*
X118738778Y-63569603D01*
X118794496Y-63625321D01*
X118794497Y-63625321D01*
X118794498Y-63625322D01*
X118867300Y-63655478D01*
X118906700Y-63657400D01*
X118906715Y-63657400D01*
X120481485Y-63657400D01*
X120481500Y-63657400D01*
X120520900Y-63655478D01*
X120593702Y-63625323D01*
X120649423Y-63569602D01*
X120679578Y-63496800D01*
X120681500Y-63457400D01*
X120681500Y-62656146D01*
X121242019Y-62656146D01*
X121242019Y-62656153D01*
X121258221Y-62849101D01*
X121258222Y-62849107D01*
X121298089Y-62988139D01*
X121311596Y-63035245D01*
X121400106Y-63207468D01*
X121400107Y-63207470D01*
X121511810Y-63348403D01*
X121520387Y-63359225D01*
X121667851Y-63484726D01*
X121667854Y-63484728D01*
X121667857Y-63484730D01*
X121718428Y-63512993D01*
X121836882Y-63579195D01*
X122021044Y-63639033D01*
X122213321Y-63661960D01*
X122406390Y-63647105D01*
X122592896Y-63595031D01*
X122765736Y-63507724D01*
X122918325Y-63388507D01*
X123044853Y-63241923D01*
X123140500Y-63073555D01*
X123201622Y-62889816D01*
X123225891Y-62697703D01*
X123226278Y-62670000D01*
X123207382Y-62477285D01*
X123151414Y-62291910D01*
X123151413Y-62291908D01*
X123151413Y-62291907D01*
X123079433Y-62156534D01*
X123060506Y-62120937D01*
X122938120Y-61970877D01*
X122788919Y-61847447D01*
X122618584Y-61755348D01*
X122618583Y-61755347D01*
X122618580Y-61755346D01*
X122433609Y-61698087D01*
X122241029Y-61677846D01*
X122241027Y-61677846D01*
X122167670Y-61684522D01*
X122048182Y-61695396D01*
X121862426Y-61750067D01*
X121862422Y-61750069D01*
X121690831Y-61839773D01*
X121690819Y-61839781D01*
X121539910Y-61961115D01*
X121539909Y-61961116D01*
X121415444Y-62109446D01*
X121415442Y-62109449D01*
X121322154Y-62279139D01*
X121263602Y-62463718D01*
X121263602Y-62463719D01*
X121242019Y-62656146D01*
X120681500Y-62656146D01*
X120681500Y-61882600D01*
X120679578Y-61843200D01*
X120649423Y-61770398D01*
X120593702Y-61714677D01*
X120593698Y-61714675D01*
X120593696Y-61714674D01*
X120520901Y-61684522D01*
X120520903Y-61684522D01*
X120512457Y-61684110D01*
X120481500Y-61682600D01*
X119694100Y-61682600D01*
X118906700Y-61682600D01*
X118867300Y-61684522D01*
X118794496Y-61714678D01*
X118794495Y-61714680D01*
X118738780Y-61770395D01*
X118738778Y-61770396D01*
X118710038Y-61839781D01*
X118708622Y-61843200D01*
X118706700Y-61882600D01*
X110953524Y-61882600D01*
X110956214Y-61869078D01*
X110965291Y-61858748D01*
X110969231Y-61849130D01*
X110994968Y-61824979D01*
X111059139Y-61780047D01*
X111220044Y-61619142D01*
X111220045Y-61619141D01*
X111220047Y-61619139D01*
X111278821Y-61535199D01*
X111332287Y-61461610D01*
X111337465Y-61451446D01*
X111350568Y-61432734D01*
X111389067Y-61350172D01*
X111425220Y-61279219D01*
X111432266Y-61257532D01*
X111446739Y-61226496D01*
X111446742Y-61226488D01*
X111466534Y-61152617D01*
X111467377Y-61149471D01*
X111488477Y-61084534D01*
X111493825Y-61050766D01*
X111505635Y-61006692D01*
X111511215Y-60942892D01*
X111512270Y-60934306D01*
X111520500Y-60882350D01*
X111520500Y-60677649D01*
X111520423Y-60677166D01*
X111511593Y-60621417D01*
X111505635Y-60553308D01*
X111493825Y-60509233D01*
X111488477Y-60475466D01*
X111468378Y-60413609D01*
X111466535Y-60407386D01*
X111446742Y-60333513D01*
X111446740Y-60333510D01*
X111446739Y-60333504D01*
X111432266Y-60302467D01*
X111425220Y-60280781D01*
X111389067Y-60209827D01*
X111350568Y-60127266D01*
X111342436Y-60115652D01*
X111342436Y-60115651D01*
X111337462Y-60108548D01*
X111332287Y-60098390D01*
X111278821Y-60024800D01*
X111220047Y-59940861D01*
X111220045Y-59940858D01*
X111059140Y-59779953D01*
X110976078Y-59721793D01*
X110975180Y-59721164D01*
X110901610Y-59667713D01*
X110891448Y-59662535D01*
X110884346Y-59657562D01*
X110872736Y-59649433D01*
X110814724Y-59622381D01*
X110804066Y-59612996D01*
X110790866Y-59607773D01*
X110778368Y-59590369D01*
X110762285Y-59576208D01*
X110758393Y-59562552D01*
X110750112Y-59551021D01*
X110749007Y-59529621D01*
X110743134Y-59509014D01*
X110747241Y-59495423D01*
X110746510Y-59481244D01*
X110757149Y-59462644D01*
X110763350Y-59442133D01*
X110774830Y-59431737D01*
X110781204Y-59420597D01*
X110805623Y-59403856D01*
X110809872Y-59400010D01*
X110812252Y-59398770D01*
X110872734Y-59370568D01*
X110891002Y-59357775D01*
X110898207Y-59354025D01*
X110898416Y-59353983D01*
X110899180Y-59353524D01*
X110901610Y-59352287D01*
X110974358Y-59299432D01*
X110976047Y-59298227D01*
X111059139Y-59240047D01*
X111220047Y-59079139D01*
X111278821Y-58995199D01*
X111332287Y-58921610D01*
X111337465Y-58911446D01*
X111350568Y-58892734D01*
X111389067Y-58810172D01*
X111425220Y-58739219D01*
X111432266Y-58717532D01*
X111446739Y-58686496D01*
X111446742Y-58686488D01*
X111466534Y-58612617D01*
X111467377Y-58609471D01*
X111488477Y-58544534D01*
X111493825Y-58510766D01*
X111505635Y-58466692D01*
X111511215Y-58402892D01*
X111512270Y-58394306D01*
X111517324Y-58362404D01*
X111520500Y-58342352D01*
X111520500Y-58137648D01*
X111511593Y-58081417D01*
X111505635Y-58013308D01*
X111493825Y-57969233D01*
X111488477Y-57935466D01*
X111468378Y-57873609D01*
X111466535Y-57867386D01*
X111446742Y-57793513D01*
X111446740Y-57793510D01*
X111446739Y-57793504D01*
X111432266Y-57762467D01*
X111425220Y-57740781D01*
X111389067Y-57669827D01*
X111350568Y-57587266D01*
X111342436Y-57575652D01*
X111342436Y-57575651D01*
X111337462Y-57568548D01*
X111332287Y-57558390D01*
X111278821Y-57484800D01*
X111252288Y-57446907D01*
X111220045Y-57400858D01*
X111059140Y-57239953D01*
X110976078Y-57181793D01*
X110975180Y-57181164D01*
X110901610Y-57127713D01*
X110891448Y-57122535D01*
X110884346Y-57117562D01*
X110872736Y-57109433D01*
X110814724Y-57082381D01*
X110804066Y-57072996D01*
X110790866Y-57067773D01*
X110778368Y-57050369D01*
X110762285Y-57036208D01*
X110758393Y-57022552D01*
X110750112Y-57011021D01*
X110749007Y-56989621D01*
X110743134Y-56969014D01*
X110747241Y-56955423D01*
X110746510Y-56941244D01*
X110757149Y-56922644D01*
X110763350Y-56902133D01*
X110774830Y-56891737D01*
X110781204Y-56880597D01*
X110805623Y-56863856D01*
X110809872Y-56860010D01*
X110812252Y-56858770D01*
X110872734Y-56830568D01*
X110891002Y-56817775D01*
X110898207Y-56814025D01*
X110898416Y-56813983D01*
X110899180Y-56813524D01*
X110901610Y-56812287D01*
X110974358Y-56759432D01*
X110976047Y-56758227D01*
X111059139Y-56700047D01*
X111220047Y-56539139D01*
X111278821Y-56455199D01*
X111332287Y-56381610D01*
X111337465Y-56371446D01*
X111350568Y-56352734D01*
X111389067Y-56270172D01*
X111425220Y-56199219D01*
X111432266Y-56177532D01*
X111446739Y-56146496D01*
X111467377Y-56069471D01*
X111488477Y-56004534D01*
X111493825Y-55970766D01*
X111505635Y-55926692D01*
X111511215Y-55862892D01*
X111512270Y-55854306D01*
X111520500Y-55802350D01*
X111520500Y-55597649D01*
X111512270Y-55545691D01*
X111512270Y-55545690D01*
X111511592Y-55541414D01*
X111505635Y-55473308D01*
X111493825Y-55429233D01*
X111488477Y-55395466D01*
X111468378Y-55333609D01*
X111466535Y-55327386D01*
X111446742Y-55253513D01*
X111446740Y-55253510D01*
X111446739Y-55253504D01*
X111432266Y-55222467D01*
X111425220Y-55200781D01*
X111389067Y-55129827D01*
X111350568Y-55047266D01*
X111342436Y-55035652D01*
X111342436Y-55035651D01*
X111337462Y-55028548D01*
X111332287Y-55018390D01*
X111278821Y-54944800D01*
X111220047Y-54860861D01*
X111220045Y-54860858D01*
X111059140Y-54699953D01*
X110976078Y-54641793D01*
X110975180Y-54641164D01*
X110901610Y-54587713D01*
X110891448Y-54582535D01*
X110884346Y-54577562D01*
X110872736Y-54569433D01*
X110814724Y-54542381D01*
X110804066Y-54532996D01*
X110790866Y-54527773D01*
X110778368Y-54510369D01*
X110762285Y-54496208D01*
X110758393Y-54482552D01*
X110750112Y-54471021D01*
X110749007Y-54449621D01*
X110743134Y-54429014D01*
X110747241Y-54415423D01*
X110746510Y-54401244D01*
X110757149Y-54382644D01*
X110763350Y-54362133D01*
X110774830Y-54351737D01*
X110781204Y-54340597D01*
X110805623Y-54323856D01*
X110809872Y-54320010D01*
X110812252Y-54318770D01*
X110872734Y-54290568D01*
X110891002Y-54277775D01*
X110898207Y-54274025D01*
X110898416Y-54273983D01*
X110899180Y-54273524D01*
X110901610Y-54272287D01*
X110974358Y-54219432D01*
X110976047Y-54218227D01*
X111059139Y-54160047D01*
X111220047Y-53999139D01*
X111278821Y-53915199D01*
X111332287Y-53841610D01*
X111337465Y-53831446D01*
X111350568Y-53812734D01*
X111389067Y-53730172D01*
X111425220Y-53659219D01*
X111432266Y-53637532D01*
X111446739Y-53606496D01*
X111446742Y-53606488D01*
X111466534Y-53532617D01*
X111467377Y-53529471D01*
X111488477Y-53464534D01*
X111493825Y-53430766D01*
X111505635Y-53386692D01*
X111511215Y-53322892D01*
X111512270Y-53314306D01*
X111520500Y-53262350D01*
X111520500Y-53057649D01*
X111512270Y-53005691D01*
X111512270Y-53005690D01*
X111511592Y-53001414D01*
X111505635Y-52933308D01*
X111493825Y-52889233D01*
X111488477Y-52855466D01*
X111468378Y-52793609D01*
X111466535Y-52787386D01*
X111446742Y-52713513D01*
X111446740Y-52713510D01*
X111446739Y-52713504D01*
X111432266Y-52682467D01*
X111425220Y-52660781D01*
X111389067Y-52589827D01*
X111350568Y-52507266D01*
X111342436Y-52495652D01*
X111342436Y-52495651D01*
X111337462Y-52488548D01*
X111332287Y-52478390D01*
X111278821Y-52404800D01*
X111220104Y-52320943D01*
X111220045Y-52320858D01*
X111059143Y-52159956D01*
X110992620Y-52113376D01*
X110948996Y-52058799D01*
X110941803Y-51989300D01*
X110973325Y-51926946D01*
X111033082Y-51891652D01*
X111053025Y-51886562D01*
X111053035Y-51886559D01*
X111109582Y-51863135D01*
X110766446Y-51519999D01*
X119160000Y-51519999D01*
X119160000Y-52420000D01*
X119162138Y-52485541D01*
X119162138Y-52485544D01*
X119162139Y-52485545D01*
X119196068Y-52612167D01*
X119261612Y-52725694D01*
X119354306Y-52818388D01*
X119467833Y-52883932D01*
X119594455Y-52917861D01*
X119660000Y-52920000D01*
X120560000Y-52920000D01*
X120625545Y-52917861D01*
X120752167Y-52883933D01*
X120865694Y-52818388D01*
X120958388Y-52725694D01*
X121023933Y-52612167D01*
X121057861Y-52485545D01*
X121060000Y-52420000D01*
X121060000Y-51520000D01*
X121057861Y-51454455D01*
X121023933Y-51327833D01*
X120958388Y-51214306D01*
X120865694Y-51121612D01*
X120752167Y-51056067D01*
X120625545Y-51022139D01*
X120560000Y-51020000D01*
X120110000Y-51020000D01*
X119660000Y-51020000D01*
X119594458Y-51022138D01*
X119467832Y-51056068D01*
X119354307Y-51121611D01*
X119354304Y-51121613D01*
X119261613Y-51214304D01*
X119261611Y-51214307D01*
X119196068Y-51327832D01*
X119162138Y-51454458D01*
X119160000Y-51519999D01*
X110766446Y-51519999D01*
X110349409Y-51102962D01*
X110412993Y-51085925D01*
X110527007Y-51020099D01*
X110620099Y-50927007D01*
X110653012Y-50870000D01*
X110823552Y-50870000D01*
X111463135Y-51509582D01*
X111463136Y-51509582D01*
X111479317Y-51470522D01*
X111479317Y-51470521D01*
X111486553Y-51453051D01*
X111504544Y-51402053D01*
X111524999Y-51259780D01*
X111525000Y-51259779D01*
X111525000Y-50870000D01*
X110823552Y-50870000D01*
X110653012Y-50870000D01*
X110685925Y-50812993D01*
X110720000Y-50685826D01*
X110720000Y-50554174D01*
X110685925Y-50427007D01*
X110653011Y-50369999D01*
X110823552Y-50369999D01*
X110823553Y-50370000D01*
X111525000Y-50370000D01*
X111525000Y-49980214D01*
X111522106Y-49926237D01*
X111522106Y-49926235D01*
X111486558Y-49786960D01*
X111463136Y-49730415D01*
X111463135Y-49730415D01*
X110823552Y-50369999D01*
X110653011Y-50369999D01*
X110620099Y-50312993D01*
X110527007Y-50219901D01*
X110412993Y-50154075D01*
X110349409Y-50137037D01*
X111109583Y-49376863D01*
X111109583Y-49376862D01*
X111053052Y-49353447D01*
X111053024Y-49353436D01*
X111024834Y-49343491D01*
X110968163Y-49302624D01*
X110942582Y-49237605D01*
X110956214Y-49169078D01*
X110994965Y-49124980D01*
X111059139Y-49080047D01*
X111220047Y-48919139D01*
X111278821Y-48835199D01*
X111332287Y-48761610D01*
X111337465Y-48751446D01*
X111350568Y-48732734D01*
X111389067Y-48650172D01*
X111425220Y-48579219D01*
X111432266Y-48557532D01*
X111446739Y-48526496D01*
X111446742Y-48526488D01*
X111466534Y-48452617D01*
X111467377Y-48449471D01*
X111488477Y-48384534D01*
X111493825Y-48350766D01*
X111505635Y-48306692D01*
X111511215Y-48242892D01*
X111512270Y-48234306D01*
X111512400Y-48233489D01*
X111520500Y-48182352D01*
X111520500Y-47977648D01*
X111511593Y-47921417D01*
X111505635Y-47853308D01*
X111493825Y-47809233D01*
X111488477Y-47775466D01*
X111468378Y-47713609D01*
X111466535Y-47707386D01*
X111446742Y-47633513D01*
X111446740Y-47633510D01*
X111446739Y-47633504D01*
X111432266Y-47602467D01*
X111425220Y-47580781D01*
X111389067Y-47509827D01*
X111350568Y-47427266D01*
X111342436Y-47415652D01*
X111342436Y-47415651D01*
X111337462Y-47408548D01*
X111332287Y-47398390D01*
X111278821Y-47324800D01*
X111233734Y-47260409D01*
X111220045Y-47240858D01*
X111059140Y-47079953D01*
X110976078Y-47021793D01*
X110975180Y-47021164D01*
X110901610Y-46967713D01*
X110891448Y-46962535D01*
X110884346Y-46957562D01*
X110872736Y-46949433D01*
X110814724Y-46922381D01*
X110804066Y-46912996D01*
X110790866Y-46907773D01*
X110778368Y-46890369D01*
X110762285Y-46876208D01*
X110758393Y-46862552D01*
X110750112Y-46851021D01*
X110749007Y-46829621D01*
X110743134Y-46809014D01*
X110747241Y-46795423D01*
X110746510Y-46781244D01*
X110757149Y-46762644D01*
X110763350Y-46742133D01*
X110774830Y-46731737D01*
X110781204Y-46720597D01*
X110805623Y-46703856D01*
X110809872Y-46700010D01*
X110812252Y-46698770D01*
X110872734Y-46670568D01*
X110891002Y-46657775D01*
X110898207Y-46654025D01*
X110898416Y-46653983D01*
X110899180Y-46653524D01*
X110901610Y-46652287D01*
X110974358Y-46599432D01*
X110976047Y-46598227D01*
X111059139Y-46540047D01*
X111220047Y-46379139D01*
X111278821Y-46295199D01*
X111332287Y-46221610D01*
X111337465Y-46211446D01*
X111350568Y-46192734D01*
X111389067Y-46110172D01*
X111425220Y-46039219D01*
X111432266Y-46017532D01*
X111446739Y-45986496D01*
X111467377Y-45909471D01*
X111488477Y-45844534D01*
X111493825Y-45810766D01*
X111505635Y-45766692D01*
X111511215Y-45702892D01*
X111512270Y-45694306D01*
X111520500Y-45642350D01*
X111520500Y-45437649D01*
X111512270Y-45385691D01*
X111512270Y-45385690D01*
X111511592Y-45381414D01*
X111505635Y-45313308D01*
X111493825Y-45269233D01*
X111488477Y-45235466D01*
X111468378Y-45173609D01*
X111466535Y-45167386D01*
X111446742Y-45093513D01*
X111446740Y-45093510D01*
X111446739Y-45093504D01*
X111432266Y-45062467D01*
X111425220Y-45040781D01*
X111389067Y-44969827D01*
X111350568Y-44887266D01*
X111342436Y-44875652D01*
X111342436Y-44875651D01*
X111337462Y-44868548D01*
X111332287Y-44858390D01*
X111278821Y-44784800D01*
X111220047Y-44700861D01*
X111220045Y-44700858D01*
X111059140Y-44539953D01*
X110976078Y-44481793D01*
X110975180Y-44481164D01*
X110901610Y-44427713D01*
X110891448Y-44422535D01*
X110884346Y-44417562D01*
X110872736Y-44409433D01*
X110872727Y-44409429D01*
X110814723Y-44382380D01*
X110804066Y-44372996D01*
X110790866Y-44367773D01*
X110778368Y-44350369D01*
X110762285Y-44336208D01*
X110758393Y-44322552D01*
X110750112Y-44311021D01*
X110749007Y-44289621D01*
X110743134Y-44269014D01*
X110747241Y-44255423D01*
X110746510Y-44241244D01*
X110757149Y-44222644D01*
X110763350Y-44202133D01*
X110774830Y-44191737D01*
X110781204Y-44180597D01*
X110805623Y-44163856D01*
X110809872Y-44160010D01*
X110812252Y-44158770D01*
X110872734Y-44130568D01*
X110891002Y-44117775D01*
X110898207Y-44114025D01*
X110898416Y-44113983D01*
X110899180Y-44113524D01*
X110901610Y-44112287D01*
X110974358Y-44059432D01*
X110976047Y-44058227D01*
X111059139Y-44000047D01*
X111220047Y-43839139D01*
X111278821Y-43755199D01*
X111332287Y-43681610D01*
X111337465Y-43671446D01*
X111350568Y-43652734D01*
X111389067Y-43570172D01*
X111425220Y-43499219D01*
X111432266Y-43477532D01*
X111446739Y-43446496D01*
X111446742Y-43446488D01*
X111466534Y-43372617D01*
X111467377Y-43369471D01*
X111488477Y-43304534D01*
X111493825Y-43270766D01*
X111505635Y-43226692D01*
X111511215Y-43162892D01*
X111512270Y-43154306D01*
X111520500Y-43102350D01*
X111520500Y-42897649D01*
X111512270Y-42845691D01*
X111512270Y-42845690D01*
X111511592Y-42841414D01*
X111505635Y-42773308D01*
X111493825Y-42729233D01*
X111488477Y-42695466D01*
X111468378Y-42633609D01*
X111466535Y-42627386D01*
X111446742Y-42553513D01*
X111446740Y-42553510D01*
X111446739Y-42553504D01*
X111432266Y-42522467D01*
X111425220Y-42500781D01*
X111389067Y-42429827D01*
X111350568Y-42347266D01*
X111342436Y-42335652D01*
X111342436Y-42335651D01*
X111337462Y-42328548D01*
X111332287Y-42318390D01*
X111278821Y-42244800D01*
X111220047Y-42160861D01*
X111220045Y-42160858D01*
X111059140Y-41999953D01*
X110976078Y-41941793D01*
X110975180Y-41941164D01*
X110901610Y-41887713D01*
X110891448Y-41882535D01*
X110884346Y-41877562D01*
X110872736Y-41869433D01*
X110872727Y-41869429D01*
X110814723Y-41842380D01*
X110804066Y-41832996D01*
X110790866Y-41827773D01*
X110778368Y-41810369D01*
X110762285Y-41796208D01*
X110758393Y-41782552D01*
X110750112Y-41771021D01*
X110749007Y-41749621D01*
X110743134Y-41729014D01*
X110747241Y-41715423D01*
X110746510Y-41701244D01*
X110757149Y-41682644D01*
X110763350Y-41662133D01*
X110774830Y-41651737D01*
X110781204Y-41640597D01*
X110805623Y-41623856D01*
X110809872Y-41620010D01*
X110812252Y-41618770D01*
X110872734Y-41590568D01*
X110891002Y-41577775D01*
X110898207Y-41574025D01*
X110898416Y-41573983D01*
X110899180Y-41573524D01*
X110901610Y-41572287D01*
X110974358Y-41519432D01*
X110976047Y-41518227D01*
X111059139Y-41460047D01*
X111220047Y-41299139D01*
X111278821Y-41215199D01*
X111332287Y-41141610D01*
X111337465Y-41131446D01*
X111350568Y-41112734D01*
X111389067Y-41030172D01*
X111425220Y-40959219D01*
X111432266Y-40937532D01*
X111446739Y-40906496D01*
X111446742Y-40906488D01*
X111466534Y-40832617D01*
X111467377Y-40829471D01*
X111488477Y-40764534D01*
X111493825Y-40730766D01*
X111505635Y-40686692D01*
X111511215Y-40622892D01*
X111512270Y-40614306D01*
X111515583Y-40593395D01*
X111520500Y-40562352D01*
X111520500Y-40357648D01*
X111511593Y-40301417D01*
X111505635Y-40233308D01*
X111493825Y-40189233D01*
X111488477Y-40155466D01*
X111468378Y-40093609D01*
X111466535Y-40087386D01*
X111446742Y-40013513D01*
X111446740Y-40013510D01*
X111446739Y-40013504D01*
X111432266Y-39982467D01*
X111425220Y-39960781D01*
X111389067Y-39889827D01*
X111350568Y-39807266D01*
X111342436Y-39795652D01*
X111342436Y-39795651D01*
X111337462Y-39788548D01*
X111332287Y-39778390D01*
X111278821Y-39704800D01*
X111220047Y-39620861D01*
X111220045Y-39620858D01*
X111059143Y-39459956D01*
X110992620Y-39413376D01*
X110948996Y-39358799D01*
X110941803Y-39289300D01*
X110973325Y-39226946D01*
X111033082Y-39191652D01*
X111053025Y-39186562D01*
X111053035Y-39186559D01*
X111109582Y-39163135D01*
X110966446Y-39019999D01*
X115660000Y-39019999D01*
X115660000Y-46420000D01*
X115662138Y-46485541D01*
X115662138Y-46485544D01*
X115662139Y-46485545D01*
X115696068Y-46612167D01*
X115761612Y-46725694D01*
X115854306Y-46818388D01*
X115967833Y-46883932D01*
X116094455Y-46917861D01*
X116160000Y-46920000D01*
X117060000Y-46920000D01*
X117125545Y-46917861D01*
X117252167Y-46883932D01*
X117365694Y-46818388D01*
X117458388Y-46725694D01*
X117523932Y-46612167D01*
X117557861Y-46485545D01*
X117560000Y-46420000D01*
X117560000Y-42720000D01*
X117560000Y-39020000D01*
X117557861Y-38954455D01*
X117523933Y-38827833D01*
X117458388Y-38714306D01*
X117365694Y-38621612D01*
X117252167Y-38556067D01*
X117125545Y-38522139D01*
X117060000Y-38520000D01*
X116160000Y-38520000D01*
X116094455Y-38522139D01*
X115967833Y-38556067D01*
X115967831Y-38556067D01*
X115967831Y-38556068D01*
X115854306Y-38621612D01*
X115854303Y-38621614D01*
X115761614Y-38714303D01*
X115761612Y-38714306D01*
X115705547Y-38811414D01*
X115696067Y-38827833D01*
X115677136Y-38898485D01*
X115662139Y-38954455D01*
X115660000Y-39019999D01*
X110966446Y-39019999D01*
X110349409Y-38402962D01*
X110412993Y-38385925D01*
X110527007Y-38320099D01*
X110620099Y-38227007D01*
X110653012Y-38170000D01*
X110823552Y-38170000D01*
X111463135Y-38809582D01*
X111463137Y-38809582D01*
X111486552Y-38753053D01*
X111504544Y-38702053D01*
X111524999Y-38559780D01*
X111525000Y-38559779D01*
X111525000Y-38170000D01*
X110823552Y-38170000D01*
X110653012Y-38170000D01*
X110685925Y-38112993D01*
X110720000Y-37985826D01*
X110720000Y-37854174D01*
X110685925Y-37727007D01*
X110653011Y-37669999D01*
X110823552Y-37669999D01*
X110823553Y-37670000D01*
X111525000Y-37670000D01*
X111525000Y-37280214D01*
X111522106Y-37226237D01*
X111522106Y-37226235D01*
X111486558Y-37086960D01*
X111463136Y-37030415D01*
X111463135Y-37030415D01*
X110823552Y-37669999D01*
X110653011Y-37669999D01*
X110620099Y-37612993D01*
X110527007Y-37519901D01*
X110412993Y-37454075D01*
X110349409Y-37437037D01*
X111109583Y-36676863D01*
X111109583Y-36676862D01*
X111053052Y-36653447D01*
X111053024Y-36653436D01*
X111024834Y-36643491D01*
X110968163Y-36602624D01*
X110942582Y-36537605D01*
X110956214Y-36469078D01*
X110994965Y-36424980D01*
X111059139Y-36380047D01*
X111220047Y-36219139D01*
X111278821Y-36135199D01*
X111332287Y-36061610D01*
X111337465Y-36051446D01*
X111350568Y-36032734D01*
X111389067Y-35950172D01*
X111410817Y-35907486D01*
X115509500Y-35907486D01*
X115509500Y-36092514D01*
X115519405Y-36155051D01*
X115538445Y-36275265D01*
X115595619Y-36451232D01*
X115595620Y-36451235D01*
X115667513Y-36592331D01*
X115679622Y-36616096D01*
X115788379Y-36765787D01*
X115919213Y-36896621D01*
X116068904Y-37005378D01*
X116118042Y-37030415D01*
X116233764Y-37089379D01*
X116233767Y-37089380D01*
X116321750Y-37117967D01*
X116409736Y-37146555D01*
X116592486Y-37175500D01*
X116592487Y-37175500D01*
X116777513Y-37175500D01*
X116777514Y-37175500D01*
X116960264Y-37146555D01*
X117136235Y-37089379D01*
X117301096Y-37005378D01*
X117450787Y-36896621D01*
X117581621Y-36765787D01*
X117690378Y-36616096D01*
X117774379Y-36451235D01*
X117831555Y-36275264D01*
X117860500Y-36092514D01*
X117860500Y-35907486D01*
X117831555Y-35724736D01*
X117793201Y-35606694D01*
X117776826Y-35556295D01*
X117774380Y-35548767D01*
X117774379Y-35548764D01*
X117759722Y-35519999D01*
X118160000Y-35519999D01*
X118160000Y-36420000D01*
X118162138Y-36485541D01*
X118162138Y-36485544D01*
X118162139Y-36485545D01*
X118196068Y-36612167D01*
X118261612Y-36725694D01*
X118354306Y-36818388D01*
X118467833Y-36883932D01*
X118594455Y-36917861D01*
X118660000Y-36920000D01*
X119560000Y-36920000D01*
X119625545Y-36917861D01*
X119752167Y-36883933D01*
X119865694Y-36818388D01*
X119958388Y-36725694D01*
X120023933Y-36612167D01*
X120057861Y-36485545D01*
X120060000Y-36420000D01*
X120060000Y-35907486D01*
X120359500Y-35907486D01*
X120359500Y-36092514D01*
X120369405Y-36155051D01*
X120388445Y-36275265D01*
X120445619Y-36451232D01*
X120445620Y-36451235D01*
X120517513Y-36592331D01*
X120529622Y-36616096D01*
X120638379Y-36765787D01*
X120769213Y-36896621D01*
X120918904Y-37005378D01*
X120968042Y-37030415D01*
X121083764Y-37089379D01*
X121083767Y-37089380D01*
X121171750Y-37117967D01*
X121259736Y-37146555D01*
X121442486Y-37175500D01*
X121442487Y-37175500D01*
X121627513Y-37175500D01*
X121627514Y-37175500D01*
X121810264Y-37146555D01*
X121986235Y-37089379D01*
X122151096Y-37005378D01*
X122300787Y-36896621D01*
X122431621Y-36765787D01*
X122540378Y-36616096D01*
X122624379Y-36451235D01*
X122681555Y-36275264D01*
X122710500Y-36092514D01*
X122710500Y-35907486D01*
X122681555Y-35724736D01*
X122643201Y-35606694D01*
X122624380Y-35548767D01*
X122624379Y-35548764D01*
X122540377Y-35383903D01*
X122431621Y-35234213D01*
X122300787Y-35103379D01*
X122151096Y-34994622D01*
X122125896Y-34981782D01*
X121986235Y-34910620D01*
X121986232Y-34910619D01*
X121810265Y-34853445D01*
X121718889Y-34838972D01*
X121627514Y-34824500D01*
X121442486Y-34824500D01*
X121381569Y-34834148D01*
X121259734Y-34853445D01*
X121083767Y-34910619D01*
X121083764Y-34910620D01*
X120918903Y-34994622D01*
X120858719Y-35038349D01*
X120769213Y-35103379D01*
X120769211Y-35103381D01*
X120769210Y-35103381D01*
X120638381Y-35234210D01*
X120638381Y-35234211D01*
X120638379Y-35234213D01*
X120606825Y-35277643D01*
X120529622Y-35383903D01*
X120445620Y-35548764D01*
X120445619Y-35548767D01*
X120388445Y-35724734D01*
X120368487Y-35850743D01*
X120359500Y-35907486D01*
X120060000Y-35907486D01*
X120060000Y-35520000D01*
X120057861Y-35454455D01*
X120023933Y-35327833D01*
X119958388Y-35214306D01*
X119865694Y-35121612D01*
X119752167Y-35056067D01*
X119625545Y-35022139D01*
X119560000Y-35020000D01*
X119110000Y-35020000D01*
X118660000Y-35020000D01*
X118594458Y-35022138D01*
X118467832Y-35056068D01*
X118354307Y-35121611D01*
X118354304Y-35121613D01*
X118261613Y-35214304D01*
X118261611Y-35214307D01*
X118196068Y-35327832D01*
X118162138Y-35454458D01*
X118160000Y-35519999D01*
X117759722Y-35519999D01*
X117690377Y-35383903D01*
X117581621Y-35234213D01*
X117450787Y-35103379D01*
X117301096Y-34994622D01*
X117275896Y-34981782D01*
X117136235Y-34910620D01*
X117136232Y-34910619D01*
X116960265Y-34853445D01*
X116868889Y-34838972D01*
X116777514Y-34824500D01*
X116592486Y-34824500D01*
X116531569Y-34834148D01*
X116409734Y-34853445D01*
X116233767Y-34910619D01*
X116233764Y-34910620D01*
X116068903Y-34994622D01*
X116008719Y-35038349D01*
X115919213Y-35103379D01*
X115919211Y-35103381D01*
X115919210Y-35103381D01*
X115788381Y-35234210D01*
X115788381Y-35234211D01*
X115788379Y-35234213D01*
X115756825Y-35277643D01*
X115679622Y-35383903D01*
X115595620Y-35548764D01*
X115595619Y-35548767D01*
X115538445Y-35724734D01*
X115518487Y-35850743D01*
X115509500Y-35907486D01*
X111410817Y-35907486D01*
X111425220Y-35879219D01*
X111432266Y-35857532D01*
X111435646Y-35850283D01*
X111435664Y-35850262D01*
X111435679Y-35850212D01*
X111446739Y-35826496D01*
X111447183Y-35824841D01*
X111466534Y-35752617D01*
X111467377Y-35749471D01*
X111488477Y-35684534D01*
X111493825Y-35650766D01*
X111505635Y-35606692D01*
X111511215Y-35542892D01*
X111512270Y-35534306D01*
X111514537Y-35519999D01*
X111520500Y-35482352D01*
X111520500Y-35277648D01*
X111511593Y-35221417D01*
X111505635Y-35153308D01*
X111493825Y-35109233D01*
X111488477Y-35075466D01*
X111468378Y-35013609D01*
X111466535Y-35007386D01*
X111446742Y-34933513D01*
X111446740Y-34933510D01*
X111446739Y-34933504D01*
X111432266Y-34902467D01*
X111425220Y-34880781D01*
X111389067Y-34809827D01*
X111350568Y-34727266D01*
X111342436Y-34715652D01*
X111342436Y-34715651D01*
X111337462Y-34708548D01*
X111332287Y-34698390D01*
X111278821Y-34624800D01*
X111278215Y-34623935D01*
X111278205Y-34623920D01*
X111220045Y-34540858D01*
X111059142Y-34379955D01*
X111009763Y-34345380D01*
X110988515Y-34330502D01*
X110944891Y-34275927D01*
X110937697Y-34206429D01*
X110969219Y-34144074D01*
X111022747Y-34110543D01*
X111109606Y-34083478D01*
X111255185Y-33995472D01*
X111375472Y-33875185D01*
X111463478Y-33729606D01*
X111514086Y-33567196D01*
X111520500Y-33496616D01*
X111520500Y-32975650D01*
X111521097Y-32963496D01*
X111525500Y-32918793D01*
X111525500Y-32761207D01*
X111521097Y-32716501D01*
X111520500Y-32704348D01*
X111520500Y-32183386D01*
X111519152Y-32168553D01*
X111514086Y-32112804D01*
X111463478Y-31950394D01*
X111399239Y-31844131D01*
X111381404Y-31776579D01*
X111402921Y-31710105D01*
X111456962Y-31665817D01*
X111504573Y-31655986D01*
X115548450Y-31630648D01*
X115615606Y-31649912D01*
X115661690Y-31702428D01*
X115672067Y-31771523D01*
X115643441Y-31835259D01*
X115622107Y-31854963D01*
X115505209Y-31939894D01*
X115354890Y-32090213D01*
X115229951Y-32262179D01*
X115133444Y-32451585D01*
X115067753Y-32653760D01*
X115034500Y-32863713D01*
X115034500Y-33076286D01*
X115055104Y-33206378D01*
X115067754Y-33286243D01*
X115117938Y-33440694D01*
X115133444Y-33488414D01*
X115229951Y-33677820D01*
X115354890Y-33849786D01*
X115505213Y-34000109D01*
X115677179Y-34125048D01*
X115677181Y-34125049D01*
X115677184Y-34125051D01*
X115866588Y-34221557D01*
X116068757Y-34287246D01*
X116278713Y-34320500D01*
X116278714Y-34320500D01*
X116491286Y-34320500D01*
X116491287Y-34320500D01*
X116701243Y-34287246D01*
X116903412Y-34221557D01*
X117092816Y-34125051D01*
X117202695Y-34045220D01*
X117264786Y-34000109D01*
X117264788Y-34000106D01*
X117264792Y-34000104D01*
X117415104Y-33849792D01*
X117540051Y-33677816D01*
X117540053Y-33677811D01*
X117542914Y-33673874D01*
X117544013Y-33674672D01*
X117591241Y-33631928D01*
X117649225Y-33619648D01*
X117660000Y-33620000D01*
X117660004Y-33620000D01*
X118560000Y-33620000D01*
X118625545Y-33617861D01*
X118752167Y-33583933D01*
X118865694Y-33518388D01*
X118958388Y-33425694D01*
X118998283Y-33356594D01*
X119048850Y-33308378D01*
X119117457Y-33295155D01*
X119182322Y-33321124D01*
X119213057Y-33356594D01*
X119261609Y-33440690D01*
X119261611Y-33440693D01*
X119261612Y-33440694D01*
X119354306Y-33533388D01*
X119467833Y-33598932D01*
X119594455Y-33632861D01*
X119660000Y-33635000D01*
X120559997Y-33635000D01*
X120560000Y-33635000D01*
X120581066Y-33634312D01*
X120648711Y-33651798D01*
X120685430Y-33685361D01*
X120804890Y-33849786D01*
X120955213Y-34000109D01*
X121127179Y-34125048D01*
X121127181Y-34125049D01*
X121127184Y-34125051D01*
X121316588Y-34221557D01*
X121518757Y-34287246D01*
X121728713Y-34320500D01*
X121728714Y-34320500D01*
X121941286Y-34320500D01*
X121941287Y-34320500D01*
X122151243Y-34287246D01*
X122353412Y-34221557D01*
X122542816Y-34125051D01*
X122652695Y-34045220D01*
X122714786Y-34000109D01*
X122714788Y-34000106D01*
X122714792Y-34000104D01*
X122865104Y-33849792D01*
X122865106Y-33849788D01*
X122865109Y-33849786D01*
X122990048Y-33677820D01*
X122990047Y-33677820D01*
X122990051Y-33677816D01*
X123086557Y-33488412D01*
X123152246Y-33286243D01*
X123185500Y-33076287D01*
X123185500Y-32863713D01*
X123152246Y-32653757D01*
X123086557Y-32451588D01*
X122990051Y-32262184D01*
X122990049Y-32262181D01*
X122990048Y-32262179D01*
X122865109Y-32090213D01*
X122714790Y-31939894D01*
X122714785Y-31939890D01*
X122556401Y-31824818D01*
X122513735Y-31769489D01*
X122507756Y-31699875D01*
X122540361Y-31638080D01*
X122601200Y-31603723D01*
X122629286Y-31600500D01*
X127109558Y-31600500D01*
X127176597Y-31620185D01*
G37*
%TD.AperFunction*%
%TA.AperFunction,Conductor*%
G36*
X126990692Y-96663935D02*
G01*
X127011334Y-96680569D01*
X127342344Y-97011580D01*
X127375829Y-97072903D01*
X127370845Y-97142595D01*
X127361397Y-97162379D01*
X127348257Y-97184597D01*
X127348254Y-97184605D01*
X127302402Y-97342426D01*
X127302401Y-97342432D01*
X127299500Y-97379298D01*
X127299500Y-97443786D01*
X127279815Y-97510825D01*
X127227011Y-97556580D01*
X127157853Y-97566524D01*
X127151309Y-97565403D01*
X127073873Y-97550000D01*
X126926128Y-97550000D01*
X126781240Y-97578820D01*
X126781228Y-97578823D01*
X126675974Y-97622420D01*
X126675974Y-97622421D01*
X127176777Y-98123223D01*
X127339665Y-98286111D01*
X127373150Y-98347434D01*
X127368166Y-98417126D01*
X127358719Y-98436908D01*
X127348256Y-98454601D01*
X127348254Y-98454606D01*
X127302402Y-98612426D01*
X127302401Y-98612432D01*
X127299500Y-98649298D01*
X127299500Y-98653692D01*
X127279815Y-98720731D01*
X127227011Y-98766486D01*
X127157853Y-98776430D01*
X127094297Y-98747405D01*
X127087819Y-98741373D01*
X127000000Y-98653554D01*
X126753554Y-98900000D01*
X126999999Y-99146445D01*
X127092975Y-99053469D01*
X127154298Y-99019984D01*
X127223990Y-99024968D01*
X127279924Y-99066839D01*
X127299554Y-99111798D01*
X127300634Y-99111485D01*
X127348254Y-99275393D01*
X127348255Y-99275396D01*
X127348256Y-99275398D01*
X127368512Y-99309650D01*
X127384730Y-99337072D01*
X127401998Y-99400193D01*
X127401998Y-99599806D01*
X127395759Y-99621051D01*
X127394180Y-99643140D01*
X127384731Y-99662926D01*
X127348254Y-99724605D01*
X127348254Y-99724606D01*
X127300634Y-99888515D01*
X127299143Y-99888082D01*
X127271217Y-99943553D01*
X127211047Y-99979067D01*
X127141227Y-99976413D01*
X127092976Y-99946530D01*
X127000000Y-99853554D01*
X126753554Y-100100000D01*
X127000000Y-100346446D01*
X127087819Y-100258627D01*
X127149142Y-100225142D01*
X127218834Y-100230126D01*
X127274767Y-100271998D01*
X127299184Y-100337462D01*
X127299500Y-100346308D01*
X127299500Y-100350701D01*
X127302401Y-100387567D01*
X127302402Y-100387573D01*
X127348254Y-100545393D01*
X127348254Y-100545394D01*
X127348255Y-100545396D01*
X127348256Y-100545398D01*
X127348445Y-100545718D01*
X127358717Y-100563086D01*
X127365719Y-100590685D01*
X127375668Y-100617359D01*
X127374199Y-100624110D01*
X127375899Y-100630810D01*
X127366868Y-100657810D01*
X127360817Y-100685632D01*
X127354937Y-100693486D01*
X127353738Y-100697072D01*
X127339666Y-100713887D01*
X127176778Y-100876777D01*
X127176775Y-100876778D01*
X126675975Y-101377577D01*
X126781236Y-101421178D01*
X126781240Y-101421179D01*
X126926126Y-101449999D01*
X126926129Y-101450000D01*
X127073870Y-101450000D01*
X127151308Y-101434596D01*
X127220899Y-101440823D01*
X127276077Y-101483685D01*
X127299322Y-101549575D01*
X127299500Y-101556213D01*
X127299500Y-101575500D01*
X127279815Y-101642539D01*
X127227011Y-101688294D01*
X127175500Y-101699500D01*
X125424500Y-101699500D01*
X125357461Y-101679815D01*
X125311706Y-101627011D01*
X125300500Y-101575500D01*
X125300500Y-101556213D01*
X125320185Y-101489174D01*
X125372989Y-101443419D01*
X125442147Y-101433475D01*
X125448692Y-101434596D01*
X125526129Y-101450000D01*
X125673871Y-101450000D01*
X125673873Y-101449999D01*
X125818760Y-101421179D01*
X125818775Y-101421175D01*
X125924024Y-101377578D01*
X125924024Y-101377577D01*
X125423223Y-100876777D01*
X125226555Y-100680109D01*
X125500000Y-100680109D01*
X125500000Y-100719891D01*
X125515224Y-100756645D01*
X125543355Y-100784776D01*
X125580109Y-100800000D01*
X125619891Y-100800000D01*
X125656645Y-100784776D01*
X125684776Y-100756645D01*
X125700000Y-100719891D01*
X125700000Y-100699999D01*
X125953554Y-100699999D01*
X125953554Y-100700001D01*
X126277929Y-101024376D01*
X126322069Y-101024376D01*
X126646446Y-100700000D01*
X126626555Y-100680109D01*
X126900000Y-100680109D01*
X126900000Y-100719891D01*
X126915224Y-100756645D01*
X126943355Y-100784776D01*
X126980109Y-100800000D01*
X127019891Y-100800000D01*
X127056645Y-100784776D01*
X127084776Y-100756645D01*
X127100000Y-100719891D01*
X127100000Y-100680109D01*
X127084776Y-100643355D01*
X127056645Y-100615224D01*
X127019891Y-100600000D01*
X126980109Y-100600000D01*
X126943355Y-100615224D01*
X126915224Y-100643355D01*
X126900000Y-100680109D01*
X126626555Y-100680109D01*
X126322068Y-100375622D01*
X126277930Y-100375622D01*
X125953554Y-100699999D01*
X125700000Y-100699999D01*
X125700000Y-100680109D01*
X125684776Y-100643355D01*
X125656645Y-100615224D01*
X125619891Y-100600000D01*
X125580109Y-100600000D01*
X125543355Y-100615224D01*
X125515224Y-100643355D01*
X125500000Y-100680109D01*
X125226555Y-100680109D01*
X124888650Y-100342204D01*
X124855165Y-100280881D01*
X124860149Y-100211189D01*
X124888650Y-100166842D01*
X124955492Y-100100000D01*
X125353554Y-100100000D01*
X125600000Y-100346446D01*
X125846446Y-100100000D01*
X125600000Y-99853554D01*
X125353554Y-100100000D01*
X124955492Y-100100000D01*
X124888650Y-100033158D01*
X124855165Y-99971835D01*
X124860149Y-99902143D01*
X124888650Y-99857796D01*
X125246446Y-99500000D01*
X125234320Y-99487874D01*
X125230080Y-99480109D01*
X125500000Y-99480109D01*
X125500000Y-99519891D01*
X125515224Y-99556645D01*
X125543355Y-99584776D01*
X125580109Y-99600000D01*
X125619891Y-99600000D01*
X125656645Y-99584776D01*
X125684776Y-99556645D01*
X125700000Y-99519891D01*
X125700000Y-99499999D01*
X125953554Y-99499999D01*
X125953554Y-99500001D01*
X126277929Y-99824376D01*
X126322069Y-99824376D01*
X126646446Y-99500000D01*
X126626555Y-99480109D01*
X126900000Y-99480109D01*
X126900000Y-99519891D01*
X126915224Y-99556645D01*
X126943355Y-99584776D01*
X126980109Y-99600000D01*
X127019891Y-99600000D01*
X127056645Y-99584776D01*
X127084776Y-99556645D01*
X127100000Y-99519891D01*
X127100000Y-99480109D01*
X127084776Y-99443355D01*
X127056645Y-99415224D01*
X127019891Y-99400000D01*
X126980109Y-99400000D01*
X126943355Y-99415224D01*
X126915224Y-99443355D01*
X126900000Y-99480109D01*
X126626555Y-99480109D01*
X126322068Y-99175622D01*
X126277930Y-99175622D01*
X125953554Y-99499999D01*
X125700000Y-99499999D01*
X125700000Y-99480109D01*
X125684776Y-99443355D01*
X125656645Y-99415224D01*
X125619891Y-99400000D01*
X125580109Y-99400000D01*
X125543355Y-99415224D01*
X125515224Y-99443355D01*
X125500000Y-99480109D01*
X125230080Y-99480109D01*
X125200835Y-99426551D01*
X125205819Y-99356859D01*
X125215270Y-99337072D01*
X125251744Y-99275398D01*
X125284400Y-99162996D01*
X125299366Y-99111485D01*
X125300860Y-99111919D01*
X125328762Y-99056467D01*
X125388925Y-99020939D01*
X125458744Y-99023577D01*
X125507023Y-99053469D01*
X125600000Y-99146446D01*
X125846446Y-98900000D01*
X125600000Y-98653554D01*
X125512181Y-98741373D01*
X125450858Y-98774858D01*
X125381166Y-98769874D01*
X125325233Y-98728002D01*
X125300816Y-98662538D01*
X125300500Y-98653692D01*
X125300500Y-98649313D01*
X125300499Y-98649298D01*
X125297598Y-98612432D01*
X125297597Y-98612426D01*
X125251745Y-98454606D01*
X125251745Y-98454605D01*
X125251744Y-98454604D01*
X125251744Y-98454602D01*
X125241282Y-98436912D01*
X125234279Y-98409314D01*
X125224330Y-98382637D01*
X125225798Y-98375887D01*
X125224099Y-98369191D01*
X125233129Y-98342186D01*
X125239182Y-98314364D01*
X125245059Y-98306513D01*
X125246258Y-98302928D01*
X125260333Y-98286110D01*
X125266334Y-98280109D01*
X125500000Y-98280109D01*
X125500000Y-98319891D01*
X125515224Y-98356645D01*
X125543355Y-98384776D01*
X125580109Y-98400000D01*
X125619891Y-98400000D01*
X125656645Y-98384776D01*
X125684776Y-98356645D01*
X125700000Y-98319891D01*
X125700000Y-98299999D01*
X125953554Y-98299999D01*
X125953554Y-98300001D01*
X126277929Y-98624376D01*
X126322069Y-98624376D01*
X126646446Y-98300000D01*
X126626555Y-98280109D01*
X126900000Y-98280109D01*
X126900000Y-98319891D01*
X126915224Y-98356645D01*
X126943355Y-98384776D01*
X126980109Y-98400000D01*
X127019891Y-98400000D01*
X127056645Y-98384776D01*
X127084776Y-98356645D01*
X127100000Y-98319891D01*
X127100000Y-98280109D01*
X127084776Y-98243355D01*
X127056645Y-98215224D01*
X127019891Y-98200000D01*
X126980109Y-98200000D01*
X126943355Y-98215224D01*
X126915224Y-98243355D01*
X126900000Y-98280109D01*
X126626555Y-98280109D01*
X126322068Y-97975622D01*
X126277930Y-97975622D01*
X125953554Y-98299999D01*
X125700000Y-98299999D01*
X125700000Y-98280109D01*
X125684776Y-98243355D01*
X125656645Y-98215224D01*
X125619891Y-98200000D01*
X125580109Y-98200000D01*
X125543355Y-98215224D01*
X125515224Y-98243355D01*
X125500000Y-98280109D01*
X125266334Y-98280109D01*
X125385489Y-98160956D01*
X125385491Y-98160954D01*
X125423223Y-98123223D01*
X125924024Y-97622421D01*
X125818767Y-97578822D01*
X125818759Y-97578820D01*
X125673872Y-97550000D01*
X125526131Y-97550000D01*
X125448190Y-97565503D01*
X125378599Y-97559275D01*
X125323422Y-97516411D01*
X125300178Y-97450521D01*
X125300000Y-97443885D01*
X125300000Y-97379365D01*
X125299999Y-97379350D01*
X125297100Y-97342510D01*
X125297099Y-97342504D01*
X125251283Y-97184806D01*
X125251282Y-97184803D01*
X125167685Y-97043447D01*
X125167678Y-97043438D01*
X125051561Y-96927321D01*
X125051553Y-96927315D01*
X124963062Y-96874982D01*
X124915379Y-96823913D01*
X124902875Y-96755172D01*
X124929520Y-96690582D01*
X124986855Y-96650652D01*
X125026183Y-96644250D01*
X126923653Y-96644250D01*
X126990692Y-96663935D01*
G37*
%TD.AperFunction*%
%TA.AperFunction,Conductor*%
G36*
X120105703Y-100475384D02*
G01*
X120112181Y-100481416D01*
X120380152Y-100749387D01*
X120396039Y-100778482D01*
X120412793Y-100807091D01*
X120412713Y-100809018D01*
X120413637Y-100810710D01*
X120411272Y-100843779D01*
X120409899Y-100876900D01*
X120408740Y-100879182D01*
X120408653Y-100880402D01*
X120406117Y-100884346D01*
X120393920Y-100908370D01*
X120339931Y-100985186D01*
X120316264Y-101004035D01*
X120294142Y-101024690D01*
X120289204Y-101025588D01*
X120285278Y-101028715D01*
X120255170Y-101031777D01*
X120225400Y-101037192D01*
X120220760Y-101035278D01*
X120215767Y-101035786D01*
X120188787Y-101022086D01*
X120160812Y-101010545D01*
X120157943Y-101006425D01*
X120153468Y-101004153D01*
X120150801Y-101001565D01*
X119936819Y-100787583D01*
X119903334Y-100726260D01*
X119900500Y-100699902D01*
X119900500Y-100569097D01*
X119920185Y-100502058D01*
X119972989Y-100456303D01*
X120042147Y-100446359D01*
X120105703Y-100475384D01*
G37*
%TD.AperFunction*%
%TA.AperFunction,Conductor*%
G36*
X121518272Y-99725556D02*
G01*
X121530002Y-99725121D01*
X121562629Y-99738581D01*
X121620607Y-99772869D01*
X121661268Y-99784682D01*
X121774791Y-99817664D01*
X121774794Y-99817664D01*
X121774796Y-99817665D01*
X121810819Y-99820500D01*
X122209180Y-99820499D01*
X122227433Y-99819062D01*
X122295806Y-99833425D01*
X122328216Y-99858508D01*
X122352705Y-99885000D01*
X123701000Y-99885000D01*
X123768039Y-99904685D01*
X123813794Y-99957489D01*
X123825000Y-100009000D01*
X123825000Y-100261000D01*
X123805315Y-100328039D01*
X123752511Y-100373794D01*
X123701000Y-100385000D01*
X122352705Y-100385000D01*
X122352704Y-100385001D01*
X122352899Y-100387488D01*
X122398869Y-100545718D01*
X122398669Y-100615587D01*
X122360726Y-100674257D01*
X122297088Y-100703100D01*
X122271055Y-100704004D01*
X122257878Y-100703073D01*
X122220993Y-100692357D01*
X122184690Y-100689500D01*
X122065720Y-100689500D01*
X122061360Y-100689192D01*
X122032542Y-100678472D01*
X122003058Y-100669815D01*
X121997734Y-100665524D01*
X121995874Y-100664833D01*
X121994344Y-100662793D01*
X121982416Y-100653181D01*
X121312385Y-99983150D01*
X121278900Y-99921827D01*
X121283884Y-99852135D01*
X121325756Y-99796202D01*
X121365472Y-99776392D01*
X121379194Y-99772405D01*
X121379196Y-99772404D01*
X121436386Y-99738582D01*
X121449270Y-99735312D01*
X121460180Y-99727715D01*
X121482478Y-99726886D01*
X121504109Y-99721398D01*
X121518272Y-99725556D01*
G37*
%TD.AperFunction*%
%TA.AperFunction,Conductor*%
G36*
X131300987Y-92600908D02*
G01*
X131386475Y-92666506D01*
X131613517Y-92797590D01*
X131613528Y-92797595D01*
X131855744Y-92897924D01*
X132108979Y-92965777D01*
X132108990Y-92965779D01*
X132368905Y-92999999D01*
X132368920Y-93000000D01*
X132631080Y-93000000D01*
X132631094Y-92999999D01*
X132891009Y-92965779D01*
X132891020Y-92965777D01*
X133144255Y-92897924D01*
X133386471Y-92797595D01*
X133386475Y-92797593D01*
X133514499Y-92723678D01*
X133582399Y-92707205D01*
X133648426Y-92730057D01*
X133691617Y-92784978D01*
X133700500Y-92831065D01*
X133700500Y-96553902D01*
X133680815Y-96620941D01*
X133664181Y-96641583D01*
X131313181Y-98992583D01*
X131251858Y-99026068D01*
X131182166Y-99021084D01*
X131126233Y-98979212D01*
X131101816Y-98913748D01*
X131101500Y-98904902D01*
X131101500Y-92699284D01*
X131121185Y-92632245D01*
X131173989Y-92586490D01*
X131243147Y-92576546D01*
X131300987Y-92600908D01*
G37*
%TD.AperFunction*%
%TA.AperFunction,Conductor*%
G36*
X122273171Y-97278576D02*
G01*
X122320893Y-97310586D01*
X122352705Y-97345000D01*
X123701000Y-97345000D01*
X123768039Y-97364685D01*
X123813794Y-97417489D01*
X123825000Y-97469000D01*
X123825000Y-97721000D01*
X123805315Y-97788039D01*
X123752511Y-97833794D01*
X123701000Y-97845000D01*
X122352705Y-97845000D01*
X122352704Y-97845001D01*
X122352899Y-97847486D01*
X122398719Y-98005200D01*
X122401815Y-98012354D01*
X122400102Y-98013094D01*
X122414814Y-98071094D01*
X122392650Y-98137355D01*
X122338182Y-98181115D01*
X122268701Y-98188480D01*
X122256310Y-98185561D01*
X122245205Y-98182335D01*
X122245202Y-98182334D01*
X122209181Y-98179500D01*
X121810830Y-98179500D01*
X121810808Y-98179501D01*
X121774794Y-98182335D01*
X121620611Y-98227129D01*
X121620607Y-98227130D01*
X121562628Y-98261419D01*
X121549745Y-98264687D01*
X121538840Y-98272283D01*
X121516534Y-98273112D01*
X121494903Y-98278600D01*
X121480744Y-98274443D01*
X121469018Y-98274879D01*
X121436391Y-98261421D01*
X121417791Y-98250422D01*
X121370106Y-98199354D01*
X121357599Y-98130613D01*
X121384242Y-98066023D01*
X121393209Y-98056025D01*
X122142160Y-97307074D01*
X122203479Y-97273592D01*
X122273171Y-97278576D01*
G37*
%TD.AperFunction*%
%TA.AperFunction,Conductor*%
G36*
X107279024Y-55921353D02*
G01*
X107334957Y-55963225D01*
X107355465Y-56005441D01*
X107393259Y-56146490D01*
X107393261Y-56146497D01*
X107489431Y-56352732D01*
X107489432Y-56352734D01*
X107619954Y-56539141D01*
X107780858Y-56700045D01*
X107780861Y-56700047D01*
X107967266Y-56830568D01*
X108025275Y-56857618D01*
X108077714Y-56903791D01*
X108096866Y-56970984D01*
X108076650Y-57037865D01*
X108025275Y-57082382D01*
X107967267Y-57109431D01*
X107967265Y-57109432D01*
X107780858Y-57239954D01*
X107619954Y-57400858D01*
X107489432Y-57587265D01*
X107489431Y-57587267D01*
X107393261Y-57793502D01*
X107393258Y-57793511D01*
X107334366Y-58013302D01*
X107334364Y-58013312D01*
X107319500Y-58183214D01*
X107319500Y-58296785D01*
X107334364Y-58466687D01*
X107334366Y-58466697D01*
X107393258Y-58686488D01*
X107393261Y-58686497D01*
X107489431Y-58892732D01*
X107489432Y-58892734D01*
X107619954Y-59079141D01*
X107780858Y-59240045D01*
X107780861Y-59240047D01*
X107967266Y-59370568D01*
X108025275Y-59397618D01*
X108077714Y-59443791D01*
X108096866Y-59510984D01*
X108076650Y-59577865D01*
X108025275Y-59622382D01*
X107967267Y-59649431D01*
X107967265Y-59649432D01*
X107780858Y-59779954D01*
X107619954Y-59940858D01*
X107489432Y-60127265D01*
X107489431Y-60127267D01*
X107393261Y-60333502D01*
X107393258Y-60333511D01*
X107334366Y-60553302D01*
X107334364Y-60553312D01*
X107319500Y-60723214D01*
X107319500Y-60836785D01*
X107334364Y-61006687D01*
X107334366Y-61006697D01*
X107393258Y-61226488D01*
X107393261Y-61226497D01*
X107489431Y-61432732D01*
X107489432Y-61432734D01*
X107619954Y-61619141D01*
X107780858Y-61780045D01*
X107780861Y-61780047D01*
X107967266Y-61910568D01*
X108019219Y-61934794D01*
X108071659Y-61980966D01*
X108090811Y-62048159D01*
X108070596Y-62115041D01*
X108025269Y-62156534D01*
X107960499Y-62191155D01*
X107960478Y-62191167D01*
X107829469Y-62278704D01*
X107829463Y-62278708D01*
X107752935Y-62341514D01*
X107641514Y-62452935D01*
X107578708Y-62529463D01*
X107578704Y-62529469D01*
X107491167Y-62660478D01*
X107491155Y-62660498D01*
X107444490Y-62747801D01*
X107384185Y-62893387D01*
X107355443Y-62988139D01*
X107355440Y-62988150D01*
X107339160Y-63069999D01*
X107339161Y-63070000D01*
X109786988Y-63070000D01*
X109754075Y-63127007D01*
X109720000Y-63254174D01*
X109720000Y-63385826D01*
X109754075Y-63512993D01*
X109786988Y-63570000D01*
X107339160Y-63570000D01*
X107355440Y-63651849D01*
X107355443Y-63651860D01*
X107384185Y-63746612D01*
X107444490Y-63892198D01*
X107491155Y-63979501D01*
X107491167Y-63979521D01*
X107578704Y-64110530D01*
X107578708Y-64110536D01*
X107641514Y-64187064D01*
X107752935Y-64298485D01*
X107829463Y-64361291D01*
X107829469Y-64361295D01*
X107960478Y-64448832D01*
X107960506Y-64448849D01*
X108025268Y-64483465D01*
X108075112Y-64532427D01*
X108090573Y-64600565D01*
X108066741Y-64666244D01*
X108019221Y-64705205D01*
X107967264Y-64729433D01*
X107780858Y-64859954D01*
X107619954Y-65020858D01*
X107489432Y-65207265D01*
X107489431Y-65207267D01*
X107393261Y-65413502D01*
X107393258Y-65413511D01*
X107334366Y-65633302D01*
X107334364Y-65633312D01*
X107319500Y-65803214D01*
X107319500Y-65916785D01*
X107334364Y-66086687D01*
X107334366Y-66086697D01*
X107393258Y-66306488D01*
X107393259Y-66306490D01*
X107393261Y-66306496D01*
X107433216Y-66392179D01*
X107483657Y-66500351D01*
X107494149Y-66569429D01*
X107465629Y-66633213D01*
X107458956Y-66640437D01*
X104631286Y-69468108D01*
X104519481Y-69579912D01*
X104519479Y-69579915D01*
X104515051Y-69587585D01*
X104476496Y-69654365D01*
X104467469Y-69670000D01*
X104443786Y-69711021D01*
X104440423Y-69716845D01*
X104399499Y-69869573D01*
X104399499Y-69869575D01*
X104399499Y-70037676D01*
X104399500Y-70037689D01*
X104399500Y-91420234D01*
X104379815Y-91487273D01*
X104378602Y-91489125D01*
X104290609Y-91620814D01*
X104290602Y-91620827D01*
X104230264Y-91766498D01*
X104230261Y-91766510D01*
X104199500Y-91921153D01*
X104199500Y-92050902D01*
X104179815Y-92117941D01*
X104127011Y-92163696D01*
X104057853Y-92173640D01*
X103994297Y-92144615D01*
X103987819Y-92138583D01*
X103636819Y-91787583D01*
X103603334Y-91726260D01*
X103600500Y-91699902D01*
X103600500Y-59548726D01*
X103620185Y-59481687D01*
X103636814Y-59461050D01*
X107148011Y-55949852D01*
X107209332Y-55916369D01*
X107279024Y-55921353D01*
G37*
%TD.AperFunction*%
%TA.AperFunction,Conductor*%
G36*
X131844862Y-56966576D02*
G01*
X131849147Y-56965960D01*
X131863061Y-56969052D01*
X131866501Y-56969736D01*
X131866503Y-56969737D01*
X131923569Y-56981088D01*
X132021849Y-57000638D01*
X132083760Y-57033023D01*
X132085339Y-57034574D01*
X132235139Y-57184374D01*
X132235149Y-57184385D01*
X132239479Y-57188715D01*
X132239480Y-57188716D01*
X132351284Y-57300520D01*
X132351286Y-57300521D01*
X132351290Y-57300524D01*
X132456758Y-57361415D01*
X132488216Y-57379577D01*
X132600019Y-57409534D01*
X132640942Y-57420500D01*
X132640943Y-57420500D01*
X132684215Y-57420500D01*
X132692840Y-57421718D01*
X132717045Y-57432699D01*
X132742539Y-57440185D01*
X132748364Y-57446907D01*
X132756468Y-57450584D01*
X132770894Y-57472908D01*
X132788294Y-57492989D01*
X132790539Y-57503309D01*
X132794389Y-57509267D01*
X132794418Y-57521142D01*
X132799500Y-57544500D01*
X132799500Y-58220404D01*
X132779815Y-58287443D01*
X132763181Y-58308085D01*
X132708869Y-58362396D01*
X132708863Y-58362404D01*
X132627131Y-58500606D01*
X132627129Y-58500611D01*
X132582335Y-58654791D01*
X132582334Y-58654797D01*
X132579500Y-58690811D01*
X132579500Y-59089169D01*
X132579501Y-59089191D01*
X132582335Y-59125205D01*
X132627129Y-59279388D01*
X132627130Y-59279391D01*
X132661419Y-59337371D01*
X132678601Y-59405095D01*
X132661419Y-59463611D01*
X132627594Y-59520806D01*
X132587156Y-59660000D01*
X133139591Y-59660000D01*
X133140045Y-59660001D01*
X133144694Y-59660018D01*
X133150819Y-59660500D01*
X133276385Y-59660499D01*
X133276454Y-59660500D01*
X133309781Y-59670417D01*
X133343039Y-59680183D01*
X133343193Y-59680361D01*
X133343421Y-59680429D01*
X133366132Y-59706834D01*
X133388794Y-59732987D01*
X133388850Y-59733247D01*
X133388982Y-59733400D01*
X133389159Y-59734666D01*
X133400000Y-59784499D01*
X133400000Y-59910000D01*
X133526000Y-59910000D01*
X133593039Y-59929685D01*
X133638794Y-59982489D01*
X133650000Y-60034000D01*
X133650000Y-60679929D01*
X133660672Y-60689795D01*
X133696538Y-60749757D01*
X133700500Y-60780851D01*
X133700500Y-89168933D01*
X133680815Y-89235972D01*
X133628011Y-89281727D01*
X133558853Y-89291671D01*
X133514500Y-89276320D01*
X133386482Y-89202409D01*
X133386471Y-89202404D01*
X133144255Y-89102075D01*
X132891020Y-89034222D01*
X132891009Y-89034220D01*
X132631094Y-89000000D01*
X132368905Y-89000000D01*
X132108990Y-89034220D01*
X132108979Y-89034222D01*
X131855744Y-89102075D01*
X131613528Y-89202404D01*
X131613517Y-89202409D01*
X131386471Y-89333496D01*
X131300986Y-89399091D01*
X131235817Y-89424285D01*
X131167372Y-89410246D01*
X131117382Y-89361432D01*
X131101500Y-89300715D01*
X131101500Y-85500096D01*
X131121185Y-85433057D01*
X131137815Y-85412419D01*
X131465506Y-85084727D01*
X131465511Y-85084724D01*
X131475714Y-85074520D01*
X131475716Y-85074520D01*
X131587520Y-84962716D01*
X131666577Y-84825784D01*
X131707500Y-84673057D01*
X131707500Y-60160000D01*
X132587156Y-60160000D01*
X132627595Y-60299194D01*
X132709261Y-60437285D01*
X132709268Y-60437294D01*
X132822705Y-60550731D01*
X132822714Y-60550738D01*
X132960808Y-60632406D01*
X132960811Y-60632407D01*
X133114871Y-60677166D01*
X133114877Y-60677167D01*
X133150000Y-60679931D01*
X133150000Y-60160000D01*
X132587156Y-60160000D01*
X131707500Y-60160000D01*
X131707500Y-57088698D01*
X131715097Y-57062825D01*
X131719177Y-57036167D01*
X131724793Y-57029802D01*
X131727185Y-57021659D01*
X131747560Y-57004003D01*
X131765408Y-56983779D01*
X131773576Y-56981460D01*
X131779989Y-56975904D01*
X131806677Y-56972066D01*
X131832623Y-56964703D01*
X131844862Y-56966576D01*
G37*
%TD.AperFunction*%
%TA.AperFunction,Conductor*%
G36*
X109754075Y-50427007D02*
G01*
X109720000Y-50554174D01*
X109720000Y-50685826D01*
X109754075Y-50812993D01*
X109786988Y-50870000D01*
X109544000Y-50870000D01*
X109476961Y-50850315D01*
X109431206Y-50797511D01*
X109420000Y-50746000D01*
X109420000Y-50494000D01*
X109439685Y-50426961D01*
X109492489Y-50381206D01*
X109544000Y-50370000D01*
X109786988Y-50370000D01*
X109754075Y-50427007D01*
G37*
%TD.AperFunction*%
%TA.AperFunction,Conductor*%
G36*
X107581907Y-36196940D02*
G01*
X107626254Y-36225441D01*
X107780858Y-36380045D01*
X107780861Y-36380047D01*
X107967266Y-36510568D01*
X108019219Y-36534794D01*
X108071659Y-36580966D01*
X108090811Y-36648159D01*
X108070596Y-36715041D01*
X108025269Y-36756534D01*
X107960499Y-36791155D01*
X107960478Y-36791167D01*
X107829469Y-36878704D01*
X107829463Y-36878708D01*
X107752935Y-36941514D01*
X107641514Y-37052935D01*
X107578708Y-37129463D01*
X107578704Y-37129469D01*
X107491167Y-37260478D01*
X107491155Y-37260498D01*
X107444490Y-37347801D01*
X107384185Y-37493387D01*
X107355443Y-37588139D01*
X107355440Y-37588150D01*
X107339160Y-37669999D01*
X107339161Y-37670000D01*
X109786988Y-37670000D01*
X109754075Y-37727007D01*
X109720000Y-37854174D01*
X109720000Y-37985826D01*
X109754075Y-38112993D01*
X109786988Y-38170000D01*
X107339160Y-38170000D01*
X107355440Y-38251849D01*
X107355443Y-38251860D01*
X107384185Y-38346612D01*
X107444490Y-38492198D01*
X107491155Y-38579501D01*
X107491167Y-38579521D01*
X107578704Y-38710530D01*
X107578708Y-38710536D01*
X107641514Y-38787064D01*
X107752935Y-38898485D01*
X107829463Y-38961291D01*
X107829469Y-38961295D01*
X107960478Y-39048832D01*
X107960506Y-39048849D01*
X108025268Y-39083465D01*
X108075112Y-39132427D01*
X108090573Y-39200565D01*
X108066741Y-39266244D01*
X108019221Y-39305205D01*
X107967264Y-39329433D01*
X107780858Y-39459954D01*
X107619954Y-39620858D01*
X107489432Y-39807265D01*
X107489431Y-39807267D01*
X107393261Y-40013502D01*
X107393258Y-40013511D01*
X107334366Y-40233302D01*
X107334364Y-40233312D01*
X107319500Y-40403214D01*
X107319500Y-40516785D01*
X107334364Y-40686687D01*
X107334366Y-40686697D01*
X107393258Y-40906488D01*
X107393261Y-40906497D01*
X107489431Y-41112732D01*
X107489432Y-41112734D01*
X107619954Y-41299141D01*
X107780858Y-41460045D01*
X107780861Y-41460047D01*
X107967266Y-41590568D01*
X108025275Y-41617618D01*
X108077714Y-41663791D01*
X108096866Y-41730984D01*
X108076650Y-41797865D01*
X108025275Y-41842382D01*
X107967267Y-41869431D01*
X107967265Y-41869432D01*
X107780858Y-41999954D01*
X107619954Y-42160858D01*
X107489432Y-42347265D01*
X107489431Y-42347267D01*
X107393261Y-42553502D01*
X107393258Y-42553511D01*
X107334366Y-42773302D01*
X107334364Y-42773312D01*
X107319500Y-42943214D01*
X107319500Y-43056785D01*
X107334364Y-43226687D01*
X107334366Y-43226697D01*
X107393258Y-43446488D01*
X107393259Y-43446490D01*
X107393261Y-43446496D01*
X107418328Y-43500251D01*
X107483657Y-43640351D01*
X107494149Y-43709429D01*
X107465629Y-43773213D01*
X107458956Y-43780437D01*
X101312181Y-49927213D01*
X101250858Y-49960698D01*
X101181166Y-49955714D01*
X101125233Y-49913842D01*
X101100816Y-49848378D01*
X101100500Y-49839532D01*
X101100500Y-42627196D01*
X101120185Y-42560157D01*
X101136814Y-42539520D01*
X107450894Y-36225439D01*
X107512215Y-36191956D01*
X107581907Y-36196940D01*
G37*
%TD.AperFunction*%
%TD*%
M02*
