%TF.GenerationSoftware,KiCad,Pcbnew,10.0.3*%
%TF.CreationDate,2026-05-28T20:07:26+10:00*%
%TF.ProjectId,yes_sir_this_is_a_calculator,7965735f-7369-4725-9f74-6869735f6973,rev?*%
%TF.SameCoordinates,Original*%
%TF.FileFunction,Copper,L2,Bot*%
%TF.FilePolarity,Positive*%
%FSLAX46Y46*%
G04 Gerber Fmt 4.6, Leading zero omitted, Abs format (unit mm)*
G04 Created by KiCad (PCBNEW 10.0.3) date 2026-05-28 20:07:26*
%MOMM*%
%LPD*%
G01*
G04 APERTURE LIST*
G04 Aperture macros list*
%AMRoundRect*
0 Rectangle with rounded corners*
0 $1 Rounding radius*
0 $2 $3 $4 $5 $6 $7 $8 $9 X,Y pos of 4 corners*
0 Add a 4 corners polygon primitive as box body*
4,1,4,$2,$3,$4,$5,$6,$7,$8,$9,$2,$3,0*
0 Add four circle primitives for the rounded corners*
1,1,$1+$1,$2,$3*
1,1,$1+$1,$4,$5*
1,1,$1+$1,$6,$7*
1,1,$1+$1,$8,$9*
0 Add four rect primitives between the rounded corners*
20,1,$1+$1,$2,$3,$4,$5,0*
20,1,$1+$1,$4,$5,$6,$7,0*
20,1,$1+$1,$6,$7,$8,$9,0*
20,1,$1+$1,$8,$9,$2,$3,0*%
%AMFreePoly0*
4,1,37,0.603843,0.796157,0.639018,0.796157,0.711114,0.766294,0.766294,0.711114,0.796157,0.639018,0.796157,0.603843,0.800000,0.600000,0.800000,-0.600000,0.796157,-0.603843,0.796157,-0.639018,0.766294,-0.711114,0.711114,-0.766294,0.639018,-0.796157,0.603843,-0.796157,0.600000,-0.800000,0.000000,-0.800000,0.000000,-0.796148,-0.078414,-0.796148,-0.232228,-0.765552,-0.377117,-0.705537,
-0.507515,-0.618408,-0.618408,-0.507515,-0.705537,-0.377117,-0.765552,-0.232228,-0.796148,-0.078414,-0.796148,0.078414,-0.765552,0.232228,-0.705537,0.377117,-0.618408,0.507515,-0.507515,0.618408,-0.377117,0.705537,-0.232228,0.765552,-0.078414,0.796148,0.000000,0.796148,0.000000,0.800000,0.600000,0.800000,0.603843,0.796157,0.603843,0.796157,$1*%
%AMFreePoly1*
4,1,37,0.000000,0.796148,0.078414,0.796148,0.232228,0.765552,0.377117,0.705537,0.507515,0.618408,0.618408,0.507515,0.705537,0.377117,0.765552,0.232228,0.796148,0.078414,0.796148,-0.078414,0.765552,-0.232228,0.705537,-0.377117,0.618408,-0.507515,0.507515,-0.618408,0.377117,-0.705537,0.232228,-0.765552,0.078414,-0.796148,0.000000,-0.796148,0.000000,-0.800000,-0.600000,-0.800000,
-0.603843,-0.796157,-0.639018,-0.796157,-0.711114,-0.766294,-0.766294,-0.711114,-0.796157,-0.639018,-0.796157,-0.603843,-0.800000,-0.600000,-0.800000,0.600000,-0.796157,0.603843,-0.796157,0.639018,-0.766294,0.711114,-0.711114,0.766294,-0.639018,0.796157,-0.603843,0.796157,-0.600000,0.800000,0.000000,0.800000,0.000000,0.796148,0.000000,0.796148,$1*%
G04 Aperture macros list end*
%TA.AperFunction,ComponentPad*%
%ADD10C,2.000000*%
%TD*%
%TA.AperFunction,HeatsinkPad*%
%ADD11C,0.500000*%
%TD*%
%TA.AperFunction,HeatsinkPad*%
%ADD12R,1.900000X2.900000*%
%TD*%
%TA.AperFunction,ComponentPad*%
%ADD13RoundRect,0.200000X-0.600000X-0.600000X0.600000X-0.600000X0.600000X0.600000X-0.600000X0.600000X0*%
%TD*%
%TA.AperFunction,ComponentPad*%
%ADD14C,1.600000*%
%TD*%
%TA.AperFunction,ComponentPad*%
%ADD15FreePoly0,0.000000*%
%TD*%
%TA.AperFunction,ComponentPad*%
%ADD16FreePoly1,0.000000*%
%TD*%
%TA.AperFunction,ComponentPad*%
%ADD17R,1.700000X1.700000*%
%TD*%
%TA.AperFunction,ComponentPad*%
%ADD18C,1.700000*%
%TD*%
%TA.AperFunction,ViaPad*%
%ADD19C,0.600000*%
%TD*%
%TA.AperFunction,Conductor*%
%ADD20C,0.200000*%
%TD*%
G04 APERTURE END LIST*
D10*
%TO.P,SW25,1,1*%
%TO.N,/COL4*%
X106050000Y-167450000D03*
X112550000Y-167450000D03*
%TO.P,SW25,2,2*%
%TO.N,Net-(D26-A)*%
X106050000Y-171950000D03*
X112550000Y-171950000D03*
%TD*%
%TO.P,SW18,1,1*%
%TO.N,/COL2*%
X76050000Y-151950000D03*
X82550000Y-151950000D03*
%TO.P,SW18,2,2*%
%TO.N,Net-(D19-A)*%
X76050000Y-156450000D03*
X82550000Y-156450000D03*
%TD*%
D11*
%TO.P,U1,9,EPAD*%
%TO.N,GND*%
X125600000Y-98300000D03*
X125600000Y-99500000D03*
X125600000Y-100700000D03*
D12*
X126300000Y-99500000D03*
D11*
X127000000Y-98300000D03*
X127000000Y-99500000D03*
X127000000Y-100700000D03*
%TD*%
D10*
%TO.P,SW10,1,1*%
%TO.N,/COL4*%
X106050000Y-122200000D03*
X112550000Y-122200000D03*
%TO.P,SW10,2,2*%
%TO.N,Net-(D11-A)*%
X106050000Y-126700000D03*
X112550000Y-126700000D03*
%TD*%
%TO.P,SW6,1,1*%
%TO.N,/COL2*%
X76050000Y-106950000D03*
X82550000Y-106950000D03*
%TO.P,SW6,2,2*%
%TO.N,Net-(D7-A)*%
X76050000Y-111450000D03*
X82550000Y-111450000D03*
%TD*%
%TO.P,SW7,1,1*%
%TO.N,/COL1*%
X61050000Y-122200000D03*
X67550000Y-122200000D03*
%TO.P,SW7,2,2*%
%TO.N,Net-(D8-A)*%
X61050000Y-126700000D03*
X67550000Y-126700000D03*
%TD*%
%TO.P,SW15,1,1*%
%TO.N,/COL4*%
X106050000Y-137450000D03*
X112550000Y-137450000D03*
%TO.P,SW15,2,2*%
%TO.N,Net-(D16-A)*%
X106050000Y-141950000D03*
X112550000Y-141950000D03*
%TD*%
%TO.P,SW4,1,1*%
%TO.N,/COL2*%
X76050000Y-98350000D03*
X82550000Y-98350000D03*
%TO.P,SW4,2,2*%
%TO.N,Net-(D5-A)*%
X76050000Y-102850000D03*
X82550000Y-102850000D03*
%TD*%
%TO.P,SW2,1,1*%
%TO.N,/COL2*%
X75950000Y-89650000D03*
X82450000Y-89650000D03*
%TO.P,SW2,2,2*%
%TO.N,Net-(D1-A)*%
X75950000Y-94150000D03*
X82450000Y-94150000D03*
%TD*%
%TO.P,SW9,1,1*%
%TO.N,/COL3*%
X91050000Y-122200000D03*
X97550000Y-122200000D03*
%TO.P,SW9,2,2*%
%TO.N,Net-(D10-A)*%
X91050000Y-126700000D03*
X97550000Y-126700000D03*
%TD*%
%TO.P,SW20,1,1*%
%TO.N,/COL4*%
X106050000Y-152450000D03*
X112550000Y-152450000D03*
%TO.P,SW20,2,2*%
%TO.N,Net-(D21-A)*%
X106050000Y-156950000D03*
X112550000Y-156950000D03*
%TD*%
D13*
%TO.P,A1,1,GPIO0*%
%TO.N,/ROW1*%
X110220000Y-32840000D03*
D14*
%TO.P,A1,2,GPIO1*%
%TO.N,/ROW2*%
X110220000Y-35380000D03*
D15*
%TO.P,A1,3,GND*%
%TO.N,GND*%
X110220000Y-37920000D03*
D14*
%TO.P,A1,4,GPIO2*%
%TO.N,/ROW3*%
X110220000Y-40460000D03*
%TO.P,A1,5,GPIO3*%
%TO.N,/ROW4*%
X110220000Y-43000000D03*
%TO.P,A1,6,GPIO4*%
%TO.N,/ROW5*%
X110220000Y-45540000D03*
%TO.P,A1,7,GPIO5*%
%TO.N,/ROW6*%
X110220000Y-48080000D03*
D15*
%TO.P,A1,8,GND*%
%TO.N,GND*%
X110220000Y-50620000D03*
D14*
%TO.P,A1,9,GPIO6*%
%TO.N,/ROW7*%
X110220000Y-53160000D03*
%TO.P,A1,10,GPIO7*%
%TO.N,/COL1*%
X110220000Y-55700000D03*
%TO.P,A1,11,GPIO8*%
%TO.N,/COL2*%
X110220000Y-58240000D03*
%TO.P,A1,12,GPIO9*%
%TO.N,/COL3*%
X110220000Y-60780000D03*
D15*
%TO.P,A1,13,GND*%
%TO.N,GND*%
X110220000Y-63320000D03*
D14*
%TO.P,A1,14,GPIO10*%
%TO.N,/COL4*%
X110220000Y-65860000D03*
%TO.P,A1,15,GPIO11*%
%TO.N,/COL5*%
X110220000Y-68400000D03*
%TO.P,A1,16,GPIO12*%
%TO.N,/SDA*%
X110220000Y-70940000D03*
%TO.P,A1,17,GPIO13*%
%TO.N,/SCL*%
X110220000Y-73480000D03*
D15*
%TO.P,A1,18,GND*%
%TO.N,GND*%
X110220000Y-76020000D03*
D14*
%TO.P,A1,19,GPIO14*%
%TO.N,unconnected-(A1-GPIO14-Pad19)_1*%
X110220000Y-78560000D03*
%TO.P,A1,20,GPIO15*%
%TO.N,unconnected-(A1-GPIO15-Pad20)*%
X110220000Y-81100000D03*
%TO.P,A1,21,GPIO16*%
%TO.N,unconnected-(A1-GPIO16-Pad21)*%
X128000000Y-81100000D03*
%TO.P,A1,22,GPIO17*%
%TO.N,unconnected-(A1-GPIO17-Pad22)*%
X128000000Y-78560000D03*
D16*
%TO.P,A1,23,GND*%
%TO.N,GND*%
X128000000Y-76020000D03*
D14*
%TO.P,A1,24,GPIO18*%
%TO.N,unconnected-(A1-GPIO18-Pad24)*%
X128000000Y-73480000D03*
%TO.P,A1,25,GPIO19*%
%TO.N,unconnected-(A1-GPIO19-Pad25)_1*%
X128000000Y-70940000D03*
%TO.P,A1,26,GPIO20*%
%TO.N,unconnected-(A1-GPIO20-Pad26)*%
X128000000Y-68400000D03*
%TO.P,A1,27,GPIO21*%
%TO.N,unconnected-(A1-GPIO21-Pad27)*%
X128000000Y-65860000D03*
D16*
%TO.P,A1,28,GND*%
%TO.N,GND*%
X128000000Y-63320000D03*
D14*
%TO.P,A1,29,GPIO22*%
%TO.N,unconnected-(A1-GPIO22-Pad29)_1*%
X128000000Y-60780000D03*
%TO.P,A1,30,RUN*%
%TO.N,unconnected-(A1-RUN-Pad30)*%
X128000000Y-58240000D03*
%TO.P,A1,31,GPIO26_ADC0*%
%TO.N,Net-(A1-GPIO26_ADC0)*%
X128000000Y-55700000D03*
%TO.P,A1,32,GPIO27_ADC1*%
%TO.N,/CHRG*%
X128000000Y-53160000D03*
D16*
%TO.P,A1,33,AGND*%
%TO.N,GND*%
X128000000Y-50620000D03*
D14*
%TO.P,A1,34,GPIO28_ADC2*%
%TO.N,/STDBY*%
X128000000Y-48080000D03*
%TO.P,A1,35,ADC_VREF*%
%TO.N,unconnected-(A1-ADC_VREF-Pad35)_1*%
X128000000Y-45540000D03*
%TO.P,A1,36,3V3*%
%TO.N,+3V3*%
X128000000Y-43000000D03*
%TO.P,A1,37,3V3_EN*%
%TO.N,unconnected-(A1-3V3_EN-Pad37)_1*%
X128000000Y-40460000D03*
D16*
%TO.P,A1,38,GND*%
%TO.N,GND*%
X128000000Y-37920000D03*
D14*
%TO.P,A1,39,VSYS*%
%TO.N,Net-(A1-VSYS)*%
X128000000Y-35380000D03*
%TO.P,A1,40,VBUS*%
%TO.N,/VBUS*%
X128000000Y-32840000D03*
%TD*%
D10*
%TO.P,SW16,1,1*%
%TO.N,/COL5*%
X121050000Y-137450000D03*
X127550000Y-137450000D03*
%TO.P,SW16,2,2*%
%TO.N,Net-(D17-A)*%
X121050000Y-141950000D03*
X127550000Y-141950000D03*
%TD*%
%TO.P,SW22,1,1*%
%TO.N,/COL1*%
X61050000Y-167450000D03*
X67550000Y-167450000D03*
%TO.P,SW22,2,2*%
%TO.N,Net-(D23-A)*%
X61050000Y-171950000D03*
X67550000Y-171950000D03*
%TD*%
%TO.P,SW3,1,1*%
%TO.N,/COL1*%
X63850000Y-98300000D03*
X70350000Y-98300000D03*
%TO.P,SW3,2,2*%
%TO.N,Net-(D4-A)*%
X63850000Y-102800000D03*
X70350000Y-102800000D03*
%TD*%
%TO.P,SW11,1,1*%
%TO.N,/COL5*%
X121050000Y-122200000D03*
X127550000Y-122200000D03*
%TO.P,SW11,2,2*%
%TO.N,Net-(D12-A)*%
X121050000Y-126700000D03*
X127550000Y-126700000D03*
%TD*%
D17*
%TO.P,J1,1,Pin_1*%
%TO.N,/SDA*%
X87620000Y-35500000D03*
D18*
%TO.P,J1,2,Pin_2*%
%TO.N,/SCL*%
X90160000Y-35500000D03*
%TO.P,J1,3,Pin_3*%
%TO.N,+3V3*%
X92700000Y-35500000D03*
%TO.P,J1,4,Pin_4*%
%TO.N,GND*%
X95240000Y-35500000D03*
%TD*%
D10*
%TO.P,SW8,1,1*%
%TO.N,/COL2*%
X76050000Y-122200000D03*
X82550000Y-122200000D03*
%TO.P,SW8,2,2*%
%TO.N,Net-(D9-A)*%
X76050000Y-126700000D03*
X82550000Y-126700000D03*
%TD*%
%TO.P,SW5,1,1*%
%TO.N,/COL3*%
X88450000Y-98350000D03*
X94950000Y-98350000D03*
%TO.P,SW5,2,2*%
%TO.N,Net-(D6-A)*%
X88450000Y-102850000D03*
X94950000Y-102850000D03*
%TD*%
%TO.P,SW12,1,1*%
%TO.N,/COL1*%
X61050000Y-137450000D03*
X67550000Y-137450000D03*
%TO.P,SW12,2,2*%
%TO.N,Net-(D13-A)*%
X61050000Y-141950000D03*
X67550000Y-141950000D03*
%TD*%
%TO.P,SW19,1,1*%
%TO.N,/COL3*%
X91050000Y-152450000D03*
X97550000Y-152450000D03*
%TO.P,SW19,2,2*%
%TO.N,Net-(D20-A)*%
X91050000Y-156950000D03*
X97550000Y-156950000D03*
%TD*%
%TO.P,SW26,1,1*%
%TO.N,/COL5*%
X121050000Y-167450000D03*
X127550000Y-167450000D03*
%TO.P,SW26,2,2*%
%TO.N,Net-(D27-A)*%
X121050000Y-171950000D03*
X127550000Y-171950000D03*
%TD*%
%TO.P,SW23,1,1*%
%TO.N,/COL2*%
X76050000Y-167450000D03*
X82550000Y-167450000D03*
%TO.P,SW23,2,2*%
%TO.N,Net-(D24-A)*%
X76050000Y-171950000D03*
X82550000Y-171950000D03*
%TD*%
%TO.P,SW17,1,1*%
%TO.N,/COL1*%
X61050000Y-151950000D03*
X67550000Y-151950000D03*
%TO.P,SW17,2,2*%
%TO.N,Net-(D18-A)*%
X61050000Y-156450000D03*
X67550000Y-156450000D03*
%TD*%
%TO.P,SW21,1,1*%
%TO.N,/COL5*%
X121050000Y-152450000D03*
X127550000Y-152450000D03*
%TO.P,SW21,2,2*%
%TO.N,Net-(D22-A)*%
X121050000Y-156950000D03*
X127550000Y-156950000D03*
%TD*%
%TO.P,SW24,1,1*%
%TO.N,/COL3*%
X91050000Y-167450000D03*
X97550000Y-167450000D03*
%TO.P,SW24,2,2*%
%TO.N,Net-(D25-A)*%
X91050000Y-171950000D03*
X97550000Y-171950000D03*
%TD*%
%TO.P,SW13,1,1*%
%TO.N,/COL2*%
X76050000Y-137450000D03*
X82550000Y-137450000D03*
%TO.P,SW13,2,2*%
%TO.N,Net-(D14-A)*%
X76050000Y-141950000D03*
X82550000Y-141950000D03*
%TD*%
%TO.P,SW14,1,1*%
%TO.N,/COL3*%
X91050000Y-137450000D03*
X97550000Y-137450000D03*
%TO.P,SW14,2,2*%
%TO.N,Net-(D15-A)*%
X91050000Y-141950000D03*
X97550000Y-141950000D03*
%TD*%
D19*
%TO.N,/COL4*%
X105000000Y-92000000D03*
%TO.N,GND*%
X131707000Y-63320000D03*
X132500000Y-93300000D03*
X121881837Y-97801512D03*
X120200000Y-101000000D03*
%TO.N,Net-(A1-GPIO26_ADC0)*%
X132100000Y-56200000D03*
%TO.N,/CHRG*%
X135400000Y-48000000D03*
%TO.N,/ROW3*%
X100000000Y-41100000D03*
%TO.N,/COL5*%
X106120000Y-92000000D03*
%TO.N,/SDA*%
X95100000Y-51900000D03*
X96940000Y-70940000D03*
%TO.N,/SCL*%
X96800000Y-51400000D03*
X98900000Y-73480000D03*
%TD*%
%TO.N,/COL4*%
D20*
X105000000Y-121150000D02*
X105000000Y-92000000D01*
X104749000Y-153751000D02*
X104749000Y-166149000D01*
X106050000Y-137450000D02*
X104749000Y-138751000D01*
X104500000Y-123750000D02*
X104500000Y-135900000D01*
X104749000Y-166149000D02*
X106050000Y-167450000D01*
X106050000Y-122200000D02*
X104500000Y-123750000D01*
X106050000Y-152450000D02*
X104749000Y-153751000D01*
X104749000Y-151149000D02*
X106050000Y-152450000D01*
X104500000Y-135900000D02*
X106050000Y-137450000D01*
X104749000Y-138751000D02*
X104749000Y-151149000D01*
X106050000Y-122200000D02*
X105000000Y-121150000D01*
%TO.N,/COL2*%
X74649000Y-96949000D02*
X74649000Y-90951000D01*
X74749000Y-166149000D02*
X74749000Y-153251000D01*
X76050000Y-98350000D02*
X74749000Y-99651000D01*
X74749000Y-138751000D02*
X76050000Y-137450000D01*
X76050000Y-98350000D02*
X74649000Y-96949000D01*
X74749000Y-108251000D02*
X76050000Y-106950000D01*
X76050000Y-151950000D02*
X74749000Y-150649000D01*
X74749000Y-120899000D02*
X74749000Y-108251000D01*
X74649000Y-90951000D02*
X75950000Y-89650000D01*
X76050000Y-137450000D02*
X74749000Y-136149000D01*
X74749000Y-136149000D02*
X74749000Y-123501000D01*
X74749000Y-123501000D02*
X76050000Y-122200000D01*
X82450000Y-70550000D02*
X94760000Y-58240000D01*
X74749000Y-150649000D02*
X74749000Y-138751000D01*
X76050000Y-167450000D02*
X74749000Y-166149000D01*
X76050000Y-106950000D02*
X74749000Y-105649000D01*
X74749000Y-153251000D02*
X76050000Y-151950000D01*
X82450000Y-89650000D02*
X82450000Y-70550000D01*
X94760000Y-58240000D02*
X110220000Y-58240000D01*
X76050000Y-122200000D02*
X74749000Y-120899000D01*
X74749000Y-99651000D02*
X74749000Y-105649000D01*
%TO.N,GND*%
X131707000Y-63320000D02*
X128000000Y-63320000D01*
%TO.N,/COL1*%
X59749000Y-136149000D02*
X59749000Y-123501000D01*
X95460108Y-55700000D02*
X110220000Y-55700000D01*
X59749000Y-138751000D02*
X61050000Y-137450000D01*
X59749000Y-166149000D02*
X59749000Y-153251000D01*
X61050000Y-137450000D02*
X59749000Y-136149000D01*
X61050000Y-151950000D02*
X59749000Y-150649000D01*
X61050000Y-167450000D02*
X59749000Y-166149000D01*
X59749000Y-123501000D02*
X61050000Y-122200000D01*
X59749000Y-150649000D02*
X59749000Y-138751000D01*
X59749000Y-153251000D02*
X61050000Y-151950000D01*
X70350000Y-98300000D02*
X70350000Y-80810108D01*
X61050000Y-101100000D02*
X63850000Y-98300000D01*
X70350000Y-80810108D02*
X95460108Y-55700000D01*
X61050000Y-122200000D02*
X61050000Y-101100000D01*
%TO.N,Net-(A1-GPIO26_ADC0)*%
X131600000Y-55700000D02*
X132100000Y-56200000D01*
X128000000Y-55700000D02*
X131600000Y-55700000D01*
%TO.N,/CHRG*%
X128000000Y-53160000D02*
X130240000Y-53160000D01*
X130240000Y-53160000D02*
X135400000Y-48000000D01*
%TO.N,/ROW3*%
X100000000Y-41100000D02*
X100640000Y-40460000D01*
X100640000Y-40460000D02*
X110220000Y-40460000D01*
%TO.N,/COL3*%
X89749000Y-151149000D02*
X89749000Y-138751000D01*
X91050000Y-167450000D02*
X89749000Y-166149000D01*
X89751000Y-99651000D02*
X89751000Y-120897000D01*
X89749000Y-153751000D02*
X91050000Y-152450000D01*
X88450000Y-98350000D02*
X88400000Y-98300000D01*
X102220000Y-60780000D02*
X110220000Y-60780000D01*
X88450000Y-98350000D02*
X89751000Y-99651000D01*
X91000000Y-72000000D02*
X102220000Y-60780000D01*
X89749000Y-166149000D02*
X89749000Y-153751000D01*
X89751000Y-120897000D02*
X89749000Y-120899000D01*
X91050000Y-152450000D02*
X89749000Y-151149000D01*
X91050000Y-122200000D02*
X89749000Y-120899000D01*
X88450000Y-98350000D02*
X91000000Y-95800000D01*
X91050000Y-137450000D02*
X89749000Y-136149000D01*
X89749000Y-138751000D02*
X91050000Y-137450000D01*
X91000000Y-95800000D02*
X91000000Y-72000000D01*
X89749000Y-136149000D02*
X89749000Y-123501000D01*
X89749000Y-123501000D02*
X91050000Y-122200000D01*
%TO.N,+3V3*%
X126899000Y-44101000D02*
X101301000Y-44101000D01*
X128000000Y-43000000D02*
X126899000Y-44101000D01*
X101301000Y-44101000D02*
X92700000Y-35500000D01*
%TO.N,/COL5*%
X121050000Y-152450000D02*
X119500000Y-154000000D01*
X121050000Y-137450000D02*
X119749000Y-138751000D01*
X121050000Y-122200000D02*
X106425000Y-107575000D01*
X119749000Y-136149000D02*
X121050000Y-137450000D01*
X119500000Y-154000000D02*
X119500000Y-165900000D01*
X106120000Y-92000000D02*
X106120000Y-107270000D01*
X119749000Y-123501000D02*
X119749000Y-136149000D01*
X119749000Y-151149000D02*
X121050000Y-152450000D01*
X121050000Y-122200000D02*
X119749000Y-123501000D01*
X119749000Y-138751000D02*
X119749000Y-151149000D01*
X119500000Y-165900000D02*
X121050000Y-167450000D01*
X106120000Y-107270000D02*
X106425000Y-107575000D01*
%TO.N,/SDA*%
X96940000Y-70940000D02*
X110220000Y-70940000D01*
X87620000Y-35500000D02*
X87620000Y-44420000D01*
X87620000Y-44420000D02*
X95100000Y-51900000D01*
%TO.N,/SCL*%
X98900000Y-73480000D02*
X110220000Y-73480000D01*
X96800000Y-42140000D02*
X96800000Y-51400000D01*
X90160000Y-35500000D02*
X96800000Y-42140000D01*
%TO.N,unconnected-(A1-GPIO15-Pad20)*%
X110119997Y-81200003D02*
X110220000Y-81100000D01*
%TD*%
%TA.AperFunction,Conductor*%
%TO.N,GND*%
G36*
X108991253Y-31691419D02*
G01*
X109037337Y-31743935D01*
X109047714Y-31813030D01*
X109030985Y-31860302D01*
X108976522Y-31950393D01*
X108925913Y-32112807D01*
X108919500Y-32183386D01*
X108919500Y-33496613D01*
X108925913Y-33567192D01*
X108925913Y-33567194D01*
X108925914Y-33567196D01*
X108960384Y-33677816D01*
X108976522Y-33729606D01*
X109064530Y-33875188D01*
X109184811Y-33995469D01*
X109184813Y-33995470D01*
X109184815Y-33995472D01*
X109330394Y-34083478D01*
X109417566Y-34110641D01*
X109475712Y-34149378D01*
X109503686Y-34213403D01*
X109492605Y-34282388D01*
X109453560Y-34329344D01*
X109372782Y-34388032D01*
X109228028Y-34532786D01*
X109107715Y-34698386D01*
X109014781Y-34880776D01*
X108951522Y-35075465D01*
X108919500Y-35277648D01*
X108919500Y-35482351D01*
X108951522Y-35684534D01*
X109014781Y-35879223D01*
X109041057Y-35930791D01*
X109091662Y-36030109D01*
X109107715Y-36061613D01*
X109228028Y-36227213D01*
X109372786Y-36371971D01*
X109538388Y-36492286D01*
X109538390Y-36492287D01*
X109624294Y-36536057D01*
X109675090Y-36584031D01*
X109691886Y-36651852D01*
X109669349Y-36717987D01*
X109626455Y-36755899D01*
X109560494Y-36791157D01*
X109560489Y-36791160D01*
X109491086Y-36837532D01*
X109491085Y-36837533D01*
X110090590Y-37437037D01*
X110027007Y-37454075D01*
X109912993Y-37519901D01*
X109819901Y-37612993D01*
X109754075Y-37727007D01*
X109737037Y-37790589D01*
X109137533Y-37191085D01*
X109137532Y-37191086D01*
X109091161Y-37260488D01*
X109044490Y-37347801D01*
X108984185Y-37493387D01*
X108955444Y-37588135D01*
X108924701Y-37742697D01*
X108924701Y-37742700D01*
X108915000Y-37841210D01*
X108915000Y-37998789D01*
X108924701Y-38097299D01*
X108924701Y-38097302D01*
X108955444Y-38251864D01*
X108984185Y-38346612D01*
X109044490Y-38492198D01*
X109091158Y-38579506D01*
X109137533Y-38648912D01*
X109137534Y-38648913D01*
X109737037Y-38049409D01*
X109754075Y-38112993D01*
X109819901Y-38227007D01*
X109912993Y-38320099D01*
X110027007Y-38385925D01*
X110090590Y-38402962D01*
X109491085Y-39002465D01*
X109560493Y-39048841D01*
X109626454Y-39084099D01*
X109676298Y-39133062D01*
X109691758Y-39201200D01*
X109667926Y-39266879D01*
X109624295Y-39303942D01*
X109538386Y-39347715D01*
X109372786Y-39468028D01*
X109228028Y-39612786D01*
X109107715Y-39778385D01*
X109100883Y-39791795D01*
X109052909Y-39842591D01*
X108990398Y-39859500D01*
X100726670Y-39859500D01*
X100726654Y-39859499D01*
X100719058Y-39859499D01*
X100560943Y-39859499D01*
X100484579Y-39879961D01*
X100408214Y-39900423D01*
X100408209Y-39900426D01*
X100271290Y-39979475D01*
X100271282Y-39979481D01*
X99985337Y-40265426D01*
X99924014Y-40298911D01*
X99921848Y-40299362D01*
X99766508Y-40330261D01*
X99766498Y-40330264D01*
X99620827Y-40390602D01*
X99620814Y-40390609D01*
X99489711Y-40478210D01*
X99489707Y-40478213D01*
X99378213Y-40589707D01*
X99378210Y-40589711D01*
X99290609Y-40720814D01*
X99290602Y-40720827D01*
X99230264Y-40866498D01*
X99230262Y-40866504D01*
X99223337Y-40901318D01*
X99190950Y-40963228D01*
X99130233Y-40997800D01*
X99060464Y-40994059D01*
X99014039Y-40964804D01*
X95110916Y-37061681D01*
X95077431Y-37000358D01*
X95082415Y-36930666D01*
X95124287Y-36874733D01*
X95189751Y-36850316D01*
X95198597Y-36850000D01*
X95346246Y-36850000D01*
X95556127Y-36816757D01*
X95556130Y-36816757D01*
X95758217Y-36751095D01*
X95947554Y-36654622D01*
X96001716Y-36615270D01*
X96001717Y-36615270D01*
X95369408Y-35982962D01*
X95432993Y-35965925D01*
X95547007Y-35900099D01*
X95640099Y-35807007D01*
X95705925Y-35692993D01*
X95722962Y-35629409D01*
X96355270Y-36261717D01*
X96355270Y-36261716D01*
X96394622Y-36207554D01*
X96491095Y-36018217D01*
X96556757Y-35816130D01*
X96556757Y-35816127D01*
X96590000Y-35606246D01*
X96590000Y-35393753D01*
X96556757Y-35183872D01*
X96556757Y-35183869D01*
X96491095Y-34981782D01*
X96394624Y-34792449D01*
X96355270Y-34738282D01*
X96355269Y-34738282D01*
X95722962Y-35370590D01*
X95705925Y-35307007D01*
X95640099Y-35192993D01*
X95547007Y-35099901D01*
X95432993Y-35034075D01*
X95369409Y-35017037D01*
X96001716Y-34384728D01*
X95947550Y-34345375D01*
X95758217Y-34248904D01*
X95556129Y-34183242D01*
X95346246Y-34150000D01*
X95133754Y-34150000D01*
X94923872Y-34183242D01*
X94923869Y-34183242D01*
X94721782Y-34248904D01*
X94532439Y-34345380D01*
X94478282Y-34384727D01*
X94478282Y-34384728D01*
X95110591Y-35017037D01*
X95047007Y-35034075D01*
X94932993Y-35099901D01*
X94839901Y-35192993D01*
X94774075Y-35307007D01*
X94757037Y-35370591D01*
X94124728Y-34738282D01*
X94124727Y-34738282D01*
X94085380Y-34792440D01*
X94085376Y-34792446D01*
X94080760Y-34801505D01*
X94032781Y-34852297D01*
X93964959Y-34869087D01*
X93898826Y-34846543D01*
X93859794Y-34801493D01*
X93855051Y-34792184D01*
X93855049Y-34792181D01*
X93855048Y-34792179D01*
X93730109Y-34620213D01*
X93579786Y-34469890D01*
X93407820Y-34344951D01*
X93218414Y-34248444D01*
X93218413Y-34248443D01*
X93218412Y-34248443D01*
X93016243Y-34182754D01*
X93016241Y-34182753D01*
X93016240Y-34182753D01*
X92854957Y-34157208D01*
X92806287Y-34149500D01*
X92593713Y-34149500D01*
X92545042Y-34157208D01*
X92383760Y-34182753D01*
X92181585Y-34248444D01*
X91992179Y-34344951D01*
X91820213Y-34469890D01*
X91669890Y-34620213D01*
X91544949Y-34792182D01*
X91540484Y-34800946D01*
X91492509Y-34851742D01*
X91424688Y-34868536D01*
X91358553Y-34845998D01*
X91319516Y-34800946D01*
X91315050Y-34792182D01*
X91190109Y-34620213D01*
X91039786Y-34469890D01*
X90867820Y-34344951D01*
X90678414Y-34248444D01*
X90678413Y-34248443D01*
X90678412Y-34248443D01*
X90476243Y-34182754D01*
X90476241Y-34182753D01*
X90476240Y-34182753D01*
X90314957Y-34157208D01*
X90266287Y-34149500D01*
X90053713Y-34149500D01*
X90005042Y-34157208D01*
X89843760Y-34182753D01*
X89641585Y-34248444D01*
X89452179Y-34344951D01*
X89280215Y-34469889D01*
X89166673Y-34583431D01*
X89105350Y-34616915D01*
X89035658Y-34611931D01*
X88979725Y-34570059D01*
X88962810Y-34539082D01*
X88913797Y-34407671D01*
X88913793Y-34407664D01*
X88827547Y-34292455D01*
X88827544Y-34292452D01*
X88712335Y-34206206D01*
X88712328Y-34206202D01*
X88577482Y-34155908D01*
X88577483Y-34155908D01*
X88517883Y-34149501D01*
X88517881Y-34149500D01*
X88517873Y-34149500D01*
X88517864Y-34149500D01*
X86722129Y-34149500D01*
X86722123Y-34149501D01*
X86662516Y-34155908D01*
X86527671Y-34206202D01*
X86527664Y-34206206D01*
X86412455Y-34292452D01*
X86412452Y-34292455D01*
X86326206Y-34407664D01*
X86326202Y-34407671D01*
X86275908Y-34542517D01*
X86269501Y-34602116D01*
X86269500Y-34602135D01*
X86269500Y-36397870D01*
X86269501Y-36397876D01*
X86275908Y-36457483D01*
X86326202Y-36592328D01*
X86326206Y-36592335D01*
X86412452Y-36707544D01*
X86412455Y-36707547D01*
X86527664Y-36793793D01*
X86527671Y-36793797D01*
X86548354Y-36801511D01*
X86662517Y-36844091D01*
X86722127Y-36850500D01*
X86895500Y-36850499D01*
X86962539Y-36870183D01*
X87008294Y-36922987D01*
X87019500Y-36974499D01*
X87019500Y-44333330D01*
X87019499Y-44333348D01*
X87019499Y-44499054D01*
X87019498Y-44499054D01*
X87019499Y-44499057D01*
X87060423Y-44651785D01*
X87084092Y-44692781D01*
X87130977Y-44773989D01*
X87139481Y-44788717D01*
X87258349Y-44907585D01*
X87258355Y-44907590D01*
X94265425Y-51914660D01*
X94298910Y-51975983D01*
X94299361Y-51978149D01*
X94330261Y-52133491D01*
X94330264Y-52133501D01*
X94390602Y-52279172D01*
X94390609Y-52279185D01*
X94478210Y-52410288D01*
X94478213Y-52410292D01*
X94589707Y-52521786D01*
X94589711Y-52521789D01*
X94720814Y-52609390D01*
X94720827Y-52609397D01*
X94844869Y-52660776D01*
X94866503Y-52669737D01*
X95021153Y-52700499D01*
X95021156Y-52700500D01*
X95021158Y-52700500D01*
X95178844Y-52700500D01*
X95178845Y-52700499D01*
X95333497Y-52669737D01*
X95479179Y-52609394D01*
X95610289Y-52521789D01*
X95721789Y-52410289D01*
X95809394Y-52279179D01*
X95869737Y-52133497D01*
X95900500Y-51978842D01*
X95900500Y-51903439D01*
X95920185Y-51836400D01*
X95972989Y-51790645D01*
X96042147Y-51780701D01*
X96105703Y-51809726D01*
X96127602Y-51834548D01*
X96178210Y-51910288D01*
X96178213Y-51910292D01*
X96289707Y-52021786D01*
X96289711Y-52021789D01*
X96420814Y-52109390D01*
X96420827Y-52109397D01*
X96566498Y-52169735D01*
X96566503Y-52169737D01*
X96721153Y-52200499D01*
X96721156Y-52200500D01*
X96721158Y-52200500D01*
X96878844Y-52200500D01*
X96878845Y-52200499D01*
X97033497Y-52169737D01*
X97168243Y-52113924D01*
X97179172Y-52109397D01*
X97179172Y-52109396D01*
X97179179Y-52109394D01*
X97310289Y-52021789D01*
X97421789Y-51910289D01*
X97509394Y-51779179D01*
X97569737Y-51633497D01*
X97600500Y-51478842D01*
X97600500Y-51321158D01*
X97600500Y-51321155D01*
X97600499Y-51321153D01*
X97574531Y-51190606D01*
X97569737Y-51166503D01*
X97569735Y-51166498D01*
X97509397Y-51020827D01*
X97509390Y-51020814D01*
X97421398Y-50889125D01*
X97400520Y-50822447D01*
X97400500Y-50820234D01*
X97400500Y-42060945D01*
X97400499Y-42060941D01*
X97386323Y-42008033D01*
X97386323Y-42008034D01*
X97359577Y-41908215D01*
X97354263Y-41899012D01*
X97330639Y-41858095D01*
X97330637Y-41858092D01*
X97302522Y-41809394D01*
X97280520Y-41771284D01*
X97168716Y-41659480D01*
X97168715Y-41659479D01*
X97164385Y-41655149D01*
X97164374Y-41655139D01*
X92571416Y-37062181D01*
X92537931Y-37000858D01*
X92542915Y-36931166D01*
X92584787Y-36875233D01*
X92650251Y-36850816D01*
X92659097Y-36850500D01*
X92806286Y-36850500D01*
X92806287Y-36850500D01*
X93016243Y-36817246D01*
X93058523Y-36803507D01*
X93128362Y-36801511D01*
X93184522Y-36833757D01*
X100816139Y-44465374D01*
X100816149Y-44465385D01*
X100820479Y-44469715D01*
X100820480Y-44469716D01*
X100932284Y-44581520D01*
X101019095Y-44631639D01*
X101019097Y-44631641D01*
X101053987Y-44651785D01*
X101069215Y-44660577D01*
X101221943Y-44701501D01*
X101221946Y-44701501D01*
X101387653Y-44701501D01*
X101387669Y-44701500D01*
X108985303Y-44701500D01*
X109052342Y-44721185D01*
X109098097Y-44773989D01*
X109108041Y-44843147D01*
X109095788Y-44881795D01*
X109014781Y-45040776D01*
X108951522Y-45235465D01*
X108919500Y-45437648D01*
X108919500Y-45642351D01*
X108951522Y-45844534D01*
X109014781Y-46039223D01*
X109107715Y-46221613D01*
X109228028Y-46387213D01*
X109372786Y-46531971D01*
X109527749Y-46644556D01*
X109538390Y-46652287D01*
X109629840Y-46698883D01*
X109631080Y-46699515D01*
X109681876Y-46747490D01*
X109698671Y-46815311D01*
X109676134Y-46881446D01*
X109631080Y-46920485D01*
X109538386Y-46967715D01*
X109372786Y-47088028D01*
X109228028Y-47232786D01*
X109107715Y-47398386D01*
X109014781Y-47580776D01*
X108951522Y-47775465D01*
X108919500Y-47977648D01*
X108919500Y-48182351D01*
X108951522Y-48384534D01*
X109014781Y-48579223D01*
X109107715Y-48761613D01*
X109228028Y-48927213D01*
X109372786Y-49071971D01*
X109538388Y-49192286D01*
X109538390Y-49192287D01*
X109624294Y-49236057D01*
X109675090Y-49284031D01*
X109691886Y-49351852D01*
X109669349Y-49417987D01*
X109626455Y-49455899D01*
X109560494Y-49491157D01*
X109560489Y-49491160D01*
X109491086Y-49537532D01*
X109491085Y-49537533D01*
X110090590Y-50137037D01*
X110027007Y-50154075D01*
X109912993Y-50219901D01*
X109819901Y-50312993D01*
X109754075Y-50427007D01*
X109737037Y-50490589D01*
X109137533Y-49891085D01*
X109137532Y-49891086D01*
X109091161Y-49960488D01*
X109044490Y-50047801D01*
X108984185Y-50193387D01*
X108955444Y-50288135D01*
X108924701Y-50442697D01*
X108924701Y-50442700D01*
X108915000Y-50541210D01*
X108915000Y-50698789D01*
X108924701Y-50797299D01*
X108924701Y-50797302D01*
X108955444Y-50951864D01*
X108984185Y-51046612D01*
X109044490Y-51192198D01*
X109091158Y-51279506D01*
X109137533Y-51348912D01*
X109137534Y-51348913D01*
X109737037Y-50749409D01*
X109754075Y-50812993D01*
X109819901Y-50927007D01*
X109912993Y-51020099D01*
X110027007Y-51085925D01*
X110090590Y-51102962D01*
X109491085Y-51702465D01*
X109560493Y-51748841D01*
X109626454Y-51784099D01*
X109676298Y-51833062D01*
X109691758Y-51901200D01*
X109667926Y-51966879D01*
X109624295Y-52003942D01*
X109538386Y-52047715D01*
X109372786Y-52168028D01*
X109228028Y-52312786D01*
X109107715Y-52478386D01*
X109014781Y-52660776D01*
X108951522Y-52855465D01*
X108919500Y-53057648D01*
X108919500Y-53262351D01*
X108951522Y-53464534D01*
X109014781Y-53659223D01*
X109107715Y-53841613D01*
X109228028Y-54007213D01*
X109372786Y-54151971D01*
X109527749Y-54264556D01*
X109538390Y-54272287D01*
X109629840Y-54318883D01*
X109631080Y-54319515D01*
X109681876Y-54367490D01*
X109698671Y-54435311D01*
X109676134Y-54501446D01*
X109631080Y-54540485D01*
X109538386Y-54587715D01*
X109372786Y-54708028D01*
X109228028Y-54852786D01*
X109107715Y-55018385D01*
X109100883Y-55031795D01*
X109052909Y-55082591D01*
X108990398Y-55099500D01*
X95539165Y-55099500D01*
X95381050Y-55099500D01*
X95228323Y-55140423D01*
X95228322Y-55140423D01*
X95228320Y-55140424D01*
X95228317Y-55140425D01*
X95178204Y-55169359D01*
X95178203Y-55169360D01*
X95134797Y-55194420D01*
X95091393Y-55219479D01*
X95091390Y-55219481D01*
X69869481Y-80441390D01*
X69869479Y-80441393D01*
X69819361Y-80528202D01*
X69819359Y-80528204D01*
X69790425Y-80578317D01*
X69790424Y-80578318D01*
X69784405Y-80600781D01*
X69749499Y-80731051D01*
X69749499Y-80731053D01*
X69749499Y-80899154D01*
X69749500Y-80899167D01*
X69749500Y-96845931D01*
X69729815Y-96912970D01*
X69681796Y-96956415D01*
X69563568Y-97016655D01*
X69429896Y-97113774D01*
X69372490Y-97155483D01*
X69372488Y-97155485D01*
X69372487Y-97155485D01*
X69205485Y-97322487D01*
X69205485Y-97322488D01*
X69205483Y-97322490D01*
X69169158Y-97372487D01*
X69066657Y-97513566D01*
X68959433Y-97724003D01*
X68886446Y-97948631D01*
X68849500Y-98181902D01*
X68849500Y-98418097D01*
X68886446Y-98651368D01*
X68959433Y-98875996D01*
X68984910Y-98925996D01*
X69066657Y-99086433D01*
X69205483Y-99277510D01*
X69372490Y-99444517D01*
X69563567Y-99583343D01*
X69661696Y-99633342D01*
X69774003Y-99690566D01*
X69774005Y-99690566D01*
X69774008Y-99690568D01*
X69860820Y-99718775D01*
X69998631Y-99763553D01*
X70231903Y-99800500D01*
X70231908Y-99800500D01*
X70468097Y-99800500D01*
X70701368Y-99763553D01*
X70772114Y-99740566D01*
X70925992Y-99690568D01*
X71136433Y-99583343D01*
X71327510Y-99444517D01*
X71494517Y-99277510D01*
X71633343Y-99086433D01*
X71740568Y-98875992D01*
X71813553Y-98651368D01*
X71834556Y-98518759D01*
X71850500Y-98418097D01*
X71850500Y-98181902D01*
X71813553Y-97948631D01*
X71740566Y-97724003D01*
X71684002Y-97612991D01*
X71633343Y-97513567D01*
X71494517Y-97322490D01*
X71327510Y-97155483D01*
X71152120Y-97028054D01*
X71136431Y-97016655D01*
X71018204Y-96956415D01*
X70967409Y-96908441D01*
X70950500Y-96845931D01*
X70950500Y-81110205D01*
X70970185Y-81043166D01*
X70986819Y-81022524D01*
X76296350Y-75712993D01*
X81638367Y-70370975D01*
X81657957Y-70360278D01*
X81674876Y-70345708D01*
X81688030Y-70343857D01*
X81699688Y-70337492D01*
X81721955Y-70339084D01*
X81744064Y-70335974D01*
X81756129Y-70341528D01*
X81769380Y-70342476D01*
X81787252Y-70355855D01*
X81807532Y-70365191D01*
X81814680Y-70376388D01*
X81825313Y-70384348D01*
X81833114Y-70405264D01*
X81845128Y-70424083D01*
X81846406Y-70440901D01*
X81849730Y-70449812D01*
X81850045Y-70459033D01*
X81850014Y-70469018D01*
X81849499Y-70470943D01*
X81849499Y-70629057D01*
X81849500Y-70629060D01*
X81849500Y-70639053D01*
X81849500Y-88195931D01*
X81829815Y-88262970D01*
X81781796Y-88306415D01*
X81663568Y-88366655D01*
X81529896Y-88463774D01*
X81472490Y-88505483D01*
X81472488Y-88505485D01*
X81472487Y-88505485D01*
X81305485Y-88672487D01*
X81305485Y-88672488D01*
X81305483Y-88672490D01*
X81245862Y-88754550D01*
X81166657Y-88863566D01*
X81059433Y-89074003D01*
X80986446Y-89298631D01*
X80949500Y-89531902D01*
X80949500Y-89768097D01*
X80986446Y-90001368D01*
X81059433Y-90225996D01*
X81166657Y-90436433D01*
X81305483Y-90627510D01*
X81472490Y-90794517D01*
X81663567Y-90933343D01*
X81762991Y-90984002D01*
X81874003Y-91040566D01*
X81874005Y-91040566D01*
X81874008Y-91040568D01*
X81962476Y-91069313D01*
X82098631Y-91113553D01*
X82331903Y-91150500D01*
X82331908Y-91150500D01*
X82568097Y-91150500D01*
X82801368Y-91113553D01*
X82834468Y-91102798D01*
X83025992Y-91040568D01*
X83027017Y-91040046D01*
X83046621Y-91030057D01*
X83236433Y-90933343D01*
X83427510Y-90794517D01*
X83594517Y-90627510D01*
X83733343Y-90436433D01*
X83840568Y-90225992D01*
X83913553Y-90001368D01*
X83950500Y-89768097D01*
X83950500Y-89531902D01*
X83913553Y-89298631D01*
X83840566Y-89074003D01*
X83733342Y-88863566D01*
X83594517Y-88672490D01*
X83427510Y-88505483D01*
X83331971Y-88436070D01*
X83236431Y-88366655D01*
X83118204Y-88306415D01*
X83067409Y-88258441D01*
X83050500Y-88195931D01*
X83050500Y-70850097D01*
X83070185Y-70783058D01*
X83086819Y-70762416D01*
X94972416Y-58876819D01*
X95033739Y-58843334D01*
X95060097Y-58840500D01*
X108990398Y-58840500D01*
X109057437Y-58860185D01*
X109100883Y-58908205D01*
X109107715Y-58921614D01*
X109228028Y-59087213D01*
X109372786Y-59231971D01*
X109527749Y-59344556D01*
X109538390Y-59352287D01*
X109629840Y-59398883D01*
X109631080Y-59399515D01*
X109681876Y-59447490D01*
X109698671Y-59515311D01*
X109676134Y-59581446D01*
X109631080Y-59620485D01*
X109538386Y-59667715D01*
X109372786Y-59788028D01*
X109228028Y-59932786D01*
X109107715Y-60098385D01*
X109100883Y-60111795D01*
X109052909Y-60162591D01*
X108990398Y-60179500D01*
X102299057Y-60179500D01*
X102140943Y-60179500D01*
X101988215Y-60220423D01*
X101988214Y-60220423D01*
X101988212Y-60220424D01*
X101988209Y-60220425D01*
X101938096Y-60249359D01*
X101938095Y-60249360D01*
X101894689Y-60274420D01*
X101851285Y-60299479D01*
X101851282Y-60299481D01*
X90519481Y-71631282D01*
X90519479Y-71631285D01*
X90474187Y-71709735D01*
X90474186Y-71709736D01*
X90440423Y-71768214D01*
X90440423Y-71768215D01*
X90399499Y-71920943D01*
X90399499Y-71920945D01*
X90399499Y-72089046D01*
X90399500Y-72089059D01*
X90399500Y-95499902D01*
X90379815Y-95566941D01*
X90363181Y-95587583D01*
X89053563Y-96897200D01*
X88992240Y-96930685D01*
X88927564Y-96927450D01*
X88801370Y-96886447D01*
X88568097Y-96849500D01*
X88568092Y-96849500D01*
X88331908Y-96849500D01*
X88331903Y-96849500D01*
X88098631Y-96886446D01*
X87874003Y-96959433D01*
X87663566Y-97066657D01*
X87472487Y-97205485D01*
X87305485Y-97372487D01*
X87305485Y-97372488D01*
X87305483Y-97372490D01*
X87245862Y-97454550D01*
X87166657Y-97563566D01*
X87059433Y-97774003D01*
X86986446Y-97998631D01*
X86949500Y-98231902D01*
X86949500Y-98468097D01*
X86986446Y-98701368D01*
X87059433Y-98925996D01*
X87166657Y-99136433D01*
X87305483Y-99327510D01*
X87472490Y-99494517D01*
X87663567Y-99633343D01*
X87762991Y-99684002D01*
X87874003Y-99740566D01*
X87874005Y-99740566D01*
X87874008Y-99740568D01*
X87971093Y-99772113D01*
X88098631Y-99813553D01*
X88331903Y-99850500D01*
X88331908Y-99850500D01*
X88568097Y-99850500D01*
X88674126Y-99833705D01*
X88801368Y-99813553D01*
X88927566Y-99772547D01*
X88942776Y-99772113D01*
X88957036Y-99766795D01*
X88976991Y-99771136D01*
X88997404Y-99770553D01*
X89011490Y-99778640D01*
X89025309Y-99781647D01*
X89053563Y-99802798D01*
X89114181Y-99863416D01*
X89147666Y-99924739D01*
X89150500Y-99951097D01*
X89150500Y-101329215D01*
X89130815Y-101396254D01*
X89078011Y-101442009D01*
X89008853Y-101451953D01*
X88988182Y-101447146D01*
X88801370Y-101386447D01*
X88568097Y-101349500D01*
X88568092Y-101349500D01*
X88331908Y-101349500D01*
X88331903Y-101349500D01*
X88098631Y-101386446D01*
X87874003Y-101459433D01*
X87663566Y-101566657D01*
X87554550Y-101645862D01*
X87472490Y-101705483D01*
X87472488Y-101705485D01*
X87472487Y-101705485D01*
X87305485Y-101872487D01*
X87305485Y-101872488D01*
X87305483Y-101872490D01*
X87245862Y-101954550D01*
X87166657Y-102063566D01*
X87059433Y-102274003D01*
X86986446Y-102498631D01*
X86949500Y-102731902D01*
X86949500Y-102838485D01*
X86929815Y-102905524D01*
X86877011Y-102951279D01*
X86826898Y-102962477D01*
X84175898Y-102992376D01*
X84108641Y-102973449D01*
X84062294Y-102921164D01*
X84050500Y-102868384D01*
X84050500Y-102731902D01*
X84013553Y-102498631D01*
X83978247Y-102389971D01*
X83940568Y-102274008D01*
X83940566Y-102274005D01*
X83940566Y-102274003D01*
X83833342Y-102063566D01*
X83694517Y-101872490D01*
X83527510Y-101705483D01*
X83336433Y-101566657D01*
X83125996Y-101459433D01*
X82901368Y-101386446D01*
X82668097Y-101349500D01*
X82668092Y-101349500D01*
X82431908Y-101349500D01*
X82431903Y-101349500D01*
X82198631Y-101386446D01*
X81974003Y-101459433D01*
X81763566Y-101566657D01*
X81654550Y-101645862D01*
X81572490Y-101705483D01*
X81572488Y-101705485D01*
X81572487Y-101705485D01*
X81405485Y-101872487D01*
X81405485Y-101872488D01*
X81405483Y-101872490D01*
X81345862Y-101954550D01*
X81266657Y-102063566D01*
X81159433Y-102274003D01*
X81086446Y-102498631D01*
X81049500Y-102731902D01*
X81049500Y-102905027D01*
X81029815Y-102972066D01*
X80977011Y-103017821D01*
X80926898Y-103029019D01*
X77675898Y-103065684D01*
X77608641Y-103046757D01*
X77562294Y-102994472D01*
X77550500Y-102941692D01*
X77550500Y-102731902D01*
X77513553Y-102498631D01*
X77478247Y-102389971D01*
X77440568Y-102274008D01*
X77440566Y-102274005D01*
X77440566Y-102274003D01*
X77333342Y-102063566D01*
X77194517Y-101872490D01*
X77027510Y-101705483D01*
X76836433Y-101566657D01*
X76625996Y-101459433D01*
X76401368Y-101386446D01*
X76168097Y-101349500D01*
X76168092Y-101349500D01*
X75931908Y-101349500D01*
X75931903Y-101349500D01*
X75698630Y-101386447D01*
X75698627Y-101386447D01*
X75511818Y-101447146D01*
X75441977Y-101449141D01*
X75382144Y-101413061D01*
X75351316Y-101350360D01*
X75349500Y-101329215D01*
X75349500Y-99951097D01*
X75358143Y-99921660D01*
X75364667Y-99891671D01*
X75368422Y-99886653D01*
X75369185Y-99884058D01*
X75385814Y-99863419D01*
X75446437Y-99802796D01*
X75507758Y-99769313D01*
X75572432Y-99772547D01*
X75698632Y-99813553D01*
X75815270Y-99832026D01*
X75931903Y-99850500D01*
X75931908Y-99850500D01*
X76168097Y-99850500D01*
X76401368Y-99813553D01*
X76434468Y-99802798D01*
X76625992Y-99740568D01*
X76627017Y-99740046D01*
X76668779Y-99718767D01*
X76836433Y-99633343D01*
X77027510Y-99494517D01*
X77194517Y-99327510D01*
X77333343Y-99136433D01*
X77440568Y-98925992D01*
X77513553Y-98701368D01*
X77521472Y-98651368D01*
X77550500Y-98468097D01*
X77550500Y-98231902D01*
X81049500Y-98231902D01*
X81049500Y-98468097D01*
X81086446Y-98701368D01*
X81159433Y-98925996D01*
X81266657Y-99136433D01*
X81405483Y-99327510D01*
X81572490Y-99494517D01*
X81763567Y-99633343D01*
X81862991Y-99684002D01*
X81974003Y-99740566D01*
X81974005Y-99740566D01*
X81974008Y-99740568D01*
X82071093Y-99772113D01*
X82198631Y-99813553D01*
X82431903Y-99850500D01*
X82431908Y-99850500D01*
X82668097Y-99850500D01*
X82901368Y-99813553D01*
X82934468Y-99802798D01*
X83125992Y-99740568D01*
X83127017Y-99740046D01*
X83168779Y-99718767D01*
X83336433Y-99633343D01*
X83527510Y-99494517D01*
X83694517Y-99327510D01*
X83833343Y-99136433D01*
X83940568Y-98925992D01*
X84013553Y-98701368D01*
X84021472Y-98651368D01*
X84050500Y-98468097D01*
X84050500Y-98231902D01*
X84013553Y-97998631D01*
X83949856Y-97802593D01*
X83940568Y-97774008D01*
X83940566Y-97774005D01*
X83940566Y-97774003D01*
X83884002Y-97662991D01*
X83833343Y-97563567D01*
X83694517Y-97372490D01*
X83527510Y-97205483D01*
X83336433Y-97066657D01*
X83125996Y-96959433D01*
X82901368Y-96886446D01*
X82668097Y-96849500D01*
X82668092Y-96849500D01*
X82431908Y-96849500D01*
X82431903Y-96849500D01*
X82198631Y-96886446D01*
X81974003Y-96959433D01*
X81763566Y-97066657D01*
X81572487Y-97205485D01*
X81405485Y-97372487D01*
X81405485Y-97372488D01*
X81405483Y-97372490D01*
X81345862Y-97454550D01*
X81266657Y-97563566D01*
X81159433Y-97774003D01*
X81086446Y-97998631D01*
X81049500Y-98231902D01*
X77550500Y-98231902D01*
X77513553Y-97998631D01*
X77449856Y-97802593D01*
X77440568Y-97774008D01*
X77440566Y-97774005D01*
X77440566Y-97774003D01*
X77384002Y-97662991D01*
X77333343Y-97563567D01*
X77194517Y-97372490D01*
X77027510Y-97205483D01*
X76836433Y-97066657D01*
X76625996Y-96959433D01*
X76401368Y-96886446D01*
X76168097Y-96849500D01*
X76168092Y-96849500D01*
X75931908Y-96849500D01*
X75931903Y-96849500D01*
X75698628Y-96886447D01*
X75572433Y-96927450D01*
X75557221Y-96927884D01*
X75542962Y-96933203D01*
X75523006Y-96928861D01*
X75502592Y-96929445D01*
X75488505Y-96921356D01*
X75474689Y-96918351D01*
X75446435Y-96897200D01*
X75285819Y-96736584D01*
X75252334Y-96675261D01*
X75249500Y-96648903D01*
X75249500Y-95670784D01*
X75269185Y-95603745D01*
X75321989Y-95557990D01*
X75391147Y-95548046D01*
X75411812Y-95552851D01*
X75518705Y-95587583D01*
X75598631Y-95613553D01*
X75831903Y-95650500D01*
X75831908Y-95650500D01*
X76068097Y-95650500D01*
X76301368Y-95613553D01*
X76331554Y-95603745D01*
X76525992Y-95540568D01*
X76736433Y-95433343D01*
X76927510Y-95294517D01*
X77094517Y-95127510D01*
X77233343Y-94936433D01*
X77340568Y-94725992D01*
X77413553Y-94501368D01*
X77450500Y-94268097D01*
X77450500Y-94031902D01*
X80949500Y-94031902D01*
X80949500Y-94268097D01*
X80986446Y-94501368D01*
X81059433Y-94725996D01*
X81166657Y-94936433D01*
X81305483Y-95127510D01*
X81472490Y-95294517D01*
X81663567Y-95433343D01*
X81749500Y-95477128D01*
X81874003Y-95540566D01*
X81874005Y-95540566D01*
X81874008Y-95540568D01*
X81994412Y-95579689D01*
X82098631Y-95613553D01*
X82331903Y-95650500D01*
X82331908Y-95650500D01*
X82568097Y-95650500D01*
X82801368Y-95613553D01*
X82831554Y-95603745D01*
X83025992Y-95540568D01*
X83236433Y-95433343D01*
X83427510Y-95294517D01*
X83594517Y-95127510D01*
X83733343Y-94936433D01*
X83840568Y-94725992D01*
X83913553Y-94501368D01*
X83950500Y-94268097D01*
X83950500Y-94031902D01*
X83913553Y-93798631D01*
X83840566Y-93574003D01*
X83733342Y-93363566D01*
X83594517Y-93172490D01*
X83427510Y-93005483D01*
X83236433Y-92866657D01*
X83025996Y-92759433D01*
X82801368Y-92686446D01*
X82568097Y-92649500D01*
X82568092Y-92649500D01*
X82331908Y-92649500D01*
X82331903Y-92649500D01*
X82098631Y-92686446D01*
X81874003Y-92759433D01*
X81663566Y-92866657D01*
X81554550Y-92945862D01*
X81472490Y-93005483D01*
X81472488Y-93005485D01*
X81472487Y-93005485D01*
X81305485Y-93172487D01*
X81305485Y-93172488D01*
X81305483Y-93172490D01*
X81245862Y-93254550D01*
X81166657Y-93363566D01*
X81059433Y-93574003D01*
X80986446Y-93798631D01*
X80949500Y-94031902D01*
X77450500Y-94031902D01*
X77413553Y-93798631D01*
X77340566Y-93574003D01*
X77233342Y-93363566D01*
X77094517Y-93172490D01*
X76927510Y-93005483D01*
X76736433Y-92866657D01*
X76525996Y-92759433D01*
X76301368Y-92686446D01*
X76068097Y-92649500D01*
X76068092Y-92649500D01*
X75831908Y-92649500D01*
X75831903Y-92649500D01*
X75598630Y-92686447D01*
X75598627Y-92686447D01*
X75411818Y-92747146D01*
X75341977Y-92749141D01*
X75282144Y-92713061D01*
X75251316Y-92650360D01*
X75249500Y-92629215D01*
X75249500Y-91251097D01*
X75258143Y-91221660D01*
X75264667Y-91191671D01*
X75268422Y-91186653D01*
X75269185Y-91184058D01*
X75285814Y-91163419D01*
X75346437Y-91102796D01*
X75407758Y-91069313D01*
X75472432Y-91072547D01*
X75598632Y-91113553D01*
X75715270Y-91132026D01*
X75831903Y-91150500D01*
X75831908Y-91150500D01*
X76068097Y-91150500D01*
X76301368Y-91113553D01*
X76334468Y-91102798D01*
X76525992Y-91040568D01*
X76527017Y-91040046D01*
X76546621Y-91030057D01*
X76736433Y-90933343D01*
X76927510Y-90794517D01*
X77094517Y-90627510D01*
X77233343Y-90436433D01*
X77340568Y-90225992D01*
X77413553Y-90001368D01*
X77450500Y-89768097D01*
X77450500Y-89531902D01*
X77413553Y-89298631D01*
X77340566Y-89074003D01*
X77233342Y-88863566D01*
X77094517Y-88672490D01*
X76927510Y-88505483D01*
X76736433Y-88366657D01*
X76736429Y-88366655D01*
X76525996Y-88259433D01*
X76301368Y-88186446D01*
X76068097Y-88149500D01*
X76068092Y-88149500D01*
X75831908Y-88149500D01*
X75831903Y-88149500D01*
X75598631Y-88186446D01*
X75374003Y-88259433D01*
X75163566Y-88366657D01*
X75054550Y-88445862D01*
X74972490Y-88505483D01*
X74972488Y-88505485D01*
X74972487Y-88505485D01*
X74805485Y-88672487D01*
X74805485Y-88672488D01*
X74805483Y-88672490D01*
X74745862Y-88754550D01*
X74666657Y-88863566D01*
X74559433Y-89074003D01*
X74486446Y-89298631D01*
X74449500Y-89531902D01*
X74449500Y-89768097D01*
X74486447Y-90001369D01*
X74486447Y-90001372D01*
X74527450Y-90127564D01*
X74529445Y-90197405D01*
X74497200Y-90253563D01*
X74283510Y-90467252D01*
X74283497Y-90467266D01*
X74280286Y-90470478D01*
X74280284Y-90470480D01*
X74168480Y-90582284D01*
X74142369Y-90627510D01*
X74089423Y-90719215D01*
X74048499Y-90871943D01*
X74048499Y-90871945D01*
X74048499Y-91040046D01*
X74048500Y-91040059D01*
X74048500Y-96862330D01*
X74048499Y-96862348D01*
X74048499Y-97028054D01*
X74048498Y-97028054D01*
X74048499Y-97028057D01*
X74089423Y-97180785D01*
X74103683Y-97205483D01*
X74146881Y-97280305D01*
X74168479Y-97317715D01*
X74287349Y-97436585D01*
X74287355Y-97436590D01*
X74597200Y-97746435D01*
X74630685Y-97807758D01*
X74627450Y-97872433D01*
X74586447Y-97998628D01*
X74549500Y-98231902D01*
X74549500Y-98468097D01*
X74586447Y-98701369D01*
X74586447Y-98701372D01*
X74627450Y-98827564D01*
X74629445Y-98897405D01*
X74597200Y-98953563D01*
X74383510Y-99167252D01*
X74383497Y-99167266D01*
X74380286Y-99170478D01*
X74380284Y-99170480D01*
X74268480Y-99282284D01*
X74242369Y-99327510D01*
X74189423Y-99419215D01*
X74148499Y-99571943D01*
X74148499Y-99571945D01*
X74148499Y-99740046D01*
X74148500Y-99740059D01*
X74148500Y-102982858D01*
X74128815Y-103049897D01*
X74076011Y-103095652D01*
X74025898Y-103106850D01*
X71963501Y-103130110D01*
X71896244Y-103111183D01*
X71849897Y-103058898D01*
X71839174Y-102989856D01*
X71839630Y-102986720D01*
X71842581Y-102968092D01*
X71850500Y-102918092D01*
X71850500Y-102681908D01*
X71850500Y-102681902D01*
X71813553Y-102448631D01*
X71740566Y-102224003D01*
X71633342Y-102013566D01*
X71494517Y-101822490D01*
X71327510Y-101655483D01*
X71136433Y-101516657D01*
X70925996Y-101409433D01*
X70701368Y-101336446D01*
X70468097Y-101299500D01*
X70468092Y-101299500D01*
X70231908Y-101299500D01*
X70231903Y-101299500D01*
X69998631Y-101336446D01*
X69774003Y-101409433D01*
X69563566Y-101516657D01*
X69494748Y-101566657D01*
X69372490Y-101655483D01*
X69372488Y-101655485D01*
X69372487Y-101655485D01*
X69205485Y-101822487D01*
X69205485Y-101822488D01*
X69205483Y-101822490D01*
X69169158Y-101872487D01*
X69066657Y-102013566D01*
X68959433Y-102224003D01*
X68886446Y-102448631D01*
X68849500Y-102681902D01*
X68849500Y-102918097D01*
X68866118Y-103023018D01*
X68857164Y-103092311D01*
X68812167Y-103145763D01*
X68745416Y-103166403D01*
X68745043Y-103166408D01*
X65451870Y-103203549D01*
X65384613Y-103184622D01*
X65338266Y-103132337D01*
X65327543Y-103063295D01*
X65327999Y-103060159D01*
X65350500Y-102918097D01*
X65350500Y-102681902D01*
X65313553Y-102448631D01*
X65240566Y-102224003D01*
X65133342Y-102013566D01*
X64994517Y-101822490D01*
X64827510Y-101655483D01*
X64636433Y-101516657D01*
X64425996Y-101409433D01*
X64201368Y-101336446D01*
X63968097Y-101299500D01*
X63968092Y-101299500D01*
X63731908Y-101299500D01*
X63731903Y-101299500D01*
X63498631Y-101336446D01*
X63274003Y-101409433D01*
X63063566Y-101516657D01*
X62994748Y-101566657D01*
X62872490Y-101655483D01*
X62872488Y-101655485D01*
X62872487Y-101655485D01*
X62705485Y-101822487D01*
X62705485Y-101822488D01*
X62705483Y-101822490D01*
X62669158Y-101872487D01*
X62566657Y-102013566D01*
X62459433Y-102224003D01*
X62386446Y-102448631D01*
X62349500Y-102681902D01*
X62349500Y-102918097D01*
X62377708Y-103096196D01*
X62368753Y-103165490D01*
X62323757Y-103218942D01*
X62257006Y-103239581D01*
X62256633Y-103239586D01*
X61775898Y-103245007D01*
X61708641Y-103226080D01*
X61662294Y-103173795D01*
X61650500Y-103121015D01*
X61650500Y-101400096D01*
X61670185Y-101333057D01*
X61686814Y-101312420D01*
X63246437Y-99752796D01*
X63307758Y-99719313D01*
X63372433Y-99722547D01*
X63498632Y-99763553D01*
X63586110Y-99777408D01*
X63731903Y-99800500D01*
X63731908Y-99800500D01*
X63968097Y-99800500D01*
X64201368Y-99763553D01*
X64272114Y-99740566D01*
X64425992Y-99690568D01*
X64636433Y-99583343D01*
X64827510Y-99444517D01*
X64994517Y-99277510D01*
X65133343Y-99086433D01*
X65240568Y-98875992D01*
X65313553Y-98651368D01*
X65334556Y-98518759D01*
X65350500Y-98418097D01*
X65350500Y-98181902D01*
X65313553Y-97948631D01*
X65240566Y-97724003D01*
X65184002Y-97612991D01*
X65133343Y-97513567D01*
X64994517Y-97322490D01*
X64827510Y-97155483D01*
X64636433Y-97016657D01*
X64636429Y-97016655D01*
X64425996Y-96909433D01*
X64201368Y-96836446D01*
X63968097Y-96799500D01*
X63968092Y-96799500D01*
X63731908Y-96799500D01*
X63731903Y-96799500D01*
X63498631Y-96836446D01*
X63274003Y-96909433D01*
X63063566Y-97016657D01*
X62994748Y-97066657D01*
X62872490Y-97155483D01*
X62872488Y-97155485D01*
X62872487Y-97155485D01*
X62705485Y-97322487D01*
X62705485Y-97322488D01*
X62705483Y-97322490D01*
X62669158Y-97372487D01*
X62566657Y-97513566D01*
X62459433Y-97724003D01*
X62386446Y-97948631D01*
X62349500Y-98181902D01*
X62349500Y-98418097D01*
X62386447Y-98651369D01*
X62386447Y-98651372D01*
X62427450Y-98777564D01*
X62429445Y-98847405D01*
X62397200Y-98903563D01*
X60681286Y-100619478D01*
X60569481Y-100731282D01*
X60569479Y-100731285D01*
X60519361Y-100818094D01*
X60519359Y-100818096D01*
X60490425Y-100868209D01*
X60490424Y-100868210D01*
X60490423Y-100868215D01*
X60449499Y-101020943D01*
X60449499Y-101020945D01*
X60449499Y-101189046D01*
X60449500Y-101189059D01*
X60449500Y-103137358D01*
X60429815Y-103204397D01*
X60377011Y-103250152D01*
X60326898Y-103261350D01*
X57024871Y-103298591D01*
X56957614Y-103279664D01*
X56911267Y-103227379D01*
X56899474Y-103175123D01*
X56612175Y-34893713D01*
X58649500Y-34893713D01*
X58649500Y-35106286D01*
X58669761Y-35234213D01*
X58682754Y-35316243D01*
X58742460Y-35499999D01*
X58748444Y-35518414D01*
X58844951Y-35707820D01*
X58969890Y-35879786D01*
X59120213Y-36030109D01*
X59292179Y-36155048D01*
X59292181Y-36155049D01*
X59292184Y-36155051D01*
X59481588Y-36251557D01*
X59683757Y-36317246D01*
X59893713Y-36350500D01*
X59893714Y-36350500D01*
X60106286Y-36350500D01*
X60106287Y-36350500D01*
X60316243Y-36317246D01*
X60518412Y-36251557D01*
X60707816Y-36155051D01*
X60729789Y-36139086D01*
X60879786Y-36030109D01*
X60879788Y-36030106D01*
X60879792Y-36030104D01*
X61030104Y-35879792D01*
X61030106Y-35879788D01*
X61030109Y-35879786D01*
X61155048Y-35707820D01*
X61155047Y-35707820D01*
X61155051Y-35707816D01*
X61251557Y-35518412D01*
X61317246Y-35316243D01*
X61350500Y-35106287D01*
X61350500Y-34893713D01*
X61317246Y-34683757D01*
X61251557Y-34481588D01*
X61251555Y-34481585D01*
X61251555Y-34481583D01*
X61198705Y-34377861D01*
X61155051Y-34292184D01*
X61155049Y-34292181D01*
X61155048Y-34292179D01*
X61030109Y-34120213D01*
X60879786Y-33969890D01*
X60707820Y-33844951D01*
X60518414Y-33748444D01*
X60518413Y-33748443D01*
X60518412Y-33748443D01*
X60316243Y-33682754D01*
X60316241Y-33682753D01*
X60316240Y-33682753D01*
X60154957Y-33657208D01*
X60106287Y-33649500D01*
X59893713Y-33649500D01*
X59845042Y-33657208D01*
X59683760Y-33682753D01*
X59481585Y-33748444D01*
X59292179Y-33844951D01*
X59120213Y-33969890D01*
X58969890Y-34120213D01*
X58844951Y-34292179D01*
X58748444Y-34481585D01*
X58682753Y-34683760D01*
X58649500Y-34893713D01*
X56612175Y-34893713D01*
X56600520Y-32123741D01*
X56619922Y-32056622D01*
X56672533Y-32010645D01*
X56723738Y-31999224D01*
X108924093Y-31672154D01*
X108991253Y-31691419D01*
G37*
%TD.AperFunction*%
%TA.AperFunction,Conductor*%
G36*
X136343987Y-31620185D02*
G01*
X136389742Y-31672989D01*
X136400947Y-31723975D01*
X136699479Y-102276871D01*
X136680078Y-102343993D01*
X136627468Y-102389971D01*
X136576878Y-102401388D01*
X106845898Y-102736699D01*
X106778641Y-102717772D01*
X106732294Y-102665487D01*
X106720500Y-102612707D01*
X106720500Y-101377577D01*
X125275975Y-101377577D01*
X125381236Y-101421178D01*
X125381240Y-101421179D01*
X125526126Y-101449999D01*
X125526129Y-101450000D01*
X125673871Y-101450000D01*
X125673873Y-101449999D01*
X125818760Y-101421179D01*
X125818775Y-101421175D01*
X125924024Y-101377578D01*
X125924024Y-101377577D01*
X126675975Y-101377577D01*
X126781236Y-101421178D01*
X126781240Y-101421179D01*
X126926126Y-101449999D01*
X126926129Y-101450000D01*
X127073871Y-101450000D01*
X127073873Y-101449999D01*
X127218760Y-101421179D01*
X127218775Y-101421175D01*
X127324024Y-101377578D01*
X127324024Y-101377577D01*
X127000001Y-101053554D01*
X127000000Y-101053554D01*
X126675975Y-101377577D01*
X125924024Y-101377577D01*
X125600001Y-101053554D01*
X125600000Y-101053554D01*
X125275975Y-101377577D01*
X106720500Y-101377577D01*
X106720500Y-100626126D01*
X124850000Y-100626126D01*
X124850000Y-100773873D01*
X124878820Y-100918759D01*
X124878822Y-100918767D01*
X124922421Y-101024024D01*
X125246446Y-100700000D01*
X125246446Y-100699999D01*
X125226556Y-100680109D01*
X125500000Y-100680109D01*
X125500000Y-100719891D01*
X125515224Y-100756645D01*
X125543355Y-100784776D01*
X125580109Y-100800000D01*
X125619891Y-100800000D01*
X125656645Y-100784776D01*
X125684776Y-100756645D01*
X125700000Y-100719891D01*
X125700000Y-100699999D01*
X125953554Y-100699999D01*
X125953554Y-100700001D01*
X126277929Y-101024376D01*
X126322069Y-101024376D01*
X126646446Y-100700000D01*
X126626555Y-100680109D01*
X126900000Y-100680109D01*
X126900000Y-100719891D01*
X126915224Y-100756645D01*
X126943355Y-100784776D01*
X126980109Y-100800000D01*
X127019891Y-100800000D01*
X127056645Y-100784776D01*
X127084776Y-100756645D01*
X127100000Y-100719891D01*
X127100000Y-100699999D01*
X127353554Y-100699999D01*
X127353554Y-100700001D01*
X127677577Y-101024024D01*
X127677578Y-101024024D01*
X127721175Y-100918775D01*
X127721179Y-100918760D01*
X127749999Y-100773873D01*
X127750000Y-100773871D01*
X127750000Y-100626128D01*
X127749999Y-100626126D01*
X127721179Y-100481240D01*
X127721178Y-100481236D01*
X127677577Y-100375975D01*
X127353554Y-100699999D01*
X127100000Y-100699999D01*
X127100000Y-100680109D01*
X127084776Y-100643355D01*
X127056645Y-100615224D01*
X127019891Y-100600000D01*
X126980109Y-100600000D01*
X126943355Y-100615224D01*
X126915224Y-100643355D01*
X126900000Y-100680109D01*
X126626555Y-100680109D01*
X126322068Y-100375622D01*
X126277930Y-100375622D01*
X125953554Y-100699999D01*
X125700000Y-100699999D01*
X125700000Y-100680109D01*
X125684776Y-100643355D01*
X125656645Y-100615224D01*
X125619891Y-100600000D01*
X125580109Y-100600000D01*
X125543355Y-100615224D01*
X125515224Y-100643355D01*
X125500000Y-100680109D01*
X125226556Y-100680109D01*
X124922421Y-100375974D01*
X124922420Y-100375974D01*
X124878823Y-100481228D01*
X124878820Y-100481240D01*
X124850000Y-100626126D01*
X106720500Y-100626126D01*
X106720500Y-100100000D01*
X125353554Y-100100000D01*
X125600000Y-100346446D01*
X125846446Y-100100000D01*
X126753554Y-100100000D01*
X127000000Y-100346446D01*
X127246446Y-100100000D01*
X127000000Y-99853554D01*
X126753554Y-100100000D01*
X125846446Y-100100000D01*
X125600000Y-99853554D01*
X125353554Y-100100000D01*
X106720500Y-100100000D01*
X106720500Y-99426126D01*
X124850000Y-99426126D01*
X124850000Y-99573873D01*
X124878820Y-99718759D01*
X124878822Y-99718767D01*
X124922421Y-99824024D01*
X125246446Y-99500000D01*
X125246446Y-99499999D01*
X125226556Y-99480109D01*
X125500000Y-99480109D01*
X125500000Y-99519891D01*
X125515224Y-99556645D01*
X125543355Y-99584776D01*
X125580109Y-99600000D01*
X125619891Y-99600000D01*
X125656645Y-99584776D01*
X125684776Y-99556645D01*
X125700000Y-99519891D01*
X125700000Y-99499999D01*
X125953554Y-99499999D01*
X125953554Y-99500001D01*
X126277929Y-99824376D01*
X126322069Y-99824376D01*
X126646446Y-99500000D01*
X126626555Y-99480109D01*
X126900000Y-99480109D01*
X126900000Y-99519891D01*
X126915224Y-99556645D01*
X126943355Y-99584776D01*
X126980109Y-99600000D01*
X127019891Y-99600000D01*
X127056645Y-99584776D01*
X127084776Y-99556645D01*
X127100000Y-99519891D01*
X127100000Y-99499999D01*
X127353554Y-99499999D01*
X127353554Y-99500001D01*
X127677577Y-99824024D01*
X127677578Y-99824024D01*
X127721175Y-99718775D01*
X127721179Y-99718760D01*
X127749999Y-99573873D01*
X127750000Y-99573871D01*
X127750000Y-99426128D01*
X127749999Y-99426126D01*
X127721179Y-99281240D01*
X127721178Y-99281236D01*
X127677577Y-99175975D01*
X127353554Y-99499999D01*
X127100000Y-99499999D01*
X127100000Y-99480109D01*
X127084776Y-99443355D01*
X127056645Y-99415224D01*
X127019891Y-99400000D01*
X126980109Y-99400000D01*
X126943355Y-99415224D01*
X126915224Y-99443355D01*
X126900000Y-99480109D01*
X126626555Y-99480109D01*
X126322068Y-99175622D01*
X126277930Y-99175622D01*
X125953554Y-99499999D01*
X125700000Y-99499999D01*
X125700000Y-99480109D01*
X125684776Y-99443355D01*
X125656645Y-99415224D01*
X125619891Y-99400000D01*
X125580109Y-99400000D01*
X125543355Y-99415224D01*
X125515224Y-99443355D01*
X125500000Y-99480109D01*
X125226556Y-99480109D01*
X124922421Y-99175974D01*
X124922420Y-99175974D01*
X124878823Y-99281228D01*
X124878820Y-99281240D01*
X124850000Y-99426126D01*
X106720500Y-99426126D01*
X106720500Y-98900000D01*
X125353554Y-98900000D01*
X125600000Y-99146446D01*
X125846446Y-98900000D01*
X126753554Y-98900000D01*
X127000000Y-99146446D01*
X127246446Y-98900000D01*
X127000000Y-98653554D01*
X126753554Y-98900000D01*
X125846446Y-98900000D01*
X125600000Y-98653554D01*
X125353554Y-98900000D01*
X106720500Y-98900000D01*
X106720500Y-98226126D01*
X124850000Y-98226126D01*
X124850000Y-98373873D01*
X124878820Y-98518759D01*
X124878822Y-98518767D01*
X124922421Y-98624024D01*
X125246446Y-98300000D01*
X125246446Y-98299999D01*
X125226556Y-98280109D01*
X125500000Y-98280109D01*
X125500000Y-98319891D01*
X125515224Y-98356645D01*
X125543355Y-98384776D01*
X125580109Y-98400000D01*
X125619891Y-98400000D01*
X125656645Y-98384776D01*
X125684776Y-98356645D01*
X125700000Y-98319891D01*
X125700000Y-98299999D01*
X125953554Y-98299999D01*
X125953554Y-98300001D01*
X126277929Y-98624376D01*
X126322069Y-98624376D01*
X126646446Y-98300000D01*
X126626555Y-98280109D01*
X126900000Y-98280109D01*
X126900000Y-98319891D01*
X126915224Y-98356645D01*
X126943355Y-98384776D01*
X126980109Y-98400000D01*
X127019891Y-98400000D01*
X127056645Y-98384776D01*
X127084776Y-98356645D01*
X127100000Y-98319891D01*
X127100000Y-98299999D01*
X127353554Y-98299999D01*
X127353554Y-98300001D01*
X127677577Y-98624024D01*
X127677578Y-98624024D01*
X127721175Y-98518775D01*
X127721179Y-98518760D01*
X127749999Y-98373873D01*
X127750000Y-98373871D01*
X127750000Y-98226128D01*
X127749999Y-98226126D01*
X127721179Y-98081240D01*
X127721178Y-98081236D01*
X127677577Y-97975975D01*
X127353554Y-98299999D01*
X127100000Y-98299999D01*
X127100000Y-98280109D01*
X127084776Y-98243355D01*
X127056645Y-98215224D01*
X127019891Y-98200000D01*
X126980109Y-98200000D01*
X126943355Y-98215224D01*
X126915224Y-98243355D01*
X126900000Y-98280109D01*
X126626555Y-98280109D01*
X126322068Y-97975622D01*
X126277930Y-97975622D01*
X125953554Y-98299999D01*
X125700000Y-98299999D01*
X125700000Y-98280109D01*
X125684776Y-98243355D01*
X125656645Y-98215224D01*
X125619891Y-98200000D01*
X125580109Y-98200000D01*
X125543355Y-98215224D01*
X125515224Y-98243355D01*
X125500000Y-98280109D01*
X125226556Y-98280109D01*
X124922421Y-97975974D01*
X124922420Y-97975974D01*
X124878823Y-98081228D01*
X124878820Y-98081240D01*
X124850000Y-98226126D01*
X106720500Y-98226126D01*
X106720500Y-97622420D01*
X125275974Y-97622420D01*
X125275974Y-97622421D01*
X125600000Y-97946446D01*
X125600001Y-97946446D01*
X125924024Y-97622421D01*
X125924022Y-97622420D01*
X126675974Y-97622420D01*
X126675974Y-97622421D01*
X127000000Y-97946446D01*
X127000001Y-97946446D01*
X127324024Y-97622421D01*
X127218767Y-97578822D01*
X127218759Y-97578820D01*
X127073872Y-97550000D01*
X126926128Y-97550000D01*
X126781240Y-97578820D01*
X126781228Y-97578823D01*
X126675974Y-97622420D01*
X125924022Y-97622420D01*
X125818767Y-97578822D01*
X125818759Y-97578820D01*
X125673872Y-97550000D01*
X125526128Y-97550000D01*
X125381240Y-97578820D01*
X125381228Y-97578823D01*
X125275974Y-97622420D01*
X106720500Y-97622420D01*
X106720500Y-92579765D01*
X106740185Y-92512726D01*
X106741398Y-92510874D01*
X106829390Y-92379185D01*
X106829390Y-92379184D01*
X106829394Y-92379179D01*
X106889737Y-92233497D01*
X106920500Y-92078842D01*
X106920500Y-91921158D01*
X106920500Y-91921155D01*
X106920499Y-91921153D01*
X106889738Y-91766510D01*
X106889737Y-91766503D01*
X106889735Y-91766498D01*
X106829397Y-91620827D01*
X106829390Y-91620814D01*
X106741789Y-91489711D01*
X106741786Y-91489707D01*
X106630292Y-91378213D01*
X106630288Y-91378210D01*
X106499185Y-91290609D01*
X106499172Y-91290602D01*
X106353501Y-91230264D01*
X106353489Y-91230261D01*
X106198845Y-91199500D01*
X106198842Y-91199500D01*
X106041158Y-91199500D01*
X106041155Y-91199500D01*
X105886510Y-91230261D01*
X105886498Y-91230264D01*
X105740827Y-91290602D01*
X105740809Y-91290612D01*
X105628890Y-91365394D01*
X105562213Y-91386272D01*
X105494833Y-91367787D01*
X105491110Y-91365394D01*
X105379190Y-91290612D01*
X105379172Y-91290602D01*
X105233501Y-91230264D01*
X105233489Y-91230261D01*
X105078845Y-91199500D01*
X105078842Y-91199500D01*
X104921158Y-91199500D01*
X104921155Y-91199500D01*
X104766510Y-91230261D01*
X104766498Y-91230264D01*
X104620827Y-91290602D01*
X104620814Y-91290609D01*
X104489711Y-91378210D01*
X104489707Y-91378213D01*
X104378213Y-91489707D01*
X104378210Y-91489711D01*
X104290609Y-91620814D01*
X104290602Y-91620827D01*
X104230264Y-91766498D01*
X104230261Y-91766510D01*
X104199500Y-91921153D01*
X104199500Y-92078846D01*
X104230261Y-92233489D01*
X104230264Y-92233501D01*
X104290602Y-92379172D01*
X104290609Y-92379185D01*
X104378602Y-92510874D01*
X104399480Y-92577551D01*
X104399500Y-92579765D01*
X104399500Y-102641681D01*
X104379815Y-102708720D01*
X104327011Y-102754475D01*
X104276898Y-102765673D01*
X96575898Y-102852526D01*
X96508641Y-102833599D01*
X96462294Y-102781314D01*
X96452312Y-102736645D01*
X96450882Y-102736758D01*
X96450500Y-102731904D01*
X96413553Y-102498631D01*
X96378247Y-102389971D01*
X96340568Y-102274008D01*
X96340566Y-102274005D01*
X96340566Y-102274003D01*
X96233342Y-102063566D01*
X96094517Y-101872490D01*
X95927510Y-101705483D01*
X95736433Y-101566657D01*
X95525996Y-101459433D01*
X95301368Y-101386446D01*
X95068097Y-101349500D01*
X95068092Y-101349500D01*
X94831908Y-101349500D01*
X94831903Y-101349500D01*
X94598631Y-101386446D01*
X94374003Y-101459433D01*
X94163566Y-101566657D01*
X94054550Y-101645862D01*
X93972490Y-101705483D01*
X93972488Y-101705485D01*
X93972487Y-101705485D01*
X93805485Y-101872487D01*
X93805485Y-101872488D01*
X93805483Y-101872490D01*
X93745862Y-101954550D01*
X93666657Y-102063566D01*
X93559433Y-102274003D01*
X93486446Y-102498631D01*
X93449500Y-102731902D01*
X93449500Y-102765177D01*
X93429815Y-102832216D01*
X93377011Y-102877971D01*
X93326898Y-102889169D01*
X90476898Y-102921312D01*
X90409641Y-102902385D01*
X90363294Y-102850100D01*
X90351500Y-102797320D01*
X90351500Y-99740059D01*
X90351501Y-99740046D01*
X90351501Y-99571945D01*
X90351501Y-99571943D01*
X90310577Y-99419215D01*
X90257631Y-99327510D01*
X90231520Y-99282284D01*
X90119716Y-99170480D01*
X90119713Y-99170478D01*
X89902798Y-98953563D01*
X89869313Y-98892240D01*
X89872547Y-98827566D01*
X89913553Y-98701368D01*
X89942475Y-98518760D01*
X89950500Y-98468097D01*
X89950500Y-98231902D01*
X93449500Y-98231902D01*
X93449500Y-98468097D01*
X93486446Y-98701368D01*
X93559433Y-98925996D01*
X93666657Y-99136433D01*
X93805483Y-99327510D01*
X93972490Y-99494517D01*
X94163567Y-99633343D01*
X94262991Y-99684002D01*
X94374003Y-99740566D01*
X94374005Y-99740566D01*
X94374008Y-99740568D01*
X94471093Y-99772113D01*
X94598631Y-99813553D01*
X94831903Y-99850500D01*
X94831908Y-99850500D01*
X95068097Y-99850500D01*
X95301368Y-99813553D01*
X95334468Y-99802798D01*
X95525992Y-99740568D01*
X95527017Y-99740046D01*
X95568779Y-99718767D01*
X95736433Y-99633343D01*
X95927510Y-99494517D01*
X96094517Y-99327510D01*
X96233343Y-99136433D01*
X96340568Y-98925992D01*
X96413553Y-98701368D01*
X96421472Y-98651368D01*
X96450500Y-98468097D01*
X96450500Y-98231902D01*
X96413553Y-97998631D01*
X96349856Y-97802593D01*
X96340568Y-97774008D01*
X96340566Y-97774005D01*
X96340566Y-97774003D01*
X96284002Y-97662991D01*
X96233343Y-97563567D01*
X96094517Y-97372490D01*
X95927510Y-97205483D01*
X95736433Y-97066657D01*
X95525996Y-96959433D01*
X95301368Y-96886446D01*
X95068097Y-96849500D01*
X95068092Y-96849500D01*
X94831908Y-96849500D01*
X94831903Y-96849500D01*
X94598631Y-96886446D01*
X94374003Y-96959433D01*
X94163566Y-97066657D01*
X93972487Y-97205485D01*
X93805485Y-97372487D01*
X93805485Y-97372488D01*
X93805483Y-97372490D01*
X93745862Y-97454550D01*
X93666657Y-97563566D01*
X93559433Y-97774003D01*
X93486446Y-97998631D01*
X93449500Y-98231902D01*
X89950500Y-98231902D01*
X89913553Y-97998635D01*
X89913553Y-97998632D01*
X89872547Y-97872433D01*
X89870553Y-97802593D01*
X89902796Y-97746437D01*
X91480520Y-96168716D01*
X91559577Y-96031784D01*
X91600501Y-95879057D01*
X91600501Y-95720942D01*
X91600501Y-95713347D01*
X91600500Y-95713329D01*
X91600500Y-88668995D01*
X111399499Y-88668995D01*
X111426418Y-88804322D01*
X111426421Y-88804332D01*
X111479221Y-88931804D01*
X111479228Y-88931817D01*
X111555885Y-89046541D01*
X111555888Y-89046545D01*
X111653454Y-89144111D01*
X111653458Y-89144114D01*
X111768182Y-89220771D01*
X111768195Y-89220778D01*
X111895667Y-89273578D01*
X111895672Y-89273580D01*
X111895676Y-89273580D01*
X111895677Y-89273581D01*
X112031004Y-89300500D01*
X112031007Y-89300500D01*
X112168995Y-89300500D01*
X112260041Y-89282389D01*
X112304328Y-89273580D01*
X112431811Y-89220775D01*
X112546542Y-89144114D01*
X112644114Y-89046542D01*
X112720775Y-88931811D01*
X112773580Y-88804328D01*
X112782389Y-88760041D01*
X112800500Y-88668995D01*
X114399499Y-88668995D01*
X114426418Y-88804322D01*
X114426421Y-88804332D01*
X114479221Y-88931804D01*
X114479228Y-88931817D01*
X114555885Y-89046541D01*
X114555888Y-89046545D01*
X114653454Y-89144111D01*
X114653458Y-89144114D01*
X114768182Y-89220771D01*
X114768195Y-89220778D01*
X114895667Y-89273578D01*
X114895672Y-89273580D01*
X114895676Y-89273580D01*
X114895677Y-89273581D01*
X115031004Y-89300500D01*
X115031007Y-89300500D01*
X115168995Y-89300500D01*
X115260041Y-89282389D01*
X115304328Y-89273580D01*
X115431811Y-89220775D01*
X115546542Y-89144114D01*
X115644114Y-89046542D01*
X115720775Y-88931811D01*
X115773580Y-88804328D01*
X115782389Y-88760041D01*
X115800500Y-88668995D01*
X115800500Y-88531004D01*
X115773581Y-88395677D01*
X115773580Y-88395676D01*
X115773580Y-88395672D01*
X115736609Y-88306415D01*
X115720778Y-88268195D01*
X115720771Y-88268182D01*
X115644114Y-88153458D01*
X115644111Y-88153454D01*
X115546545Y-88055888D01*
X115546541Y-88055885D01*
X115431817Y-87979228D01*
X115431804Y-87979221D01*
X115304332Y-87926421D01*
X115304322Y-87926418D01*
X115168995Y-87899500D01*
X115168993Y-87899500D01*
X115031007Y-87899500D01*
X115031005Y-87899500D01*
X114895677Y-87926418D01*
X114895667Y-87926421D01*
X114768195Y-87979221D01*
X114768182Y-87979228D01*
X114653458Y-88055885D01*
X114653454Y-88055888D01*
X114555888Y-88153454D01*
X114555885Y-88153458D01*
X114479228Y-88268182D01*
X114479221Y-88268195D01*
X114426421Y-88395667D01*
X114426418Y-88395677D01*
X114399500Y-88531004D01*
X114399500Y-88531007D01*
X114399500Y-88668993D01*
X114399500Y-88668995D01*
X114399499Y-88668995D01*
X112800500Y-88668995D01*
X112800500Y-88531004D01*
X112773581Y-88395677D01*
X112773580Y-88395676D01*
X112773580Y-88395672D01*
X112736609Y-88306415D01*
X112720778Y-88268195D01*
X112720771Y-88268182D01*
X112644114Y-88153458D01*
X112644111Y-88153454D01*
X112546545Y-88055888D01*
X112546541Y-88055885D01*
X112431817Y-87979228D01*
X112431804Y-87979221D01*
X112304332Y-87926421D01*
X112304322Y-87926418D01*
X112168995Y-87899500D01*
X112168993Y-87899500D01*
X112031007Y-87899500D01*
X112031005Y-87899500D01*
X111895677Y-87926418D01*
X111895667Y-87926421D01*
X111768195Y-87979221D01*
X111768182Y-87979228D01*
X111653458Y-88055885D01*
X111653454Y-88055888D01*
X111555888Y-88153454D01*
X111555885Y-88153458D01*
X111479228Y-88268182D01*
X111479221Y-88268195D01*
X111426421Y-88395667D01*
X111426418Y-88395677D01*
X111399500Y-88531004D01*
X111399500Y-88531007D01*
X111399500Y-88668993D01*
X111399500Y-88668995D01*
X111399499Y-88668995D01*
X91600500Y-88668995D01*
X91600500Y-72300097D01*
X91620185Y-72233058D01*
X91636819Y-72212416D01*
X102432416Y-61416819D01*
X102493739Y-61383334D01*
X102520097Y-61380500D01*
X108990398Y-61380500D01*
X109057437Y-61400185D01*
X109100883Y-61448205D01*
X109107715Y-61461614D01*
X109228028Y-61627213D01*
X109372786Y-61771971D01*
X109538388Y-61892286D01*
X109538390Y-61892287D01*
X109624294Y-61936057D01*
X109675090Y-61984031D01*
X109691886Y-62051852D01*
X109669349Y-62117987D01*
X109626455Y-62155899D01*
X109560494Y-62191157D01*
X109560489Y-62191160D01*
X109491086Y-62237532D01*
X109491085Y-62237533D01*
X110090590Y-62837037D01*
X110027007Y-62854075D01*
X109912993Y-62919901D01*
X109819901Y-63012993D01*
X109754075Y-63127007D01*
X109737037Y-63190589D01*
X109137533Y-62591085D01*
X109137532Y-62591086D01*
X109091161Y-62660488D01*
X109044490Y-62747801D01*
X108984185Y-62893387D01*
X108955444Y-62988135D01*
X108924701Y-63142697D01*
X108924701Y-63142700D01*
X108915000Y-63241210D01*
X108915000Y-63398789D01*
X108924701Y-63497299D01*
X108924701Y-63497302D01*
X108955444Y-63651864D01*
X108984185Y-63746612D01*
X109044490Y-63892198D01*
X109091158Y-63979506D01*
X109137533Y-64048912D01*
X109137534Y-64048913D01*
X109737037Y-63449409D01*
X109754075Y-63512993D01*
X109819901Y-63627007D01*
X109912993Y-63720099D01*
X110027007Y-63785925D01*
X110090590Y-63802962D01*
X109491085Y-64402465D01*
X109560493Y-64448841D01*
X109626454Y-64484099D01*
X109676298Y-64533062D01*
X109691758Y-64601200D01*
X109667926Y-64666879D01*
X109624295Y-64703942D01*
X109538386Y-64747715D01*
X109372786Y-64868028D01*
X109228028Y-65012786D01*
X109107715Y-65178386D01*
X109014781Y-65360776D01*
X108951522Y-65555465D01*
X108919500Y-65757648D01*
X108919500Y-65962351D01*
X108951522Y-66164534D01*
X109014781Y-66359223D01*
X109107715Y-66541613D01*
X109228028Y-66707213D01*
X109372786Y-66851971D01*
X109527749Y-66964556D01*
X109538390Y-66972287D01*
X109629840Y-67018883D01*
X109631080Y-67019515D01*
X109681876Y-67067490D01*
X109698671Y-67135311D01*
X109676134Y-67201446D01*
X109631080Y-67240485D01*
X109538386Y-67287715D01*
X109372786Y-67408028D01*
X109228028Y-67552786D01*
X109107715Y-67718386D01*
X109014781Y-67900776D01*
X108951522Y-68095465D01*
X108919500Y-68297648D01*
X108919500Y-68502351D01*
X108951522Y-68704534D01*
X109014781Y-68899223D01*
X109107715Y-69081613D01*
X109228028Y-69247213D01*
X109372786Y-69391971D01*
X109527749Y-69504556D01*
X109538390Y-69512287D01*
X109629840Y-69558883D01*
X109631080Y-69559515D01*
X109681876Y-69607490D01*
X109698671Y-69675311D01*
X109676134Y-69741446D01*
X109631080Y-69780485D01*
X109538386Y-69827715D01*
X109372786Y-69948028D01*
X109228028Y-70092786D01*
X109107715Y-70258385D01*
X109100883Y-70271795D01*
X109052909Y-70322591D01*
X108990398Y-70339500D01*
X97519766Y-70339500D01*
X97452727Y-70319815D01*
X97450875Y-70318602D01*
X97319185Y-70230609D01*
X97319172Y-70230602D01*
X97173501Y-70170264D01*
X97173489Y-70170261D01*
X97018845Y-70139500D01*
X97018842Y-70139500D01*
X96861158Y-70139500D01*
X96861155Y-70139500D01*
X96706510Y-70170261D01*
X96706498Y-70170264D01*
X96560827Y-70230602D01*
X96560814Y-70230609D01*
X96429711Y-70318210D01*
X96429707Y-70318213D01*
X96318213Y-70429707D01*
X96318210Y-70429711D01*
X96230609Y-70560814D01*
X96230602Y-70560827D01*
X96170264Y-70706498D01*
X96170261Y-70706510D01*
X96139500Y-70861153D01*
X96139500Y-71018846D01*
X96170261Y-71173489D01*
X96170264Y-71173501D01*
X96230602Y-71319172D01*
X96230609Y-71319185D01*
X96318210Y-71450288D01*
X96318213Y-71450292D01*
X96429707Y-71561786D01*
X96429711Y-71561789D01*
X96560814Y-71649390D01*
X96560827Y-71649397D01*
X96706498Y-71709735D01*
X96706503Y-71709737D01*
X96861153Y-71740499D01*
X96861156Y-71740500D01*
X96861158Y-71740500D01*
X97018844Y-71740500D01*
X97018845Y-71740499D01*
X97173497Y-71709737D01*
X97319179Y-71649394D01*
X97346281Y-71631285D01*
X97450875Y-71561398D01*
X97517553Y-71540520D01*
X97519766Y-71540500D01*
X108990398Y-71540500D01*
X109057437Y-71560185D01*
X109100883Y-71608205D01*
X109107715Y-71621614D01*
X109228028Y-71787213D01*
X109372786Y-71931971D01*
X109527749Y-72044556D01*
X109538390Y-72052287D01*
X109610559Y-72089059D01*
X109631080Y-72099515D01*
X109681876Y-72147490D01*
X109698671Y-72215311D01*
X109676134Y-72281446D01*
X109631080Y-72320485D01*
X109538386Y-72367715D01*
X109372786Y-72488028D01*
X109228028Y-72632786D01*
X109107715Y-72798385D01*
X109100883Y-72811795D01*
X109052909Y-72862591D01*
X108990398Y-72879500D01*
X99479766Y-72879500D01*
X99412727Y-72859815D01*
X99410875Y-72858602D01*
X99279185Y-72770609D01*
X99279172Y-72770602D01*
X99133501Y-72710264D01*
X99133489Y-72710261D01*
X98978845Y-72679500D01*
X98978842Y-72679500D01*
X98821158Y-72679500D01*
X98821155Y-72679500D01*
X98666510Y-72710261D01*
X98666498Y-72710264D01*
X98520827Y-72770602D01*
X98520814Y-72770609D01*
X98389711Y-72858210D01*
X98389707Y-72858213D01*
X98278213Y-72969707D01*
X98278210Y-72969711D01*
X98190609Y-73100814D01*
X98190602Y-73100827D01*
X98130264Y-73246498D01*
X98130261Y-73246510D01*
X98099500Y-73401153D01*
X98099500Y-73558846D01*
X98130261Y-73713489D01*
X98130264Y-73713501D01*
X98190602Y-73859172D01*
X98190609Y-73859185D01*
X98278210Y-73990288D01*
X98278213Y-73990292D01*
X98389707Y-74101786D01*
X98389711Y-74101789D01*
X98520814Y-74189390D01*
X98520827Y-74189397D01*
X98666498Y-74249735D01*
X98666503Y-74249737D01*
X98821153Y-74280499D01*
X98821156Y-74280500D01*
X98821158Y-74280500D01*
X98978844Y-74280500D01*
X98978845Y-74280499D01*
X99133497Y-74249737D01*
X99279179Y-74189394D01*
X99340823Y-74148205D01*
X99410875Y-74101398D01*
X99477553Y-74080520D01*
X99479766Y-74080500D01*
X108990398Y-74080500D01*
X109057437Y-74100185D01*
X109100883Y-74148205D01*
X109107715Y-74161614D01*
X109228028Y-74327213D01*
X109372786Y-74471971D01*
X109538388Y-74592286D01*
X109538390Y-74592287D01*
X109624294Y-74636057D01*
X109675090Y-74684031D01*
X109691886Y-74751852D01*
X109669349Y-74817987D01*
X109626455Y-74855899D01*
X109560494Y-74891157D01*
X109560489Y-74891160D01*
X109491086Y-74937532D01*
X109491085Y-74937533D01*
X110090590Y-75537037D01*
X110027007Y-75554075D01*
X109912993Y-75619901D01*
X109819901Y-75712993D01*
X109754075Y-75827007D01*
X109737037Y-75890589D01*
X109137533Y-75291085D01*
X109137532Y-75291086D01*
X109091161Y-75360488D01*
X109044490Y-75447801D01*
X108984185Y-75593387D01*
X108955444Y-75688135D01*
X108924701Y-75842697D01*
X108924701Y-75842700D01*
X108915000Y-75941210D01*
X108915000Y-76098789D01*
X108924701Y-76197299D01*
X108924701Y-76197302D01*
X108955444Y-76351864D01*
X108984185Y-76446612D01*
X109044490Y-76592198D01*
X109091158Y-76679506D01*
X109137533Y-76748912D01*
X109137534Y-76748913D01*
X109737037Y-76149409D01*
X109754075Y-76212993D01*
X109819901Y-76327007D01*
X109912993Y-76420099D01*
X110027007Y-76485925D01*
X110090590Y-76502962D01*
X109491085Y-77102465D01*
X109560493Y-77148841D01*
X109626454Y-77184099D01*
X109676298Y-77233062D01*
X109691758Y-77301200D01*
X109667926Y-77366879D01*
X109624295Y-77403942D01*
X109538386Y-77447715D01*
X109372786Y-77568028D01*
X109228028Y-77712786D01*
X109107715Y-77878386D01*
X109014781Y-78060776D01*
X108951522Y-78255465D01*
X108919500Y-78457648D01*
X108919500Y-78662351D01*
X108951522Y-78864534D01*
X109014781Y-79059223D01*
X109107715Y-79241613D01*
X109228028Y-79407213D01*
X109372786Y-79551971D01*
X109527749Y-79664556D01*
X109538390Y-79672287D01*
X109629840Y-79718883D01*
X109631080Y-79719515D01*
X109681876Y-79767490D01*
X109698671Y-79835311D01*
X109676134Y-79901446D01*
X109631080Y-79940485D01*
X109538386Y-79987715D01*
X109372786Y-80108028D01*
X109228028Y-80252786D01*
X109107715Y-80418386D01*
X109014781Y-80600776D01*
X108951522Y-80795465D01*
X108919500Y-80997648D01*
X108919500Y-81202351D01*
X108951522Y-81404534D01*
X109014781Y-81599223D01*
X109107715Y-81781613D01*
X109228028Y-81947213D01*
X109372786Y-82091971D01*
X109527749Y-82204556D01*
X109538390Y-82212287D01*
X109654607Y-82271503D01*
X109720776Y-82305218D01*
X109720778Y-82305218D01*
X109720781Y-82305220D01*
X109825137Y-82339127D01*
X109915465Y-82368477D01*
X110016557Y-82384488D01*
X110117648Y-82400500D01*
X110117649Y-82400500D01*
X110322351Y-82400500D01*
X110322352Y-82400500D01*
X110524534Y-82368477D01*
X110719219Y-82305220D01*
X110901610Y-82212287D01*
X110994590Y-82144732D01*
X111067213Y-82091971D01*
X111067215Y-82091968D01*
X111067219Y-82091966D01*
X111211966Y-81947219D01*
X111211968Y-81947215D01*
X111211971Y-81947213D01*
X111264732Y-81874590D01*
X111332287Y-81781610D01*
X111425220Y-81599219D01*
X111488477Y-81404534D01*
X111520500Y-81202352D01*
X111520500Y-80997648D01*
X111488477Y-80795466D01*
X111425220Y-80600781D01*
X111425218Y-80600778D01*
X111425218Y-80600776D01*
X111388239Y-80528202D01*
X111332287Y-80418390D01*
X111324556Y-80407749D01*
X111211971Y-80252786D01*
X111067213Y-80108028D01*
X110901614Y-79987715D01*
X110895006Y-79984348D01*
X110808917Y-79940483D01*
X110758123Y-79892511D01*
X110741328Y-79824690D01*
X110763865Y-79758555D01*
X110808917Y-79719516D01*
X110901610Y-79672287D01*
X110922770Y-79656913D01*
X111067213Y-79551971D01*
X111067215Y-79551968D01*
X111067219Y-79551966D01*
X111211966Y-79407219D01*
X111211968Y-79407215D01*
X111211971Y-79407213D01*
X111264732Y-79334590D01*
X111332287Y-79241610D01*
X111425220Y-79059219D01*
X111488477Y-78864534D01*
X111520500Y-78662352D01*
X111520500Y-78457648D01*
X111497098Y-78309895D01*
X112010000Y-78309895D01*
X116662057Y-81922663D01*
X116702931Y-81979327D01*
X116710000Y-82020597D01*
X116710000Y-82970000D01*
X121510000Y-82970000D01*
X121510000Y-82020597D01*
X121529685Y-81953558D01*
X121557941Y-81922664D01*
X126210000Y-78309895D01*
X126210000Y-73970000D01*
X112010000Y-73970000D01*
X112010000Y-78309895D01*
X111497098Y-78309895D01*
X111488477Y-78255466D01*
X111425220Y-78060781D01*
X111425218Y-78060778D01*
X111425218Y-78060776D01*
X111391503Y-77994607D01*
X111332287Y-77878390D01*
X111324556Y-77867749D01*
X111211971Y-77712786D01*
X111067217Y-77568032D01*
X110990415Y-77512232D01*
X110947750Y-77456902D01*
X110941771Y-77387288D01*
X110974377Y-77325494D01*
X111032640Y-77291765D01*
X111053022Y-77286563D01*
X111053035Y-77286559D01*
X111109582Y-77263135D01*
X110349409Y-76502962D01*
X110412993Y-76485925D01*
X110527007Y-76420099D01*
X110620099Y-76327007D01*
X110685925Y-76212993D01*
X110702962Y-76149409D01*
X111463135Y-76909582D01*
X111463137Y-76909582D01*
X111486552Y-76853053D01*
X111504544Y-76802053D01*
X111524999Y-76659780D01*
X111525000Y-76659779D01*
X111525000Y-75380214D01*
X111522106Y-75326237D01*
X111522106Y-75326235D01*
X111486558Y-75186960D01*
X111463136Y-75130415D01*
X111463135Y-75130415D01*
X110702962Y-75890589D01*
X110685925Y-75827007D01*
X110620099Y-75712993D01*
X110527007Y-75619901D01*
X110412993Y-75554075D01*
X110349410Y-75537037D01*
X111109583Y-74776863D01*
X111109583Y-74776862D01*
X111053052Y-74753447D01*
X111053013Y-74753432D01*
X111024375Y-74743329D01*
X110967704Y-74702463D01*
X110942122Y-74637444D01*
X110955754Y-74568917D01*
X110992745Y-74526074D01*
X111067215Y-74471969D01*
X111067215Y-74471968D01*
X111067219Y-74471966D01*
X111211966Y-74327219D01*
X111211968Y-74327215D01*
X111211971Y-74327213D01*
X111268259Y-74249738D01*
X111332287Y-74161610D01*
X111425220Y-73979219D01*
X111488477Y-73784534D01*
X111520500Y-73582352D01*
X111520500Y-73377648D01*
X111488477Y-73175465D01*
X111425218Y-72980776D01*
X111391503Y-72914607D01*
X111332287Y-72798390D01*
X111312098Y-72770602D01*
X111211971Y-72632786D01*
X111067213Y-72488028D01*
X110901614Y-72367715D01*
X110895006Y-72364348D01*
X110808917Y-72320483D01*
X110758123Y-72272511D01*
X110741328Y-72204690D01*
X110763865Y-72138555D01*
X110808917Y-72099516D01*
X110901610Y-72052287D01*
X110922770Y-72036913D01*
X111067213Y-71931971D01*
X111067215Y-71931968D01*
X111067219Y-71931966D01*
X111211966Y-71787219D01*
X111211968Y-71787215D01*
X111211971Y-71787213D01*
X111268259Y-71709738D01*
X111332287Y-71621610D01*
X111425220Y-71439219D01*
X111488477Y-71244534D01*
X111520500Y-71042352D01*
X111520500Y-70837648D01*
X111508584Y-70762416D01*
X111488477Y-70635465D01*
X111425218Y-70440776D01*
X111386705Y-70365191D01*
X111332287Y-70258390D01*
X111276267Y-70181284D01*
X111211971Y-70092786D01*
X111067213Y-69948028D01*
X110901614Y-69827715D01*
X110895006Y-69824348D01*
X110808917Y-69780483D01*
X110758123Y-69732511D01*
X110741328Y-69664690D01*
X110763865Y-69598555D01*
X110808917Y-69559516D01*
X110901610Y-69512287D01*
X110922770Y-69496913D01*
X111067213Y-69391971D01*
X111067215Y-69391968D01*
X111067219Y-69391966D01*
X111211966Y-69247219D01*
X111211968Y-69247215D01*
X111211971Y-69247213D01*
X111264732Y-69174590D01*
X111332287Y-69081610D01*
X111425220Y-68899219D01*
X111488477Y-68704534D01*
X111520500Y-68502352D01*
X111520500Y-68297648D01*
X111488477Y-68095466D01*
X111425220Y-67900781D01*
X111425218Y-67900778D01*
X111425218Y-67900776D01*
X111391503Y-67834607D01*
X111332287Y-67718390D01*
X111324556Y-67707749D01*
X111211971Y-67552786D01*
X111067213Y-67408028D01*
X110901614Y-67287715D01*
X110895006Y-67284348D01*
X110808917Y-67240483D01*
X110758123Y-67192511D01*
X110741328Y-67124690D01*
X110763865Y-67058555D01*
X110808917Y-67019516D01*
X110901610Y-66972287D01*
X110922770Y-66956913D01*
X111067213Y-66851971D01*
X111067215Y-66851968D01*
X111067219Y-66851966D01*
X111211966Y-66707219D01*
X111211968Y-66707215D01*
X111211971Y-66707213D01*
X111264732Y-66634590D01*
X111332287Y-66541610D01*
X111425220Y-66359219D01*
X111488477Y-66164534D01*
X111520500Y-65962352D01*
X111520500Y-65757648D01*
X111488477Y-65555466D01*
X111425220Y-65360781D01*
X111425218Y-65360778D01*
X111425218Y-65360776D01*
X111391503Y-65294607D01*
X111332287Y-65178390D01*
X111324556Y-65167749D01*
X111211971Y-65012786D01*
X111067217Y-64868032D01*
X110990415Y-64812232D01*
X110947750Y-64756902D01*
X110941771Y-64687288D01*
X110974377Y-64625494D01*
X111032640Y-64591765D01*
X111053022Y-64586563D01*
X111053035Y-64586559D01*
X111109582Y-64563135D01*
X110349409Y-63802962D01*
X110412993Y-63785925D01*
X110527007Y-63720099D01*
X110620099Y-63627007D01*
X110685925Y-63512993D01*
X110702962Y-63449409D01*
X111463135Y-64209582D01*
X111463137Y-64209582D01*
X111486552Y-64153053D01*
X111504544Y-64102053D01*
X111524999Y-63959780D01*
X111525000Y-63959779D01*
X111525000Y-62680224D01*
X111524999Y-62680204D01*
X111522106Y-62626237D01*
X111522106Y-62626235D01*
X111486558Y-62486960D01*
X111463136Y-62430415D01*
X111463135Y-62430415D01*
X110702962Y-63190589D01*
X110685925Y-63127007D01*
X110620099Y-63012993D01*
X110527007Y-62919901D01*
X110412993Y-62854075D01*
X110349410Y-62837037D01*
X111109583Y-62076863D01*
X111109583Y-62076862D01*
X111053052Y-62053447D01*
X111053013Y-62053432D01*
X111024375Y-62043329D01*
X110967704Y-62002463D01*
X110942122Y-61937444D01*
X110955754Y-61868917D01*
X110992745Y-61826074D01*
X111067215Y-61771969D01*
X111067215Y-61771968D01*
X111067219Y-61771966D01*
X111211966Y-61627219D01*
X111211968Y-61627215D01*
X111211971Y-61627213D01*
X111264732Y-61554590D01*
X111332287Y-61461610D01*
X111425220Y-61279219D01*
X111488477Y-61084534D01*
X111520500Y-60882352D01*
X111520500Y-60677648D01*
X111488477Y-60475466D01*
X111425220Y-60280781D01*
X111425218Y-60280778D01*
X111425218Y-60280776D01*
X111391503Y-60214607D01*
X111332287Y-60098390D01*
X111324556Y-60087749D01*
X111211971Y-59932786D01*
X111067213Y-59788028D01*
X110901614Y-59667715D01*
X110895006Y-59664348D01*
X110808917Y-59620483D01*
X110758123Y-59572511D01*
X110741328Y-59504690D01*
X110763865Y-59438555D01*
X110808917Y-59399516D01*
X110901610Y-59352287D01*
X110922770Y-59336913D01*
X111067213Y-59231971D01*
X111067215Y-59231968D01*
X111067219Y-59231966D01*
X111211966Y-59087219D01*
X111211968Y-59087215D01*
X111211971Y-59087213D01*
X111264732Y-59014590D01*
X111332287Y-58921610D01*
X111425220Y-58739219D01*
X111488477Y-58544534D01*
X111520500Y-58342352D01*
X111520500Y-58137648D01*
X111488477Y-57935466D01*
X111425220Y-57740781D01*
X111425218Y-57740778D01*
X111425218Y-57740776D01*
X111373892Y-57640045D01*
X111332287Y-57558390D01*
X111319557Y-57540868D01*
X111211971Y-57392786D01*
X111067213Y-57248028D01*
X110901614Y-57127715D01*
X110895006Y-57124348D01*
X110808917Y-57080483D01*
X110758123Y-57032511D01*
X110741328Y-56964690D01*
X110763865Y-56898555D01*
X110808917Y-56859516D01*
X110901610Y-56812287D01*
X110922770Y-56796913D01*
X111067213Y-56691971D01*
X111067215Y-56691968D01*
X111067219Y-56691966D01*
X111211966Y-56547219D01*
X111211968Y-56547215D01*
X111211971Y-56547213D01*
X111318701Y-56400309D01*
X111332287Y-56381610D01*
X111425220Y-56199219D01*
X111488477Y-56004534D01*
X111520500Y-55802352D01*
X111520500Y-55597648D01*
X111493989Y-55430264D01*
X111488477Y-55395465D01*
X111431296Y-55219481D01*
X111425220Y-55200781D01*
X111425218Y-55200778D01*
X111425218Y-55200776D01*
X111391503Y-55134607D01*
X111332287Y-55018390D01*
X111324556Y-55007749D01*
X111211971Y-54852786D01*
X111067213Y-54708028D01*
X110901614Y-54587715D01*
X110895006Y-54584348D01*
X110808917Y-54540483D01*
X110758123Y-54492511D01*
X110741328Y-54424690D01*
X110763865Y-54358555D01*
X110808917Y-54319516D01*
X110901610Y-54272287D01*
X110922770Y-54256913D01*
X111067213Y-54151971D01*
X111067215Y-54151968D01*
X111067219Y-54151966D01*
X111211966Y-54007219D01*
X111211968Y-54007215D01*
X111211971Y-54007213D01*
X111264732Y-53934590D01*
X111332287Y-53841610D01*
X111425220Y-53659219D01*
X111488477Y-53464534D01*
X111520500Y-53262352D01*
X111520500Y-53057648D01*
X111488477Y-52855466D01*
X111425220Y-52660781D01*
X111425218Y-52660778D01*
X111425218Y-52660776D01*
X111391503Y-52594607D01*
X111332287Y-52478390D01*
X111324556Y-52467749D01*
X111211971Y-52312786D01*
X111067217Y-52168032D01*
X110990415Y-52112232D01*
X110947750Y-52056902D01*
X110941771Y-51987288D01*
X110974377Y-51925494D01*
X111032640Y-51891765D01*
X111053022Y-51886563D01*
X111053035Y-51886559D01*
X111109582Y-51863135D01*
X110349409Y-51102962D01*
X110412993Y-51085925D01*
X110527007Y-51020099D01*
X110620099Y-50927007D01*
X110685925Y-50812993D01*
X110702962Y-50749409D01*
X111463135Y-51509582D01*
X111463137Y-51509582D01*
X111486552Y-51453053D01*
X111504544Y-51402053D01*
X111524999Y-51259780D01*
X111525000Y-51259779D01*
X111525000Y-49980224D01*
X111524999Y-49980204D01*
X111522106Y-49926237D01*
X111522106Y-49926235D01*
X111486558Y-49786960D01*
X111463136Y-49730415D01*
X111463135Y-49730415D01*
X110702962Y-50490589D01*
X110685925Y-50427007D01*
X110620099Y-50312993D01*
X110527007Y-50219901D01*
X110412993Y-50154075D01*
X110349410Y-50137037D01*
X111109583Y-49376863D01*
X111109583Y-49376862D01*
X111053052Y-49353447D01*
X111053013Y-49353432D01*
X111024375Y-49343329D01*
X110967704Y-49302463D01*
X110942122Y-49237444D01*
X110955754Y-49168917D01*
X110992745Y-49126074D01*
X111067215Y-49071969D01*
X111067215Y-49071968D01*
X111067219Y-49071966D01*
X111211966Y-48927219D01*
X111211968Y-48927215D01*
X111211971Y-48927213D01*
X111303604Y-48801089D01*
X111332287Y-48761610D01*
X111425220Y-48579219D01*
X111488477Y-48384534D01*
X111520500Y-48182352D01*
X111520500Y-47977648D01*
X111488477Y-47775466D01*
X111485566Y-47766508D01*
X111438230Y-47620821D01*
X111425220Y-47580781D01*
X111425218Y-47580778D01*
X111425218Y-47580776D01*
X111378815Y-47489707D01*
X111332287Y-47398390D01*
X111317626Y-47378211D01*
X111211971Y-47232786D01*
X111067213Y-47088028D01*
X110901614Y-46967715D01*
X110895006Y-46964348D01*
X110808917Y-46920483D01*
X110758123Y-46872511D01*
X110741328Y-46804690D01*
X110763865Y-46738555D01*
X110808917Y-46699516D01*
X110901610Y-46652287D01*
X110922770Y-46636913D01*
X111067213Y-46531971D01*
X111067215Y-46531968D01*
X111067219Y-46531966D01*
X111211966Y-46387219D01*
X111211968Y-46387215D01*
X111211971Y-46387213D01*
X111264732Y-46314590D01*
X111332287Y-46221610D01*
X111425220Y-46039219D01*
X111488477Y-45844534D01*
X111520500Y-45642352D01*
X111520500Y-45437648D01*
X111488477Y-45235466D01*
X111425220Y-45040781D01*
X111425218Y-45040778D01*
X111425218Y-45040776D01*
X111381261Y-44954508D01*
X111344211Y-44881793D01*
X111331316Y-44813126D01*
X111357592Y-44748386D01*
X111414698Y-44708128D01*
X111454697Y-44701500D01*
X126765303Y-44701500D01*
X126832342Y-44721185D01*
X126878097Y-44773989D01*
X126888041Y-44843147D01*
X126875788Y-44881795D01*
X126794781Y-45040776D01*
X126731522Y-45235465D01*
X126699500Y-45437648D01*
X126699500Y-45642351D01*
X126731522Y-45844534D01*
X126794781Y-46039223D01*
X126887715Y-46221613D01*
X127008028Y-46387213D01*
X127152786Y-46531971D01*
X127307749Y-46644556D01*
X127318390Y-46652287D01*
X127409840Y-46698883D01*
X127411080Y-46699515D01*
X127461876Y-46747490D01*
X127478671Y-46815311D01*
X127456134Y-46881446D01*
X127411080Y-46920485D01*
X127318386Y-46967715D01*
X127152786Y-47088028D01*
X127008028Y-47232786D01*
X126887715Y-47398386D01*
X126794781Y-47580776D01*
X126731522Y-47775465D01*
X126699500Y-47977648D01*
X126699500Y-48182351D01*
X126731522Y-48384534D01*
X126794781Y-48579223D01*
X126887715Y-48761613D01*
X127008028Y-48927213D01*
X127152782Y-49071967D01*
X127152787Y-49071971D01*
X127229583Y-49127767D01*
X127272249Y-49183097D01*
X127278228Y-49252710D01*
X127245622Y-49314505D01*
X127187365Y-49348233D01*
X127166967Y-49353439D01*
X127166956Y-49353442D01*
X127110415Y-49376862D01*
X127870590Y-50137037D01*
X127807007Y-50154075D01*
X127692993Y-50219901D01*
X127599901Y-50312993D01*
X127534075Y-50427007D01*
X127517037Y-50490590D01*
X126756862Y-49730415D01*
X126733449Y-49786940D01*
X126715455Y-49837946D01*
X126695000Y-49980219D01*
X126695000Y-51259785D01*
X126697893Y-51313762D01*
X126697893Y-51313764D01*
X126733438Y-51453030D01*
X126733440Y-51453037D01*
X126756863Y-51509583D01*
X127517037Y-50749409D01*
X127534075Y-50812993D01*
X127599901Y-50927007D01*
X127692993Y-51020099D01*
X127807007Y-51085925D01*
X127870590Y-51102962D01*
X127110415Y-51863135D01*
X127110415Y-51863136D01*
X127166954Y-51886556D01*
X127166961Y-51886558D01*
X127195621Y-51896669D01*
X127252294Y-51937534D01*
X127277876Y-52002552D01*
X127264246Y-52071080D01*
X127227256Y-52113924D01*
X127152782Y-52168032D01*
X127008028Y-52312786D01*
X126887715Y-52478386D01*
X126794781Y-52660776D01*
X126731522Y-52855465D01*
X126699500Y-53057648D01*
X126699500Y-53262351D01*
X126731522Y-53464534D01*
X126794781Y-53659223D01*
X126887715Y-53841613D01*
X127008028Y-54007213D01*
X127152786Y-54151971D01*
X127307749Y-54264556D01*
X127318390Y-54272287D01*
X127409840Y-54318883D01*
X127411080Y-54319515D01*
X127461876Y-54367490D01*
X127478671Y-54435311D01*
X127456134Y-54501446D01*
X127411080Y-54540485D01*
X127318386Y-54587715D01*
X127152786Y-54708028D01*
X127008028Y-54852786D01*
X126887715Y-55018386D01*
X126794781Y-55200776D01*
X126731522Y-55395465D01*
X126699500Y-55597648D01*
X126699500Y-55802351D01*
X126731522Y-56004534D01*
X126794781Y-56199223D01*
X126835350Y-56278842D01*
X126883320Y-56372989D01*
X126887715Y-56381613D01*
X127008028Y-56547213D01*
X127152786Y-56691971D01*
X127307749Y-56804556D01*
X127318390Y-56812287D01*
X127409840Y-56858883D01*
X127411080Y-56859515D01*
X127461876Y-56907490D01*
X127478671Y-56975311D01*
X127456134Y-57041446D01*
X127411080Y-57080485D01*
X127318386Y-57127715D01*
X127152786Y-57248028D01*
X127008028Y-57392786D01*
X126887715Y-57558386D01*
X126794781Y-57740776D01*
X126731522Y-57935465D01*
X126699500Y-58137648D01*
X126699500Y-58342351D01*
X126731522Y-58544534D01*
X126794781Y-58739223D01*
X126887715Y-58921613D01*
X127008028Y-59087213D01*
X127152786Y-59231971D01*
X127307749Y-59344556D01*
X127318390Y-59352287D01*
X127409840Y-59398883D01*
X127411080Y-59399515D01*
X127461876Y-59447490D01*
X127478671Y-59515311D01*
X127456134Y-59581446D01*
X127411080Y-59620485D01*
X127318386Y-59667715D01*
X127152786Y-59788028D01*
X127008028Y-59932786D01*
X126887715Y-60098386D01*
X126794781Y-60280776D01*
X126731522Y-60475465D01*
X126699500Y-60677648D01*
X126699500Y-60882351D01*
X126731522Y-61084534D01*
X126794781Y-61279223D01*
X126887715Y-61461613D01*
X127008028Y-61627213D01*
X127152782Y-61771967D01*
X127152787Y-61771971D01*
X127229583Y-61827767D01*
X127272249Y-61883097D01*
X127278228Y-61952710D01*
X127245622Y-62014505D01*
X127187365Y-62048233D01*
X127166967Y-62053439D01*
X127166956Y-62053442D01*
X127110415Y-62076862D01*
X127870590Y-62837037D01*
X127807007Y-62854075D01*
X127692993Y-62919901D01*
X127599901Y-63012993D01*
X127534075Y-63127007D01*
X127517037Y-63190590D01*
X126756862Y-62430415D01*
X126733449Y-62486940D01*
X126715455Y-62537946D01*
X126695000Y-62680219D01*
X126695000Y-63959785D01*
X126697893Y-64013762D01*
X126697893Y-64013764D01*
X126733438Y-64153030D01*
X126733440Y-64153037D01*
X126756863Y-64209583D01*
X127517037Y-63449409D01*
X127534075Y-63512993D01*
X127599901Y-63627007D01*
X127692993Y-63720099D01*
X127807007Y-63785925D01*
X127870590Y-63802962D01*
X127110415Y-64563135D01*
X127110415Y-64563136D01*
X127166954Y-64586556D01*
X127166961Y-64586558D01*
X127195621Y-64596669D01*
X127252294Y-64637534D01*
X127277876Y-64702552D01*
X127264246Y-64771080D01*
X127227256Y-64813924D01*
X127152782Y-64868032D01*
X127008028Y-65012786D01*
X126887715Y-65178386D01*
X126794781Y-65360776D01*
X126731522Y-65555465D01*
X126699500Y-65757648D01*
X126699500Y-65962351D01*
X126731522Y-66164534D01*
X126794781Y-66359223D01*
X126887715Y-66541613D01*
X127008028Y-66707213D01*
X127152786Y-66851971D01*
X127307749Y-66964556D01*
X127318390Y-66972287D01*
X127409840Y-67018883D01*
X127411080Y-67019515D01*
X127461876Y-67067490D01*
X127478671Y-67135311D01*
X127456134Y-67201446D01*
X127411080Y-67240485D01*
X127318386Y-67287715D01*
X127152786Y-67408028D01*
X127008028Y-67552786D01*
X126887715Y-67718386D01*
X126794781Y-67900776D01*
X126731522Y-68095465D01*
X126699500Y-68297648D01*
X126699500Y-68502351D01*
X126731522Y-68704534D01*
X126794781Y-68899223D01*
X126887715Y-69081613D01*
X127008028Y-69247213D01*
X127152786Y-69391971D01*
X127307749Y-69504556D01*
X127318390Y-69512287D01*
X127409840Y-69558883D01*
X127411080Y-69559515D01*
X127461876Y-69607490D01*
X127478671Y-69675311D01*
X127456134Y-69741446D01*
X127411080Y-69780485D01*
X127318386Y-69827715D01*
X127152786Y-69948028D01*
X127008028Y-70092786D01*
X126887715Y-70258386D01*
X126794781Y-70440776D01*
X126731522Y-70635465D01*
X126699500Y-70837648D01*
X126699500Y-71042351D01*
X126731522Y-71244534D01*
X126794781Y-71439223D01*
X126887715Y-71621613D01*
X127008028Y-71787213D01*
X127152786Y-71931971D01*
X127307749Y-72044556D01*
X127318390Y-72052287D01*
X127390559Y-72089059D01*
X127411080Y-72099515D01*
X127461876Y-72147490D01*
X127478671Y-72215311D01*
X127456134Y-72281446D01*
X127411080Y-72320485D01*
X127318386Y-72367715D01*
X127152786Y-72488028D01*
X127008028Y-72632786D01*
X126887715Y-72798386D01*
X126794781Y-72980776D01*
X126731522Y-73175465D01*
X126699500Y-73377648D01*
X126699500Y-73582351D01*
X126731522Y-73784534D01*
X126794781Y-73979223D01*
X126887715Y-74161613D01*
X127008028Y-74327213D01*
X127152782Y-74471967D01*
X127152787Y-74471971D01*
X127229583Y-74527767D01*
X127272249Y-74583097D01*
X127278228Y-74652710D01*
X127245622Y-74714505D01*
X127187365Y-74748233D01*
X127166967Y-74753439D01*
X127166956Y-74753442D01*
X127110415Y-74776862D01*
X127870590Y-75537037D01*
X127807007Y-75554075D01*
X127692993Y-75619901D01*
X127599901Y-75712993D01*
X127534075Y-75827007D01*
X127517037Y-75890590D01*
X126756862Y-75130415D01*
X126733449Y-75186940D01*
X126715455Y-75237946D01*
X126695000Y-75380219D01*
X126695000Y-76659785D01*
X126697893Y-76713762D01*
X126697893Y-76713764D01*
X126733438Y-76853030D01*
X126733440Y-76853037D01*
X126756863Y-76909583D01*
X127517037Y-76149409D01*
X127534075Y-76212993D01*
X127599901Y-76327007D01*
X127692993Y-76420099D01*
X127807007Y-76485925D01*
X127870590Y-76502962D01*
X127110415Y-77263135D01*
X127110415Y-77263136D01*
X127166954Y-77286556D01*
X127166961Y-77286558D01*
X127195621Y-77296669D01*
X127252294Y-77337534D01*
X127277876Y-77402552D01*
X127264246Y-77471080D01*
X127227256Y-77513924D01*
X127152782Y-77568032D01*
X127008028Y-77712786D01*
X126887715Y-77878386D01*
X126794781Y-78060776D01*
X126731522Y-78255465D01*
X126699500Y-78457648D01*
X126699500Y-78662351D01*
X126731522Y-78864534D01*
X126794781Y-79059223D01*
X126887715Y-79241613D01*
X127008028Y-79407213D01*
X127152786Y-79551971D01*
X127307749Y-79664556D01*
X127318390Y-79672287D01*
X127409840Y-79718883D01*
X127411080Y-79719515D01*
X127461876Y-79767490D01*
X127478671Y-79835311D01*
X127456134Y-79901446D01*
X127411080Y-79940485D01*
X127318386Y-79987715D01*
X127152786Y-80108028D01*
X127008028Y-80252786D01*
X126887715Y-80418386D01*
X126794781Y-80600776D01*
X126731522Y-80795465D01*
X126699500Y-80997648D01*
X126699500Y-81202351D01*
X126731522Y-81404534D01*
X126794781Y-81599223D01*
X126887715Y-81781613D01*
X127008028Y-81947213D01*
X127152786Y-82091971D01*
X127307749Y-82204556D01*
X127318390Y-82212287D01*
X127434607Y-82271503D01*
X127500776Y-82305218D01*
X127500778Y-82305218D01*
X127500781Y-82305220D01*
X127605137Y-82339127D01*
X127695465Y-82368477D01*
X127796557Y-82384488D01*
X127897648Y-82400500D01*
X127897649Y-82400500D01*
X128102351Y-82400500D01*
X128102352Y-82400500D01*
X128304534Y-82368477D01*
X128499219Y-82305220D01*
X128681610Y-82212287D01*
X128774590Y-82144732D01*
X128847213Y-82091971D01*
X128847215Y-82091968D01*
X128847219Y-82091966D01*
X128991966Y-81947219D01*
X128991968Y-81947215D01*
X128991971Y-81947213D01*
X129044732Y-81874590D01*
X129112287Y-81781610D01*
X129205220Y-81599219D01*
X129268477Y-81404534D01*
X129300500Y-81202352D01*
X129300500Y-80997648D01*
X129268477Y-80795466D01*
X129205220Y-80600781D01*
X129205218Y-80600778D01*
X129205218Y-80600776D01*
X129168239Y-80528202D01*
X129112287Y-80418390D01*
X129104556Y-80407749D01*
X128991971Y-80252786D01*
X128847213Y-80108028D01*
X128681614Y-79987715D01*
X128675006Y-79984348D01*
X128588917Y-79940483D01*
X128538123Y-79892511D01*
X128521328Y-79824690D01*
X128543865Y-79758555D01*
X128588917Y-79719516D01*
X128681610Y-79672287D01*
X128702770Y-79656913D01*
X128847213Y-79551971D01*
X128847215Y-79551968D01*
X128847219Y-79551966D01*
X128991966Y-79407219D01*
X128991968Y-79407215D01*
X128991971Y-79407213D01*
X129044732Y-79334590D01*
X129112287Y-79241610D01*
X129205220Y-79059219D01*
X129268477Y-78864534D01*
X129300500Y-78662352D01*
X129300500Y-78457648D01*
X129268477Y-78255466D01*
X129205220Y-78060781D01*
X129205218Y-78060778D01*
X129205218Y-78060776D01*
X129171503Y-77994607D01*
X129112287Y-77878390D01*
X129104556Y-77867749D01*
X128991971Y-77712786D01*
X128847213Y-77568028D01*
X128681614Y-77447715D01*
X128673410Y-77443535D01*
X128595703Y-77403941D01*
X128544908Y-77355968D01*
X128528113Y-77288147D01*
X128550650Y-77222012D01*
X128593546Y-77184099D01*
X128659493Y-77148849D01*
X128659511Y-77148838D01*
X128728912Y-77102465D01*
X128129409Y-76502962D01*
X128192993Y-76485925D01*
X128307007Y-76420099D01*
X128400099Y-76327007D01*
X128465925Y-76212993D01*
X128482962Y-76149409D01*
X129082465Y-76748912D01*
X129128838Y-76679511D01*
X129128844Y-76679501D01*
X129175509Y-76592198D01*
X129235814Y-76446612D01*
X129264555Y-76351864D01*
X129295298Y-76197302D01*
X129295298Y-76197299D01*
X129305000Y-76098789D01*
X129305000Y-75941210D01*
X129295298Y-75842700D01*
X129295298Y-75842697D01*
X129264555Y-75688135D01*
X129235814Y-75593387D01*
X129175509Y-75447801D01*
X129128841Y-75360493D01*
X129082465Y-75291086D01*
X129082465Y-75291085D01*
X128482962Y-75890589D01*
X128465925Y-75827007D01*
X128400099Y-75712993D01*
X128307007Y-75619901D01*
X128192993Y-75554075D01*
X128129410Y-75537037D01*
X128728913Y-74937534D01*
X128728912Y-74937533D01*
X128659506Y-74891158D01*
X128593545Y-74855900D01*
X128543701Y-74806937D01*
X128528241Y-74738799D01*
X128552073Y-74673119D01*
X128595702Y-74636059D01*
X128681610Y-74592287D01*
X128772745Y-74526074D01*
X128847213Y-74471971D01*
X128847215Y-74471968D01*
X128847219Y-74471966D01*
X128991966Y-74327219D01*
X128991968Y-74327215D01*
X128991971Y-74327213D01*
X129048259Y-74249738D01*
X129112287Y-74161610D01*
X129205220Y-73979219D01*
X129268477Y-73784534D01*
X129300500Y-73582352D01*
X129300500Y-73377648D01*
X129268477Y-73175465D01*
X129205218Y-72980776D01*
X129171503Y-72914607D01*
X129112287Y-72798390D01*
X129092098Y-72770602D01*
X128991971Y-72632786D01*
X128847213Y-72488028D01*
X128681614Y-72367715D01*
X128675006Y-72364348D01*
X128588917Y-72320483D01*
X128538123Y-72272511D01*
X128521328Y-72204690D01*
X128543865Y-72138555D01*
X128588917Y-72099516D01*
X128681610Y-72052287D01*
X128702770Y-72036913D01*
X128847213Y-71931971D01*
X128847215Y-71931968D01*
X128847219Y-71931966D01*
X128991966Y-71787219D01*
X128991968Y-71787215D01*
X128991971Y-71787213D01*
X129048259Y-71709738D01*
X129112287Y-71621610D01*
X129205220Y-71439219D01*
X129268477Y-71244534D01*
X129300500Y-71042352D01*
X129300500Y-70837648D01*
X129288584Y-70762416D01*
X129268477Y-70635465D01*
X129205218Y-70440776D01*
X129166705Y-70365191D01*
X129112287Y-70258390D01*
X129056267Y-70181284D01*
X128991971Y-70092786D01*
X128847213Y-69948028D01*
X128681614Y-69827715D01*
X128675006Y-69824348D01*
X128588917Y-69780483D01*
X128538123Y-69732511D01*
X128521328Y-69664690D01*
X128543865Y-69598555D01*
X128588917Y-69559516D01*
X128681610Y-69512287D01*
X128702770Y-69496913D01*
X128847213Y-69391971D01*
X128847215Y-69391968D01*
X128847219Y-69391966D01*
X128991966Y-69247219D01*
X128991968Y-69247215D01*
X128991971Y-69247213D01*
X129044732Y-69174590D01*
X129112287Y-69081610D01*
X129205220Y-68899219D01*
X129268477Y-68704534D01*
X129300500Y-68502352D01*
X129300500Y-68297648D01*
X129268477Y-68095466D01*
X129205220Y-67900781D01*
X129205218Y-67900778D01*
X129205218Y-67900776D01*
X129171503Y-67834607D01*
X129112287Y-67718390D01*
X129104556Y-67707749D01*
X128991971Y-67552786D01*
X128847213Y-67408028D01*
X128681614Y-67287715D01*
X128675006Y-67284348D01*
X128588917Y-67240483D01*
X128538123Y-67192511D01*
X128521328Y-67124690D01*
X128543865Y-67058555D01*
X128588917Y-67019516D01*
X128681610Y-66972287D01*
X128702770Y-66956913D01*
X128847213Y-66851971D01*
X128847215Y-66851968D01*
X128847219Y-66851966D01*
X128991966Y-66707219D01*
X128991968Y-66707215D01*
X128991971Y-66707213D01*
X129044732Y-66634590D01*
X129112287Y-66541610D01*
X129205220Y-66359219D01*
X129268477Y-66164534D01*
X129300500Y-65962352D01*
X129300500Y-65757648D01*
X129268477Y-65555466D01*
X129205220Y-65360781D01*
X129205218Y-65360778D01*
X129205218Y-65360776D01*
X129171503Y-65294607D01*
X129112287Y-65178390D01*
X129104556Y-65167749D01*
X128991971Y-65012786D01*
X128847213Y-64868028D01*
X128681614Y-64747715D01*
X128673410Y-64743535D01*
X128595703Y-64703941D01*
X128544908Y-64655968D01*
X128528113Y-64588147D01*
X128550650Y-64522012D01*
X128593546Y-64484099D01*
X128659493Y-64448849D01*
X128659511Y-64448838D01*
X128728912Y-64402465D01*
X128129409Y-63802962D01*
X128192993Y-63785925D01*
X128307007Y-63720099D01*
X128400099Y-63627007D01*
X128465925Y-63512993D01*
X128482962Y-63449409D01*
X129082465Y-64048912D01*
X129128838Y-63979511D01*
X129128844Y-63979501D01*
X129175509Y-63892198D01*
X129235814Y-63746612D01*
X129264555Y-63651864D01*
X129295298Y-63497302D01*
X129295298Y-63497299D01*
X129305000Y-63398789D01*
X129305000Y-63241210D01*
X129295298Y-63142700D01*
X129295298Y-63142697D01*
X129264555Y-62988135D01*
X129235814Y-62893387D01*
X129175509Y-62747801D01*
X129128841Y-62660493D01*
X129082465Y-62591086D01*
X129082465Y-62591085D01*
X128482962Y-63190589D01*
X128465925Y-63127007D01*
X128400099Y-63012993D01*
X128307007Y-62919901D01*
X128192993Y-62854075D01*
X128129410Y-62837037D01*
X128728913Y-62237534D01*
X128728912Y-62237533D01*
X128659506Y-62191158D01*
X128593545Y-62155900D01*
X128543701Y-62106937D01*
X128528241Y-62038799D01*
X128552073Y-61973119D01*
X128595702Y-61936059D01*
X128681610Y-61892287D01*
X128772745Y-61826074D01*
X128847213Y-61771971D01*
X128847215Y-61771968D01*
X128847219Y-61771966D01*
X128991966Y-61627219D01*
X128991968Y-61627215D01*
X128991971Y-61627213D01*
X129044732Y-61554590D01*
X129112287Y-61461610D01*
X129205220Y-61279219D01*
X129268477Y-61084534D01*
X129300500Y-60882352D01*
X129300500Y-60677648D01*
X129268477Y-60475466D01*
X129205220Y-60280781D01*
X129205218Y-60280778D01*
X129205218Y-60280776D01*
X129171503Y-60214607D01*
X129112287Y-60098390D01*
X129104556Y-60087749D01*
X128991971Y-59932786D01*
X128847213Y-59788028D01*
X128681614Y-59667715D01*
X128675006Y-59664348D01*
X128588917Y-59620483D01*
X128538123Y-59572511D01*
X128521328Y-59504690D01*
X128543865Y-59438555D01*
X128588917Y-59399516D01*
X128681610Y-59352287D01*
X128702770Y-59336913D01*
X128847213Y-59231971D01*
X128847215Y-59231968D01*
X128847219Y-59231966D01*
X128991966Y-59087219D01*
X128991968Y-59087215D01*
X128991971Y-59087213D01*
X129044732Y-59014590D01*
X129112287Y-58921610D01*
X129205220Y-58739219D01*
X129268477Y-58544534D01*
X129300500Y-58342352D01*
X129300500Y-58137648D01*
X129268477Y-57935466D01*
X129205220Y-57740781D01*
X129205218Y-57740778D01*
X129205218Y-57740776D01*
X129153892Y-57640045D01*
X129112287Y-57558390D01*
X129099557Y-57540868D01*
X128991971Y-57392786D01*
X128847213Y-57248028D01*
X128681614Y-57127715D01*
X128675006Y-57124348D01*
X128588917Y-57080483D01*
X128538123Y-57032511D01*
X128521328Y-56964690D01*
X128543865Y-56898555D01*
X128588917Y-56859516D01*
X128681610Y-56812287D01*
X128702770Y-56796913D01*
X128847213Y-56691971D01*
X128847215Y-56691968D01*
X128847219Y-56691966D01*
X128991966Y-56547219D01*
X128991968Y-56547215D01*
X128991971Y-56547213D01*
X129112284Y-56381614D01*
X129112285Y-56381613D01*
X129112287Y-56381610D01*
X129119117Y-56368204D01*
X129167091Y-56317409D01*
X129229602Y-56300500D01*
X131202044Y-56300500D01*
X131269083Y-56320185D01*
X131314838Y-56372989D01*
X131323661Y-56400309D01*
X131330261Y-56433489D01*
X131330264Y-56433501D01*
X131390602Y-56579172D01*
X131390609Y-56579185D01*
X131478210Y-56710288D01*
X131478213Y-56710292D01*
X131589707Y-56821786D01*
X131589711Y-56821789D01*
X131720814Y-56909390D01*
X131720827Y-56909397D01*
X131854318Y-56964690D01*
X131866503Y-56969737D01*
X132021153Y-57000499D01*
X132021156Y-57000500D01*
X132021158Y-57000500D01*
X132178844Y-57000500D01*
X132178845Y-57000499D01*
X132333497Y-56969737D01*
X132479179Y-56909394D01*
X132610289Y-56821789D01*
X132721789Y-56710289D01*
X132809394Y-56579179D01*
X132869737Y-56433497D01*
X132900500Y-56278842D01*
X132900500Y-56121158D01*
X132900500Y-56121155D01*
X132900499Y-56121153D01*
X132869738Y-55966510D01*
X132869737Y-55966503D01*
X132869735Y-55966498D01*
X132809397Y-55820827D01*
X132809390Y-55820814D01*
X132721789Y-55689711D01*
X132721786Y-55689707D01*
X132610292Y-55578213D01*
X132610288Y-55578210D01*
X132479185Y-55490609D01*
X132479172Y-55490602D01*
X132333501Y-55430264D01*
X132333491Y-55430261D01*
X132178151Y-55399362D01*
X132161394Y-55390596D01*
X132142916Y-55386577D01*
X132117875Y-55367831D01*
X132116241Y-55366977D01*
X132114664Y-55365428D01*
X132114660Y-55365425D01*
X132080520Y-55331284D01*
X131968717Y-55219481D01*
X131968716Y-55219480D01*
X131881904Y-55169360D01*
X131881904Y-55169359D01*
X131881900Y-55169358D01*
X131831785Y-55140423D01*
X131679057Y-55099499D01*
X131520943Y-55099499D01*
X131513347Y-55099499D01*
X131513331Y-55099500D01*
X129229602Y-55099500D01*
X129162563Y-55079815D01*
X129119117Y-55031795D01*
X129112284Y-55018385D01*
X128991971Y-54852786D01*
X128847213Y-54708028D01*
X128681614Y-54587715D01*
X128675006Y-54584348D01*
X128588917Y-54540483D01*
X128538123Y-54492511D01*
X128521328Y-54424690D01*
X128543865Y-54358555D01*
X128588917Y-54319516D01*
X128681610Y-54272287D01*
X128702770Y-54256913D01*
X128847213Y-54151971D01*
X128847215Y-54151968D01*
X128847219Y-54151966D01*
X128991966Y-54007219D01*
X128991968Y-54007215D01*
X128991971Y-54007213D01*
X129112284Y-53841614D01*
X129112285Y-53841613D01*
X129112287Y-53841610D01*
X129119117Y-53828204D01*
X129167091Y-53777409D01*
X129229602Y-53760500D01*
X130153331Y-53760500D01*
X130153347Y-53760501D01*
X130160943Y-53760501D01*
X130319054Y-53760501D01*
X130319057Y-53760501D01*
X130471785Y-53719577D01*
X130521904Y-53690639D01*
X130608716Y-53640520D01*
X130720520Y-53528716D01*
X130720520Y-53528714D01*
X130730728Y-53518507D01*
X130730729Y-53518504D01*
X135414662Y-48834572D01*
X135475983Y-48801089D01*
X135478150Y-48800638D01*
X135536085Y-48789113D01*
X135633497Y-48769737D01*
X135779179Y-48709394D01*
X135910289Y-48621789D01*
X136021789Y-48510289D01*
X136109394Y-48379179D01*
X136169737Y-48233497D01*
X136200500Y-48078842D01*
X136200500Y-47921158D01*
X136200500Y-47921155D01*
X136200499Y-47921153D01*
X136169737Y-47766503D01*
X136169735Y-47766498D01*
X136109397Y-47620827D01*
X136109390Y-47620814D01*
X136021789Y-47489711D01*
X136021786Y-47489707D01*
X135910292Y-47378213D01*
X135910288Y-47378210D01*
X135779185Y-47290609D01*
X135779172Y-47290602D01*
X135633501Y-47230264D01*
X135633489Y-47230261D01*
X135478845Y-47199500D01*
X135478842Y-47199500D01*
X135321158Y-47199500D01*
X135321155Y-47199500D01*
X135166510Y-47230261D01*
X135166498Y-47230264D01*
X135020827Y-47290602D01*
X135020814Y-47290609D01*
X134889711Y-47378210D01*
X134889707Y-47378213D01*
X134778213Y-47489707D01*
X134778210Y-47489711D01*
X134690609Y-47620814D01*
X134690602Y-47620827D01*
X134630264Y-47766498D01*
X134630261Y-47766508D01*
X134599361Y-47921850D01*
X134566976Y-47983761D01*
X134565425Y-47985339D01*
X130027584Y-52523181D01*
X129966261Y-52556666D01*
X129939903Y-52559500D01*
X129229602Y-52559500D01*
X129162563Y-52539815D01*
X129119117Y-52491795D01*
X129112284Y-52478385D01*
X128991971Y-52312786D01*
X128847213Y-52168028D01*
X128681614Y-52047715D01*
X128630725Y-52021786D01*
X128595703Y-52003941D01*
X128544908Y-51955968D01*
X128528113Y-51888147D01*
X128550650Y-51822012D01*
X128593546Y-51784099D01*
X128659493Y-51748849D01*
X128659511Y-51748838D01*
X128728912Y-51702465D01*
X128129409Y-51102962D01*
X128192993Y-51085925D01*
X128307007Y-51020099D01*
X128400099Y-50927007D01*
X128465925Y-50812993D01*
X128482962Y-50749409D01*
X129082465Y-51348912D01*
X129128838Y-51279511D01*
X129128844Y-51279501D01*
X129175509Y-51192198D01*
X129235814Y-51046612D01*
X129264555Y-50951864D01*
X129295298Y-50797302D01*
X129295298Y-50797299D01*
X129305000Y-50698789D01*
X129305000Y-50541210D01*
X129295298Y-50442700D01*
X129295298Y-50442697D01*
X129264555Y-50288135D01*
X129235814Y-50193387D01*
X129175509Y-50047801D01*
X129128841Y-49960493D01*
X129082465Y-49891086D01*
X129082465Y-49891085D01*
X128482962Y-50490589D01*
X128465925Y-50427007D01*
X128400099Y-50312993D01*
X128307007Y-50219901D01*
X128192993Y-50154075D01*
X128129410Y-50137037D01*
X128728913Y-49537534D01*
X128728912Y-49537533D01*
X128659506Y-49491158D01*
X128593545Y-49455900D01*
X128543701Y-49406937D01*
X128528241Y-49338799D01*
X128552073Y-49273119D01*
X128595702Y-49236059D01*
X128681610Y-49192287D01*
X128772745Y-49126074D01*
X128847213Y-49071971D01*
X128847215Y-49071968D01*
X128847219Y-49071966D01*
X128991966Y-48927219D01*
X128991968Y-48927215D01*
X128991971Y-48927213D01*
X129083604Y-48801089D01*
X129112287Y-48761610D01*
X129205220Y-48579219D01*
X129268477Y-48384534D01*
X129300500Y-48182352D01*
X129300500Y-47977648D01*
X129268477Y-47775466D01*
X129265566Y-47766508D01*
X129218230Y-47620821D01*
X129205220Y-47580781D01*
X129205218Y-47580778D01*
X129205218Y-47580776D01*
X129158815Y-47489707D01*
X129112287Y-47398390D01*
X129097626Y-47378211D01*
X128991971Y-47232786D01*
X128847213Y-47088028D01*
X128681614Y-46967715D01*
X128675006Y-46964348D01*
X128588917Y-46920483D01*
X128538123Y-46872511D01*
X128521328Y-46804690D01*
X128543865Y-46738555D01*
X128588917Y-46699516D01*
X128681610Y-46652287D01*
X128702770Y-46636913D01*
X128847213Y-46531971D01*
X128847215Y-46531968D01*
X128847219Y-46531966D01*
X128991966Y-46387219D01*
X128991968Y-46387215D01*
X128991971Y-46387213D01*
X129044732Y-46314590D01*
X129112287Y-46221610D01*
X129205220Y-46039219D01*
X129268477Y-45844534D01*
X129300500Y-45642352D01*
X129300500Y-45437648D01*
X129268477Y-45235466D01*
X129205220Y-45040781D01*
X129205218Y-45040778D01*
X129205218Y-45040776D01*
X129171503Y-44974607D01*
X129112287Y-44858390D01*
X129079401Y-44813126D01*
X128991971Y-44692786D01*
X128847213Y-44548028D01*
X128681614Y-44427715D01*
X128675006Y-44424348D01*
X128588917Y-44380483D01*
X128538123Y-44332511D01*
X128521328Y-44264690D01*
X128543865Y-44198555D01*
X128588917Y-44159516D01*
X128681610Y-44112287D01*
X128702770Y-44096913D01*
X128847213Y-43991971D01*
X128847215Y-43991968D01*
X128847219Y-43991966D01*
X128991966Y-43847219D01*
X128991968Y-43847215D01*
X128991971Y-43847213D01*
X129044732Y-43774590D01*
X129112287Y-43681610D01*
X129205220Y-43499219D01*
X129268477Y-43304534D01*
X129300500Y-43102352D01*
X129300500Y-42897648D01*
X129268477Y-42695466D01*
X129205220Y-42500781D01*
X129205218Y-42500778D01*
X129205218Y-42500776D01*
X129160870Y-42413739D01*
X129112287Y-42318390D01*
X129104556Y-42307749D01*
X128991971Y-42152786D01*
X128847213Y-42008028D01*
X128681614Y-41887715D01*
X128623481Y-41858095D01*
X128588917Y-41840483D01*
X128538123Y-41792511D01*
X128521328Y-41724690D01*
X128543865Y-41658555D01*
X128588917Y-41619516D01*
X128681610Y-41572287D01*
X128702770Y-41556913D01*
X128847213Y-41451971D01*
X128847215Y-41451968D01*
X128847219Y-41451966D01*
X128991966Y-41307219D01*
X128991968Y-41307215D01*
X128991971Y-41307213D01*
X129044732Y-41234590D01*
X129112287Y-41141610D01*
X129205220Y-40959219D01*
X129268477Y-40764534D01*
X129300500Y-40562352D01*
X129300500Y-40357648D01*
X129268477Y-40155466D01*
X129205220Y-39960781D01*
X129205218Y-39960778D01*
X129205218Y-39960776D01*
X129171503Y-39894607D01*
X129112287Y-39778390D01*
X129104556Y-39767749D01*
X128991971Y-39612786D01*
X128847213Y-39468028D01*
X128681614Y-39347715D01*
X128673410Y-39343535D01*
X128595703Y-39303941D01*
X128544908Y-39255968D01*
X128528113Y-39188147D01*
X128550650Y-39122012D01*
X128593546Y-39084099D01*
X128659493Y-39048849D01*
X128659511Y-39048838D01*
X128728912Y-39002465D01*
X128129409Y-38402962D01*
X128192993Y-38385925D01*
X128307007Y-38320099D01*
X128400099Y-38227007D01*
X128465925Y-38112993D01*
X128482962Y-38049409D01*
X129082465Y-38648912D01*
X129128838Y-38579511D01*
X129128844Y-38579501D01*
X129175509Y-38492198D01*
X129235814Y-38346612D01*
X129264555Y-38251864D01*
X129295298Y-38097302D01*
X129295298Y-38097299D01*
X129305000Y-37998789D01*
X129305000Y-37841210D01*
X129295298Y-37742700D01*
X129295298Y-37742697D01*
X129264555Y-37588135D01*
X129235814Y-37493387D01*
X129175509Y-37347801D01*
X129128841Y-37260493D01*
X129082465Y-37191086D01*
X129082465Y-37191085D01*
X128482962Y-37790589D01*
X128465925Y-37727007D01*
X128400099Y-37612993D01*
X128307007Y-37519901D01*
X128192993Y-37454075D01*
X128129410Y-37437037D01*
X128728913Y-36837534D01*
X128728912Y-36837533D01*
X128659506Y-36791158D01*
X128593545Y-36755900D01*
X128543701Y-36706937D01*
X128528241Y-36638799D01*
X128552073Y-36573119D01*
X128595702Y-36536059D01*
X128681610Y-36492287D01*
X128785828Y-36416569D01*
X128847213Y-36371971D01*
X128847215Y-36371968D01*
X128847219Y-36371966D01*
X128991966Y-36227219D01*
X128991968Y-36227215D01*
X128991971Y-36227213D01*
X129089834Y-36092514D01*
X129112287Y-36061610D01*
X129205220Y-35879219D01*
X129268477Y-35684534D01*
X129300500Y-35482352D01*
X129300500Y-35277648D01*
X129273359Y-35106287D01*
X129268477Y-35075465D01*
X129220289Y-34927160D01*
X129214915Y-34910621D01*
X129209422Y-34893713D01*
X132149500Y-34893713D01*
X132149500Y-35106286D01*
X132169761Y-35234213D01*
X132182754Y-35316243D01*
X132242460Y-35499999D01*
X132248444Y-35518414D01*
X132344951Y-35707820D01*
X132469890Y-35879786D01*
X132620213Y-36030109D01*
X132792179Y-36155048D01*
X132792181Y-36155049D01*
X132792184Y-36155051D01*
X132981588Y-36251557D01*
X133183757Y-36317246D01*
X133393713Y-36350500D01*
X133393714Y-36350500D01*
X133606286Y-36350500D01*
X133606287Y-36350500D01*
X133816243Y-36317246D01*
X134018412Y-36251557D01*
X134207816Y-36155051D01*
X134229789Y-36139086D01*
X134379786Y-36030109D01*
X134379788Y-36030106D01*
X134379792Y-36030104D01*
X134530104Y-35879792D01*
X134530106Y-35879788D01*
X134530109Y-35879786D01*
X134655048Y-35707820D01*
X134655047Y-35707820D01*
X134655051Y-35707816D01*
X134751557Y-35518412D01*
X134817246Y-35316243D01*
X134850500Y-35106287D01*
X134850500Y-34893713D01*
X134817246Y-34683757D01*
X134751557Y-34481588D01*
X134655051Y-34292184D01*
X134655049Y-34292181D01*
X134655048Y-34292179D01*
X134530109Y-34120213D01*
X134379786Y-33969890D01*
X134207820Y-33844951D01*
X134018414Y-33748444D01*
X134018413Y-33748443D01*
X134018412Y-33748443D01*
X133816243Y-33682754D01*
X133816241Y-33682753D01*
X133816240Y-33682753D01*
X133654957Y-33657208D01*
X133606287Y-33649500D01*
X133393713Y-33649500D01*
X133345042Y-33657208D01*
X133183760Y-33682753D01*
X132981585Y-33748444D01*
X132792179Y-33844951D01*
X132620213Y-33969890D01*
X132469890Y-34120213D01*
X132344951Y-34292179D01*
X132248444Y-34481585D01*
X132182753Y-34683760D01*
X132149500Y-34893713D01*
X129209422Y-34893713D01*
X129205220Y-34880781D01*
X129205218Y-34880778D01*
X129205218Y-34880776D01*
X129164542Y-34800946D01*
X129112287Y-34698390D01*
X129055489Y-34620213D01*
X128991971Y-34532786D01*
X128847213Y-34388028D01*
X128681614Y-34267715D01*
X128644695Y-34248904D01*
X128588917Y-34220483D01*
X128538123Y-34172511D01*
X128521328Y-34104690D01*
X128543865Y-34038555D01*
X128588917Y-33999516D01*
X128681610Y-33952287D01*
X128787733Y-33875185D01*
X128847213Y-33831971D01*
X128847215Y-33831968D01*
X128847219Y-33831966D01*
X128991966Y-33687219D01*
X128991968Y-33687215D01*
X128991971Y-33687213D01*
X129079170Y-33567192D01*
X129112287Y-33521610D01*
X129205220Y-33339219D01*
X129268477Y-33144534D01*
X129300500Y-32942352D01*
X129300500Y-32737648D01*
X129268477Y-32535466D01*
X129205220Y-32340781D01*
X129205218Y-32340778D01*
X129205218Y-32340776D01*
X129165170Y-32262179D01*
X129112287Y-32158390D01*
X129087113Y-32123741D01*
X128991971Y-31992786D01*
X128847213Y-31848028D01*
X128815266Y-31824818D01*
X128772600Y-31769489D01*
X128766621Y-31699875D01*
X128799226Y-31638080D01*
X128860065Y-31603723D01*
X128888151Y-31600500D01*
X136276948Y-31600500D01*
X136343987Y-31620185D01*
G37*
%TD.AperFunction*%
%TA.AperFunction,Conductor*%
G36*
X121107753Y-31620185D02*
G01*
X121153508Y-31672989D01*
X121163452Y-31742147D01*
X121134427Y-31805703D01*
X121113599Y-31824818D01*
X120955214Y-31939890D01*
X120955209Y-31939894D01*
X120804890Y-32090213D01*
X120679951Y-32262179D01*
X120583444Y-32451585D01*
X120517753Y-32653760D01*
X120504467Y-32737648D01*
X120484500Y-32863713D01*
X120484500Y-33076287D01*
X120517754Y-33286243D01*
X120534968Y-33339223D01*
X120583444Y-33488414D01*
X120679951Y-33677820D01*
X120804890Y-33849786D01*
X120955213Y-34000109D01*
X121127179Y-34125048D01*
X121127181Y-34125049D01*
X121127184Y-34125051D01*
X121316588Y-34221557D01*
X121518757Y-34287246D01*
X121728713Y-34320500D01*
X121728714Y-34320500D01*
X121941286Y-34320500D01*
X121941287Y-34320500D01*
X122151243Y-34287246D01*
X122353412Y-34221557D01*
X122542816Y-34125051D01*
X122600038Y-34083477D01*
X122714786Y-34000109D01*
X122714788Y-34000106D01*
X122714792Y-34000104D01*
X122865104Y-33849792D01*
X122865106Y-33849788D01*
X122865109Y-33849786D01*
X122990048Y-33677820D01*
X122990047Y-33677820D01*
X122990051Y-33677816D01*
X123086557Y-33488412D01*
X123152246Y-33286243D01*
X123185500Y-33076287D01*
X123185500Y-32863713D01*
X123152246Y-32653757D01*
X123086557Y-32451588D01*
X122990051Y-32262184D01*
X122990049Y-32262181D01*
X122990048Y-32262179D01*
X122865109Y-32090213D01*
X122714790Y-31939894D01*
X122714785Y-31939890D01*
X122556401Y-31824818D01*
X122513735Y-31769489D01*
X122507756Y-31699875D01*
X122540361Y-31638080D01*
X122601200Y-31603723D01*
X122629286Y-31600500D01*
X127111849Y-31600500D01*
X127178888Y-31620185D01*
X127224643Y-31672989D01*
X127234587Y-31742147D01*
X127205562Y-31805703D01*
X127184734Y-31824818D01*
X127152786Y-31848028D01*
X127008028Y-31992786D01*
X126887715Y-32158386D01*
X126794781Y-32340776D01*
X126731522Y-32535465D01*
X126699500Y-32737648D01*
X126699500Y-32942351D01*
X126731522Y-33144534D01*
X126794781Y-33339223D01*
X126858691Y-33464653D01*
X126874976Y-33496613D01*
X126887715Y-33521613D01*
X127008028Y-33687213D01*
X127152786Y-33831971D01*
X127307749Y-33944556D01*
X127318390Y-33952287D01*
X127403139Y-33995469D01*
X127411080Y-33999515D01*
X127461876Y-34047490D01*
X127478671Y-34115311D01*
X127456134Y-34181446D01*
X127411080Y-34220485D01*
X127318386Y-34267715D01*
X127152786Y-34388028D01*
X127008028Y-34532786D01*
X126887715Y-34698386D01*
X126794781Y-34880776D01*
X126731522Y-35075465D01*
X126699500Y-35277648D01*
X126699500Y-35482351D01*
X126731522Y-35684534D01*
X126794781Y-35879223D01*
X126821057Y-35930791D01*
X126871662Y-36030109D01*
X126887715Y-36061613D01*
X127008028Y-36227213D01*
X127152782Y-36371967D01*
X127152787Y-36371971D01*
X127229583Y-36427767D01*
X127272249Y-36483097D01*
X127278228Y-36552710D01*
X127245622Y-36614505D01*
X127187365Y-36648233D01*
X127166967Y-36653439D01*
X127166956Y-36653442D01*
X127110415Y-36676862D01*
X127870590Y-37437037D01*
X127807007Y-37454075D01*
X127692993Y-37519901D01*
X127599901Y-37612993D01*
X127534075Y-37727007D01*
X127517037Y-37790590D01*
X126756862Y-37030415D01*
X126733449Y-37086940D01*
X126715455Y-37137946D01*
X126695000Y-37280219D01*
X126695000Y-38559785D01*
X126697893Y-38613762D01*
X126697893Y-38613764D01*
X126733438Y-38753030D01*
X126733440Y-38753037D01*
X126756863Y-38809583D01*
X127517037Y-38049409D01*
X127534075Y-38112993D01*
X127599901Y-38227007D01*
X127692993Y-38320099D01*
X127807007Y-38385925D01*
X127870590Y-38402962D01*
X127110415Y-39163135D01*
X127110415Y-39163136D01*
X127166954Y-39186556D01*
X127166961Y-39186558D01*
X127195621Y-39196669D01*
X127252294Y-39237534D01*
X127277876Y-39302552D01*
X127264246Y-39371080D01*
X127227256Y-39413924D01*
X127152782Y-39468032D01*
X127008028Y-39612786D01*
X126887715Y-39778386D01*
X126794781Y-39960776D01*
X126731522Y-40155465D01*
X126699500Y-40357648D01*
X126699500Y-40562351D01*
X126731522Y-40764534D01*
X126794781Y-40959223D01*
X126887715Y-41141613D01*
X127008028Y-41307213D01*
X127152786Y-41451971D01*
X127307749Y-41564556D01*
X127318390Y-41572287D01*
X127392971Y-41610288D01*
X127411080Y-41619515D01*
X127461876Y-41667490D01*
X127478671Y-41735311D01*
X127456134Y-41801446D01*
X127411080Y-41840485D01*
X127318386Y-41887715D01*
X127152786Y-42008028D01*
X127008028Y-42152786D01*
X126887715Y-42318386D01*
X126794781Y-42500776D01*
X126731522Y-42695465D01*
X126699500Y-42897648D01*
X126699500Y-43102351D01*
X126731523Y-43304535D01*
X126736172Y-43318845D01*
X126736605Y-43334052D01*
X126741924Y-43348308D01*
X126737582Y-43368269D01*
X126738165Y-43388687D01*
X126730078Y-43402770D01*
X126727075Y-43416581D01*
X126705926Y-43444837D01*
X126686588Y-43464177D01*
X126625266Y-43497665D01*
X126598902Y-43500500D01*
X111595476Y-43500500D01*
X111528437Y-43480815D01*
X111482682Y-43428011D01*
X111472738Y-43358853D01*
X111477545Y-43338183D01*
X111488475Y-43304542D01*
X111488475Y-43304538D01*
X111488477Y-43304534D01*
X111520500Y-43102352D01*
X111520500Y-42897648D01*
X111488477Y-42695466D01*
X111425220Y-42500781D01*
X111425218Y-42500778D01*
X111425218Y-42500776D01*
X111380870Y-42413739D01*
X111332287Y-42318390D01*
X111324556Y-42307749D01*
X111211971Y-42152786D01*
X111067213Y-42008028D01*
X110901614Y-41887715D01*
X110843481Y-41858095D01*
X110808917Y-41840483D01*
X110758123Y-41792511D01*
X110741328Y-41724690D01*
X110763865Y-41658555D01*
X110808917Y-41619516D01*
X110901610Y-41572287D01*
X110922770Y-41556913D01*
X111067213Y-41451971D01*
X111067215Y-41451968D01*
X111067219Y-41451966D01*
X111211966Y-41307219D01*
X111211968Y-41307215D01*
X111211971Y-41307213D01*
X111264732Y-41234590D01*
X111332287Y-41141610D01*
X111425220Y-40959219D01*
X111488477Y-40764534D01*
X111520500Y-40562352D01*
X111520500Y-40357648D01*
X111488477Y-40155466D01*
X111425220Y-39960781D01*
X111425218Y-39960778D01*
X111425218Y-39960776D01*
X111391503Y-39894607D01*
X111332287Y-39778390D01*
X111324556Y-39767749D01*
X111211971Y-39612786D01*
X111067217Y-39468032D01*
X110990415Y-39412232D01*
X110947750Y-39356902D01*
X110941771Y-39287288D01*
X110974377Y-39225494D01*
X111032640Y-39191765D01*
X111053022Y-39186563D01*
X111053035Y-39186559D01*
X111109582Y-39163135D01*
X110349409Y-38402962D01*
X110412993Y-38385925D01*
X110527007Y-38320099D01*
X110620099Y-38227007D01*
X110685925Y-38112993D01*
X110702962Y-38049409D01*
X111463135Y-38809582D01*
X111463137Y-38809582D01*
X111486552Y-38753053D01*
X111504544Y-38702053D01*
X111524999Y-38559780D01*
X111525000Y-38559779D01*
X111525000Y-37280214D01*
X111522106Y-37226237D01*
X111522106Y-37226235D01*
X111486558Y-37086960D01*
X111463136Y-37030415D01*
X111463135Y-37030415D01*
X110702962Y-37790589D01*
X110685925Y-37727007D01*
X110620099Y-37612993D01*
X110527007Y-37519901D01*
X110412993Y-37454075D01*
X110349410Y-37437037D01*
X111109583Y-36676863D01*
X111109583Y-36676862D01*
X111053052Y-36653447D01*
X111053013Y-36653432D01*
X111024375Y-36643329D01*
X110967704Y-36602463D01*
X110942122Y-36537444D01*
X110955754Y-36468917D01*
X110992745Y-36426074D01*
X111067215Y-36371969D01*
X111067215Y-36371968D01*
X111067219Y-36371966D01*
X111211966Y-36227219D01*
X111211968Y-36227215D01*
X111211971Y-36227213D01*
X111309834Y-36092514D01*
X111332287Y-36061610D01*
X111410817Y-35907486D01*
X115509500Y-35907486D01*
X115509500Y-36092514D01*
X115519405Y-36155051D01*
X115538445Y-36275265D01*
X115595619Y-36451232D01*
X115595620Y-36451235D01*
X115667513Y-36592331D01*
X115679622Y-36616096D01*
X115788379Y-36765787D01*
X115919213Y-36896621D01*
X116068904Y-37005378D01*
X116118042Y-37030415D01*
X116233764Y-37089379D01*
X116233767Y-37089380D01*
X116321750Y-37117967D01*
X116409736Y-37146555D01*
X116592486Y-37175500D01*
X116592487Y-37175500D01*
X116777513Y-37175500D01*
X116777514Y-37175500D01*
X116960264Y-37146555D01*
X117136235Y-37089379D01*
X117301096Y-37005378D01*
X117450787Y-36896621D01*
X117581621Y-36765787D01*
X117690378Y-36616096D01*
X117774379Y-36451235D01*
X117831555Y-36275264D01*
X117860500Y-36092514D01*
X117860500Y-35907486D01*
X120359500Y-35907486D01*
X120359500Y-36092514D01*
X120369405Y-36155051D01*
X120388445Y-36275265D01*
X120445619Y-36451232D01*
X120445620Y-36451235D01*
X120517513Y-36592331D01*
X120529622Y-36616096D01*
X120638379Y-36765787D01*
X120769213Y-36896621D01*
X120918904Y-37005378D01*
X120968042Y-37030415D01*
X121083764Y-37089379D01*
X121083767Y-37089380D01*
X121171750Y-37117967D01*
X121259736Y-37146555D01*
X121442486Y-37175500D01*
X121442487Y-37175500D01*
X121627513Y-37175500D01*
X121627514Y-37175500D01*
X121700660Y-37163914D01*
X121767578Y-37153316D01*
X121773847Y-37152322D01*
X121810264Y-37146555D01*
X121986235Y-37089379D01*
X122151096Y-37005378D01*
X122300787Y-36896621D01*
X122431621Y-36765787D01*
X122540378Y-36616096D01*
X122624379Y-36451235D01*
X122681555Y-36275264D01*
X122710500Y-36092514D01*
X122710500Y-35907486D01*
X122681555Y-35724736D01*
X122643056Y-35606246D01*
X122624380Y-35548767D01*
X122624379Y-35548764D01*
X122540377Y-35383903D01*
X122491216Y-35316239D01*
X122431621Y-35234213D01*
X122300787Y-35103379D01*
X122151096Y-34994622D01*
X122125896Y-34981782D01*
X121986235Y-34910620D01*
X121986232Y-34910619D01*
X121810265Y-34853445D01*
X121718889Y-34838972D01*
X121627514Y-34824500D01*
X121442486Y-34824500D01*
X121381569Y-34834148D01*
X121259734Y-34853445D01*
X121083767Y-34910619D01*
X121083764Y-34910620D01*
X120918903Y-34994622D01*
X120858719Y-35038349D01*
X120769213Y-35103379D01*
X120769211Y-35103381D01*
X120769210Y-35103381D01*
X120638381Y-35234210D01*
X120638381Y-35234211D01*
X120638379Y-35234213D01*
X120606822Y-35277648D01*
X120529622Y-35383903D01*
X120445620Y-35548764D01*
X120445619Y-35548767D01*
X120388445Y-35724734D01*
X120366341Y-35864293D01*
X120359500Y-35907486D01*
X117860500Y-35907486D01*
X117831555Y-35724736D01*
X117793056Y-35606246D01*
X117774380Y-35548767D01*
X117774379Y-35548764D01*
X117690377Y-35383903D01*
X117641216Y-35316239D01*
X117581621Y-35234213D01*
X117450787Y-35103379D01*
X117301096Y-34994622D01*
X117275896Y-34981782D01*
X117136235Y-34910620D01*
X117136232Y-34910619D01*
X116960265Y-34853445D01*
X116868889Y-34838972D01*
X116777514Y-34824500D01*
X116592486Y-34824500D01*
X116531569Y-34834148D01*
X116409734Y-34853445D01*
X116233767Y-34910619D01*
X116233764Y-34910620D01*
X116068903Y-34994622D01*
X116008719Y-35038349D01*
X115919213Y-35103379D01*
X115919211Y-35103381D01*
X115919210Y-35103381D01*
X115788381Y-35234210D01*
X115788381Y-35234211D01*
X115788379Y-35234213D01*
X115756822Y-35277648D01*
X115679622Y-35383903D01*
X115595620Y-35548764D01*
X115595619Y-35548767D01*
X115538445Y-35724734D01*
X115516341Y-35864293D01*
X115509500Y-35907486D01*
X111410817Y-35907486D01*
X111425220Y-35879219D01*
X111475415Y-35724736D01*
X111488476Y-35684538D01*
X111488476Y-35684537D01*
X111488477Y-35684534D01*
X111520500Y-35482352D01*
X111520500Y-35277648D01*
X111493359Y-35106287D01*
X111488477Y-35075465D01*
X111440289Y-34927160D01*
X111425220Y-34880781D01*
X111425218Y-34880778D01*
X111425218Y-34880776D01*
X111384542Y-34800946D01*
X111332287Y-34698390D01*
X111275489Y-34620213D01*
X111211971Y-34532786D01*
X111067217Y-34388032D01*
X111067212Y-34388028D01*
X110986440Y-34329344D01*
X110943774Y-34274015D01*
X110937795Y-34204401D01*
X110970400Y-34142606D01*
X111022433Y-34110641D01*
X111109606Y-34083478D01*
X111255185Y-33995472D01*
X111375472Y-33875185D01*
X111463478Y-33729606D01*
X111514086Y-33567196D01*
X111520500Y-33496616D01*
X111520500Y-32183384D01*
X111514086Y-32112804D01*
X111463478Y-31950394D01*
X111399239Y-31844131D01*
X111381404Y-31776579D01*
X111402921Y-31710105D01*
X111456962Y-31665817D01*
X111504573Y-31655986D01*
X115548450Y-31630648D01*
X115615606Y-31649912D01*
X115661690Y-31702428D01*
X115672067Y-31771523D01*
X115643441Y-31835259D01*
X115622107Y-31854963D01*
X115505209Y-31939894D01*
X115354890Y-32090213D01*
X115229951Y-32262179D01*
X115133444Y-32451585D01*
X115067753Y-32653760D01*
X115054467Y-32737648D01*
X115034500Y-32863713D01*
X115034500Y-33076287D01*
X115067754Y-33286243D01*
X115084968Y-33339223D01*
X115133444Y-33488414D01*
X115229951Y-33677820D01*
X115354890Y-33849786D01*
X115505213Y-34000109D01*
X115677179Y-34125048D01*
X115677181Y-34125049D01*
X115677184Y-34125051D01*
X115866588Y-34221557D01*
X116068757Y-34287246D01*
X116278713Y-34320500D01*
X116278714Y-34320500D01*
X116491286Y-34320500D01*
X116491287Y-34320500D01*
X116701243Y-34287246D01*
X116903412Y-34221557D01*
X117092816Y-34125051D01*
X117150038Y-34083477D01*
X117264786Y-34000109D01*
X117264788Y-34000106D01*
X117264792Y-34000104D01*
X117415104Y-33849792D01*
X117415106Y-33849788D01*
X117415109Y-33849786D01*
X117540048Y-33677820D01*
X117540047Y-33677820D01*
X117540051Y-33677816D01*
X117636557Y-33488412D01*
X117702246Y-33286243D01*
X117735500Y-33076287D01*
X117735500Y-32863713D01*
X117702246Y-32653757D01*
X117636557Y-32451588D01*
X117540051Y-32262184D01*
X117540049Y-32262181D01*
X117540048Y-32262179D01*
X117415109Y-32090213D01*
X117264790Y-31939894D01*
X117264785Y-31939890D01*
X117133601Y-31844580D01*
X117090935Y-31789251D01*
X117084956Y-31719637D01*
X117117561Y-31657842D01*
X117178400Y-31623485D01*
X117205700Y-31620265D01*
X120359881Y-31600502D01*
X120360658Y-31600500D01*
X121040714Y-31600500D01*
X121107753Y-31620185D01*
G37*
%TD.AperFunction*%
%TD*%
M02*
