%TF.GenerationSoftware,KiCad,Pcbnew,10.0.3*%
%TF.CreationDate,2026-05-28T20:07:26+10:00*%
%TF.ProjectId,yes_sir_this_is_a_calculator,7965735f-7369-4725-9f74-6869735f6973,rev?*%
%TF.SameCoordinates,Original*%
%TF.FileFunction,Soldermask,Bot*%
%TF.FilePolarity,Negative*%
%FSLAX46Y46*%
G04 Gerber Fmt 4.6, Leading zero omitted, Abs format (unit mm)*
G04 Created by KiCad (PCBNEW 10.0.3) date 2026-05-28 20:07:26*
%MOMM*%
%LPD*%
G01*
G04 APERTURE LIST*
G04 Aperture macros list*
%AMRoundRect*
0 Rectangle with rounded corners*
0 $1 Rounding radius*
0 $2 $3 $4 $5 $6 $7 $8 $9 X,Y pos of 4 corners*
0 Add a 4 corners polygon primitive as box body*
4,1,4,$2,$3,$4,$5,$6,$7,$8,$9,$2,$3,0*
0 Add four circle primitives for the rounded corners*
1,1,$1+$1,$2,$3*
1,1,$1+$1,$4,$5*
1,1,$1+$1,$6,$7*
1,1,$1+$1,$8,$9*
0 Add four rect primitives between the rounded corners*
20,1,$1+$1,$2,$3,$4,$5,0*
20,1,$1+$1,$4,$5,$6,$7,0*
20,1,$1+$1,$6,$7,$8,$9,0*
20,1,$1+$1,$8,$9,$2,$3,0*%
%AMFreePoly0*
4,1,37,0.603843,0.796157,0.639018,0.796157,0.711114,0.766294,0.766294,0.711114,0.796157,0.639018,0.796157,0.603843,0.800000,0.600000,0.800000,-0.600000,0.796157,-0.603843,0.796157,-0.639018,0.766294,-0.711114,0.711114,-0.766294,0.639018,-0.796157,0.603843,-0.796157,0.600000,-0.800000,0.000000,-0.800000,0.000000,-0.796148,-0.078414,-0.796148,-0.232228,-0.765552,-0.377117,-0.705537,
-0.507515,-0.618408,-0.618408,-0.507515,-0.705537,-0.377117,-0.765552,-0.232228,-0.796148,-0.078414,-0.796148,0.078414,-0.765552,0.232228,-0.705537,0.377117,-0.618408,0.507515,-0.507515,0.618408,-0.377117,0.705537,-0.232228,0.765552,-0.078414,0.796148,0.000000,0.796148,0.000000,0.800000,0.600000,0.800000,0.603843,0.796157,0.603843,0.796157,$1*%
%AMFreePoly1*
4,1,37,0.000000,0.796148,0.078414,0.796148,0.232228,0.765552,0.377117,0.705537,0.507515,0.618408,0.618408,0.507515,0.705537,0.377117,0.765552,0.232228,0.796148,0.078414,0.796148,-0.078414,0.765552,-0.232228,0.705537,-0.377117,0.618408,-0.507515,0.507515,-0.618408,0.377117,-0.705537,0.232228,-0.765552,0.078414,-0.796148,0.000000,-0.796148,0.000000,-0.800000,-0.600000,-0.800000,
-0.603843,-0.796157,-0.639018,-0.796157,-0.711114,-0.766294,-0.766294,-0.711114,-0.796157,-0.639018,-0.796157,-0.603843,-0.800000,-0.600000,-0.800000,0.600000,-0.796157,0.603843,-0.796157,0.639018,-0.766294,0.711114,-0.711114,0.766294,-0.639018,0.796157,-0.603843,0.796157,-0.600000,0.800000,0.000000,0.800000,0.000000,0.796148,0.000000,0.796148,$1*%
G04 Aperture macros list end*
%ADD10C,2.000000*%
%ADD11C,2.200000*%
%ADD12C,0.900000*%
%ADD13C,1.850000*%
%ADD14RoundRect,0.200000X-0.600000X-0.600000X0.600000X-0.600000X0.600000X0.600000X-0.600000X0.600000X0*%
%ADD15C,1.600000*%
%ADD16FreePoly0,0.000000*%
%ADD17FreePoly1,0.000000*%
%ADD18R,1.700000X1.700000*%
%ADD19C,1.700000*%
G04 APERTURE END LIST*
D10*
%TO.C,SW25*%
X106050000Y-167450000D03*
X112550000Y-167450000D03*
X106050000Y-171950000D03*
X112550000Y-171950000D03*
%TD*%
%TO.C,SW18*%
X76050000Y-151950000D03*
X82550000Y-151950000D03*
X76050000Y-156450000D03*
X82550000Y-156450000D03*
%TD*%
%TO.C,SW10*%
X106050000Y-122200000D03*
X112550000Y-122200000D03*
X106050000Y-126700000D03*
X112550000Y-126700000D03*
%TD*%
%TO.C,SW6*%
X76050000Y-106950000D03*
X82550000Y-106950000D03*
X76050000Y-111450000D03*
X82550000Y-111450000D03*
%TD*%
D11*
%TO.C,H3*%
X60000000Y-176000000D03*
%TD*%
D10*
%TO.C,SW7*%
X61050000Y-122200000D03*
X67550000Y-122200000D03*
X61050000Y-126700000D03*
X67550000Y-126700000D03*
%TD*%
D11*
%TO.C,H2*%
X133500000Y-35000000D03*
%TD*%
D10*
%TO.C,SW15*%
X106050000Y-137450000D03*
X112550000Y-137450000D03*
X106050000Y-141950000D03*
X112550000Y-141950000D03*
%TD*%
%TO.C,SW4*%
X76050000Y-98350000D03*
X82550000Y-98350000D03*
X76050000Y-102850000D03*
X82550000Y-102850000D03*
%TD*%
%TO.C,SW2*%
X75950000Y-89650000D03*
X82450000Y-89650000D03*
X75950000Y-94150000D03*
X82450000Y-94150000D03*
%TD*%
%TO.C,SW9*%
X91050000Y-122200000D03*
X97550000Y-122200000D03*
X91050000Y-126700000D03*
X97550000Y-126700000D03*
%TD*%
D12*
%TO.C,SW1*%
X115100000Y-88600000D03*
X112100000Y-88600000D03*
%TD*%
D10*
%TO.C,SW20*%
X106050000Y-152450000D03*
X112550000Y-152450000D03*
X106050000Y-156950000D03*
X112550000Y-156950000D03*
%TD*%
D11*
%TO.C,A1*%
X116385000Y-32970000D03*
D13*
X116685000Y-36000000D03*
X121535000Y-36000000D03*
D11*
X121835000Y-32970000D03*
D14*
X110220000Y-32840000D03*
D15*
X110220000Y-35380000D03*
D16*
X110220000Y-37920000D03*
D15*
X110220000Y-40460000D03*
X110220000Y-43000000D03*
X110220000Y-45540000D03*
X110220000Y-48080000D03*
D16*
X110220000Y-50620000D03*
D15*
X110220000Y-53160000D03*
X110220000Y-55700000D03*
X110220000Y-58240000D03*
X110220000Y-60780000D03*
D16*
X110220000Y-63320000D03*
D15*
X110220000Y-65860000D03*
X110220000Y-68400000D03*
X110220000Y-70940000D03*
X110220000Y-73480000D03*
D16*
X110220000Y-76020000D03*
D15*
X110220000Y-78560000D03*
X110220000Y-81100000D03*
X128000000Y-81100000D03*
X128000000Y-78560000D03*
D17*
X128000000Y-76020000D03*
D15*
X128000000Y-73480000D03*
X128000000Y-70940000D03*
X128000000Y-68400000D03*
X128000000Y-65860000D03*
D17*
X128000000Y-63320000D03*
D15*
X128000000Y-60780000D03*
X128000000Y-58240000D03*
X128000000Y-55700000D03*
X128000000Y-53160000D03*
D17*
X128000000Y-50620000D03*
D15*
X128000000Y-48080000D03*
X128000000Y-45540000D03*
X128000000Y-43000000D03*
X128000000Y-40460000D03*
D17*
X128000000Y-37920000D03*
D15*
X128000000Y-35380000D03*
X128000000Y-32840000D03*
%TD*%
D10*
%TO.C,SW16*%
X121050000Y-137450000D03*
X127550000Y-137450000D03*
X121050000Y-141950000D03*
X127550000Y-141950000D03*
%TD*%
%TO.C,SW22*%
X61050000Y-167450000D03*
X67550000Y-167450000D03*
X61050000Y-171950000D03*
X67550000Y-171950000D03*
%TD*%
%TO.C,SW3*%
X63850000Y-98300000D03*
X70350000Y-98300000D03*
X63850000Y-102800000D03*
X70350000Y-102800000D03*
%TD*%
%TO.C,SW11*%
X121050000Y-122200000D03*
X127550000Y-122200000D03*
X121050000Y-126700000D03*
X127550000Y-126700000D03*
%TD*%
D18*
%TO.C,J1*%
X87620000Y-35500000D03*
D19*
X90160000Y-35500000D03*
X92700000Y-35500000D03*
X95240000Y-35500000D03*
%TD*%
D10*
%TO.C,SW8*%
X76050000Y-122200000D03*
X82550000Y-122200000D03*
X76050000Y-126700000D03*
X82550000Y-126700000D03*
%TD*%
%TO.C,SW5*%
X88450000Y-98350000D03*
X94950000Y-98350000D03*
X88450000Y-102850000D03*
X94950000Y-102850000D03*
%TD*%
%TO.C,SW12*%
X61050000Y-137450000D03*
X67550000Y-137450000D03*
X61050000Y-141950000D03*
X67550000Y-141950000D03*
%TD*%
D11*
%TO.C,H4*%
X133500000Y-176000000D03*
%TD*%
D10*
%TO.C,SW19*%
X91050000Y-152450000D03*
X97550000Y-152450000D03*
X91050000Y-156950000D03*
X97550000Y-156950000D03*
%TD*%
%TO.C,SW26*%
X121050000Y-167450000D03*
X127550000Y-167450000D03*
X121050000Y-171950000D03*
X127550000Y-171950000D03*
%TD*%
%TO.C,SW23*%
X76050000Y-167450000D03*
X82550000Y-167450000D03*
X76050000Y-171950000D03*
X82550000Y-171950000D03*
%TD*%
%TO.C,SW17*%
X61050000Y-151950000D03*
X67550000Y-151950000D03*
X61050000Y-156450000D03*
X67550000Y-156450000D03*
%TD*%
%TO.C,SW21*%
X121050000Y-152450000D03*
X127550000Y-152450000D03*
X121050000Y-156950000D03*
X127550000Y-156950000D03*
%TD*%
D11*
%TO.C,H1*%
X60000000Y-35000000D03*
%TD*%
D10*
%TO.C,SW24*%
X91050000Y-167450000D03*
X97550000Y-167450000D03*
X91050000Y-171950000D03*
X97550000Y-171950000D03*
%TD*%
%TO.C,SW13*%
X76050000Y-137450000D03*
X82550000Y-137450000D03*
X76050000Y-141950000D03*
X82550000Y-141950000D03*
%TD*%
%TO.C,SW14*%
X91050000Y-137450000D03*
X97550000Y-137450000D03*
X91050000Y-141950000D03*
X97550000Y-141950000D03*
%TD*%
M02*
